<svg xmlns="http://www.w3.org/2000/svg" xmlns:xlink="http://www.w3.org/1999/xlink" width="120" zoomAndPan="magnify" viewBox="0 0 90 97.5" height="130" preserveAspectRatio="xMidYMid meet" version="1.0"><defs><clipPath id="id1"><path d="M 4 6 L 89.769531 6 L 89.769531 91 L 4 91 Z M 4 6 " clip-rule="nonzero"/></clipPath><clipPath id="id2"><path d="M 4 6 L 89.769531 6 L 89.769531 92 L 4 92 Z M 4 6 " clip-rule="nonzero"/></clipPath></defs><g clip-path="url(#id1)"><path fill="#e2dea5" d="M 89.316406 48.855469 C 89.316406 50.234375 89.25 51.609375 89.113281 52.980469 C 88.976562 54.351562 88.773438 55.714844 88.503906 57.0625 C 88.234375 58.414062 87.898438 59.75 87.496094 61.070312 C 87.097656 62.386719 86.632812 63.683594 86.101562 64.957031 C 85.574219 66.230469 84.980469 67.472656 84.332031 68.6875 C 83.679688 69.902344 82.96875 71.082031 82.199219 72.230469 C 81.433594 73.375 80.609375 74.480469 79.730469 75.542969 C 78.855469 76.609375 77.925781 77.628906 76.949219 78.605469 C 75.972656 79.578125 74.949219 80.5 73.878906 81.375 C 72.808594 82.25 71.699219 83.070312 70.550781 83.835938 C 69.402344 84.601562 68.214844 85.308594 66.996094 85.957031 C 65.777344 86.605469 64.527344 87.195312 63.25 87.722656 C 61.972656 88.25 60.671875 88.714844 59.347656 89.113281 C 58.027344 89.511719 56.6875 89.847656 55.328125 90.117188 C 53.972656 90.386719 52.605469 90.585938 51.230469 90.722656 C 49.855469 90.855469 48.476562 90.925781 47.09375 90.925781 C 45.710938 90.925781 44.328125 90.855469 42.953125 90.722656 C 41.578125 90.585938 40.210938 90.386719 38.855469 90.117188 C 37.5 89.847656 36.160156 89.511719 34.835938 89.113281 C 33.511719 88.714844 32.210938 88.25 30.933594 87.722656 C 29.65625 87.195312 28.40625 86.605469 27.1875 85.957031 C 25.96875 85.308594 24.785156 84.601562 23.632812 83.835938 C 22.484375 83.070312 21.375 82.25 20.304688 81.375 C 19.238281 80.5 18.214844 79.578125 17.234375 78.605469 C 16.257812 77.628906 15.328125 76.609375 14.453125 75.542969 C 13.574219 74.480469 12.753906 73.375 11.984375 72.230469 C 11.214844 71.082031 10.503906 69.902344 9.855469 68.6875 C 9.203125 67.472656 8.613281 66.230469 8.082031 64.957031 C 7.554688 63.683594 7.085938 62.386719 6.6875 61.070312 C 6.285156 59.75 5.949219 58.414062 5.679688 57.0625 C 5.410156 55.714844 5.207031 54.351562 5.070312 52.980469 C 4.9375 51.609375 4.867188 50.234375 4.867188 48.855469 C 4.867188 47.480469 4.9375 46.105469 5.070312 44.734375 C 5.207031 43.363281 5.410156 42 5.679688 40.648438 C 5.949219 39.300781 6.285156 37.964844 6.6875 36.644531 C 7.085938 35.328125 7.554688 34.03125 8.082031 32.757812 C 8.613281 31.484375 9.203125 30.242188 9.855469 29.027344 C 10.503906 27.8125 11.214844 26.632812 11.984375 25.484375 C 12.753906 24.339844 13.574219 23.234375 14.453125 22.171875 C 15.328125 21.105469 16.257812 20.085938 17.234375 19.109375 C 18.214844 18.136719 19.238281 17.210938 20.304688 16.339844 C 21.375 15.464844 22.484375 14.644531 23.632812 13.878906 C 24.785156 13.113281 25.96875 12.40625 27.1875 11.757812 C 28.40625 11.109375 29.65625 10.519531 30.933594 9.992188 C 32.210938 9.464844 33.511719 9 34.835938 8.601562 C 36.160156 8.203125 37.5 7.867188 38.855469 7.597656 C 40.210938 7.328125 41.578125 7.128906 42.953125 6.992188 C 44.328125 6.855469 45.710938 6.789062 47.09375 6.789062 C 48.476562 6.789062 49.855469 6.855469 51.230469 6.992188 C 52.605469 7.128906 53.972656 7.328125 55.328125 7.597656 C 56.6875 7.867188 58.027344 8.203125 59.347656 8.601562 C 60.671875 9 61.972656 9.464844 63.25 9.992188 C 64.527344 10.519531 65.777344 11.109375 66.996094 11.757812 C 68.214844 12.40625 69.402344 13.113281 70.550781 13.878906 C 71.699219 14.644531 72.808594 15.464844 73.878906 16.339844 C 74.949219 17.210938 75.972656 18.136719 76.949219 19.109375 C 77.925781 20.085938 78.855469 21.105469 79.730469 22.171875 C 80.609375 23.234375 81.433594 24.339844 82.199219 25.484375 C 82.96875 26.632812 83.679688 27.8125 84.332031 29.027344 C 84.980469 30.242188 85.574219 31.484375 86.101562 32.757812 C 86.632812 34.03125 87.097656 35.328125 87.496094 36.644531 C 87.898438 37.964844 88.234375 39.300781 88.503906 40.648438 C 88.773438 42 88.976562 43.363281 89.113281 44.734375 C 89.25 46.105469 89.316406 47.480469 89.316406 48.855469 Z M 89.316406 48.855469 " fill-opacity="1" fill-rule="nonzero"/></g><path fill="#f4f2dc" d="M 47.09375 11.183594 C 45.851562 11.183594 44.617188 11.246094 43.382812 11.367188 C 42.152344 11.484375 40.925781 11.667969 39.710938 11.90625 C 38.496094 12.148438 37.296875 12.449219 36.109375 12.804688 C 34.921875 13.164062 33.757812 13.578125 32.613281 14.050781 C 31.46875 14.523438 30.347656 15.050781 29.257812 15.632812 C 28.164062 16.214844 27.101562 16.847656 26.070312 17.53125 C 25.042969 18.21875 24.046875 18.953125 23.089844 19.734375 C 22.132812 20.519531 21.214844 21.347656 20.339844 22.21875 C 19.460938 23.09375 18.628906 24.003906 17.84375 24.960938 C 17.058594 25.914062 16.320312 26.902344 15.632812 27.929688 C 14.945312 28.957031 14.308594 30.015625 13.722656 31.101562 C 13.140625 32.191406 12.609375 33.304688 12.136719 34.445312 C 11.660156 35.585938 11.246094 36.746094 10.882812 37.929688 C 10.523438 39.109375 10.222656 40.304688 9.984375 41.515625 C 9.742188 42.726562 9.558594 43.945312 9.4375 45.175781 C 9.316406 46.402344 9.253906 47.636719 9.253906 48.871094 C 9.253906 50.101562 9.316406 51.335938 9.4375 52.5625 C 9.558594 53.789062 9.738281 55.011719 9.980469 56.222656 C 10.222656 57.429688 10.523438 58.625 10.882812 59.808594 C 11.242188 60.988281 11.660156 62.148438 12.132812 63.289062 C 12.605469 64.429688 13.136719 65.542969 13.71875 66.632812 C 14.304688 67.722656 14.9375 68.777344 15.628906 69.804688 C 16.316406 70.832031 17.050781 71.820312 17.839844 72.777344 C 18.625 73.730469 19.457031 74.644531 20.332031 75.515625 C 21.207031 76.386719 22.125 77.214844 23.082031 78 C 24.039062 78.78125 25.035156 79.515625 26.0625 80.203125 C 27.09375 80.886719 28.15625 81.523438 29.246094 82.105469 C 30.339844 82.6875 31.457031 83.210938 32.601562 83.683594 C 33.746094 84.15625 34.914062 84.574219 36.097656 84.929688 C 37.285156 85.289062 38.484375 85.589844 39.699219 85.828125 C 40.914062 86.070312 42.140625 86.25 43.371094 86.371094 C 44.605469 86.492188 45.839844 86.554688 47.082031 86.554688 C 48.320312 86.554688 49.554688 86.492188 50.789062 86.371094 C 52.023438 86.25 53.246094 86.070312 54.460938 85.828125 C 55.675781 85.585938 56.875 85.289062 58.0625 84.929688 C 59.25 84.570312 60.414062 84.15625 61.558594 83.683594 C 62.703125 83.210938 63.820312 82.683594 64.914062 82.101562 C 66.007812 81.519531 67.066406 80.886719 68.097656 80.199219 C 69.128906 79.511719 70.121094 78.777344 71.082031 77.996094 C 72.039062 77.210938 72.953125 76.382812 73.832031 75.511719 C 74.707031 74.636719 75.539062 73.722656 76.324219 72.769531 C 77.109375 71.816406 77.847656 70.824219 78.535156 69.796875 C 79.222656 68.773438 79.859375 67.714844 80.441406 66.625 C 81.027344 65.535156 81.554688 64.421875 82.027344 63.28125 C 82.503906 62.140625 82.917969 60.980469 83.277344 59.796875 C 83.636719 58.617188 83.9375 57.421875 84.179688 56.210938 C 84.421875 55 84.601562 53.78125 84.722656 52.550781 C 84.84375 51.324219 84.90625 50.089844 84.90625 48.855469 C 84.90625 47.625 84.84375 46.394531 84.722656 45.164062 C 84.601562 43.9375 84.417969 42.71875 84.175781 41.507812 C 83.933594 40.296875 83.632812 39.101562 83.273438 37.921875 C 82.914062 36.742188 82.496094 35.582031 82.023438 34.441406 C 81.550781 33.304688 81.019531 32.1875 80.4375 31.101562 C 79.851562 30.011719 79.214844 28.957031 78.527344 27.929688 C 77.839844 26.90625 77.105469 25.914062 76.316406 24.960938 C 75.53125 24.007812 74.703125 23.09375 73.828125 22.222656 C 72.949219 21.351562 72.035156 20.523438 71.078125 19.738281 C 70.121094 18.957031 69.125 18.222656 68.097656 17.539062 C 67.066406 16.851562 66.007812 16.21875 64.914062 15.636719 C 63.824219 15.054688 62.703125 14.527344 61.558594 14.054688 C 60.417969 13.582031 59.253906 13.167969 58.066406 12.808594 C 56.882812 12.453125 55.683594 12.152344 54.46875 11.910156 C 53.253906 11.667969 52.03125 11.488281 50.796875 11.367188 C 49.566406 11.246094 48.332031 11.183594 47.09375 11.183594 Z M 47.09375 64.066406 C 46.089844 64.066406 45.097656 63.96875 44.113281 63.773438 C 43.128906 63.578125 42.175781 63.292969 41.25 62.910156 C 40.324219 62.527344 39.445312 62.058594 38.609375 61.503906 C 37.777344 60.949219 37.007812 60.316406 36.296875 59.613281 C 35.589844 58.90625 34.957031 58.136719 34.398438 57.308594 C 33.84375 56.476562 33.371094 55.601562 32.988281 54.679688 C 32.605469 53.753906 32.316406 52.804688 32.121094 51.824219 C 31.921875 50.84375 31.824219 49.855469 31.824219 48.855469 C 31.824219 47.859375 31.921875 46.871094 32.121094 45.890625 C 32.316406 44.910156 32.605469 43.960938 32.988281 43.035156 C 33.371094 42.113281 33.84375 41.238281 34.398438 40.40625 C 34.957031 39.578125 35.589844 38.808594 36.296875 38.101562 C 37.007812 37.394531 37.777344 36.765625 38.609375 36.210938 C 39.445312 35.65625 40.324219 35.1875 41.25 34.804688 C 42.175781 34.421875 43.128906 34.136719 44.113281 33.941406 C 45.097656 33.746094 46.089844 33.648438 47.09375 33.648438 C 48.09375 33.648438 49.085938 33.746094 50.070312 33.941406 C 51.054688 34.136719 52.007812 34.421875 52.933594 34.804688 C 53.859375 35.1875 54.738281 35.65625 55.574219 36.210938 C 56.40625 36.765625 57.179688 37.394531 57.886719 38.101562 C 58.59375 38.808594 59.230469 39.578125 59.785156 40.40625 C 60.34375 41.238281 60.8125 42.113281 61.195312 43.035156 C 61.578125 43.960938 61.871094 44.910156 62.066406 45.890625 C 62.261719 46.871094 62.359375 47.859375 62.359375 48.855469 C 62.359375 49.855469 62.261719 50.84375 62.066406 51.824219 C 61.871094 52.804688 61.578125 53.753906 61.195312 54.679688 C 60.8125 55.601562 60.34375 56.476562 59.785156 57.308594 C 59.230469 58.136719 58.59375 58.90625 57.886719 59.613281 C 57.179688 60.316406 56.40625 60.949219 55.574219 61.503906 C 54.738281 62.058594 53.859375 62.527344 52.933594 62.910156 C 52.007812 63.292969 51.054688 63.578125 50.070312 63.773438 C 49.085938 63.96875 48.09375 64.066406 47.09375 64.066406 Z M 47.09375 64.066406 " fill-opacity="1" fill-rule="nonzero"/><g clip-path="url(#id2)"><path fill="#605f4a" d="M 84.054688 27.597656 C 83.628906 26.859375 83.179688 26.136719 82.710938 25.425781 C 82.238281 24.714844 81.746094 24.019531 81.234375 23.339844 C 80.722656 22.65625 80.191406 21.992188 79.636719 21.34375 C 79.085938 20.695312 78.515625 20.0625 77.921875 19.445312 C 77.332031 18.832031 76.722656 18.234375 76.097656 17.65625 C 75.472656 17.078125 74.828125 16.519531 74.167969 15.980469 C 73.507812 15.4375 72.832031 14.917969 72.140625 14.417969 C 71.449219 13.917969 70.742188 13.441406 70.023438 12.984375 C 69.300781 12.527344 68.570312 12.089844 67.820312 11.675781 C 67.074219 11.261719 66.316406 10.871094 65.546875 10.503906 C 64.777344 10.136719 63.996094 9.789062 63.203125 9.46875 C 62.414062 9.148438 61.613281 8.847656 60.804688 8.574219 C 59.996094 8.300781 59.179688 8.050781 58.355469 7.828125 C 57.53125 7.601562 56.703125 7.402344 55.867188 7.226562 C 55.03125 7.050781 54.191406 6.902344 53.34375 6.777344 C 52.5 6.652344 51.652344 6.550781 50.800781 6.476562 C 49.949219 6.402344 49.097656 6.351562 48.242188 6.328125 C 47.390625 6.304688 46.535156 6.308594 45.683594 6.335938 C 44.828125 6.363281 43.976562 6.417969 43.125 6.496094 C 42.273438 6.574219 41.425781 6.679688 40.582031 6.808594 C 39.738281 6.9375 38.898438 7.089844 38.0625 7.269531 C 37.226562 7.449219 36.398438 7.652344 35.578125 7.882812 C 34.753906 8.113281 33.9375 8.367188 33.132812 8.644531 C 32.324219 8.921875 31.523438 9.222656 30.734375 9.546875 C 29.945312 9.875 29.167969 10.222656 28.398438 10.59375 C 27.632812 10.96875 26.875 11.363281 26.128906 11.777344 C 25.386719 12.195312 24.652344 12.636719 23.9375 13.097656 C 23.21875 13.558594 22.515625 14.039062 21.824219 14.542969 C 21.136719 15.046875 20.464844 15.570312 19.804688 16.113281 C 19.148438 16.65625 18.507812 17.21875 17.882812 17.800781 C 17.261719 18.382812 16.65625 18.980469 16.066406 19.601562 C 15.480469 20.21875 14.910156 20.851562 14.363281 21.503906 C 13.8125 22.15625 13.285156 22.824219 12.773438 23.507812 C 12.265625 24.191406 11.777344 24.890625 11.308594 25.601562 C 10.84375 26.316406 10.398438 27.039062 9.976562 27.78125 C 9.550781 28.519531 9.152344 29.269531 8.773438 30.035156 C 8.394531 30.796875 8.039062 31.570312 7.710938 32.355469 C 7.378906 33.140625 7.070312 33.933594 6.785156 34.738281 C 6.503906 35.539062 6.246094 36.351562 6.007812 37.167969 C 5.773438 37.988281 5.566406 38.8125 5.378906 39.640625 C 5.195312 40.472656 5.035156 41.308594 4.898438 42.148438 C 4.765625 42.988281 4.65625 43.832031 4.570312 44.679688 C 4.488281 45.527344 4.429688 46.375 4.398438 47.226562 C 4.363281 48.078125 4.355469 48.929688 4.375 49.777344 C 4.394531 50.628906 4.4375 51.480469 4.507812 52.328125 C 4.578125 53.175781 4.671875 54.019531 4.792969 54.863281 C 4.914062 55.707031 5.058594 56.542969 5.230469 57.378906 C 5.402344 58.210938 5.597656 59.039062 5.820312 59.863281 C 6.039062 60.683594 6.285156 61.5 6.554688 62.308594 C 6.824219 63.113281 7.121094 63.914062 7.4375 64.703125 C 7.757812 65.492188 8.097656 66.273438 8.464844 67.042969 C 8.828125 67.8125 9.214844 68.570312 9.628906 69.316406 C 10.039062 70.0625 10.472656 70.796875 10.925781 71.515625 C 11.378906 72.234375 11.855469 72.941406 12.355469 73.632812 C 12.851562 74.324219 13.371094 75.003906 13.90625 75.664062 C 14.445312 76.324219 15.003906 76.96875 15.582031 77.597656 C 16.160156 78.222656 16.753906 78.832031 17.367188 79.425781 C 17.980469 80.015625 18.613281 80.589844 19.261719 81.144531 C 19.910156 81.699219 20.574219 82.234375 21.253906 82.746094 C 21.933594 83.261719 22.628906 83.757812 23.339844 84.230469 C 24.050781 84.703125 24.773438 85.152344 25.511719 85.582031 C 26.25 86.011719 27 86.417969 27.761719 86.804688 C 28.523438 87.191406 29.296875 87.550781 30.078125 87.890625 C 30.863281 88.226562 31.65625 88.542969 32.460938 88.835938 C 33.261719 89.125 34.074219 89.394531 34.890625 89.636719 C 35.710938 89.878906 36.535156 90.097656 37.367188 90.289062 C 38.199219 90.484375 39.035156 90.652344 39.878906 90.792969 C 40.722656 90.9375 41.566406 91.054688 42.414062 91.148438 C 43.265625 91.242188 44.117188 91.308594 44.96875 91.351562 C 45.824219 91.390625 46.675781 91.410156 47.53125 91.398438 C 48.382812 91.390625 49.238281 91.355469 50.089844 91.296875 C 50.941406 91.234375 51.792969 91.148438 52.640625 91.039062 C 53.484375 90.925781 54.328125 90.789062 55.167969 90.628906 C 56.007812 90.46875 56.839844 90.28125 57.667969 90.070312 C 58.496094 89.859375 59.316406 89.625 60.128906 89.363281 C 60.941406 89.101562 61.746094 88.820312 62.542969 88.511719 C 63.339844 88.203125 64.125 87.871094 64.902344 87.515625 C 65.675781 87.160156 66.441406 86.78125 67.195312 86.378906 C 67.949219 85.976562 68.691406 85.554688 69.417969 85.109375 C 70.144531 84.664062 70.859375 84.195312 71.558594 83.707031 C 72.257812 83.222656 72.945312 82.710938 73.613281 82.183594 C 74.28125 81.652344 74.933594 81.105469 75.570312 80.539062 C 76.207031 79.96875 76.824219 79.382812 77.425781 78.777344 C 78.027344 78.171875 78.609375 77.550781 79.171875 76.910156 C 79.734375 76.269531 80.277344 75.613281 80.804688 74.941406 C 81.328125 74.269531 81.828125 73.582031 82.3125 72.878906 C 82.792969 72.175781 83.253906 71.460938 83.695312 70.730469 C 84.132812 70 84.550781 69.257812 84.945312 68.503906 C 85.339844 67.75 85.710938 66.980469 86.058594 66.203125 C 86.40625 65.429688 86.730469 64.640625 87.03125 63.84375 C 87.335938 63.046875 87.609375 62.242188 87.863281 61.429688 C 88.117188 60.617188 88.34375 59.796875 88.546875 58.96875 C 88.75 58.144531 88.925781 57.3125 89.082031 56.472656 C 89.234375 55.636719 89.359375 54.796875 89.464844 53.949219 C 89.566406 53.105469 89.640625 52.257812 89.695312 51.410156 C 89.746094 50.558594 89.769531 49.707031 89.769531 48.855469 C 89.765625 45.125 89.28125 41.457031 88.3125 37.855469 C 87.34375 34.25 85.925781 30.832031 84.054688 27.597656 Z M 83.277344 69.699219 C 82.859375 70.421875 82.421875 71.128906 81.960938 71.824219 C 81.5 72.519531 81.019531 73.199219 80.519531 73.867188 C 80.019531 74.53125 79.496094 75.183594 78.957031 75.816406 C 78.414062 76.453125 77.855469 77.070312 77.277344 77.671875 C 76.699219 78.273438 76.105469 78.859375 75.492188 79.425781 C 74.878906 79.988281 74.25 80.535156 73.605469 81.066406 C 72.957031 81.59375 72.296875 82.101562 71.621094 82.589844 C 70.945312 83.078125 70.253906 83.546875 69.546875 83.996094 C 68.84375 84.441406 68.125 84.867188 67.394531 85.273438 C 66.664062 85.679688 65.921875 86.0625 65.167969 86.421875 C 64.417969 86.78125 63.652344 87.117188 62.878906 87.433594 C 62.105469 87.746094 61.324219 88.039062 60.53125 88.308594 C 59.738281 88.574219 58.941406 88.820312 58.136719 89.039062 C 57.328125 89.257812 56.515625 89.453125 55.699219 89.625 C 54.882812 89.796875 54.058594 89.945312 53.234375 90.066406 C 52.40625 90.1875 51.578125 90.285156 50.746094 90.359375 C 49.910156 90.433594 49.078125 90.480469 48.242188 90.503906 C 47.40625 90.527344 46.570312 90.523438 45.734375 90.496094 C 44.902344 90.46875 44.066406 90.417969 43.234375 90.339844 C 42.402344 90.265625 41.574219 90.164062 40.746094 90.035156 C 39.921875 89.910156 39.101562 89.757812 38.285156 89.582031 C 37.464844 89.40625 36.65625 89.207031 35.851562 88.984375 C 35.046875 88.761719 34.25 88.511719 33.457031 88.242188 C 32.667969 87.96875 31.886719 87.671875 31.113281 87.355469 C 30.34375 87.035156 29.582031 86.695312 28.828125 86.332031 C 28.078125 85.96875 27.335938 85.582031 26.609375 85.171875 C 25.878906 84.765625 25.164062 84.335938 24.460938 83.886719 C 23.761719 83.433594 23.070312 82.960938 22.398438 82.46875 C 21.722656 81.976562 21.066406 81.464844 20.421875 80.933594 C 19.777344 80.402344 19.152344 79.851562 18.542969 79.285156 C 17.929688 78.714844 17.339844 78.128906 16.765625 77.523438 C 16.1875 76.917969 15.632812 76.296875 15.09375 75.660156 C 14.558594 75.023438 14.039062 74.371094 13.542969 73.703125 C 13.042969 73.03125 12.566406 72.351562 12.109375 71.652344 C 11.652344 70.957031 11.21875 70.246094 10.804688 69.523438 C 10.386719 68.800781 9.996094 68.066406 9.625 67.316406 C 9.257812 66.570312 8.910156 65.8125 8.585938 65.046875 C 8.261719 64.28125 7.960938 63.503906 7.683594 62.71875 C 7.40625 61.933594 7.152344 61.140625 6.921875 60.339844 C 6.691406 59.539062 6.484375 58.730469 6.304688 57.917969 C 6.125 57.105469 5.964844 56.289062 5.835938 55.464844 C 5.703125 54.644531 5.59375 53.820312 5.511719 52.992188 C 5.429688 52.160156 5.375 51.332031 5.339844 50.5 C 5.308594 49.667969 5.300781 48.835938 5.320312 48.003906 C 5.335938 47.171875 5.378906 46.339844 5.449219 45.507812 C 5.515625 44.679688 5.609375 43.851562 5.726562 43.027344 C 5.84375 42.203125 5.988281 41.382812 6.152344 40.566406 C 6.320312 39.753906 6.511719 38.941406 6.730469 38.136719 C 6.945312 37.332031 7.183594 36.535156 7.449219 35.746094 C 7.710938 34.957031 8 34.175781 8.3125 33.402344 C 8.621094 32.628906 8.957031 31.867188 9.3125 31.113281 C 9.667969 30.359375 10.050781 29.617188 10.449219 28.890625 C 10.851562 28.160156 11.277344 27.441406 11.71875 26.734375 C 12.164062 26.03125 12.628906 25.339844 13.117188 24.664062 C 13.601562 23.984375 14.109375 23.324219 14.636719 22.675781 C 15.164062 22.03125 15.707031 21.398438 16.273438 20.785156 C 16.835938 20.171875 17.417969 19.574219 18.019531 18.996094 C 18.617188 18.417969 19.234375 17.855469 19.871094 17.3125 C 20.503906 16.769531 21.152344 16.246094 21.820312 15.742188 C 22.484375 15.238281 23.164062 14.757812 23.859375 14.292969 C 24.554688 13.832031 25.261719 13.390625 25.984375 12.96875 C 26.703125 12.546875 27.4375 12.148438 28.183594 11.773438 C 28.929688 11.394531 29.683594 11.042969 30.449219 10.710938 C 31.21875 10.378906 31.992188 10.070312 32.777344 9.785156 C 33.5625 9.5 34.355469 9.238281 35.15625 9 C 35.957031 8.761719 36.765625 8.546875 37.578125 8.359375 C 38.394531 8.167969 39.210938 8.003906 40.035156 7.863281 C 40.859375 7.722656 41.6875 7.605469 42.515625 7.515625 C 43.347656 7.425781 44.179688 7.359375 45.015625 7.316406 C 45.851562 7.273438 46.683594 7.257812 47.519531 7.265625 C 48.355469 7.277344 49.191406 7.308594 50.023438 7.367188 C 50.859375 7.425781 51.691406 7.507812 52.519531 7.617188 C 53.347656 7.726562 54.171875 7.859375 54.992188 8.015625 C 55.8125 8.171875 56.628906 8.355469 57.4375 8.5625 C 58.246094 8.769531 59.050781 8.996094 59.847656 9.253906 C 60.640625 9.507812 61.429688 9.785156 62.207031 10.085938 C 62.988281 10.386719 63.757812 10.710938 64.515625 11.058594 C 65.277344 11.40625 66.023438 11.773438 66.761719 12.167969 C 67.5 12.558594 68.222656 12.972656 68.9375 13.40625 C 69.648438 13.84375 70.347656 14.300781 71.03125 14.777344 C 71.71875 15.253906 72.386719 15.75 73.042969 16.265625 C 73.699219 16.785156 74.335938 17.320312 74.957031 17.875 C 75.582031 18.429688 76.1875 19.003906 76.773438 19.597656 C 77.363281 20.1875 77.933594 20.796875 78.484375 21.421875 C 79.035156 22.046875 79.566406 22.6875 80.082031 23.347656 C 80.59375 24.003906 81.085938 24.675781 81.558594 25.363281 C 82.03125 26.050781 82.484375 26.75 82.914062 27.464844 C 83.34375 28.179688 83.75 28.902344 84.136719 29.640625 C 84.523438 30.378906 84.886719 31.128906 85.230469 31.890625 C 85.570312 32.648438 85.890625 33.417969 86.183594 34.199219 C 86.480469 34.976562 86.75 35.765625 87 36.558594 C 87.246094 37.355469 87.46875 38.15625 87.667969 38.964844 C 87.867188 39.773438 88.042969 40.585938 88.191406 41.40625 C 88.34375 42.226562 88.46875 43.046875 88.570312 43.875 C 88.671875 44.703125 88.746094 45.53125 88.796875 46.363281 C 88.847656 47.191406 88.875 48.023438 88.875 48.855469 C 88.871094 52.515625 88.394531 56.109375 87.445312 59.644531 C 86.496094 63.175781 85.109375 66.53125 83.277344 69.699219 Z M 80.625 29.574219 C 80.238281 28.90625 79.832031 28.25 79.402344 27.605469 C 78.976562 26.964844 78.53125 26.332031 78.066406 25.714844 C 77.601562 25.101562 77.121094 24.496094 76.617188 23.910156 C 76.117188 23.320312 75.597656 22.75 75.0625 22.191406 C 74.527344 21.632812 73.976562 21.09375 73.410156 20.570312 C 72.839844 20.046875 72.257812 19.539062 71.660156 19.050781 C 71.0625 18.5625 70.449219 18.089844 69.820312 17.636719 C 69.195312 17.183594 68.554688 16.75 67.902344 16.335938 C 67.25 15.921875 66.582031 15.527344 65.90625 15.15625 C 65.230469 14.78125 64.542969 14.425781 63.84375 14.09375 C 63.144531 13.757812 62.4375 13.445312 61.722656 13.15625 C 61.003906 12.863281 60.28125 12.59375 59.546875 12.347656 C 58.8125 12.101562 58.074219 11.875 57.328125 11.671875 C 56.582031 11.46875 55.828125 11.285156 55.070312 11.128906 C 54.3125 10.96875 53.550781 10.832031 52.785156 10.71875 C 52.019531 10.605469 51.25 10.515625 50.480469 10.449219 C 49.707031 10.382812 48.9375 10.339844 48.164062 10.316406 C 47.390625 10.296875 46.613281 10.300781 45.839844 10.324219 C 45.066406 10.351562 44.296875 10.398438 43.523438 10.46875 C 42.753906 10.542969 41.984375 10.636719 41.21875 10.753906 C 40.457031 10.871094 39.695312 11.011719 38.9375 11.175781 C 38.179688 11.335938 37.429688 11.523438 36.683594 11.730469 C 35.9375 11.9375 35.199219 12.167969 34.46875 12.421875 C 33.738281 12.671875 33.015625 12.945312 32.296875 13.242188 C 31.582031 13.539062 30.878906 13.855469 30.183594 14.191406 C 29.484375 14.527344 28.800781 14.886719 28.125 15.265625 C 27.453125 15.644531 26.789062 16.042969 26.136719 16.460938 C 25.488281 16.878906 24.851562 17.316406 24.226562 17.773438 C 23.601562 18.226562 22.992188 18.703125 22.398438 19.195312 C 21.800781 19.6875 21.222656 20.199219 20.65625 20.726562 C 20.089844 21.253906 19.542969 21.796875 19.011719 22.355469 C 18.476562 22.917969 17.964844 23.492188 17.464844 24.082031 C 16.96875 24.675781 16.488281 25.28125 16.027344 25.898438 C 15.566406 26.519531 15.125 27.152344 14.703125 27.796875 C 14.28125 28.445312 13.875 29.101562 13.492188 29.773438 C 13.109375 30.441406 12.746094 31.121094 12.40625 31.816406 C 12.0625 32.507812 11.742188 33.207031 11.441406 33.917969 C 11.140625 34.628906 10.863281 35.347656 10.605469 36.078125 C 10.351562 36.804688 10.117188 37.539062 9.902344 38.28125 C 9.691406 39.023438 9.5 39.769531 9.332031 40.523438 C 9.167969 41.277344 9.023438 42.035156 8.898438 42.796875 C 8.777344 43.558594 8.679688 44.320312 8.605469 45.089844 C 8.527344 45.855469 8.476562 46.625 8.445312 47.394531 C 8.417969 48.167969 8.410156 48.9375 8.429688 49.710938 C 8.445312 50.480469 8.484375 51.25 8.546875 52.019531 C 8.613281 52.789062 8.699219 53.554688 8.808594 54.316406 C 8.917969 55.082031 9.050781 55.839844 9.207031 56.59375 C 9.359375 57.351562 9.539062 58.101562 9.738281 58.847656 C 9.941406 59.589844 10.164062 60.328125 10.40625 61.0625 C 10.652344 61.792969 10.921875 62.515625 11.207031 63.230469 C 11.496094 63.949219 11.808594 64.652344 12.136719 65.351562 C 12.46875 66.046875 12.820312 66.734375 13.195312 67.410156 C 13.566406 68.085938 13.960938 68.75 14.371094 69.402344 C 14.785156 70.058594 15.214844 70.695312 15.667969 71.324219 C 16.117188 71.949219 16.585938 72.5625 17.074219 73.160156 C 17.5625 73.761719 18.070312 74.34375 18.59375 74.914062 C 19.117188 75.480469 19.65625 76.035156 20.210938 76.570312 C 20.769531 77.105469 21.339844 77.625 21.929688 78.128906 C 22.515625 78.628906 23.117188 79.113281 23.734375 79.578125 C 24.351562 80.046875 24.980469 80.492188 25.625 80.921875 C 26.269531 81.347656 26.925781 81.757812 27.59375 82.148438 C 28.261719 82.535156 28.941406 82.90625 29.632812 83.253906 C 30.324219 83.601562 31.023438 83.929688 31.734375 84.234375 C 32.445312 84.542969 33.164062 84.828125 33.890625 85.089844 C 34.617188 85.355469 35.351562 85.597656 36.09375 85.816406 C 36.835938 86.035156 37.585938 86.234375 38.339844 86.40625 C 39.09375 86.582031 39.851562 86.734375 40.617188 86.863281 C 41.378906 86.992188 42.144531 87.101562 42.914062 87.183594 C 43.683594 87.269531 44.457031 87.328125 45.226562 87.367188 C 46 87.402344 46.773438 87.417969 47.550781 87.410156 C 48.324219 87.402344 49.097656 87.371094 49.867188 87.3125 C 50.640625 87.257812 51.410156 87.179688 52.179688 87.082031 C 52.945312 86.980469 53.710938 86.855469 54.46875 86.710938 C 55.230469 86.5625 55.984375 86.394531 56.734375 86.203125 C 57.484375 86.011719 58.226562 85.796875 58.964844 85.558594 C 59.703125 85.324219 60.429688 85.066406 61.152344 84.785156 C 61.875 84.507812 62.585938 84.207031 63.289062 83.882812 C 63.992188 83.5625 64.6875 83.21875 65.367188 82.855469 C 66.050781 82.492188 66.722656 82.105469 67.382812 81.703125 C 68.039062 81.296875 68.6875 80.875 69.320312 80.433594 C 69.957031 79.992188 70.574219 79.527344 71.183594 79.050781 C 71.789062 78.570312 72.378906 78.074219 72.957031 77.558594 C 73.53125 77.042969 74.09375 76.511719 74.636719 75.960938 C 75.179688 75.414062 75.707031 74.847656 76.21875 74.269531 C 76.726562 73.6875 77.222656 73.09375 77.695312 72.484375 C 78.167969 71.875 78.625 71.253906 79.0625 70.617188 C 79.5 69.980469 79.917969 69.328125 80.3125 68.667969 C 80.710938 68.007812 81.089844 67.332031 81.445312 66.648438 C 81.804688 65.964844 82.140625 65.269531 82.457031 64.566406 C 82.769531 63.863281 83.066406 63.148438 83.335938 62.425781 C 83.609375 61.707031 83.859375 60.976562 84.089844 60.238281 C 84.316406 59.503906 84.523438 58.757812 84.707031 58.007812 C 84.890625 57.261719 85.050781 56.507812 85.191406 55.746094 C 85.328125 54.988281 85.445312 54.226562 85.535156 53.460938 C 85.628906 52.695312 85.699219 51.925781 85.746094 51.15625 C 85.789062 50.386719 85.8125 49.617188 85.8125 48.84375 C 85.8125 45.460938 85.371094 42.136719 84.492188 38.871094 C 83.609375 35.601562 82.324219 32.503906 80.625 29.574219 Z M 84.90625 48.40625 L 63.160156 48.40625 C 63.085938 45.871094 62.4375 43.488281 61.222656 41.257812 L 78.855469 31.109375 L 80.050781 30.421875 C 81.605469 33.167969 82.796875 36.0625 83.617188 39.105469 C 84.441406 42.152344 84.867188 45.25 84.90625 48.40625 Z M 60.230469 56.410156 C 58.890625 58.757812 57.039062 60.597656 54.683594 61.933594 C 53.527344 62.589844 52.304688 63.085938 51.019531 63.421875 C 49.730469 63.761719 48.421875 63.929688 47.09375 63.929688 C 45.761719 63.929688 44.453125 63.761719 43.167969 63.421875 C 41.878906 63.085938 40.65625 62.589844 39.5 61.933594 C 37.140625 60.597656 35.289062 58.75 33.953125 56.398438 C 33.621094 55.824219 33.328125 55.234375 33.074219 54.621094 C 32.820312 54.011719 32.609375 53.386719 32.4375 52.75 C 32.265625 52.109375 32.136719 51.464844 32.050781 50.808594 C 31.964844 50.152344 31.921875 49.496094 31.921875 48.832031 C 31.921875 48.171875 31.964844 47.515625 32.050781 46.859375 C 32.136719 46.203125 32.269531 45.558594 32.4375 44.917969 C 32.609375 44.28125 32.824219 43.65625 33.078125 43.046875 C 33.332031 42.4375 33.625 41.84375 33.957031 41.273438 C 34.289062 40.699219 34.65625 40.152344 35.058594 39.628906 C 35.464844 39.101562 35.898438 38.605469 36.371094 38.140625 C 36.839844 37.671875 37.335938 37.238281 37.863281 36.835938 C 38.390625 36.433594 38.9375 36.066406 39.511719 35.738281 C 40.089844 35.40625 40.683594 35.113281 41.292969 34.863281 C 41.90625 34.609375 42.535156 34.398438 43.175781 34.226562 C 43.816406 34.054688 44.464844 33.925781 45.121094 33.839844 C 45.78125 33.753906 46.441406 33.710938 47.105469 33.710938 C 47.765625 33.710938 48.429688 33.753906 49.085938 33.839844 C 49.742188 33.925781 50.390625 34.054688 51.03125 34.226562 C 51.675781 34.398438 52.300781 34.609375 52.914062 34.863281 C 53.527344 35.113281 54.121094 35.40625 54.695312 35.738281 C 55.269531 36.066406 55.820312 36.433594 56.34375 36.835938 C 56.871094 37.238281 57.371094 37.671875 57.839844 38.140625 C 58.308594 38.605469 58.746094 39.101562 59.148438 39.628906 C 59.550781 40.152344 59.917969 40.699219 60.25 41.273438 C 60.582031 41.84375 60.875 42.4375 61.128906 43.046875 C 61.382812 43.65625 61.597656 44.28125 61.769531 44.917969 C 61.941406 45.558594 62.070312 46.203125 62.15625 46.859375 C 62.242188 47.515625 62.285156 48.171875 62.285156 48.832031 C 62.285156 49.496094 62.242188 50.152344 62.15625 50.808594 C 62.070312 51.464844 61.941406 52.109375 61.769531 52.75 C 61.597656 53.386719 61.386719 54.011719 61.132812 54.621094 C 60.878906 55.234375 60.585938 55.824219 60.253906 56.398438 Z M 39.464844 62.933594 C 41.699219 64.152344 44.089844 64.789062 46.636719 64.851562 L 46.636719 86.519531 C 43.472656 86.492188 40.363281 86.074219 37.304688 85.269531 C 34.246094 84.460938 31.335938 83.289062 28.574219 81.753906 Z M 47.546875 64.851562 C 50.089844 64.785156 52.480469 64.148438 54.71875 62.933594 L 65.621094 81.707031 C 62.859375 83.242188 59.949219 84.414062 56.890625 85.21875 C 53.832031 86.027344 50.722656 86.445312 47.558594 86.46875 Z M 54.71875 34.792969 C 52.480469 33.59375 50.085938 32.960938 47.546875 32.898438 L 47.546875 11.183594 C 50.714844 11.21875 53.828125 11.644531 56.890625 12.460938 C 59.949219 13.277344 62.859375 14.460938 65.621094 16.007812 Z M 46.648438 32.898438 C 44.109375 32.960938 41.71875 33.59375 39.476562 34.792969 L 29.28125 17.222656 L 28.585938 16.03125 C 31.347656 14.496094 34.257812 13.324219 37.316406 12.515625 C 40.375 11.710938 43.484375 11.292969 46.648438 11.269531 Z M 79.621094 29.644531 L 60.757812 40.484375 C 59.429688 38.316406 57.679688 36.5625 55.507812 35.230469 L 65.695312 17.664062 L 66.375 16.472656 C 69.101562 18.078125 71.585938 20 73.832031 22.230469 C 76.074219 24.457031 78.003906 26.929688 79.621094 29.644531 Z M 27.808594 16.460938 L 38.675781 35.230469 C 36.5 36.5625 34.75 38.3125 33.429688 40.484375 L 15.78125 30.394531 L 14.585938 29.707031 C 16.195312 26.976562 18.117188 24.492188 20.359375 22.25 C 22.597656 20.007812 25.082031 18.078125 27.808594 16.460938 Z M 14.121094 30.394531 L 32.960938 41.222656 C 31.738281 43.449219 31.09375 45.832031 31.023438 48.367188 L 9.28125 48.367188 C 9.316406 45.21875 9.742188 42.121094 10.5625 39.078125 C 11.382812 36.035156 12.570312 33.140625 14.121094 30.394531 Z M 9.339844 49.273438 L 31.023438 49.273438 C 31.101562 51.808594 31.746094 54.191406 32.960938 56.421875 L 15.339844 66.605469 L 14.144531 67.292969 C 12.589844 64.546875 11.398438 61.648438 10.574219 58.601562 C 9.75 55.554688 9.320312 52.453125 9.28125 49.296875 Z M 14.625 68.046875 L 33.488281 57.21875 C 34.808594 59.394531 36.5625 61.144531 38.746094 62.460938 L 28.5625 80.050781 L 27.855469 81.242188 C 25.121094 79.636719 22.628906 77.71875 20.378906 75.488281 C 18.125 73.257812 16.1875 70.785156 14.5625 68.070312 Z M 66.386719 81.253906 L 55.496094 62.484375 C 57.675781 61.160156 59.429688 59.414062 60.757812 57.242188 L 78.414062 67.378906 L 79.609375 68.070312 C 77.996094 70.785156 76.066406 73.257812 73.828125 75.488281 C 71.589844 77.722656 69.109375 79.640625 66.386719 81.253906 Z M 80.0625 67.320312 L 61.222656 56.46875 C 62.4375 54.238281 63.082031 51.855469 63.160156 49.320312 L 84.90625 49.320312 C 84.867188 52.476562 84.441406 55.578125 83.621094 58.625 C 82.800781 61.671875 81.613281 64.570312 80.0625 67.320312 Z M 34.957031 23.367188 C 35.046875 23.089844 35.160156 22.820312 35.292969 22.558594 C 35.617188 21.941406 35.972656 21.617188 36.367188 21.617188 C 36.761719 21.617188 37.132812 22.011719 37.445312 22.378906 C 37.753906 22.75 38.066406 23.132812 38.425781 23.132812 C 38.785156 23.132812 39.082031 22.773438 39.382812 22.429688 C 39.679688 22.082031 40.074219 21.617188 40.578125 21.617188 C 41.078125 21.617188 41.234375 21.929688 41.570312 22.296875 C 41.902344 22.667969 42.320312 23.082031 42.703125 23.082031 C 43.085938 23.082031 43.636719 22.261719 43.792969 21.890625 C 43.820312 21.800781 43.875 21.738281 43.960938 21.703125 C 44.042969 21.671875 44.128906 21.671875 44.210938 21.703125 C 44.292969 21.734375 44.359375 21.789062 44.402344 21.867188 C 44.425781 21.945312 44.425781 22.019531 44.402344 22.09375 C 44.296875 22.367188 44.164062 22.625 43.996094 22.867188 C 43.871094 23.117188 43.695312 23.316406 43.464844 23.472656 C 43.234375 23.625 42.980469 23.714844 42.703125 23.738281 C 42.023438 23.640625 41.484375 23.308594 41.089844 22.75 C 40.9375 22.566406 40.761719 22.40625 40.566406 22.273438 C 40.386719 22.273438 40.132812 22.558594 39.894531 22.832031 C 39.554688 23.382812 39.066406 23.699219 38.425781 23.785156 C 37.769531 23.695312 37.269531 23.367188 36.929688 22.796875 C 36.75 22.582031 36.5 22.273438 36.367188 22.273438 C 36.238281 22.273438 35.792969 22.90625 35.605469 23.558594 C 35.546875 23.710938 35.441406 23.785156 35.28125 23.785156 L 35.183594 23.785156 C 35.09375 23.761719 35.027344 23.707031 34.984375 23.625 C 34.941406 23.542969 34.929688 23.457031 34.957031 23.367188 Z M 34.957031 21.308594 C 34.914062 21.226562 34.914062 21.140625 34.957031 21.058594 C 35.042969 20.78125 35.152344 20.507812 35.28125 20.25 C 35.597656 19.628906 35.957031 19.320312 36.355469 19.320312 C 36.800781 19.320312 37.109375 19.699219 37.421875 20.070312 C 37.730469 20.4375 38.042969 20.832031 38.414062 20.832031 C 38.785156 20.832031 39.070312 20.464844 39.382812 20.117188 C 39.691406 19.773438 40.0625 19.320312 40.578125 19.320312 C 41.089844 19.320312 41.234375 19.628906 41.582031 19.988281 C 41.925781 20.34375 42.320312 20.785156 42.703125 20.785156 C 43.085938 20.785156 43.636719 19.949219 43.792969 19.59375 C 43.832031 19.515625 43.894531 19.460938 43.980469 19.429688 C 44.0625 19.398438 44.148438 19.402344 44.230469 19.441406 C 44.3125 19.476562 44.367188 19.535156 44.402344 19.617188 C 44.433594 19.703125 44.433594 19.785156 44.402344 19.867188 C 44.285156 20.140625 44.148438 20.402344 43.984375 20.652344 C 43.859375 20.902344 43.683594 21.101562 43.453125 21.257812 C 43.222656 21.410156 42.96875 21.5 42.691406 21.523438 C 42.011719 21.425781 41.472656 21.09375 41.078125 20.535156 C 40.949219 20.378906 40.648438 20.070312 40.554688 20.058594 C 40.457031 20.046875 40.121094 20.34375 39.882812 20.617188 C 39.542969 21.164062 39.054688 21.484375 38.414062 21.570312 C 37.742188 21.570312 37.300781 21.046875 36.917969 20.582031 C 36.75 20.367188 36.488281 20.058594 36.355469 20.058594 C 36.226562 20.058594 35.78125 20.675781 35.578125 21.332031 C 35.53125 21.484375 35.429688 21.558594 35.269531 21.558594 L 35.171875 21.558594 C 35.0625 21.511719 35.003906 21.429688 34.992188 21.308594 Z M 14.457031 40.128906 C 14.464844 39.871094 14.523438 39.628906 14.632812 39.398438 C 14.742188 39.167969 14.890625 38.964844 15.082031 38.792969 C 15.269531 38.625 15.488281 38.496094 15.730469 38.414062 C 15.972656 38.332031 16.21875 38.296875 16.476562 38.316406 C 17 38.347656 17.480469 38.511719 17.910156 38.8125 C 18.339844 39.113281 18.660156 39.503906 18.867188 39.984375 C 19.289062 40.816406 19.574219 41.695312 19.714844 42.617188 C 19.863281 41.691406 20.148438 40.816406 20.578125 39.984375 C 20.78125 39.5 21.097656 39.109375 21.53125 38.804688 C 21.960938 38.503906 22.441406 38.34375 22.96875 38.316406 C 23.222656 38.296875 23.472656 38.332031 23.714844 38.414062 C 23.957031 38.496094 24.171875 38.625 24.363281 38.792969 C 24.554688 38.964844 24.703125 39.167969 24.8125 39.398438 C 24.921875 39.628906 24.980469 39.871094 24.988281 40.128906 C 25.039062 40.742188 24.828125 41.246094 24.355469 41.640625 C 23.738281 42.015625 23.082031 42.09375 22.394531 41.878906 C 22.300781 41.84375 22.230469 41.78125 22.191406 41.6875 C 22.160156 41.605469 22.160156 41.519531 22.191406 41.4375 C 22.261719 41.28125 22.378906 41.21875 22.550781 41.246094 C 23.054688 41.433594 23.542969 41.390625 24.007812 41.117188 C 24.300781 40.847656 24.425781 40.519531 24.390625 40.128906 C 24.390625 39.953125 24.355469 39.789062 24.285156 39.628906 C 24.214844 39.472656 24.113281 39.335938 23.984375 39.21875 C 23.851562 39.105469 23.703125 39.023438 23.535156 38.972656 C 23.371094 38.925781 23.199219 38.910156 23.027344 38.9375 C 22.511719 38.941406 22.082031 39.128906 21.734375 39.507812 C 20.984375 40.246094 20.085938 42.128906 20.085938 46.855469 C 20.082031 47.058594 19.976562 47.167969 19.777344 47.191406 C 19.6875 47.183594 19.613281 47.148438 19.550781 47.085938 C 19.488281 47.019531 19.457031 46.945312 19.453125 46.855469 C 19.453125 39.960938 17.613281 38.9375 16.511719 38.9375 C 16.339844 38.910156 16.167969 38.925781 16.003906 38.972656 C 15.835938 39.023438 15.6875 39.105469 15.554688 39.21875 C 15.425781 39.335938 15.324219 39.472656 15.253906 39.628906 C 15.183594 39.789062 15.148438 39.953125 15.148438 40.128906 C 15.113281 40.519531 15.238281 40.847656 15.53125 41.117188 C 15.96875 41.355469 16.421875 41.398438 16.894531 41.246094 C 16.972656 41.214844 17.054688 41.214844 17.132812 41.246094 C 17.21875 41.292969 17.273438 41.359375 17.300781 41.449219 C 17.332031 41.53125 17.332031 41.617188 17.300781 41.699219 C 17.253906 41.777344 17.183594 41.828125 17.097656 41.855469 C 16.410156 42.0625 15.753906 41.980469 15.136719 41.617188 C 14.652344 41.238281 14.425781 40.742188 14.457031 40.128906 Z M 42.359375 74.296875 C 41.730469 74.296875 41.195312 74.519531 40.757812 74.964844 C 40.304688 75.402344 40.085938 75.933594 40.097656 76.5625 C 40.097656 77.015625 40.226562 77.4375 40.480469 77.816406 C 40.734375 78.195312 41.074219 78.472656 41.496094 78.644531 C 41.3125 78.695312 41.125 78.734375 40.933594 78.765625 C 40.089844 78.917969 39.25 78.890625 38.414062 78.683594 C 37.582031 78.476562 36.828125 78.105469 36.152344 77.574219 C 36.085938 77.511719 36.007812 77.484375 35.921875 77.484375 C 35.832031 77.484375 35.753906 77.511719 35.6875 77.574219 C 35.625 77.644531 35.601562 77.730469 35.617188 77.824219 C 35.625 77.910156 35.664062 77.984375 35.734375 78.039062 C 36.949219 79.011719 38.335938 79.5 39.894531 79.503906 C 40.296875 79.503906 40.695312 79.472656 41.089844 79.40625 C 41.945312 79.265625 42.742188 78.964844 43.480469 78.515625 C 43.910156 78.265625 44.226562 77.914062 44.421875 77.457031 C 44.617188 77.003906 44.660156 76.535156 44.546875 76.050781 C 44.429688 75.570312 44.183594 75.167969 43.804688 74.847656 C 43.425781 74.527344 42.984375 74.351562 42.488281 74.320312 Z M 43.960938 76.5625 C 43.957031 76.773438 43.917969 76.976562 43.832031 77.167969 C 43.75 77.363281 43.632812 77.535156 43.484375 77.683594 C 43.332031 77.832031 43.160156 77.945312 42.960938 78.027344 C 42.765625 78.105469 42.5625 78.144531 42.351562 78.144531 C 42.136719 78.144531 41.933594 78.101562 41.738281 78.019531 C 41.542969 77.9375 41.371094 77.824219 41.222656 77.671875 C 41.070312 77.523438 40.957031 77.351562 40.875 77.15625 C 40.796875 76.960938 40.753906 76.757812 40.757812 76.546875 C 40.757812 76.332031 40.796875 76.128906 40.878906 75.933594 C 40.960938 75.742188 41.078125 75.566406 41.226562 75.417969 C 41.375 75.269531 41.550781 75.15625 41.746094 75.074219 C 41.941406 74.992188 42.144531 74.953125 42.359375 74.953125 C 42.570312 74.953125 42.777344 74.996094 42.972656 75.078125 C 43.167969 75.160156 43.339844 75.277344 43.492188 75.429688 C 43.640625 75.578125 43.757812 75.753906 43.839844 75.949219 C 43.917969 76.144531 43.960938 76.347656 43.960938 76.5625 Z M 35.066406 76.046875 C 35.214844 76.308594 35.410156 76.527344 35.648438 76.710938 C 35.886719 76.894531 36.148438 77.023438 36.4375 77.101562 C 36.730469 77.179688 37.023438 77.199219 37.320312 77.160156 C 37.617188 77.121094 37.894531 77.027344 38.15625 76.878906 C 38.417969 76.726562 38.636719 76.535156 38.820312 76.296875 C 39.003906 76.0625 39.132812 75.796875 39.210938 75.507812 C 39.289062 75.21875 39.308594 74.925781 39.269531 74.632812 C 39.230469 74.335938 39.136719 74.058594 38.988281 73.796875 C 38.730469 73.351562 38.367188 73.035156 37.886719 72.84375 C 38.066406 72.789062 38.25 72.746094 38.4375 72.714844 C 39.28125 72.558594 40.121094 72.585938 40.957031 72.796875 C 41.789062 73.003906 42.542969 73.371094 43.21875 73.90625 C 43.289062 73.964844 43.367188 73.988281 43.457031 73.976562 C 43.550781 73.96875 43.625 73.933594 43.683594 73.863281 C 43.742188 73.789062 43.765625 73.710938 43.757812 73.617188 C 43.75 73.527344 43.710938 73.449219 43.636719 73.394531 L 43.636719 73.320312 C 43.09375 72.894531 42.496094 72.554688 41.847656 72.308594 C 41.199219 72.066406 40.527344 71.921875 39.835938 71.882812 C 39.144531 71.839844 38.460938 71.90625 37.785156 72.074219 C 37.113281 72.242188 36.480469 72.507812 35.890625 72.867188 C 35.617188 73.019531 35.382812 73.214844 35.191406 73.460938 C 35 73.707031 34.863281 73.980469 34.785156 74.28125 C 34.707031 74.582031 34.695312 74.886719 34.742188 75.195312 C 34.789062 75.5 34.898438 75.785156 35.066406 76.046875 Z M 37.015625 73.332031 C 37.226562 73.332031 37.429688 73.375 37.628906 73.453125 C 37.824219 73.535156 37.996094 73.652344 38.148438 73.800781 C 38.296875 73.949219 38.414062 74.121094 38.496094 74.320312 C 38.574219 74.515625 38.617188 74.71875 38.617188 74.929688 C 38.640625 75.394531 38.484375 75.792969 38.148438 76.121094 C 37.839844 76.429688 37.464844 76.585938 37.027344 76.585938 C 36.8125 76.585938 36.609375 76.542969 36.414062 76.464844 C 36.21875 76.382812 36.042969 76.265625 35.894531 76.117188 C 35.742188 75.96875 35.628906 75.796875 35.546875 75.597656 C 35.464844 75.402344 35.425781 75.199219 35.425781 74.988281 C 35.425781 74.777344 35.464844 74.574219 35.546875 74.378906 C 35.628906 74.183594 35.742188 74.011719 35.894531 73.859375 C 36.042969 73.710938 36.21875 73.59375 36.414062 73.515625 C 36.609375 73.433594 36.8125 73.394531 37.027344 73.394531 Z M 57.742188 24.359375 C 57.660156 24.09375 57.511719 23.878906 57.292969 23.710938 C 57.070312 23.542969 56.824219 23.453125 56.546875 23.441406 C 56.058594 23.46875 55.6875 23.691406 55.4375 24.109375 C 55.4375 23.582031 55.4375 22.917969 55.519531 22.25 C 55.640625 20.34375 55.769531 18.378906 55.019531 17.59375 C 54.796875 17.375 54.53125 17.257812 54.21875 17.246094 C 53.851562 17.292969 53.515625 17.421875 53.214844 17.632812 C 52.910156 17.84375 52.675781 18.109375 52.507812 18.4375 C 52.425781 18.5625 52.347656 18.6875 52.28125 18.820312 C 52.253906 18.585938 52.179688 18.371094 52.0625 18.167969 C 51.949219 17.964844 51.796875 17.789062 51.613281 17.648438 C 51.429688 17.503906 51.222656 17.402344 50.996094 17.339844 C 50.769531 17.28125 50.539062 17.265625 50.308594 17.292969 C 50.21875 17.292969 50.144531 17.324219 50.078125 17.390625 C 50.015625 17.453125 49.984375 17.527344 49.984375 17.617188 C 49.984375 17.707031 50.015625 17.785156 50.078125 17.847656 C 50.140625 17.914062 50.21875 17.945312 50.308594 17.949219 C 51 17.949219 51.335938 18.257812 51.503906 19.058594 C 51.597656 19.511719 51.660156 19.972656 51.683594 20.4375 L 51.683594 20.640625 C 51.683594 21.332031 51.683594 22.152344 51.683594 23.167969 L 51.683594 23.703125 C 51.664062 23.804688 51.6875 23.898438 51.753906 23.976562 C 51.820312 24.058594 51.90625 24.097656 52.011719 24.097656 C 52.117188 24.097656 52.203125 24.058594 52.269531 23.976562 C 52.335938 23.898438 52.359375 23.804688 52.339844 23.703125 L 52.339844 23.132812 C 52.339844 22.070312 52.339844 21.152344 52.339844 20.402344 C 52.40625 19.824219 52.601562 19.292969 52.925781 18.808594 C 53.296875 18.246094 53.714844 17.914062 54.121094 17.914062 C 54.246094 17.914062 54.355469 17.957031 54.445312 18.046875 C 54.980469 18.617188 54.851562 20.6875 54.753906 22.203125 C 54.59375 23.21875 54.628906 24.226562 54.863281 25.226562 C 54.453125 25.773438 53.90625 26.089844 53.226562 26.167969 C 53.121094 26.148438 53.03125 26.171875 52.949219 26.238281 C 52.867188 26.304688 52.828125 26.390625 52.828125 26.496094 C 52.828125 26.601562 52.867188 26.6875 52.949219 26.753906 C 53.03125 26.820312 53.121094 26.84375 53.226562 26.824219 C 54.074219 26.761719 54.769531 26.398438 55.304688 25.738281 C 55.46875 25.855469 55.648438 25.941406 55.84375 25.988281 C 56.242188 26.121094 56.640625 26.121094 57.039062 25.988281 C 57.199219 25.9375 57.34375 25.851562 57.46875 25.738281 C 57.59375 25.621094 57.691406 25.488281 57.757812 25.332031 C 57.824219 25.175781 57.855469 25.011719 57.855469 24.84375 C 57.851562 24.671875 57.816406 24.511719 57.742188 24.359375 Z M 56.800781 25.335938 C 56.363281 25.503906 55.964844 25.441406 55.605469 25.144531 L 55.605469 25.035156 C 55.746094 24.464844 56.046875 24.121094 56.417969 24.109375 C 56.558594 24.105469 56.683594 24.148438 56.796875 24.234375 C 56.910156 24.316406 56.988281 24.425781 57.027344 24.558594 C 57.105469 24.699219 57.121094 24.84375 57.078125 24.996094 C 57.035156 25.148438 56.941406 25.261719 56.800781 25.335938 Z M 30.246094 74.167969 C 30.292969 74.179688 30.335938 74.179688 30.378906 74.167969 C 30.476562 74.175781 30.554688 74.144531 30.617188 74.070312 C 30.679688 74.007812 30.714844 73.933594 30.714844 73.84375 C 30.714844 73.695312 30.644531 73.589844 30.511719 73.523438 C 30.066406 73.371094 29.617188 73.238281 29.160156 73.128906 L 29.160156 66.328125 C 29.625 66.234375 30.078125 66.101562 30.523438 65.9375 C 30.609375 65.902344 30.667969 65.84375 30.703125 65.761719 C 30.738281 65.675781 30.738281 65.59375 30.703125 65.507812 C 30.667969 65.421875 30.609375 65.363281 30.527344 65.324219 C 30.441406 65.289062 30.359375 65.285156 30.273438 65.316406 C 29.175781 65.714844 28.042969 65.914062 26.875 65.914062 C 25.710938 65.914062 24.578125 65.714844 23.480469 65.316406 C 23.394531 65.285156 23.3125 65.289062 23.226562 65.324219 C 23.144531 65.363281 23.085938 65.421875 23.050781 65.507812 C 23.015625 65.589844 23.015625 65.675781 23.050781 65.757812 C 23.089844 65.84375 23.152344 65.902344 23.242188 65.9375 C 23.6875 66.105469 24.140625 66.234375 24.605469 66.328125 L 24.605469 73.167969 C 24.144531 73.273438 23.691406 73.40625 23.242188 73.558594 C 23.152344 73.59375 23.089844 73.652344 23.050781 73.738281 C 23.015625 73.824219 23.015625 73.914062 23.050781 74 C 23.085938 74.085938 23.144531 74.144531 23.230469 74.179688 C 23.273438 74.191406 23.316406 74.191406 23.363281 74.179688 L 23.480469 74.179688 C 24.578125 73.785156 25.710938 73.582031 26.875 73.570312 C 28.035156 73.585938 29.15625 73.789062 30.246094 74.179688 Z M 25.261719 66.449219 C 26.335938 66.617188 27.40625 66.617188 28.480469 66.449219 L 28.480469 73.035156 C 27.945312 72.957031 27.40625 72.910156 26.863281 72.90625 C 26.328125 72.90625 25.792969 72.949219 25.261719 73.035156 Z M 57.539062 78.074219 C 57.449219 78.015625 57.355469 78.003906 57.253906 78.039062 C 57.15625 78.039062 57.078125 78.074219 57.015625 78.144531 C 56.953125 78.210938 56.925781 78.292969 56.929688 78.382812 C 56.96875 78.613281 56.925781 78.828125 56.804688 79.027344 C 56.6875 79.226562 56.515625 79.367188 56.296875 79.441406 C 56.148438 79.496094 56 79.496094 55.847656 79.445312 C 55.699219 79.394531 55.582031 79.300781 55.496094 79.167969 C 54.945312 78.253906 55.496094 76.789062 55.972656 75.417969 C 56.679688 73.476562 57.410156 71.464844 55.675781 70.25 C 55.355469 69.996094 54.992188 69.847656 54.589844 69.800781 C 54.183594 69.753906 53.796875 69.816406 53.429688 69.988281 C 52.941406 70.25 52.554688 70.613281 52.261719 71.082031 C 51.972656 71.546875 51.8125 72.058594 51.789062 72.605469 C 51.71875 73.433594 51.847656 74.226562 52.171875 74.988281 C 51.953125 74.949219 51.734375 74.953125 51.519531 75 C 51.300781 75.042969 51.101562 75.128906 50.914062 75.25 C 50.730469 75.375 50.574219 75.527344 50.449219 75.710938 C 50.324219 75.890625 50.238281 76.089844 50.191406 76.308594 C 50.140625 76.523438 50.136719 76.742188 50.171875 76.960938 C 50.210938 77.179688 50.285156 77.382812 50.402344 77.570312 C 50.515625 77.757812 50.664062 77.921875 50.84375 78.050781 C 51.019531 78.183594 51.21875 78.277344 51.429688 78.335938 C 51.886719 78.484375 52.324219 78.449219 52.746094 78.226562 C 53.175781 78.015625 53.460938 77.679688 53.605469 77.226562 C 53.699219 76.949219 53.71875 76.664062 53.660156 76.375 C 53.601562 76.085938 53.476562 75.832031 53.285156 75.609375 C 52.679688 74.75 52.410156 73.796875 52.484375 72.75 C 52.46875 72.304688 52.566406 71.882812 52.78125 71.488281 C 52.992188 71.097656 53.285156 70.78125 53.667969 70.546875 C 53.929688 70.429688 54.203125 70.386719 54.492188 70.421875 C 54.777344 70.460938 55.03125 70.566406 55.257812 70.75 C 56.570312 71.675781 55.960938 73.367188 55.257812 75.15625 C 54.695312 76.691406 54.121094 78.277344 54.828125 79.46875 C 55.082031 79.890625 55.457031 80.105469 55.949219 80.109375 C 56.09375 80.109375 56.230469 80.089844 56.367188 80.050781 C 56.738281 79.929688 57.023438 79.710938 57.234375 79.386719 C 57.441406 79.058594 57.523438 78.707031 57.480469 78.324219 C 57.515625 78.226562 57.515625 78.132812 57.480469 78.039062 Z M 53.070312 76.621094 C 53.074219 76.902344 52.976562 77.148438 52.78125 77.351562 C 52.585938 77.558594 52.347656 77.667969 52.066406 77.679688 C 51.925781 77.679688 51.789062 77.652344 51.65625 77.601562 C 51.527344 77.546875 51.414062 77.46875 51.3125 77.371094 C 51.214844 77.269531 51.136719 77.15625 51.082031 77.027344 C 51.027344 76.894531 51 76.761719 51 76.621094 C 51 76.480469 51.027344 76.34375 51.082031 76.214844 C 51.136719 76.085938 51.214844 75.96875 51.3125 75.871094 C 51.414062 75.773438 51.527344 75.695312 51.65625 75.640625 C 51.789062 75.585938 51.925781 75.558594 52.066406 75.558594 C 52.207031 75.558594 52.34375 75.585938 52.472656 75.640625 C 52.601562 75.695312 52.71875 75.773438 52.816406 75.871094 C 52.917969 75.96875 52.996094 76.085938 53.046875 76.214844 C 53.101562 76.34375 53.128906 76.480469 53.128906 76.621094 Z M 68.921875 56.480469 C 68.921875 56.386719 68.953125 56.308594 69.019531 56.246094 C 69.085938 56.179688 69.164062 56.148438 69.257812 56.148438 L 70.785156 56.148438 C 70.480469 55.671875 70.324219 55.148438 70.324219 54.585938 C 70.320312 54.019531 70.46875 53.496094 70.769531 53.019531 C 71.066406 52.539062 71.472656 52.175781 71.984375 51.929688 C 72.496094 51.683594 73.03125 51.59375 73.59375 51.65625 C 73.84375 51.683594 74.082031 51.742188 74.316406 51.832031 C 74.550781 51.921875 74.765625 52.039062 74.96875 52.183594 C 75.171875 52.328125 75.355469 52.496094 75.515625 52.6875 C 75.675781 52.878906 75.808594 53.085938 75.914062 53.308594 C 76.023438 53.535156 76.097656 53.769531 76.148438 54.011719 C 76.195312 54.257812 76.210938 54.503906 76.195312 54.75 C 76.179688 55 76.132812 55.242188 76.054688 55.476562 C 75.976562 55.714844 75.871094 55.9375 75.734375 56.148438 L 77.253906 56.148438 C 77.347656 56.148438 77.425781 56.179688 77.492188 56.246094 C 77.554688 56.308594 77.589844 56.386719 77.589844 56.480469 C 77.589844 56.570312 77.554688 56.648438 77.488281 56.710938 C 77.425781 56.773438 77.34375 56.804688 77.253906 56.800781 L 75.03125 56.800781 C 74.9375 56.804688 74.855469 56.773438 74.789062 56.707031 C 74.722656 56.640625 74.691406 56.5625 74.695312 56.46875 C 74.695312 56.371094 74.730469 56.292969 74.804688 56.230469 C 75.265625 55.808594 75.511719 55.285156 75.53125 54.65625 C 75.554688 54.199219 75.445312 53.773438 75.207031 53.378906 C 74.964844 52.988281 74.636719 52.695312 74.21875 52.5 C 73.800781 52.308594 73.363281 52.246094 72.910156 52.320312 C 72.453125 52.390625 72.058594 52.582031 71.71875 52.894531 C 71.496094 53.097656 71.316406 53.335938 71.191406 53.609375 C 71.0625 53.882812 70.992188 54.171875 70.980469 54.472656 C 70.96875 54.773438 71.019531 55.066406 71.125 55.347656 C 71.230469 55.628906 71.390625 55.878906 71.597656 56.097656 L 71.730469 56.230469 C 71.792969 56.292969 71.828125 56.367188 71.839844 56.457031 C 71.839844 56.546875 71.808594 56.628906 71.742188 56.695312 C 71.679688 56.769531 71.601562 56.804688 71.503906 56.800781 L 69.207031 56.800781 C 69.023438 56.773438 68.925781 56.667969 68.921875 56.480469 Z M 77.578125 57.992188 C 77.582031 58.085938 77.546875 58.164062 77.480469 58.230469 C 77.414062 58.296875 77.335938 58.328125 77.242188 58.324219 L 69.207031 58.324219 C 69.105469 58.347656 69.011719 58.324219 68.933594 58.253906 C 68.851562 58.1875 68.8125 58.101562 68.8125 58 C 68.8125 57.894531 68.851562 57.808594 68.933594 57.742188 C 69.011719 57.675781 69.105469 57.652344 69.207031 57.671875 L 77.207031 57.671875 C 77.304688 57.65625 77.390625 57.679688 77.464844 57.746094 C 77.539062 57.8125 77.578125 57.894531 77.578125 57.992188 Z M 23.351562 29.050781 L 24.976562 29.050781 C 24.925781 30.40625 24.617188 31.703125 24.042969 32.933594 C 24 33.015625 24 33.101562 24.042969 33.183594 C 24.0625 33.273438 24.113281 33.34375 24.199219 33.386719 C 24.246094 33.398438 24.292969 33.398438 24.34375 33.386719 C 24.476562 33.390625 24.578125 33.335938 24.640625 33.21875 C 25.265625 31.886719 25.605469 30.484375 25.65625 29.015625 L 27.210938 29.015625 C 27.238281 30.492188 27.578125 31.890625 28.226562 33.21875 C 28.292969 33.328125 28.386719 33.382812 28.515625 33.386719 C 28.570312 33.398438 28.625 33.398438 28.683594 33.386719 C 28.761719 33.339844 28.8125 33.273438 28.835938 33.183594 C 28.859375 33.097656 28.847656 33.011719 28.800781 32.933594 C 28.210938 31.707031 27.902344 30.410156 27.867188 29.050781 L 29.398438 29.050781 C 29.492188 29.050781 29.570312 29.019531 29.636719 28.953125 C 29.699219 28.886719 29.734375 28.808594 29.734375 28.71875 C 29.730469 28.628906 29.695312 28.550781 29.632812 28.488281 C 29.566406 28.425781 29.488281 28.394531 29.398438 28.394531 L 27.796875 28.394531 C 27.773438 26.824219 28.09375 25.320312 28.753906 23.894531 C 28.792969 23.8125 28.796875 23.726562 28.765625 23.640625 C 28.734375 23.554688 28.679688 23.492188 28.597656 23.453125 C 28.515625 23.421875 28.429688 23.421875 28.347656 23.453125 C 28.265625 23.476562 28.203125 23.527344 28.167969 23.605469 C 27.449219 25.113281 27.101562 26.703125 27.128906 28.371094 L 25.597656 28.371094 C 25.648438 26.679688 25.304688 25.074219 24.570312 23.546875 C 24.519531 23.472656 24.453125 23.417969 24.367188 23.394531 C 24.28125 23.355469 24.199219 23.355469 24.113281 23.394531 C 24.035156 23.4375 23.984375 23.507812 23.960938 23.59375 C 23.9375 23.683594 23.949219 23.765625 23.996094 23.84375 C 24.6875 25.285156 25.015625 26.800781 24.976562 28.394531 L 23.351562 28.394531 C 23.246094 28.375 23.15625 28.398438 23.074219 28.464844 C 22.992188 28.53125 22.953125 28.617188 22.953125 28.722656 C 22.953125 28.828125 22.992188 28.914062 23.074219 28.980469 C 23.15625 29.046875 23.246094 29.070312 23.351562 29.050781 Z M 24.4375 33.183594 Z M 66.734375 25.273438 C 66.734375 25.183594 66.765625 25.105469 66.832031 25.039062 C 66.898438 24.972656 66.976562 24.941406 67.070312 24.941406 L 70.402344 24.941406 C 70.496094 24.941406 70.574219 24.972656 70.640625 25.039062 C 70.707031 25.105469 70.738281 25.183594 70.738281 25.273438 L 70.738281 28.550781 C 70.757812 28.652344 70.734375 28.746094 70.667969 28.824219 C 70.601562 28.90625 70.515625 28.945312 70.410156 28.945312 C 70.304688 28.945312 70.21875 28.90625 70.152344 28.824219 C 70.085938 28.746094 70.0625 28.652344 70.082031 28.550781 L 70.082031 26.074219 L 66.253906 29.882812 C 67.367188 30.980469 68.253906 32.234375 68.910156 33.648438 C 68.945312 33.730469 68.945312 33.816406 68.910156 33.898438 C 68.875 33.980469 68.8125 34.042969 68.730469 34.078125 C 68.691406 34.089844 68.652344 34.089844 68.609375 34.078125 C 68.457031 34.085938 68.351562 34.019531 68.300781 33.875 C 67.660156 32.546875 66.824219 31.355469 65.789062 30.300781 L 63.003906 33.074219 C 62.941406 33.140625 62.863281 33.175781 62.769531 33.175781 C 62.679688 33.175781 62.601562 33.140625 62.539062 33.074219 C 62.472656 33.011719 62.441406 32.933594 62.441406 32.84375 C 62.441406 32.753906 62.472656 32.675781 62.539062 32.613281 L 65.335938 29.835938 C 64.292969 28.777344 63.097656 27.9375 61.75 27.3125 C 61.660156 27.28125 61.597656 27.222656 61.558594 27.136719 C 61.523438 27.054688 61.519531 26.96875 61.558594 26.882812 C 61.582031 26.792969 61.640625 26.730469 61.726562 26.691406 C 61.808594 26.65625 61.890625 26.65625 61.976562 26.691406 C 63.417969 27.351562 64.691406 28.242188 65.800781 29.371094 L 69.625 25.5625 L 67.070312 25.5625 C 66.875 25.5625 66.761719 25.46875 66.734375 25.273438 Z M 76.871094 47.34375 C 76.859375 47.496094 76.78125 47.589844 76.632812 47.628906 L 76.574219 47.628906 L 75.652344 47.785156 L 75.582031 47.785156 C 75.386719 47.773438 75.28125 47.667969 75.269531 47.476562 C 75.257812 47.3125 75.332031 47.199219 75.484375 47.140625 C 75.179688 46.800781 75.046875 46.40625 75.089844 45.953125 C 75.269531 43.570312 75.4375 39.53125 75.089844 38.914062 C 74.996094 38.691406 74.839844 38.546875 74.613281 38.472656 C 74.277344 38.414062 73.953125 38.460938 73.644531 38.601562 C 74.097656 39.625 73.714844 44.84375 73.644531 45.4375 C 73.636719 45.523438 73.601562 45.59375 73.539062 45.652344 C 73.480469 45.707031 73.40625 45.738281 73.320312 45.738281 C 73.222656 45.738281 73.136719 45.699219 73.070312 45.628906 C 73.015625 45.554688 72.992188 45.472656 72.996094 45.378906 C 73.140625 43.558594 73.332031 39.554688 72.996094 38.863281 C 72.917969 38.632812 72.757812 38.480469 72.519531 38.410156 C 72.128906 38.34375 71.765625 38.410156 71.417969 38.601562 C 71.667969 39.78125 71.753906 40.972656 71.683594 42.175781 C 71.65625 43.257812 71.566406 44.332031 71.417969 45.402344 C 71.414062 45.488281 71.378906 45.554688 71.316406 45.609375 C 71.253906 45.667969 71.179688 45.691406 71.097656 45.6875 C 71.007812 45.675781 70.9375 45.632812 70.882812 45.558594 C 70.828125 45.488281 70.800781 45.410156 70.808594 45.320312 L 70.808594 45.238281 C 70.960938 44.265625 71.0625 43.289062 71.109375 42.304688 C 71.191406 41.171875 71.121094 40.050781 70.894531 38.9375 C 70.546875 38.125 70.070312 38.234375 70.046875 38.246094 C 69.960938 38.273438 69.878906 38.273438 69.792969 38.246094 C 69.675781 38.171875 69.621094 38.070312 69.640625 37.929688 C 69.65625 37.792969 69.730469 37.703125 69.867188 37.660156 C 70.363281 37.601562 70.761719 37.773438 71.0625 38.171875 C 71.585938 37.808594 72.164062 37.683594 72.792969 37.804688 C 72.976562 37.855469 73.140625 37.945312 73.285156 38.066406 C 73.773438 37.800781 74.285156 37.730469 74.828125 37.851562 C 75.238281 37.972656 75.53125 38.226562 75.710938 38.613281 C 76.203125 39.578125 75.832031 44.9375 75.710938 46 C 75.695312 46.1875 75.722656 46.371094 75.796875 46.546875 C 75.808594 46.433594 75.867188 46.355469 75.976562 46.308594 C 76.058594 46.273438 76.140625 46.273438 76.226562 46.308594 C 76.316406 46.335938 76.378906 46.390625 76.417969 46.476562 L 76.789062 47.214844 L 76.789062 47.285156 Z M 70.894531 45.390625 Z M 16.140625 52.347656 C 16.582031 52.347656 16.703125 52.632812 16.894531 53.382812 C 17.03125 54.269531 17.488281 54.945312 18.257812 55.40625 C 17.9375 55.578125 17.65625 55.792969 17.410156 56.058594 C 17.167969 56.320312 16.96875 56.617188 16.824219 56.945312 C 16.675781 57.273438 16.589844 57.617188 16.558594 57.972656 C 16.527344 58.332031 16.554688 58.6875 16.640625 59.035156 C 16.726562 59.382812 16.871094 59.707031 17.066406 60.011719 C 17.261719 60.3125 17.503906 60.574219 17.785156 60.796875 C 18.070312 61.015625 18.382812 61.1875 18.722656 61.304688 C 19.0625 61.421875 19.414062 61.480469 19.777344 61.480469 C 20.1875 61.488281 20.585938 61.410156 20.972656 61.257812 C 21.558594 61.023438 22.039062 60.652344 22.40625 60.136719 C 22.773438 59.625 22.972656 59.054688 23.003906 58.425781 C 23.035156 57.792969 22.890625 57.207031 22.578125 56.660156 C 22.261719 56.113281 21.820312 55.695312 21.257812 55.40625 C 21.621094 55.1875 21.921875 54.898438 22.152344 54.539062 C 22.386719 54.183594 22.53125 53.792969 22.585938 53.371094 C 22.789062 52.621094 22.90625 52.335938 23.351562 52.335938 C 23.53125 52.300781 23.621094 52.191406 23.621094 52.007812 C 23.621094 51.824219 23.53125 51.714844 23.351562 51.679688 L 23.121094 51.679688 C 22.308594 51.789062 22.105469 52.527344 21.925781 53.179688 C 21.675781 54.121094 21.4375 55.015625 19.75 55.015625 L 19.714844 55.015625 C 18.042969 55.015625 17.804688 54.121094 17.539062 53.179688 C 17.347656 52.464844 17.121094 51.65625 16.140625 51.65625 C 16.050781 51.65625 15.96875 51.6875 15.90625 51.753906 C 15.839844 51.820312 15.804688 51.898438 15.804688 51.988281 C 15.804688 52.082031 15.839844 52.160156 15.90625 52.226562 C 15.96875 52.289062 16.050781 52.324219 16.140625 52.324219 Z M 19.789062 55.695312 C 20.128906 55.695312 20.460938 55.761719 20.773438 55.894531 C 21.089844 56.027344 21.367188 56.214844 21.609375 56.457031 C 21.851562 56.699219 22.035156 56.976562 22.164062 57.292969 C 22.296875 57.609375 22.359375 57.9375 22.359375 58.277344 C 22.355469 58.621094 22.289062 58.949219 22.15625 59.261719 C 22.023438 59.578125 21.835938 59.855469 21.59375 60.09375 C 21.351562 60.335938 21.070312 60.519531 20.753906 60.648438 C 20.4375 60.777344 20.105469 60.839844 19.761719 60.839844 C 19.421875 60.835938 19.09375 60.769531 18.777344 60.640625 C 18.460938 60.507812 18.183594 60.320312 17.941406 60.078125 C 17.699219 59.835938 17.515625 59.554688 17.386719 59.238281 C 17.253906 58.925781 17.191406 58.597656 17.191406 58.253906 C 17.195312 57.914062 17.261719 57.585938 17.394531 57.269531 C 17.527344 56.957031 17.714844 56.679688 17.957031 56.4375 C 18.203125 56.199219 18.480469 56.015625 18.796875 55.886719 C 19.117188 55.757812 19.445312 55.691406 19.789062 55.695312 Z M 70.175781 68.175781 C 70.871094 67.257812 70.59375 66.542969 70.175781 66.199219 C 69.949219 66.046875 69.695312 65.964844 69.421875 65.953125 C 69.148438 65.941406 68.886719 66 68.644531 66.128906 C 68.671875 65.515625 68.601562 64.917969 68.429688 64.328125 C 68.261719 63.96875 67.988281 63.730469 67.605469 63.613281 C 67.117188 63.503906 66.652344 63.5625 66.207031 63.792969 C 66.066406 63.671875 65.910156 63.589844 65.730469 63.542969 C 65.3125 63.453125 64.910156 63.507812 64.535156 63.710938 C 64.476562 63.640625 64.414062 63.578125 64.34375 63.519531 C 63.996094 63.289062 63.621094 63.226562 63.21875 63.339844 C 63.132812 63.363281 63.066406 63.414062 63.019531 63.492188 C 62.976562 63.570312 62.964844 63.652344 62.988281 63.738281 C 63.011719 63.824219 63.058594 63.890625 63.136719 63.9375 C 63.214844 63.984375 63.300781 63.996094 63.386719 63.972656 C 63.578125 63.917969 63.761719 63.941406 63.9375 64.042969 C 64.054688 64.164062 64.105469 64.304688 64.089844 64.472656 L 64.089844 70.582031 C 64.070312 70.683594 64.09375 70.777344 64.164062 70.855469 C 64.230469 70.9375 64.316406 70.976562 64.421875 70.976562 C 64.527344 70.976562 64.613281 70.9375 64.679688 70.855469 C 64.746094 70.777344 64.769531 70.683594 64.75 70.582031 L 64.75 64.28125 C 65.007812 64.136719 65.28125 64.082031 65.574219 64.113281 C 65.792969 64.191406 65.9375 64.339844 66.015625 64.554688 C 66.230469 66.539062 66.230469 68.523438 66.015625 70.511719 C 66.015625 70.601562 66.050781 70.679688 66.113281 70.746094 C 66.179688 70.8125 66.257812 70.84375 66.351562 70.84375 C 66.445312 70.84375 66.523438 70.8125 66.585938 70.746094 C 66.652344 70.679688 66.6875 70.601562 66.6875 70.511719 C 66.6875 69.960938 67.070312 65.1875 66.6875 64.246094 C 66.949219 64.117188 67.222656 64.085938 67.511719 64.148438 C 67.714844 64.207031 67.855469 64.332031 67.929688 64.53125 C 68.175781 66.347656 68.203125 68.164062 68 69.988281 L 66.457031 71.964844 C 66.394531 72.035156 66.367188 72.117188 66.375 72.214844 C 66.378906 72.304688 66.417969 72.378906 66.484375 72.441406 C 66.636719 72.574219 66.792969 72.574219 66.949219 72.441406 L 67.941406 71.164062 C 67.941406 71.414062 67.941406 71.675781 67.941406 71.964844 C 67.953125 72.136719 67.996094 72.300781 68.066406 72.457031 C 68.140625 72.613281 68.238281 72.75 68.359375 72.871094 C 68.484375 72.992188 68.625 73.089844 68.78125 73.15625 C 68.941406 73.226562 69.105469 73.265625 69.28125 73.273438 C 69.453125 73.285156 69.625 73.257812 69.785156 73.195312 C 69.949219 73.132812 70.09375 73.039062 70.214844 72.914062 C 70.335938 72.789062 70.425781 72.644531 70.484375 72.480469 C 70.542969 72.316406 70.5625 72.148438 70.546875 71.976562 C 70.546875 71.882812 70.515625 71.804688 70.449219 71.738281 C 70.382812 71.675781 70.304688 71.640625 70.210938 71.640625 C 70.121094 71.644531 70.046875 71.679688 69.984375 71.742188 C 69.921875 71.808594 69.890625 71.886719 69.890625 71.976562 C 69.902344 72.058594 69.894531 72.144531 69.867188 72.222656 C 69.839844 72.304688 69.796875 72.375 69.738281 72.4375 C 69.679688 72.5 69.609375 72.542969 69.527344 72.574219 C 69.449219 72.605469 69.367188 72.613281 69.28125 72.605469 C 68.886719 72.605469 68.46875 72.355469 68.46875 71.988281 C 68.46875 71.617188 68.46875 71.117188 68.5625 70.273438 Z M 68.660156 66.890625 C 68.789062 66.738281 68.957031 66.652344 69.15625 66.628906 C 69.355469 66.605469 69.535156 66.652344 69.699219 66.769531 C 70.105469 67.082031 69.699219 67.617188 69.601562 67.832031 L 68.5625 69.175781 C 68.632812 68.285156 68.660156 67.53125 68.660156 66.890625 Z M 68.660156 66.890625 " fill-opacity="1" fill-rule="nonzero"/></g></svg>