<svg xmlns="http://www.w3.org/2000/svg" xmlns:xlink="http://www.w3.org/1999/xlink" width="120" zoomAndPan="magnify" viewBox="0 0 90 97.5" height="130" preserveAspectRatio="xMidYMid meet" version="1.0"><defs><clipPath id="id1"><path d="M 0.230469 87 L 79 87 L 79 94 L 0.230469 94 Z M 0.230469 87 " clip-rule="nonzero"/></clipPath><clipPath id="id2"><path d="M 0.230469 86 L 80 86 L 80 94.421875 L 0.230469 94.421875 Z M 0.230469 86 " clip-rule="nonzero"/></clipPath><clipPath id="id3"><path d="M 28 3 L 89.769531 3 L 89.769531 22 L 28 22 Z M 28 3 " clip-rule="nonzero"/></clipPath><clipPath id="id4"><path d="M 27 2.640625 L 89.769531 2.640625 L 89.769531 23 L 27 23 Z M 27 2.640625 " clip-rule="nonzero"/></clipPath></defs><path fill="#f9cfcf" d="M 66.492188 87.566406 L 13.019531 87.566406 L 13.019531 79.925781 C 13.019531 75.164062 16.878906 71.304688 21.636719 71.304688 L 57.878906 71.304688 C 62.636719 71.304688 66.492188 75.164062 66.492188 79.925781 Z M 66.492188 87.566406 " fill-opacity="1" fill-rule="nonzero"/><path fill="#3762cc" d="M 66.492188 88.285156 L 13.019531 88.285156 C 12.621094 88.285156 12.296875 87.964844 12.296875 87.566406 L 12.296875 79.925781 C 12.296875 74.773438 16.488281 70.582031 21.636719 70.582031 L 57.878906 70.582031 C 63.027344 70.582031 67.214844 74.773438 67.214844 79.925781 L 67.214844 87.566406 C 67.214844 87.964844 66.890625 88.285156 66.492188 88.285156 Z M 13.742188 86.84375 L 65.769531 86.84375 L 65.769531 79.925781 C 65.769531 75.570312 62.230469 72.027344 57.878906 72.027344 L 21.636719 72.027344 C 17.28125 72.027344 13.742188 75.570312 13.742188 79.925781 Z M 13.742188 86.84375 " fill-opacity="1" fill-rule="nonzero"/><path fill="#f9cfcf" d="M 26.136719 71.304688 L 21.683594 71.304688 C 19.296875 71.304688 17.359375 69.367188 17.359375 66.976562 L 17.359375 66.277344 C 17.359375 63.886719 19.296875 61.945312 21.683594 61.945312 L 26.136719 61.945312 Z M 26.136719 71.304688 " fill-opacity="1" fill-rule="nonzero"/><path fill="#f9cfcf" d="M 53.375 61.945312 L 57.828125 61.945312 C 60.21875 61.945312 62.15625 63.886719 62.15625 66.277344 L 62.15625 66.976562 C 62.15625 69.367188 60.21875 71.304688 57.828125 71.304688 L 53.375 71.304688 Z M 53.375 61.945312 " fill-opacity="1" fill-rule="nonzero"/><path fill="#3762cc" d="M 26.136719 72.027344 L 21.683594 72.027344 C 18.902344 72.027344 16.636719 69.761719 16.636719 66.976562 L 16.636719 66.277344 C 16.636719 63.492188 18.902344 61.226562 21.683594 61.226562 L 26.136719 61.226562 C 26.535156 61.226562 26.859375 61.546875 26.859375 61.945312 L 26.859375 71.304688 C 26.859375 71.703125 26.535156 72.027344 26.136719 72.027344 Z M 21.683594 62.667969 C 19.699219 62.667969 18.082031 64.289062 18.082031 66.277344 L 18.082031 66.976562 C 18.082031 68.964844 19.695312 70.582031 21.683594 70.582031 L 25.414062 70.582031 L 25.414062 62.667969 Z M 21.683594 62.667969 " fill-opacity="1" fill-rule="nonzero"/><path fill="#3762cc" d="M 57.828125 72.027344 L 53.375 72.027344 C 52.976562 72.027344 52.65625 71.703125 52.65625 71.304688 L 52.65625 61.945312 C 52.65625 61.546875 52.976562 61.222656 53.375 61.222656 L 57.828125 61.222656 C 60.613281 61.222656 62.875 63.492188 62.875 66.277344 L 62.875 66.976562 C 62.875 69.761719 60.613281 72.027344 57.828125 72.027344 Z M 54.097656 70.582031 L 57.828125 70.582031 C 59.816406 70.582031 61.433594 68.964844 61.433594 66.976562 L 61.433594 66.277344 C 61.433594 64.289062 59.816406 62.667969 57.828125 62.667969 L 54.097656 62.667969 Z M 54.097656 70.582031 " fill-opacity="1" fill-rule="nonzero"/><path fill="#f9cfcf" d="M 57.371094 61.308594 C 57.371094 51.660156 49.484375 43.835938 39.757812 43.835938 C 30.027344 43.835938 22.140625 51.660156 22.140625 61.308594 L 22.140625 62.957031 L 22.460938 70.238281 C 22.859375 79.304688 30.070312 86.742188 39.132812 87.054688 C 39.339844 87.0625 39.546875 87.066406 39.757812 87.066406 C 39.964844 87.066406 40.171875 87.0625 40.378906 87.054688 C 49.445312 86.742188 56.65625 79.304688 57.050781 70.238281 L 57.371094 62.957031 Z M 57.371094 61.308594 " fill-opacity="1" fill-rule="nonzero"/><path fill="#3762cc" d="M 39.757812 87.789062 C 39.539062 87.789062 39.324219 87.785156 39.109375 87.777344 C 29.785156 87.457031 22.15625 79.765625 21.738281 70.269531 L 21.421875 62.988281 L 21.421875 61.308594 C 21.421875 51.277344 29.644531 43.113281 39.757812 43.113281 C 49.867188 43.113281 58.09375 51.277344 58.09375 61.308594 L 58.09375 62.957031 L 57.773438 70.269531 C 57.359375 79.765625 49.726562 87.457031 40.40625 87.777344 C 40.191406 87.785156 39.972656 87.789062 39.757812 87.789062 Z M 39.757812 44.558594 C 30.441406 44.558594 22.863281 52.074219 22.863281 61.308594 L 22.863281 62.957031 L 23.183594 70.207031 C 23.566406 78.953125 30.582031 86.039062 39.160156 86.332031 C 39.558594 86.347656 39.957031 86.347656 40.355469 86.332031 C 48.929688 86.039062 55.949219 78.953125 56.332031 70.207031 L 56.652344 62.925781 L 56.648438 61.308594 C 56.648438 52.074219 49.070312 44.558594 39.757812 44.558594 Z M 39.757812 44.558594 " fill-opacity="1" fill-rule="nonzero"/><path fill="#4671c6" d="M 32.835938 71.441406 L 20.066406 71.441406 L 20.066406 63.90625 C 20.066406 53.023438 28.882812 44.203125 39.757812 44.203125 L 39.757812 64.511719 C 39.757812 68.339844 36.65625 71.441406 32.835938 71.441406 Z M 32.835938 71.441406 " fill-opacity="1" fill-rule="nonzero"/><path fill="#4671c6" d="M 59.445312 71.441406 L 46.679688 71.441406 C 42.855469 71.441406 39.757812 68.339844 39.757812 64.511719 L 39.757812 44.203125 C 50.628906 44.203125 59.445312 53.023438 59.445312 63.90625 Z M 59.445312 71.441406 " fill-opacity="1" fill-rule="nonzero"/><path fill="#3762cc" d="M 59.445312 72.164062 L 46.679688 72.164062 C 43.621094 72.164062 40.980469 70.355469 39.757812 67.757812 C 38.535156 70.355469 35.890625 72.164062 32.835938 72.164062 L 20.066406 72.164062 C 19.667969 72.164062 19.347656 71.839844 19.347656 71.441406 L 19.347656 63.90625 C 19.347656 52.644531 28.503906 43.480469 39.757812 43.480469 C 51.011719 43.480469 60.167969 52.644531 60.167969 63.90625 L 60.167969 71.441406 C 60.167969 71.839844 59.84375 72.164062 59.445312 72.164062 Z M 39.757812 63.789062 C 40.15625 63.789062 40.480469 64.113281 40.480469 64.511719 C 40.480469 67.933594 43.261719 70.71875 46.679688 70.71875 L 58.722656 70.71875 L 58.722656 63.90625 C 58.722656 53.441406 50.214844 44.925781 39.757812 44.925781 C 29.296875 44.925781 20.789062 53.441406 20.789062 63.90625 L 20.789062 70.71875 L 32.835938 70.71875 C 36.253906 70.71875 39.035156 67.933594 39.035156 64.511719 C 39.035156 64.113281 39.359375 63.789062 39.757812 63.789062 Z M 39.757812 63.789062 " fill-opacity="1" fill-rule="nonzero"/><path fill="#4671c6" d="M 42.429688 54.664062 L 37.085938 54.664062 C 32.761719 54.664062 29.253906 51.15625 29.253906 46.828125 C 29.253906 42.5 32.761719 38.992188 37.085938 38.992188 L 42.429688 38.992188 C 46.753906 38.992188 50.257812 42.5 50.257812 46.828125 C 50.257812 51.15625 46.753906 54.664062 42.429688 54.664062 Z M 42.429688 54.664062 " fill-opacity="1" fill-rule="nonzero"/><path fill="#3762cc" d="M 42.429688 55.386719 L 37.085938 55.386719 C 32.371094 55.386719 28.535156 51.546875 28.535156 46.828125 C 28.535156 42.109375 32.371094 38.269531 37.085938 38.269531 L 42.429688 38.269531 C 47.144531 38.269531 50.980469 42.109375 50.980469 46.828125 C 50.980469 51.546875 47.144531 55.386719 42.429688 55.386719 Z M 37.085938 39.714844 C 33.167969 39.714844 29.976562 42.90625 29.976562 46.828125 C 29.976562 50.75 33.167969 53.941406 37.085938 53.941406 L 42.429688 53.941406 C 46.347656 53.941406 49.535156 50.75 49.535156 46.828125 C 49.535156 42.90625 46.347656 39.714844 42.429688 39.714844 Z M 37.085938 39.714844 " fill-opacity="1" fill-rule="nonzero"/><path fill="#f9cfcf" d="M 76.710938 81.167969 C 76.710938 84.699219 73.847656 87.566406 70.316406 87.566406 L 39.757812 87.566406 L 39.757812 77.28125 L 69.789062 74.789062 C 73.515625 74.480469 76.710938 77.421875 76.710938 81.167969 Z M 76.710938 81.167969 " fill-opacity="1" fill-rule="nonzero"/><g clip-path="url(#id1)"><path fill="#a4c9ff" d="M 77.558594 93.679688 L 1.957031 93.679688 C 1.390625 93.679688 0.933594 93.222656 0.933594 92.65625 L 0.933594 88.585938 C 0.933594 88.023438 1.390625 87.566406 1.957031 87.566406 L 77.558594 87.566406 C 78.121094 87.566406 78.578125 88.023438 78.578125 88.585938 L 78.578125 92.65625 C 78.578125 93.222656 78.121094 93.679688 77.558594 93.679688 Z M 77.558594 93.679688 " fill-opacity="1" fill-rule="nonzero"/></g><path fill="#3762cc" d="M 70.316406 88.285156 L 39.757812 88.285156 C 39.359375 88.285156 39.035156 87.964844 39.035156 87.566406 L 39.035156 77.28125 C 39.035156 76.90625 39.324219 76.59375 39.695312 76.5625 L 69.730469 74.070312 C 71.707031 73.90625 73.675781 74.582031 75.136719 75.925781 C 76.59375 77.273438 77.433594 79.179688 77.433594 81.167969 C 77.433594 85.09375 74.242188 88.285156 70.316406 88.285156 Z M 40.480469 86.84375 L 70.316406 86.84375 C 73.445312 86.84375 75.988281 84.296875 75.988281 81.164062 C 75.988281 79.558594 75.339844 78.078125 74.160156 76.988281 C 72.976562 75.902344 71.449219 75.378906 69.847656 75.507812 L 40.480469 77.945312 Z M 40.480469 86.84375 " fill-opacity="1" fill-rule="nonzero"/><g clip-path="url(#id2)"><path fill="#3762cc" d="M 77.558594 94.402344 L 1.957031 94.402344 C 0.996094 94.402344 0.210938 93.617188 0.210938 92.65625 L 0.210938 88.585938 C 0.210938 87.625 0.996094 86.84375 1.957031 86.84375 L 77.558594 86.84375 C 78.519531 86.84375 79.300781 87.625 79.300781 88.585938 L 79.300781 92.65625 C 79.300781 93.617188 78.519531 94.402344 77.558594 94.402344 Z M 1.957031 88.285156 C 1.789062 88.285156 1.65625 88.421875 1.65625 88.585938 L 1.65625 92.65625 C 1.65625 92.824219 1.789062 92.957031 1.957031 92.957031 L 77.558594 92.957031 C 77.722656 92.957031 77.859375 92.824219 77.859375 92.65625 L 77.859375 88.585938 C 77.859375 88.421875 77.722656 88.285156 77.558594 88.285156 Z M 1.957031 88.285156 " fill-opacity="1" fill-rule="nonzero"/></g><path fill="#f9cfcf" d="M 48.976562 77.28125 L 39.757812 77.28125 L 9.886719 74.804688 C 6.152344 74.492188 2.824219 77.378906 2.800781 81.128906 C 2.78125 84.679688 5.652344 87.566406 9.195312 87.566406 L 59.109375 87.566406 L 59.109375 83.996094 C 59.109375 82.972656 58.546875 82.03125 57.644531 81.546875 L 50.285156 77.609375 C 49.882812 77.394531 49.433594 77.28125 48.976562 77.28125 Z M 48.976562 77.28125 " fill-opacity="1" fill-rule="nonzero"/><path fill="#3762cc" d="M 59.109375 88.285156 L 9.195312 88.285156 C 7.289062 88.285156 5.496094 87.542969 4.152344 86.1875 C 2.804688 84.832031 2.070312 83.035156 2.082031 81.125 C 2.09375 79.160156 2.910156 77.335938 4.378906 75.988281 C 5.886719 74.609375 7.910156 73.914062 9.949219 74.082031 L 39.785156 76.558594 L 48.976562 76.558594 C 49.550781 76.558594 50.121094 76.703125 50.625 76.972656 L 57.984375 80.910156 C 59.125 81.519531 59.832031 82.703125 59.832031 83.996094 L 59.832031 87.566406 C 59.832031 87.964844 59.507812 88.285156 59.109375 88.285156 Z M 9.34375 75.503906 C 7.875 75.503906 6.445312 76.054688 5.355469 77.054688 C 4.183594 78.125 3.53125 79.574219 3.523438 81.132812 C 3.515625 82.65625 4.101562 84.089844 5.175781 85.167969 C 6.246094 86.25 7.675781 86.84375 9.195312 86.84375 L 58.386719 86.84375 L 58.386719 83.996094 C 58.386719 83.238281 57.972656 82.542969 57.304688 82.1875 L 49.945312 78.246094 C 49.648438 78.089844 49.3125 78.003906 48.976562 78.003906 L 39.757812 78.003906 C 39.738281 78.003906 39.71875 78.003906 39.699219 78 L 9.828125 75.523438 C 9.667969 75.507812 9.503906 75.503906 9.34375 75.503906 Z M 9.34375 75.503906 " fill-opacity="1" fill-rule="nonzero"/><g clip-path="url(#id3)"><path fill="#f9cfcf" d="M 61.96875 3.382812 L 45.558594 3.382812 C 44.996094 3.382812 44.441406 3.515625 43.941406 3.773438 L 28.933594 11.488281 C 28.667969 11.625 28.546875 11.953125 28.679688 12.222656 C 29.3125 13.511719 30.75 14.1875 32.144531 13.855469 L 45.972656 10.554688 C 46.382812 10.457031 46.8125 10.457031 47.222656 10.550781 L 58.402344 13.078125 C 58.785156 13.164062 58.878906 13.664062 58.554688 13.882812 L 54.132812 16.871094 L 51.375 17.707031 C 49.859375 18.164062 49.03125 19.792969 49.550781 21.289062 C 49.585938 21.382812 49.675781 21.441406 49.773438 21.441406 L 56.734375 21.441406 L 74.222656 16.089844 L 89.039062 17.09375 L 89.039062 4.71875 Z M 61.96875 3.382812 " fill-opacity="1" fill-rule="nonzero"/></g><g clip-path="url(#id4)"><path fill="#3762cc" d="M 56.734375 22.164062 L 49.773438 22.164062 C 49.367188 22.164062 49.003906 21.910156 48.871094 21.527344 C 48.554688 20.617188 48.621094 19.640625 49.058594 18.78125 C 49.496094 17.921875 50.242188 17.292969 51.167969 17.015625 L 53.820312 16.210938 L 57.621094 13.640625 L 47.0625 11.257812 C 46.757812 11.183594 46.441406 11.1875 46.140625 11.257812 L 32.3125 14.554688 C 30.578125 14.96875 28.820312 14.140625 28.03125 12.542969 C 27.726562 11.925781 27.984375 11.164062 28.601562 10.847656 L 43.613281 3.132812 C 44.210938 2.824219 44.886719 2.660156 45.558594 2.660156 L 61.96875 2.660156 C 61.984375 2.660156 61.996094 2.660156 62.007812 2.660156 L 89.078125 4 C 89.460938 4.019531 89.761719 4.335938 89.761719 4.71875 L 89.761719 17.09375 C 89.761719 17.296875 89.679688 17.484375 89.535156 17.621094 C 89.386719 17.757812 89.191406 17.832031 88.992188 17.816406 L 74.308594 16.820312 L 56.945312 22.132812 C 56.878906 22.15625 56.804688 22.164062 56.734375 22.164062 Z M 50.148438 20.71875 L 56.625 20.71875 L 74.011719 15.402344 C 74.097656 15.375 74.183594 15.367188 74.273438 15.371094 L 88.320312 16.324219 L 88.320312 5.40625 L 61.953125 4.105469 L 45.558594 4.105469 C 45.113281 4.105469 44.667969 4.214844 44.269531 4.417969 L 29.410156 12.058594 C 29.929688 12.945312 30.960938 13.394531 31.976562 13.152344 L 45.804688 9.851562 C 46.324219 9.730469 46.867188 9.726562 47.386719 9.847656 L 58.5625 12.371094 C 59.015625 12.476562 59.367188 12.839844 59.453125 13.296875 C 59.539062 13.753906 59.34375 14.21875 58.957031 14.480469 L 54.535156 17.46875 C 54.476562 17.511719 54.410156 17.542969 54.339844 17.5625 L 51.585938 18.398438 C 51.042969 18.5625 50.601562 18.929688 50.34375 19.4375 C 50.136719 19.839844 50.070312 20.285156 50.148438 20.71875 Z M 50.148438 20.71875 " fill-opacity="1" fill-rule="nonzero"/></g><path fill="#6bdddd" d="M 40.457031 36.824219 C 36.390625 36.824219 32.707031 34.417969 31.074219 30.691406 L 30.886719 30.261719 C 29.53125 27.167969 29.777344 23.59375 31.550781 20.699219 C 33.28125 17.871094 36.144531 16.140625 39.40625 15.949219 C 39.609375 15.9375 39.820312 15.933594 40.027344 15.933594 C 44.863281 15.933594 48.792969 19.867188 48.792969 24.703125 C 48.792969 28.710938 45.535156 31.972656 41.527344 31.972656 C 38.183594 31.972656 35.464844 29.25 35.464844 25.90625 C 35.464844 23.089844 37.753906 20.796875 40.566406 20.796875 C 41.734375 20.796875 42.871094 21.308594 43.683594 22.203125 C 44.890625 23.53125 45.230469 25.1875 44.585938 26.640625 C 43.992188 27.988281 42.65625 28.859375 41.183594 28.859375 C 40.484375 28.859375 39.917969 28.292969 39.917969 27.597656 C 39.917969 26.898438 40.484375 26.332031 41.183594 26.332031 C 41.65625 26.332031 42.085938 26.050781 42.277344 25.617188 C 42.507812 25.09375 42.34375 24.484375 41.816406 23.902344 C 41.484375 23.542969 41.019531 23.324219 40.566406 23.324219 C 39.148438 23.324219 37.992188 24.480469 37.992188 25.90625 C 37.992188 27.855469 39.578125 29.445312 41.527344 29.445312 C 44.140625 29.445312 46.265625 27.316406 46.265625 24.703125 C 46.265625 21.261719 43.46875 18.460938 40.027344 18.460938 C 39.867188 18.460938 39.707031 18.464844 39.550781 18.472656 C 37.128906 18.613281 34.996094 19.90625 33.703125 22.019531 C 32.363281 24.207031 32.175781 26.910156 33.199219 29.246094 L 33.386719 29.675781 C 34.617188 32.484375 37.394531 34.296875 40.457031 34.296875 C 42.984375 34.296875 45.46875 33.433594 47.449219 31.863281 C 47.996094 31.429688 48.789062 31.523438 49.222656 32.070312 C 49.65625 32.617188 49.5625 33.414062 49.015625 33.847656 C 46.589844 35.765625 43.550781 36.824219 40.457031 36.824219 Z M 40.457031 36.824219 " fill-opacity="1" fill-rule="nonzero"/></svg>