<svg xmlns="http://www.w3.org/2000/svg" xmlns:xlink="http://www.w3.org/1999/xlink" width="120" zoomAndPan="magnify" viewBox="0 0 90 97.5" height="130" preserveAspectRatio="xMidYMid meet" version="1.0"><defs><clipPath id="id1"><path d="M 0.230469 3.730469 L 89.769531 3.730469 L 89.769531 93.273438 L 0.230469 93.273438 Z M 0.230469 3.730469 " clip-rule="nonzero"/></clipPath><clipPath id="id2"><path d="M 0.230469 3.730469 L 89.769531 3.730469 L 89.769531 93.273438 L 0.230469 93.273438 Z M 0.230469 3.730469 " clip-rule="nonzero"/></clipPath></defs><g clip-path="url(#id1)"><path fill="#293041" d="M 89.566406 48.414062 C 89.566406 73.074219 69.574219 93.066406 44.914062 93.066406 C 20.253906 93.066406 0.261719 73.074219 0.261719 48.414062 C 0.261719 23.753906 20.253906 3.765625 44.914062 3.765625 C 69.574219 3.765625 89.566406 23.753906 89.566406 48.414062 Z M 89.566406 48.414062 " fill-opacity="1" fill-rule="nonzero"/><path fill="#cca183" d="M 86.085938 31.019531 C 83.835938 25.703125 80.617188 20.917969 76.507812 16.820312 C 72.402344 12.710938 67.628906 9.492188 62.308594 7.242188 C 56.796875 4.910156 50.949219 3.730469 44.914062 3.730469 C 38.878906 3.730469 33.03125 4.910156 27.519531 7.242188 C 22.199219 9.492188 17.417969 12.710938 13.316406 16.820312 C 9.21875 20.925781 5.992188 25.703125 3.738281 31.019531 C 1.410156 36.53125 0.230469 42.382812 0.230469 48.414062 C 0.230469 54.449219 1.410156 60.296875 3.738281 65.808594 C 5.992188 71.128906 9.210938 75.910156 13.316406 80.011719 C 17.425781 84.117188 22.199219 87.335938 27.519531 89.589844 C 33.03125 91.921875 38.878906 93.097656 44.914062 93.097656 C 50.949219 93.097656 56.796875 91.921875 62.308594 89.589844 C 67.628906 87.335938 72.410156 84.117188 76.507812 80.011719 C 80.617188 75.902344 83.835938 71.128906 86.085938 65.808594 C 88.417969 60.296875 89.597656 54.449219 89.597656 48.414062 C 89.597656 42.382812 88.417969 36.53125 86.085938 31.019531 Z M 86.027344 65.78125 C 83.78125 71.09375 80.5625 75.871094 76.464844 79.964844 C 72.363281 84.066406 67.59375 87.277344 62.28125 89.527344 C 56.785156 91.855469 50.933594 93.035156 44.914062 93.035156 C 38.894531 93.035156 33.042969 91.855469 27.546875 89.527344 C 22.234375 87.285156 17.457031 84.066406 13.363281 79.964844 C 9.265625 75.863281 6.050781 71.09375 3.800781 65.78125 C 1.476562 60.285156 0.296875 54.4375 0.296875 48.414062 C 0.296875 42.394531 1.476562 36.546875 3.800781 31.046875 C 6.046875 25.734375 9.265625 20.960938 13.363281 16.867188 C 17.464844 12.773438 22.234375 9.554688 27.546875 7.300781 C 33.042969 4.976562 38.894531 3.796875 44.914062 3.796875 C 50.933594 3.796875 56.785156 4.976562 62.28125 7.300781 C 67.59375 9.546875 72.371094 12.765625 76.464844 16.867188 C 80.5625 20.964844 83.777344 25.734375 86.027344 31.046875 C 88.351562 36.550781 89.53125 42.394531 89.53125 48.414062 C 89.53125 54.4375 88.351562 60.285156 86.027344 65.78125 Z M 72.171875 21.15625 C 68.632812 17.621094 64.507812 14.839844 59.917969 12.898438 C 55.167969 10.890625 50.121094 9.871094 44.914062 9.871094 C 39.707031 9.871094 34.660156 10.890625 29.910156 12.898438 C 25.320312 14.839844 21.199219 17.621094 17.65625 21.15625 C 14.121094 24.695312 11.335938 28.820312 9.398438 33.414062 C 7.390625 38.160156 6.371094 43.207031 6.371094 48.414062 C 6.371094 53.621094 7.390625 58.667969 9.398438 63.417969 C 11.335938 68.007812 14.121094 72.128906 17.65625 75.671875 C 21.195312 79.210938 25.320312 81.992188 29.910156 83.933594 C 34.660156 85.9375 39.707031 86.960938 44.914062 86.960938 C 50.121094 86.960938 55.167969 85.9375 59.917969 83.933594 C 64.507812 81.992188 68.628906 79.210938 72.171875 75.671875 C 75.707031 72.136719 78.488281 68.007812 80.429688 63.417969 C 82.4375 58.667969 83.457031 53.621094 83.457031 48.414062 C 83.457031 43.207031 82.4375 38.160156 80.429688 33.414062 C 78.484375 28.820312 75.707031 24.703125 72.171875 21.15625 Z M 80.363281 63.390625 C 78.421875 67.976562 75.65625 72.089844 72.117188 75.621094 C 68.585938 79.148438 64.46875 81.925781 59.890625 83.867188 C 55.148438 85.871094 50.105469 86.886719 44.914062 86.886719 C 39.722656 86.886719 34.679688 85.867188 29.9375 83.867188 C 25.355469 81.925781 21.242188 79.15625 17.710938 75.621094 C 14.179688 72.089844 11.402344 67.96875 9.464844 63.390625 C 7.457031 58.648438 6.441406 53.609375 6.441406 48.414062 C 6.441406 43.222656 7.460938 38.179688 9.464844 33.4375 C 11.402344 28.855469 14.171875 24.742188 17.710938 21.210938 C 21.246094 17.679688 25.359375 14.90625 29.9375 12.964844 C 34.679688 10.957031 39.722656 9.945312 44.914062 9.945312 C 50.105469 9.945312 55.148438 10.964844 59.890625 12.964844 C 64.472656 14.90625 68.585938 17.675781 72.117188 21.210938 C 75.648438 24.742188 78.421875 28.863281 80.363281 33.4375 C 82.371094 38.179688 83.386719 43.222656 83.386719 48.414062 C 83.386719 53.609375 82.371094 58.648438 80.363281 63.390625 Z M 67.191406 26.140625 C 64.296875 23.246094 60.921875 20.972656 57.175781 19.390625 C 53.292969 17.746094 49.167969 16.914062 44.914062 16.914062 C 40.660156 16.914062 36.535156 17.746094 32.652344 19.390625 C 28.902344 20.980469 25.53125 23.25 22.636719 26.140625 C 19.742188 29.027344 17.472656 32.40625 15.886719 36.15625 C 14.246094 40.035156 13.410156 44.164062 13.410156 48.414062 C 13.410156 52.667969 14.246094 56.792969 15.886719 60.675781 C 17.476562 64.425781 19.75 67.796875 22.636719 70.691406 C 25.527344 73.585938 28.902344 75.859375 32.652344 77.441406 C 36.535156 79.082031 40.660156 79.917969 44.914062 79.917969 C 49.167969 79.917969 53.292969 79.082031 57.175781 77.441406 C 60.921875 75.851562 64.296875 73.578125 67.191406 70.691406 C 70.085938 67.804688 72.355469 64.425781 73.941406 60.675781 C 75.582031 56.792969 76.417969 52.667969 76.417969 48.414062 C 76.417969 44.164062 75.582031 40.035156 73.941406 36.15625 C 72.355469 32.398438 70.085938 29.027344 67.191406 26.140625 Z M 73.886719 60.65625 C 72.304688 64.398438 70.039062 67.761719 67.148438 70.652344 C 64.261719 73.539062 60.898438 75.804688 57.15625 77.386719 C 53.28125 79.03125 49.160156 79.859375 44.914062 79.859375 C 40.667969 79.859375 36.554688 79.03125 32.671875 77.386719 C 28.929688 75.804688 25.566406 73.539062 22.675781 70.652344 C 19.789062 67.761719 17.523438 64.398438 15.941406 60.65625 C 14.296875 56.78125 13.46875 52.660156 13.46875 48.414062 C 13.46875 44.167969 14.296875 40.054688 15.941406 36.175781 C 17.523438 32.433594 19.796875 29.074219 22.683594 26.1875 C 25.574219 23.296875 28.9375 21.03125 32.679688 19.449219 C 36.554688 17.804688 40.675781 16.976562 44.921875 16.976562 C 49.167969 16.976562 53.28125 17.804688 57.160156 19.449219 C 60.902344 21.03125 64.269531 23.296875 67.15625 26.1875 C 70.042969 29.074219 72.308594 32.4375 73.894531 36.179688 C 75.535156 40.054688 76.363281 44.175781 76.363281 48.421875 C 76.355469 52.660156 75.523438 56.773438 73.886719 60.65625 Z M 44.914062 27.285156 C 39.269531 27.285156 33.964844 29.484375 29.96875 33.472656 C 25.976562 37.464844 23.785156 42.773438 23.785156 48.414062 C 23.785156 54.058594 25.984375 59.363281 29.96875 63.359375 C 33.957031 67.351562 39.269531 69.546875 44.914062 69.546875 C 50.558594 69.546875 55.863281 67.347656 59.855469 63.359375 C 63.851562 59.371094 66.042969 54.058594 66.042969 48.414062 C 66.042969 42.773438 63.84375 37.464844 59.855469 33.472656 C 55.871094 29.476562 50.558594 27.285156 44.914062 27.285156 Z M 59.8125 63.3125 C 55.828125 67.292969 50.542969 69.480469 44.914062 69.480469 C 39.285156 69.480469 33.996094 67.285156 30.015625 63.3125 C 26.035156 59.332031 23.851562 54.046875 23.851562 48.414062 C 23.851562 42.785156 26.042969 37.5 30.015625 33.519531 C 33.992188 29.539062 39.285156 27.351562 44.914062 27.351562 C 50.542969 27.351562 55.828125 29.542969 59.8125 33.519531 C 63.792969 37.5 65.976562 42.785156 65.976562 48.414062 C 65.976562 54.046875 63.785156 59.332031 59.8125 63.3125 Z M 59.8125 63.3125 " fill-opacity="1" fill-rule="nonzero"/></g><path fill="#ffc814" d="M 56.246094 50.023438 C 55.09375 50.585938 54.414062 50.433594 53 50.566406 C 53.015625 50.574219 53.027344 50.582031 53.042969 50.585938 C 55.167969 51.589844 56.445312 51.347656 58.160156 51.972656 C 59.679688 52.527344 61.699219 53.894531 63.453125 57.65625 C 62.289062 57.179688 61.195312 56.535156 60.214844 55.746094 C 59.015625 54.773438 58.679688 54.117188 57.671875 53.886719 C 56.597656 53.640625 56.347656 54.230469 54.882812 54.304688 C 53.605469 54.371094 53.035156 53.960938 51.683594 53.523438 C 51.695312 53.535156 51.703125 53.542969 51.710938 53.554688 C 53.273438 55.316406 54.542969 55.59375 55.875 56.847656 C 57.054688 57.953125 58.375 60.007812 58.507812 64.152344 C 57.617188 63.257812 56.871094 62.238281 56.28125 61.125 C 55.558594 59.753906 55.511719 59.027344 54.671875 58.417969 C 53.78125 57.769531 53.320312 58.210938 51.941406 57.703125 C 50.742188 57.257812 50.378906 56.65625 49.3125 55.726562 C 49.320312 55.742188 49.320312 55.753906 49.324219 55.773438 C 50.066406 58.007812 51.128906 58.761719 51.863281 60.4375 C 52.511719 61.921875 52.914062 64.324219 51.40625 68.1875 C 50.941406 67.015625 50.65625 65.78125 50.550781 64.523438 C 50.425781 62.980469 50.671875 62.292969 50.140625 61.398438 C 49.578125 60.449219 48.980469 60.675781 47.914062 59.667969 C 46.988281 58.789062 46.886719 58.09375 46.273438 56.820312 C 46.273438 56.835938 46.265625 56.855469 46.265625 56.867188 C 46.074219 59.210938 46.75 60.324219 46.761719 62.152344 C 46.773438 63.769531 46.199219 66.140625 43.292969 69.09375 C 43.324219 67.835938 43.550781 66.585938 43.945312 65.390625 C 44.445312 63.929688 44.933594 63.386719 44.792969 62.359375 C 44.648438 61.265625 44.007812 61.238281 43.429688 59.894531 C 42.921875 58.714844 43.105469 58.039062 43.046875 56.628906 C 43.039062 56.640625 43.03125 56.65625 43.027344 56.667969 C 41.925781 58.75 42.105469 60.035156 41.402344 61.722656 C 40.78125 63.210938 39.316406 65.167969 35.480469 66.738281 C 36.011719 65.589844 36.707031 64.53125 37.542969 63.589844 C 38.574219 62.4375 39.238281 62.132812 39.515625 61.132812 C 39.8125 60.074219 39.238281 59.792969 39.230469 58.324219 C 39.222656 57.046875 39.660156 56.496094 40.15625 55.171875 C 40.144531 55.179688 40.132812 55.191406 40.125 55.199219 C 38.296875 56.675781 37.953125 57.933594 36.640625 59.207031 C 35.480469 60.332031 33.367188 61.550781 29.222656 61.484375 C 30.15625 60.644531 31.214844 59.941406 32.355469 59.402344 C 33.757812 58.75 34.488281 58.734375 35.136719 57.925781 C 35.824219 57.066406 35.402344 56.589844 35.976562 55.238281 C 36.480469 54.058594 37.097656 53.726562 38.078125 52.699219 C 38.066406 52.707031 38.050781 52.707031 38.03125 52.714844 C 35.765625 53.351562 34.957031 54.371094 33.257812 55.027344 C 31.746094 55.601562 29.320312 55.894531 25.539062 54.199219 C 26.730469 53.792969 27.976562 53.5625 29.234375 53.515625 C 30.785156 53.460938 31.460938 53.742188 32.375 53.25 C 33.347656 52.734375 33.148438 52.125 34.210938 51.105469 C 35.136719 50.21875 35.832031 50.15625 37.136719 49.601562 C 37.125 49.601562 37.109375 49.59375 37.089844 49.59375 C 34.757812 49.289062 33.613281 49.914062 31.792969 49.839844 C 30.175781 49.773438 27.835938 49.089844 25.023438 46.042969 C 26.28125 46.136719 27.511719 46.421875 28.691406 46.871094 C 30.136719 47.433594 30.652344 47.953125 31.6875 47.867188 C 32.785156 47.773438 32.839844 47.136719 34.214844 46.613281 C 35.414062 46.164062 36.085938 46.382812 37.496094 46.382812 C 37.480469 46.375 37.46875 46.367188 37.457031 46.355469 C 35.429688 45.15625 34.136719 45.277344 32.488281 44.492188 C 31.03125 43.796875 29.148438 42.25 27.757812 38.339844 C 28.878906 38.921875 29.90625 39.664062 30.804688 40.546875 C 31.910156 41.632812 32.175781 42.308594 33.164062 42.640625 C 34.210938 42.984375 34.515625 42.421875 35.976562 42.488281 C 37.257812 42.546875 37.785156 43.003906 39.085938 43.566406 C 39.078125 43.554688 39.066406 43.539062 39.058594 43.527344 C 37.667969 41.625 36.429688 41.226562 35.222656 39.855469 C 34.15625 38.644531 33.039062 36.472656 33.296875 32.339844 C 34.089844 33.3125 34.746094 34.398438 35.230469 35.566406 C 35.820312 36.996094 35.800781 37.730469 36.574219 38.414062 C 37.402344 39.140625 37.898438 38.746094 39.222656 39.378906 C 39.601562 39.558594 39.945312 39.785156 40.257812 40.0625 C 39.675781 39.027344 39.039062 38.3125 38.5625 37.179688 C 37.933594 35.691406 37.546875 33.285156 39.097656 29.4375 C 39.546875 30.617188 39.828125 31.847656 39.917969 33.109375 C 40.027344 34.652344 39.78125 35.339844 40.296875 36.234375 C 40.851562 37.1875 41.449219 36.960938 42.507812 37.988281 C 42.660156 38.136719 42.808594 38.292969 42.941406 38.464844 C 42.703125 37.558594 42.402344 36.777344 42.304688 35.757812 C 42.136719 34.148438 42.488281 31.738281 45.105469 28.515625 C 45.191406 29.777344 45.085938 31.039062 44.800781 32.265625 C 44.449219 33.777344 44.007812 34.359375 44.238281 35.367188 C 44.484375 36.4375 45.125 36.40625 45.835938 37.691406 C 46.449219 38.816406 46.332031 39.507812 46.53125 40.910156 C 46.535156 40.898438 46.542969 40.882812 46.550781 40.871094 C 47.449219 38.699219 47.144531 37.433594 47.6875 35.691406 C 48.171875 34.148438 49.445312 32.066406 53.113281 30.140625 C 52.695312 31.324219 52.105469 32.453125 51.359375 33.464844 C 50.4375 34.710938 49.808594 35.074219 49.625 36.09375 C 49.429688 37.179688 50.027344 37.398438 50.171875 38.863281 C 50.300781 40.140625 49.914062 40.726562 49.542969 42.097656 C 49.558594 42.082031 49.5625 42.078125 49.578125 42.0625 C 51.257812 40.421875 51.476562 39.136719 52.664062 37.746094 C 53.71875 36.511719 55.703125 35.101562 59.835938 34.777344 C 58.984375 35.703125 58.003906 36.503906 56.917969 37.148438 C 55.585938 37.929688 54.855469 38.015625 54.285156 38.882812 C 53.683594 39.804688 54.148438 40.242188 53.703125 41.644531 C 53.320312 42.863281 52.730469 43.253906 51.855469 44.367188 C 51.867188 44.363281 51.882812 44.355469 51.894531 44.355469 C 54.085938 43.507812 54.796875 42.414062 56.433594 41.605469 C 57.882812 40.890625 60.269531 40.375 64.195312 41.699219 C 63.050781 42.214844 61.832031 42.558594 60.578125 42.726562 C 59.042969 42.925781 58.339844 42.710938 57.480469 43.289062 C 56.558594 43.898438 56.816406 44.480469 55.855469 45.59375 C 55.023438 46.566406 54.332031 46.691406 53.085938 47.367188 C 53.101562 47.367188 53.121094 47.367188 53.132812 47.367188 C 55.484375 47.453125 56.566406 46.726562 58.386719 46.625 C 60.003906 46.539062 62.394531 46.996094 65.488281 49.765625 C 64.230469 49.792969 62.96875 49.628906 61.757812 49.289062 C 60.269531 48.867188 59.703125 48.394531 58.683594 48.582031 C 57.566406 48.738281 57.566406 49.375 56.246094 50.023438 Z M 56.246094 50.023438 " fill-opacity="1" fill-rule="nonzero"/><path fill="#cca183" d="M 43.230469 69.160156 L 43.230469 69.074219 C 43.265625 67.808594 43.488281 66.5625 43.886719 65.359375 C 44.046875 64.886719 44.199219 64.519531 44.335938 64.191406 C 44.636719 63.492188 44.828125 63.035156 44.734375 62.339844 C 44.65625 61.75 44.4375 61.476562 44.152344 61.132812 C 43.914062 60.835938 43.636719 60.496094 43.371094 59.882812 C 42.992188 59.011719 42.992188 58.417969 43 57.601562 C 43 57.34375 43 57.050781 42.988281 56.726562 C 42.378906 57.902344 42.171875 58.816406 41.980469 59.707031 C 41.832031 60.378906 41.695312 61 41.398438 61.710938 C 40.523438 63.789062 38.523438 65.484375 35.453125 66.742188 L 35.375 66.777344 L 35.410156 66.695312 C 35.9375 65.550781 36.632812 64.484375 37.476562 63.542969 C 37.804688 63.171875 38.089844 62.894531 38.351562 62.648438 C 38.894531 62.121094 39.257812 61.777344 39.441406 61.101562 C 39.601562 60.53125 39.503906 60.191406 39.382812 59.761719 C 39.277344 59.390625 39.15625 58.972656 39.15625 58.304688 C 39.15625 57.355469 39.390625 56.8125 39.714844 56.058594 C 39.8125 55.820312 39.933594 55.554688 40.046875 55.25 C 39.023438 56.085938 38.476562 56.855469 37.945312 57.597656 C 37.546875 58.152344 37.175781 58.675781 36.621094 59.210938 C 34.996094 60.78125 32.496094 61.550781 29.175781 61.496094 L 29.089844 61.496094 L 29.148438 61.4375 C 30.089844 60.589844 31.144531 59.886719 32.289062 59.351562 C 32.738281 59.140625 33.109375 59 33.441406 58.875 C 34.148438 58.601562 34.621094 58.421875 35.058594 57.878906 C 35.429688 57.417969 35.476562 57.066406 35.527344 56.621094 C 35.574219 56.246094 35.632812 55.8125 35.890625 55.191406 C 36.261719 54.324219 36.695312 53.914062 37.285156 53.351562 C 37.46875 53.171875 37.679688 52.972656 37.914062 52.734375 C 36.648438 53.097656 35.839844 53.589844 35.0625 54.058594 C 34.480469 54.410156 33.929688 54.746094 33.210938 55.019531 C 31.097656 55.828125 28.492188 55.550781 25.464844 54.191406 L 25.386719 54.15625 L 25.464844 54.132812 C 26.664062 53.722656 27.910156 53.496094 29.175781 53.449219 C 29.664062 53.4375 30.070312 53.449219 30.425781 53.460938 C 31.1875 53.496094 31.6875 53.515625 32.300781 53.183594 C 32.824219 52.90625 33.003906 52.601562 33.230469 52.21875 C 33.421875 51.886719 33.640625 51.515625 34.128906 51.042969 C 34.8125 50.390625 35.367188 50.183594 36.136719 49.898438 C 36.382812 49.804688 36.652344 49.707031 36.953125 49.582031 C 35.640625 49.414062 34.714844 49.546875 33.8125 49.679688 C 33.136719 49.773438 32.5 49.867188 31.734375 49.832031 C 29.472656 49.738281 27.1875 48.460938 24.9375 46.023438 L 24.875 45.964844 L 24.964844 45.972656 C 26.222656 46.0625 27.460938 46.347656 28.640625 46.804688 C 29.097656 46.984375 29.460938 47.15625 29.785156 47.308594 C 30.46875 47.632812 30.925781 47.851562 31.621094 47.792969 C 32.210938 47.738281 32.496094 47.535156 32.851562 47.269531 C 33.164062 47.042969 33.507812 46.785156 34.136719 46.546875 C 35.023438 46.214844 35.613281 46.242188 36.433594 46.28125 C 36.695312 46.296875 36.984375 46.308594 37.308594 46.316406 C 36.171875 45.652344 35.261719 45.40625 34.382812 45.167969 C 33.726562 44.992188 33.105469 44.824219 32.40625 44.492188 C 30.367188 43.519531 28.773438 41.445312 27.664062 38.320312 L 27.640625 38.242188 L 27.710938 38.28125 C 28.832031 38.863281 29.859375 39.613281 30.765625 40.492188 C 31.117188 40.835938 31.382812 41.140625 31.621094 41.40625 C 32.125 41.976562 32.453125 42.355469 33.117188 42.574219 C 33.679688 42.757812 34.023438 42.679688 34.453125 42.574219 C 34.824219 42.488281 35.25 42.386719 35.917969 42.414062 C 36.867188 42.453125 37.394531 42.710938 38.132812 43.078125 C 38.363281 43.1875 38.628906 43.316406 38.925781 43.449219 C 38.136719 42.386719 37.402344 41.804688 36.6875 41.242188 C 36.152344 40.816406 35.648438 40.421875 35.136719 39.84375 C 33.648438 38.148438 32.996094 35.609375 33.203125 32.300781 L 33.210938 32.214844 L 33.261719 32.28125 C 34.0625 33.261719 34.714844 34.347656 35.195312 35.511719 C 35.382812 35.96875 35.507812 36.351562 35.621094 36.691406 C 35.859375 37.414062 36.011719 37.890625 36.535156 38.355469 C 36.980469 38.746094 37.324219 38.804688 37.765625 38.882812 C 38.144531 38.949219 38.574219 39.023438 39.175781 39.3125 C 39.496094 39.464844 39.792969 39.652344 40.066406 39.878906 C 39.878906 39.558594 39.679688 39.261719 39.496094 38.976562 C 39.117188 38.40625 38.765625 37.871094 38.460938 37.160156 C 37.582031 35.082031 37.761719 32.472656 39 29.390625 L 39.03125 29.3125 L 39.066406 29.390625 C 39.515625 30.570312 39.792969 31.808594 39.886719 33.074219 C 39.917969 33.566406 39.917969 33.96875 39.917969 34.328125 C 39.914062 35.089844 39.914062 35.585938 40.265625 36.195312 C 40.5625 36.703125 40.875 36.875 41.265625 37.089844 C 41.601562 37.265625 41.984375 37.472656 42.46875 37.941406 C 42.589844 38.054688 42.703125 38.175781 42.800781 38.300781 C 42.753906 38.121094 42.703125 37.941406 42.648438 37.769531 C 42.457031 37.113281 42.277344 36.5 42.199219 35.730469 C 41.964844 33.484375 42.914062 31.039062 45.007812 28.464844 L 45.058594 28.398438 L 45.066406 28.484375 C 45.152344 29.742188 45.046875 31.007812 44.761719 32.238281 C 44.648438 32.722656 44.53125 33.109375 44.421875 33.445312 C 44.199219 34.167969 44.046875 34.652344 44.207031 35.328125 C 44.335938 35.902344 44.582031 36.15625 44.902344 36.472656 C 45.171875 36.742188 45.476562 37.054688 45.792969 37.644531 C 46.25 38.472656 46.304688 39.0625 46.382812 39.882812 C 46.410156 40.140625 46.4375 40.433594 46.476562 40.757812 C 46.972656 39.53125 47.085938 38.597656 47.199219 37.699219 C 47.277344 37.023438 47.359375 36.378906 47.589844 35.652344 C 48.265625 33.5 50.09375 31.617188 53.027344 30.082031 L 53.101562 30.039062 L 53.074219 30.121094 C 52.65625 31.3125 52.0625 32.4375 51.320312 33.457031 C 51.027344 33.855469 50.761719 34.160156 50.53125 34.433594 C 50.035156 35.007812 49.710938 35.394531 49.582031 36.074219 C 49.476562 36.65625 49.609375 36.988281 49.769531 37.398438 C 49.910156 37.757812 50.066406 38.160156 50.132812 38.832031 C 50.226562 39.769531 50.046875 40.335938 49.796875 41.117188 C 49.714844 41.359375 49.628906 41.640625 49.539062 41.957031 C 50.476562 41.03125 50.949219 40.214844 51.40625 39.425781 C 51.75 38.835938 52.066406 38.28125 52.570312 37.699219 C 54.042969 35.980469 56.460938 34.976562 59.765625 34.71875 L 59.851562 34.710938 L 59.789062 34.769531 C 58.9375 35.703125 57.949219 36.5 56.863281 37.148438 C 56.4375 37.398438 56.074219 37.578125 55.757812 37.730469 C 55.074219 38.070312 54.625 38.289062 54.238281 38.871094 C 53.914062 39.367188 53.902344 39.71875 53.890625 40.160156 C 53.875 40.546875 53.863281 40.976562 53.65625 41.617188 C 53.371094 42.519531 52.980469 42.96875 52.445312 43.585938 C 52.273438 43.785156 52.085938 44.003906 51.882812 44.253906 C 53.109375 43.773438 53.863281 43.207031 54.597656 42.664062 C 55.148438 42.261719 55.65625 41.871094 56.351562 41.53125 C 58.378906 40.53125 60.996094 40.566406 64.144531 41.625 L 64.222656 41.652344 L 64.144531 41.683594 C 62.992188 42.203125 61.773438 42.554688 60.511719 42.71875 C 60.023438 42.777344 59.617188 42.804688 59.269531 42.816406 C 58.511719 42.859375 58.007812 42.882812 57.425781 43.269531 C 56.929688 43.59375 56.785156 43.917969 56.589844 44.320312 C 56.433594 44.667969 56.246094 45.0625 55.808594 45.574219 C 55.195312 46.289062 54.65625 46.546875 53.921875 46.90625 C 53.691406 47.015625 53.425781 47.144531 53.140625 47.296875 C 54.457031 47.335938 55.371094 47.117188 56.261719 46.898438 C 56.921875 46.738281 57.550781 46.585938 58.3125 46.546875 C 60.574219 46.421875 62.964844 47.480469 65.433594 49.695312 L 65.492188 49.746094 L 65.40625 49.746094 C 64.144531 49.773438 62.882812 49.609375 61.664062 49.269531 C 61.1875 49.136719 60.8125 49 60.480469 48.871094 C 59.765625 48.613281 59.292969 48.433594 58.605469 48.5625 C 58.023438 48.667969 57.757812 48.90625 57.425781 49.203125 C 57.140625 49.460938 56.816406 49.746094 56.214844 50.042969 C 55.367188 50.460938 54.769531 50.488281 53.957031 50.527344 C 53.695312 50.542969 53.40625 50.554688 53.082031 50.582031 C 54.28125 51.136719 55.207031 51.296875 56.101562 51.449219 C 56.769531 51.5625 57.40625 51.675781 58.128906 51.933594 C 60.246094 52.707031 62.035156 54.621094 63.433594 57.628906 L 63.46875 57.707031 L 63.386719 57.675781 C 62.214844 57.199219 61.121094 56.554688 60.136719 55.761719 C 59.75 55.449219 59.460938 55.171875 59.203125 54.933594 C 58.652344 54.410156 58.289062 54.066406 57.605469 53.914062 C 57.027344 53.78125 56.691406 53.894531 56.265625 54.039062 C 55.902344 54.15625 55.492188 54.296875 54.824219 54.335938 C 53.875 54.382812 53.324219 54.179688 52.558594 53.886719 C 52.3125 53.792969 52.042969 53.695312 51.730469 53.589844 C 52.609375 54.570312 53.40625 55.078125 54.167969 55.574219 C 54.738281 55.945312 55.28125 56.296875 55.84375 56.820312 C 57.484375 58.371094 58.375 60.835938 58.480469 64.148438 L 58.480469 64.234375 L 58.417969 64.171875 C 57.53125 63.273438 56.777344 62.253906 56.1875 61.132812 C 55.957031 60.695312 55.796875 60.324219 55.65625 60 C 55.351562 59.304688 55.15625 58.839844 54.589844 58.429688 C 54.113281 58.078125 53.761719 58.054688 53.3125 58.019531 C 52.929688 57.988281 52.5 57.953125 51.867188 57.722656 C 50.980469 57.390625 50.550781 56.988281 49.960938 56.417969 C 49.777344 56.238281 49.5625 56.039062 49.320312 55.820312 C 49.742188 57.074219 50.273438 57.847656 50.777344 58.601562 C 51.152344 59.164062 51.519531 59.703125 51.824219 60.402344 C 52.722656 62.472656 52.570312 65.085938 51.367188 68.179688 L 51.332031 68.261719 L 51.300781 68.179688 C 50.835938 67 50.542969 65.769531 50.4375 64.511719 C 50.398438 64.019531 50.398438 63.617188 50.390625 63.257812 C 50.386719 62.496094 50.386719 62 50.027344 61.398438 C 49.722656 60.886719 49.410156 60.722656 49.015625 60.515625 C 48.675781 60.339844 48.292969 60.140625 47.800781 59.675781 C 47.113281 59.027344 46.882812 58.476562 46.5625 57.726562 C 46.464844 57.488281 46.34375 57.226562 46.207031 56.925781 C 46.105469 58.246094 46.277344 59.164062 46.449219 60.058594 C 46.578125 60.730469 46.695312 61.363281 46.703125 62.132812 C 46.714844 64.390625 45.550781 66.738281 43.21875 69.101562 Z M 43.046875 56.484375 L 43.050781 56.601562 C 43.074219 56.980469 43.074219 57.3125 43.074219 57.601562 C 43.074219 58.417969 43.074219 59 43.445312 59.855469 C 43.707031 60.464844 43.980469 60.796875 44.21875 61.085938 C 44.511719 61.445312 44.734375 61.722656 44.816406 62.324219 C 44.90625 63.035156 44.707031 63.503906 44.410156 64.214844 C 44.269531 64.539062 44.117188 64.910156 43.960938 65.371094 C 43.570312 66.539062 43.351562 67.75 43.3125 68.980469 C 45.582031 66.652344 46.730469 64.34375 46.714844 62.125 C 46.707031 61.363281 46.589844 60.734375 46.464844 60.066406 C 46.292969 59.152344 46.105469 58.207031 46.226562 56.839844 C 46.226562 56.835938 46.226562 56.820312 46.226562 56.8125 L 46.238281 56.675781 L 46.292969 56.78125 C 46.457031 57.125 46.589844 57.421875 46.703125 57.695312 C 47.019531 58.445312 47.253906 58.980469 47.925781 59.621094 C 48.410156 60.078125 48.789062 60.277344 49.125 60.457031 C 49.53125 60.667969 49.847656 60.835938 50.167969 61.363281 C 50.53125 61.980469 50.539062 62.492188 50.539062 63.257812 C 50.539062 63.609375 50.542969 64.015625 50.582031 64.503906 C 50.683594 65.730469 50.960938 66.929688 51.40625 68.082031 C 52.578125 65.039062 52.722656 62.472656 51.835938 60.4375 C 51.53125 59.734375 51.171875 59.207031 50.796875 58.640625 C 50.273438 57.867188 49.734375 57.074219 49.304688 55.769531 C 49.304688 55.761719 49.300781 55.753906 49.300781 55.742188 L 49.257812 55.609375 L 49.351562 55.6875 C 49.636719 55.941406 49.875 56.164062 50.085938 56.363281 C 50.675781 56.925781 51.101562 57.332031 51.976562 57.65625 C 52.597656 57.886719 53.019531 57.921875 53.398438 57.945312 C 53.855469 57.980469 54.214844 58.011719 54.710938 58.371094 C 55.285156 58.792969 55.492188 59.257812 55.796875 59.96875 C 55.9375 60.292969 56.09375 60.664062 56.328125 61.09375 C 56.902344 62.179688 57.632812 63.171875 58.492188 64.054688 C 58.375 60.800781 57.5 58.378906 55.875 56.859375 C 55.320312 56.335938 54.785156 55.992188 54.214844 55.621094 C 53.433594 55.117188 52.625 54.59375 51.710938 53.570312 L 51.605469 53.441406 L 51.714844 53.480469 C 52.074219 53.601562 52.386719 53.714844 52.65625 53.8125 C 53.417969 54.097656 53.96875 54.304688 54.894531 54.257812 C 55.558594 54.222656 55.960938 54.085938 56.320312 53.964844 C 56.75 53.820312 57.09375 53.699219 57.691406 53.839844 C 58.394531 54 58.757812 54.351562 59.320312 54.878906 C 59.578125 55.125 59.871094 55.398438 60.253906 55.707031 C 61.214844 56.484375 62.273438 57.113281 63.40625 57.574219 C 62.023438 54.628906 60.261719 52.753906 58.175781 51.992188 C 57.460938 51.726562 56.824219 51.621094 56.15625 51.507812 C 55.234375 51.347656 54.285156 51.191406 53.046875 50.609375 C 53.042969 50.601562 53.035156 50.601562 53.027344 50.59375 L 52.902344 50.535156 L 53.019531 50.523438 C 53.398438 50.488281 53.730469 50.46875 54.023438 50.457031 C 54.828125 50.414062 55.417969 50.390625 56.253906 49.976562 C 56.851562 49.6875 57.167969 49.402344 57.453125 49.152344 C 57.789062 48.84375 58.0625 48.605469 58.664062 48.496094 C 59.367188 48.367188 59.851562 48.539062 60.574219 48.804688 C 60.902344 48.925781 61.28125 49.0625 61.75 49.203125 C 62.9375 49.535156 64.15625 49.699219 65.386719 49.679688 C 62.949219 47.519531 60.59375 46.480469 58.378906 46.605469 C 57.617188 46.648438 56.996094 46.800781 56.332031 46.957031 C 55.425781 47.175781 54.492188 47.402344 53.121094 47.347656 L 52.957031 47.34375 L 53.0625 47.28125 C 53.390625 47.105469 53.691406 46.957031 53.957031 46.832031 C 54.683594 46.480469 55.214844 46.222656 55.824219 45.515625 C 56.253906 45.011719 56.4375 44.621094 56.597656 44.28125 C 56.789062 43.863281 56.941406 43.539062 57.453125 43.203125 C 58.050781 42.804688 58.558594 42.777344 59.328125 42.738281 C 59.679688 42.71875 60.082031 42.699219 60.566406 42.640625 C 61.785156 42.480469 62.96875 42.148438 64.097656 41.644531 C 61.011719 40.617188 58.433594 40.59375 56.4375 41.578125 C 55.757812 41.917969 55.242188 42.300781 54.699219 42.707031 C 53.949219 43.261719 53.171875 43.839844 51.894531 44.335938 C 51.890625 44.335938 51.882812 44.339844 51.867188 44.339844 L 51.738281 44.386719 L 51.808594 44.296875 C 52.042969 43.996094 52.257812 43.746094 52.453125 43.527344 C 52.980469 42.910156 53.371094 42.472656 53.652344 41.578125 C 53.847656 40.949219 53.863281 40.519531 53.875 40.140625 C 53.890625 39.683594 53.902344 39.320312 54.238281 38.8125 C 54.636719 38.214844 55.089844 37.988281 55.785156 37.644531 C 56.101562 37.484375 56.460938 37.3125 56.882812 37.0625 C 57.941406 36.433594 58.902344 35.664062 59.738281 34.761719 C 56.492188 35.035156 54.113281 36.027344 52.671875 37.71875 C 52.171875 38.300781 51.855469 38.851562 51.511719 39.441406 C 51.039062 40.246094 50.558594 41.082031 49.578125 42.035156 L 49.457031 42.148438 L 49.492188 42.03125 C 49.589844 41.664062 49.691406 41.347656 49.78125 41.070312 C 50.035156 40.292969 50.214844 39.738281 50.121094 38.8125 C 50.054688 38.148438 49.902344 37.75 49.761719 37.398438 C 49.597656 36.976562 49.464844 36.636719 49.570312 36.035156 C 49.695312 35.328125 50.027344 34.941406 50.53125 34.359375 C 50.761719 34.085938 51.019531 33.78125 51.3125 33.390625 C 52.042969 32.398438 52.617188 31.3125 53.035156 30.152344 C 50.160156 31.675781 48.363281 33.523438 47.703125 35.644531 C 47.476562 36.375 47.398438 37.007812 47.316406 37.683594 C 47.207031 38.613281 47.085938 39.566406 46.5625 40.832031 C 46.5625 40.835938 46.554688 40.84375 46.554688 40.851562 L 46.503906 40.984375 L 46.484375 40.863281 C 46.429688 40.488281 46.398438 40.160156 46.371094 39.871094 C 46.296875 39.0625 46.238281 38.480469 45.792969 37.65625 C 45.476562 37.074219 45.171875 36.769531 44.90625 36.5 C 44.589844 36.175781 44.332031 35.914062 44.199219 35.320312 C 44.039062 34.625 44.191406 34.132812 44.421875 33.398438 C 44.53125 33.0625 44.648438 32.675781 44.761719 32.199219 C 45.039062 31 45.140625 29.777344 45.066406 28.542969 C 43.019531 31.082031 42.097656 33.484375 42.324219 35.691406 C 42.402344 36.453125 42.582031 37.070312 42.769531 37.71875 C 42.835938 37.9375 42.898438 38.167969 42.960938 38.398438 L 43 38.550781 L 42.898438 38.425781 C 42.769531 38.261719 42.628906 38.101562 42.476562 37.957031 C 42 37.492188 41.621094 37.292969 41.289062 37.113281 C 40.886719 36.894531 40.570312 36.722656 40.265625 36.199219 C 39.90625 35.578125 39.90625 35.074219 39.914062 34.300781 C 39.914062 33.949219 39.917969 33.542969 39.878906 33.054688 C 39.785156 31.828125 39.527344 30.625 39.089844 29.472656 C 37.886719 32.5 37.714844 35.066406 38.582031 37.109375 C 38.878906 37.808594 39.230469 38.347656 39.609375 38.910156 C 39.828125 39.246094 40.058594 39.59375 40.277344 39.984375 L 40.375 40.160156 L 40.222656 40.023438 C 39.917969 39.746094 39.574219 39.519531 39.203125 39.339844 C 38.609375 39.054688 38.183594 38.976562 37.8125 38.917969 C 37.363281 38.835938 37.003906 38.777344 36.546875 38.375 C 36.011719 37.898438 35.851562 37.414062 35.613281 36.683594 C 35.5 36.347656 35.382812 35.96875 35.191406 35.511719 C 34.71875 34.378906 34.089844 33.3125 33.316406 32.359375 C 33.125 35.609375 33.773438 38.101562 35.238281 39.769531 C 35.738281 40.339844 36.242188 40.738281 36.773438 41.160156 C 37.5 41.738281 38.261719 42.335938 39.070312 43.441406 C 39.078125 43.449219 39.078125 43.453125 39.085938 43.460938 L 39.164062 43.574219 L 39.050781 43.527344 C 38.699219 43.375 38.410156 43.234375 38.144531 43.101562 C 37.414062 42.746094 36.886719 42.492188 35.953125 42.445312 C 35.289062 42.421875 34.871094 42.511719 34.5 42.597656 C 34.058594 42.707031 33.707031 42.785156 33.125 42.59375 C 32.441406 42.367188 32.109375 41.984375 31.601562 41.40625 C 31.367188 41.140625 31.101562 40.835938 30.753906 40.492188 C 29.871094 39.632812 28.878906 38.910156 27.792969 38.332031 C 28.890625 41.402344 30.46875 43.433594 32.472656 44.386719 C 33.164062 44.71875 33.777344 44.882812 34.433594 45.058594 C 35.335938 45.300781 36.261719 45.554688 37.441406 46.25 L 37.582031 46.335938 L 37.460938 46.335938 C 37.085938 46.335938 36.753906 46.320312 36.460938 46.300781 C 35.652344 46.261719 35.0625 46.234375 34.191406 46.558594 C 33.566406 46.792969 33.222656 47.050781 32.917969 47.277344 C 32.546875 47.546875 32.253906 47.757812 31.652344 47.8125 C 30.9375 47.871094 30.480469 47.652344 29.785156 47.320312 C 29.46875 47.167969 29.101562 46.996094 28.644531 46.820312 C 27.5 46.375 26.292969 46.097656 25.070312 45.996094 C 27.289062 48.382812 29.539062 49.632812 31.757812 49.71875 C 32.519531 49.753906 33.15625 49.660156 33.824219 49.566406 C 34.746094 49.433594 35.699219 49.304688 37.066406 49.480469 L 37.230469 49.5 L 37.117188 49.546875 C 36.765625 49.695312 36.460938 49.8125 36.183594 49.914062 C 35.421875 50.195312 34.871094 50.402344 34.195312 51.042969 C 33.71875 51.5 33.5 51.871094 33.308594 52.199219 C 33.078125 52.59375 32.890625 52.90625 32.355469 53.191406 C 31.71875 53.527344 31.214844 53.507812 30.449219 53.476562 C 30.097656 53.460938 29.691406 53.441406 29.203125 53.460938 C 27.96875 53.507812 26.757812 53.726562 25.59375 54.117188 C 28.574219 55.4375 31.128906 55.703125 33.210938 54.90625 C 33.925781 54.636719 34.46875 54.304688 35.050781 53.953125 C 35.847656 53.46875 36.675781 52.964844 37.992188 52.59375 C 38 52.59375 38.003906 52.589844 38.019531 52.589844 L 38.15625 52.546875 L 38.070312 52.632812 C 37.804688 52.90625 37.566406 53.136719 37.355469 53.335938 C 36.765625 53.898438 36.34375 54.304688 35.976562 55.15625 C 35.71875 55.769531 35.667969 56.191406 35.621094 56.570312 C 35.5625 57.027344 35.515625 57.382812 35.136719 57.859375 C 34.6875 58.417969 34.210938 58.601562 33.496094 58.875 C 33.164062 59 32.785156 59.140625 32.34375 59.351562 C 31.230469 59.875 30.203125 60.554688 29.28125 61.371094 C 32.539062 61.410156 34.996094 60.644531 36.59375 59.097656 C 37.144531 58.570312 37.515625 58.046875 37.914062 57.496094 C 38.457031 56.742188 39.011719 55.953125 40.085938 55.09375 L 40.21875 54.984375 L 40.179688 55.097656 C 40.046875 55.457031 39.914062 55.753906 39.800781 56.027344 C 39.480469 56.773438 39.25 57.3125 39.25 58.246094 C 39.25 58.90625 39.371094 59.316406 39.476562 59.683594 C 39.601562 60.121094 39.699219 60.46875 39.535156 61.058594 C 39.34375 61.75 38.980469 62.105469 38.421875 62.636719 C 38.171875 62.882812 37.878906 63.160156 37.554688 63.523438 C 36.738281 64.445312 36.058594 65.472656 35.535156 66.585938 C 38.542969 65.339844 40.503906 63.667969 41.363281 61.617188 C 41.660156 60.914062 41.792969 60.285156 41.941406 59.621094 C 42.136719 58.714844 42.34375 57.769531 42.988281 56.5625 C 42.992188 56.554688 42.992188 56.550781 43 56.542969 Z M 43.046875 56.484375 " fill-opacity="1" fill-rule="nonzero"/><g clip-path="url(#id2)"><path fill="#cca183" d="M 44.914062 16.5625 C 44.933594 12.261719 44.933594 8.03125 44.914062 3.757812 Z M 44.945312 16.59375 L 44.878906 16.59375 L 44.878906 16.394531 L 44.886719 16.394531 L 44.886719 15.765625 L 44.953125 15.765625 Z M 44.945312 15.601562 L 44.878906 15.601562 L 44.878906 14.804688 L 44.894531 14.804688 L 44.894531 14.175781 L 44.960938 14.175781 L 44.960938 14.972656 L 44.945312 14.972656 Z M 44.945312 14.011719 L 44.878906 14.011719 L 44.878906 13.214844 L 44.894531 13.214844 L 44.894531 12.585938 L 44.960938 12.585938 L 44.960938 13.382812 L 44.945312 13.382812 Z M 44.945312 12.421875 L 44.878906 12.421875 L 44.878906 11.625 L 44.902344 11.625 L 44.902344 10.996094 L 44.96875 10.996094 L 44.96875 11.792969 L 44.945312 11.792969 Z M 44.945312 10.832031 L 44.878906 10.832031 L 44.878906 10.035156 L 44.902344 10.035156 L 44.902344 9.40625 L 44.96875 9.40625 L 44.96875 10.203125 L 44.945312 10.203125 Z M 44.945312 9.242188 L 44.878906 9.242188 L 44.878906 8.445312 L 44.902344 8.445312 L 44.902344 7.816406 L 44.96875 7.816406 L 44.96875 8.613281 L 44.945312 8.613281 Z M 44.945312 7.652344 L 44.878906 7.652344 L 44.878906 6.855469 L 44.894531 6.855469 L 44.894531 6.226562 L 44.960938 6.226562 L 44.960938 7.023438 L 44.945312 7.023438 Z M 44.945312 6.0625 L 44.878906 6.0625 L 44.878906 5.269531 L 44.886719 5.269531 C 44.886719 5.054688 44.886719 4.851562 44.886719 4.636719 L 44.953125 4.636719 C 44.953125 4.902344 44.953125 5.167969 44.960938 5.433594 L 44.953125 5.433594 L 44.953125 6.0625 Z M 44.945312 4.472656 L 44.878906 4.472656 L 44.878906 3.765625 L 44.945312 3.765625 Z M 44.914062 48.414062 C 44.941406 38.441406 44.941406 28.503906 44.914062 18.507812 M 44.945312 48.414062 L 44.878906 48.414062 L 44.878906 47.621094 L 44.945312 47.621094 Z M 44.886719 46.824219 L 44.886719 46.03125 L 44.953125 46.03125 L 44.953125 46.824219 Z M 44.886719 45.234375 L 44.886719 44.441406 L 44.953125 44.441406 L 44.953125 45.234375 Z M 44.960938 43.644531 L 44.894531 43.644531 L 44.894531 42.851562 L 44.960938 42.851562 Z M 44.960938 42.054688 L 44.894531 42.054688 L 44.894531 41.261719 L 44.960938 41.261719 Z M 44.960938 40.464844 L 44.894531 40.464844 L 44.894531 39.671875 L 44.960938 39.671875 Z M 44.96875 38.875 L 44.902344 38.875 L 44.902344 38.082031 L 44.96875 38.082031 Z M 44.96875 37.289062 L 44.902344 37.289062 L 44.902344 36.492188 L 44.96875 36.492188 Z M 44.96875 35.699219 L 44.902344 35.699219 L 44.902344 34.902344 L 44.96875 34.902344 Z M 44.96875 34.109375 L 44.902344 34.109375 L 44.902344 33.3125 L 44.96875 33.3125 Z M 44.902344 32.519531 L 44.902344 31.722656 L 44.96875 31.722656 L 44.96875 32.519531 Z M 44.902344 30.929688 L 44.902344 30.132812 L 44.96875 30.132812 L 44.96875 30.929688 Z M 44.902344 29.339844 L 44.902344 28.542969 L 44.96875 28.542969 L 44.96875 29.339844 Z M 44.902344 27.75 L 44.902344 26.953125 L 44.96875 26.953125 L 44.96875 27.75 Z M 44.894531 26.160156 L 44.894531 25.363281 L 44.960938 25.363281 L 44.960938 26.160156 Z M 44.894531 24.570312 L 44.894531 23.773438 L 44.960938 23.773438 L 44.960938 24.570312 Z M 44.894531 22.980469 L 44.894531 22.183594 L 44.960938 22.183594 L 44.960938 22.980469 Z M 44.886719 21.390625 L 44.886719 20.59375 L 44.953125 20.59375 L 44.953125 21.390625 Z M 44.878906 19.800781 L 44.878906 19.003906 L 44.945312 19.003906 L 44.945312 19.800781 Z M 68.261719 25.125 C 71.039062 22.34375 73.8125 19.570312 76.589844 16.800781 M 68.28125 25.144531 L 68.238281 25.097656 L 68.800781 24.535156 L 68.847656 24.582031 Z M 69.410156 24.027344 L 69.363281 23.980469 L 69.925781 23.417969 L 69.972656 23.464844 Z M 70.535156 22.898438 L 70.488281 22.855469 L 71.050781 22.289062 L 71.097656 22.335938 Z M 71.652344 21.773438 L 71.609375 21.726562 L 72.171875 21.164062 L 72.21875 21.210938 Z M 72.78125 20.648438 L 72.734375 20.601562 L 73.296875 20.039062 L 73.34375 20.085938 Z M 73.90625 19.527344 L 73.859375 19.480469 L 74.421875 18.917969 L 74.46875 18.964844 Z M 75.027344 18.402344 L 74.980469 18.355469 L 75.542969 17.792969 L 75.589844 17.839844 Z M 76.152344 17.277344 L 76.105469 17.230469 L 76.5625 16.773438 L 76.609375 16.820312 Z M 45.011719 48.375 C 52.292969 41.023438 59.644531 33.804688 66.917969 26.46875 M 45.039062 48.394531 L 44.992188 48.347656 L 45.550781 47.785156 L 45.597656 47.832031 Z M 46.160156 47.269531 L 46.113281 47.222656 L 46.675781 46.660156 L 46.722656 46.707031 Z M 47.277344 46.144531 L 47.230469 46.097656 L 47.796875 45.535156 L 47.839844 45.582031 Z M 48.398438 45.015625 L 48.351562 44.972656 L 48.914062 44.40625 L 48.960938 44.453125 Z M 49.523438 43.890625 L 49.476562 43.84375 L 50.039062 43.28125 L 50.085938 43.328125 Z M 50.648438 42.765625 L 50.605469 42.71875 L 51.167969 42.15625 L 51.214844 42.203125 Z M 51.777344 41.640625 L 51.730469 41.59375 L 52.292969 41.03125 L 52.339844 41.074219 Z M 52.894531 40.519531 L 52.847656 40.472656 L 53.414062 39.910156 L 53.457031 39.957031 Z M 54.023438 39.398438 L 53.976562 39.355469 L 54.539062 38.789062 L 54.585938 38.835938 Z M 55.15625 38.273438 L 55.109375 38.226562 L 55.671875 37.664062 L 55.71875 37.710938 Z M 56.28125 37.15625 L 56.234375 37.109375 L 56.796875 36.546875 L 56.84375 36.589844 Z M 57.40625 36.035156 L 57.359375 35.988281 L 57.921875 35.425781 L 57.96875 35.472656 Z M 58.53125 34.910156 L 58.484375 34.863281 L 59.050781 34.300781 L 59.09375 34.347656 Z M 59.660156 33.789062 L 59.613281 33.742188 L 60.175781 33.179688 L 60.222656 33.226562 Z M 60.785156 32.664062 L 60.738281 32.617188 L 61.300781 32.054688 L 61.347656 32.101562 Z M 61.910156 31.542969 L 61.863281 31.496094 L 62.425781 30.933594 L 62.472656 30.980469 Z M 63.03125 30.417969 L 62.984375 30.371094 L 63.546875 29.808594 L 63.59375 29.855469 Z M 64.15625 29.292969 L 64.109375 29.246094 L 64.671875 28.683594 L 64.71875 28.730469 Z M 65.277344 28.167969 L 65.230469 28.121094 L 65.792969 27.558594 L 65.839844 27.601562 Z M 66.402344 27.039062 L 66.355469 26.992188 L 66.898438 26.449219 L 66.945312 26.496094 Z M 89.769531 48.449219 L 89.632812 48.449219 L 89.632812 48.382812 L 89.769531 48.382812 Z M 88.828125 48.449219 L 88.035156 48.449219 L 88.035156 48.382812 L 88.828125 48.382812 Z M 87.238281 48.449219 L 86.445312 48.449219 L 86.445312 48.382812 L 87.238281 48.382812 Z M 85.648438 48.449219 L 84.855469 48.449219 L 84.855469 48.382812 L 85.648438 48.382812 Z M 84.0625 48.449219 L 83.265625 48.449219 L 83.265625 48.382812 L 84.0625 48.382812 Z M 82.472656 48.449219 L 81.675781 48.449219 L 81.675781 48.382812 L 82.472656 48.382812 Z M 80.882812 48.449219 L 80.085938 48.449219 L 80.085938 48.382812 L 80.882812 48.382812 Z M 79.292969 48.449219 L 78.496094 48.449219 L 78.496094 48.382812 L 79.292969 48.382812 Z M 77.703125 48.449219 L 76.90625 48.449219 L 76.90625 48.382812 L 77.703125 48.382812 Z M 76.113281 48.449219 L 75.316406 48.449219 L 75.316406 48.382812 L 76.113281 48.382812 Z M 74.523438 48.449219 L 73.726562 48.449219 L 73.726562 48.382812 L 74.523438 48.382812 Z M 72.933594 48.449219 L 72.136719 48.449219 L 72.136719 48.382812 L 72.933594 48.382812 Z M 71.34375 48.449219 L 70.546875 48.449219 L 70.546875 48.382812 L 71.34375 48.382812 Z M 69.753906 48.449219 L 68.957031 48.449219 L 68.957031 48.382812 L 69.753906 48.382812 Z M 68.164062 48.449219 L 67.367188 48.449219 L 67.367188 48.382812 L 68.164062 48.382812 Z M 66.574219 48.449219 L 65.777344 48.449219 L 65.777344 48.382812 L 66.574219 48.382812 Z M 64.984375 48.449219 L 64.1875 48.449219 L 64.1875 48.382812 L 64.984375 48.382812 Z M 63.394531 48.449219 L 62.597656 48.449219 L 62.597656 48.382812 L 63.394531 48.382812 Z M 61.804688 48.449219 L 61.011719 48.449219 L 61.011719 48.382812 L 61.804688 48.382812 Z M 60.214844 48.449219 L 59.421875 48.449219 L 59.421875 48.382812 L 60.214844 48.382812 Z M 58.625 48.449219 L 57.832031 48.449219 L 57.832031 48.382812 L 58.625 48.382812 Z M 57.035156 48.449219 L 56.242188 48.449219 L 56.242188 48.382812 L 57.035156 48.382812 Z M 55.445312 48.449219 L 54.652344 48.449219 L 54.652344 48.382812 L 55.445312 48.382812 Z M 53.855469 48.449219 L 53.0625 48.449219 L 53.0625 48.382812 L 53.855469 48.382812 Z M 52.265625 48.449219 L 51.472656 48.449219 L 51.472656 48.382812 L 52.265625 48.382812 Z M 50.675781 48.449219 L 49.882812 48.449219 L 49.882812 48.382812 L 50.675781 48.382812 Z M 49.085938 48.449219 L 48.292969 48.449219 L 48.292969 48.382812 L 49.085938 48.382812 Z M 47.496094 48.449219 L 46.703125 48.449219 L 46.703125 48.382812 L 47.496094 48.382812 Z M 45.90625 48.449219 L 45.113281 48.449219 L 45.113281 48.382812 L 45.90625 48.382812 Z M 76.707031 80.117188 L 76.609375 80.015625 L 76.65625 79.972656 L 76.753906 80.070312 Z M 76.046875 79.453125 L 75.484375 78.890625 L 75.527344 78.84375 L 76.09375 79.40625 Z M 74.917969 78.328125 L 74.355469 77.765625 L 74.402344 77.71875 L 74.964844 78.28125 Z M 73.800781 77.203125 L 73.238281 76.640625 L 73.285156 76.59375 L 73.847656 77.15625 Z M 72.675781 76.078125 L 72.109375 75.511719 L 72.15625 75.46875 L 72.71875 76.03125 Z M 71.546875 74.957031 L 70.984375 74.394531 L 71.03125 74.347656 L 71.59375 74.910156 Z M 70.421875 73.832031 L 69.859375 73.269531 L 69.90625 73.222656 L 70.46875 73.785156 Z M 69.304688 72.703125 L 68.738281 72.140625 L 68.785156 72.09375 L 69.347656 72.660156 Z M 68.175781 71.585938 L 67.613281 71.023438 L 67.660156 70.976562 L 68.222656 71.539062 Z M 67.050781 70.460938 L 66.488281 69.894531 L 66.535156 69.851562 L 67.097656 70.414062 Z M 65.929688 69.332031 L 65.367188 68.769531 L 65.414062 68.722656 L 65.976562 69.285156 Z M 64.804688 68.214844 L 64.242188 67.652344 L 64.289062 67.605469 L 64.851562 68.167969 Z M 63.679688 67.085938 L 63.117188 66.523438 L 63.164062 66.476562 L 63.726562 67.042969 Z M 62.558594 65.960938 L 61.996094 65.398438 L 62.042969 65.351562 L 62.605469 65.914062 Z M 61.433594 64.835938 L 60.871094 64.273438 L 60.917969 64.226562 L 61.480469 64.789062 Z M 60.308594 63.714844 L 59.746094 63.152344 L 59.789062 63.105469 L 60.355469 63.667969 Z M 59.179688 62.589844 L 58.617188 62.027344 L 58.664062 61.980469 L 59.226562 62.542969 Z M 58.0625 61.464844 L 57.5 60.902344 L 57.546875 60.855469 L 58.109375 61.417969 Z M 56.9375 60.34375 L 56.375 59.78125 L 56.417969 59.734375 L 56.984375 60.296875 Z M 55.808594 59.21875 L 55.246094 58.65625 L 55.292969 58.609375 L 55.855469 59.171875 Z M 54.691406 58.09375 L 54.128906 57.53125 L 54.175781 57.484375 L 54.738281 58.046875 Z M 53.566406 56.972656 L 53 56.410156 L 53.046875 56.363281 L 53.609375 56.925781 Z M 52.4375 55.847656 L 51.875 55.285156 L 51.921875 55.238281 L 52.484375 55.800781 Z M 51.3125 54.722656 L 50.75 54.15625 L 50.796875 54.113281 L 51.359375 54.675781 Z M 50.191406 53.59375 L 49.628906 53.03125 L 49.675781 52.984375 L 50.238281 53.546875 Z M 49.066406 52.476562 L 48.503906 51.914062 L 48.550781 51.867188 L 49.113281 52.429688 Z M 47.941406 51.347656 L 47.378906 50.785156 L 47.425781 50.738281 L 47.988281 51.304688 Z M 46.820312 50.222656 L 46.257812 49.660156 L 46.304688 49.613281 L 46.867188 50.175781 Z M 45.695312 49.105469 L 45.132812 48.542969 L 45.179688 48.496094 L 45.742188 49.058594 Z M 45.144531 93.273438 L 45.078125 93.273438 L 45.078125 93.132812 L 45.144531 93.132812 Z M 45.144531 92.332031 L 45.078125 92.332031 L 45.078125 91.535156 L 45.144531 91.535156 Z M 45.144531 90.742188 L 45.078125 90.742188 L 45.078125 89.945312 L 45.144531 89.945312 Z M 45.144531 89.152344 L 45.078125 89.152344 L 45.078125 88.355469 L 45.144531 88.355469 Z M 45.144531 87.5625 L 45.078125 87.5625 L 45.078125 86.765625 L 45.144531 86.765625 Z M 45.144531 85.972656 L 45.078125 85.972656 L 45.078125 85.175781 L 45.144531 85.175781 Z M 45.144531 84.382812 L 45.078125 84.382812 L 45.078125 83.585938 L 45.144531 83.585938 Z M 45.144531 82.792969 L 45.078125 82.792969 L 45.078125 81.996094 L 45.144531 81.996094 Z M 45.144531 81.203125 L 45.078125 81.203125 L 45.078125 80.410156 L 45.144531 80.410156 Z M 45.144531 79.613281 L 45.078125 79.613281 L 45.078125 78.820312 L 45.144531 78.820312 Z M 45.144531 78.023438 L 45.078125 78.023438 L 45.078125 77.230469 L 45.144531 77.230469 Z M 45.144531 76.433594 L 45.078125 76.433594 L 45.078125 75.640625 L 45.144531 75.640625 Z M 45.144531 74.84375 L 45.078125 74.84375 L 45.078125 74.050781 L 45.144531 74.050781 Z M 45.144531 73.253906 L 45.078125 73.253906 L 45.078125 72.460938 L 45.144531 72.460938 Z M 45.144531 71.664062 L 45.078125 71.664062 L 45.078125 70.871094 L 45.144531 70.871094 Z M 45.144531 70.074219 L 45.078125 70.074219 L 45.078125 69.28125 L 45.144531 69.28125 Z M 45.144531 68.484375 L 45.078125 68.484375 L 45.078125 67.691406 L 45.144531 67.691406 Z M 45.144531 66.894531 L 45.078125 66.894531 L 45.078125 66.101562 L 45.144531 66.101562 Z M 45.144531 65.304688 L 45.078125 65.304688 L 45.078125 64.511719 L 45.144531 64.511719 Z M 45.144531 63.714844 L 45.078125 63.714844 L 45.078125 62.921875 L 45.144531 62.921875 Z M 45.144531 62.125 L 45.078125 62.125 L 45.078125 61.332031 L 45.144531 61.332031 Z M 45.144531 60.535156 L 45.078125 60.535156 L 45.078125 59.742188 L 45.144531 59.742188 Z M 45.144531 58.945312 L 45.078125 58.945312 L 45.078125 58.152344 L 45.144531 58.152344 Z M 45.144531 57.355469 L 45.078125 57.355469 L 45.078125 56.5625 L 45.144531 56.5625 Z M 45.144531 55.769531 L 45.078125 55.769531 L 45.078125 54.972656 L 45.144531 54.972656 Z M 45.144531 54.179688 L 45.078125 54.179688 L 45.078125 53.382812 L 45.144531 53.382812 Z M 45.144531 52.589844 L 45.078125 52.589844 L 45.078125 51.792969 L 45.144531 51.792969 Z M 45.144531 51 L 45.078125 51 L 45.078125 50.203125 L 45.144531 50.203125 Z M 45.144531 49.410156 L 45.078125 49.410156 L 45.078125 48.613281 L 45.144531 48.613281 Z M 17.253906 76.421875 C 16.722656 76.992188 16.125 77.519531 15.597656 78.117188 C 14.800781 78.777344 14.207031 79.574219 13.4375 80.234375 M 13.464844 80.257812 L 13.417969 80.203125 C 13.5625 80.078125 13.714844 79.9375 13.875 79.777344 L 13.921875 79.824219 C 13.753906 79.992188 13.609375 80.128906 13.464844 80.257812 Z M 14.476562 79.253906 L 14.429688 79.210938 L 14.445312 79.195312 C 14.617188 79.011719 14.796875 78.824219 14.980469 78.640625 L 15.027344 78.6875 C 14.839844 78.871094 14.664062 79.058594 14.492188 79.242188 Z M 15.609375 78.148438 L 15.570312 78.097656 L 15.582031 78.089844 C 15.734375 77.925781 15.902344 77.738281 16.121094 77.527344 L 16.167969 77.574219 C 15.953125 77.792969 15.78125 77.96875 15.628906 78.144531 Z M 16.722656 77.011719 L 16.675781 76.964844 C 16.84375 76.796875 17.039062 76.597656 17.234375 76.394531 L 17.28125 76.441406 C 17.085938 76.644531 16.886719 76.84375 16.722656 77.011719 Z M 45.011719 48.660156 C 35.933594 57.78125 26.792969 66.789062 17.683594 75.988281 M 17.710938 76.011719 L 17.664062 75.964844 L 18.015625 75.605469 L 18.0625 75.652344 Z M 18.617188 75.089844 L 18.570312 75.042969 L 19.128906 74.480469 L 19.171875 74.527344 Z M 19.742188 73.964844 L 19.695312 73.917969 L 20.261719 73.355469 L 20.304688 73.398438 Z M 20.863281 72.835938 L 20.816406 72.789062 L 21.378906 72.226562 L 21.425781 72.273438 Z M 21.980469 71.710938 L 21.9375 71.664062 L 22.5 71.101562 L 22.546875 71.148438 Z M 23.101562 70.585938 L 23.054688 70.539062 L 23.617188 69.976562 L 23.664062 70.023438 Z M 24.226562 69.460938 L 24.179688 69.414062 L 24.746094 68.851562 L 24.789062 68.894531 Z M 25.355469 68.332031 L 25.308594 68.285156 L 25.871094 67.722656 L 25.917969 67.769531 Z M 26.472656 67.214844 L 26.425781 67.167969 L 26.988281 66.605469 L 27.035156 66.652344 Z M 27.597656 66.085938 L 27.554688 66.042969 L 28.117188 65.476562 L 28.164062 65.523438 Z M 28.726562 64.96875 L 28.679688 64.921875 L 29.242188 64.359375 L 29.289062 64.40625 Z M 29.851562 63.84375 L 29.804688 63.796875 L 30.367188 63.234375 L 30.414062 63.277344 Z M 30.976562 62.722656 L 30.929688 62.675781 L 31.492188 62.113281 L 31.539062 62.160156 Z M 32.101562 61.601562 L 32.058594 61.558594 L 32.621094 60.992188 L 32.667969 61.039062 Z M 33.230469 60.476562 L 33.183594 60.429688 L 33.746094 59.867188 L 33.792969 59.914062 Z M 34.355469 59.359375 L 34.308594 59.3125 L 34.871094 58.75 L 34.917969 58.792969 Z M 35.480469 58.230469 L 35.433594 58.183594 L 36 57.621094 L 36.042969 57.667969 Z M 36.609375 57.113281 L 36.5625 57.066406 L 37.125 56.503906 L 37.171875 56.550781 Z M 37.734375 55.992188 L 37.6875 55.945312 L 38.25 55.382812 L 38.296875 55.429688 Z M 38.859375 54.867188 L 38.8125 54.820312 L 39.375 54.257812 L 39.421875 54.304688 Z M 39.984375 53.742188 L 39.9375 53.695312 L 40.503906 53.132812 L 40.546875 53.175781 Z M 41.105469 52.621094 L 41.058594 52.574219 L 41.621094 52.011719 L 41.667969 52.058594 Z M 42.230469 51.496094 L 42.183594 51.449219 L 42.746094 50.886719 L 42.792969 50.933594 Z M 43.355469 50.371094 L 43.3125 50.324219 L 43.875 49.761719 L 43.921875 49.804688 Z M 44.476562 49.242188 L 44.429688 49.195312 L 44.992188 48.632812 L 45.039062 48.679688 Z M 6.832031 48.613281 L 5.113281 48.613281 C 5.113281 48.621094 5.113281 48.621094 5.113281 48.628906 C 5.6875 48.628906 6.265625 48.621094 6.832031 48.613281 Z M 5.078125 48.660156 L 5.078125 48.582031 L 5.242188 48.582031 L 5.242188 48.59375 C 5.417969 48.59375 5.589844 48.59375 5.753906 48.59375 L 5.753906 48.660156 C 5.542969 48.660156 5.324219 48.660156 5.105469 48.667969 Z M 6.546875 48.652344 L 6.039062 48.652344 L 6.039062 48.585938 L 6.832031 48.585938 L 6.832031 48.652344 Z M 4.707031 48.613281 L 0.261719 48.613281 C 1.71875 48.628906 3.222656 48.632812 4.714844 48.628906 Z M 3.761719 48.667969 L 3.761719 48.601562 C 3.8125 48.601562 3.867188 48.601562 3.917969 48.601562 L 3.917969 48.582031 L 4.714844 48.582031 L 4.714844 48.648438 L 4.554688 48.648438 L 4.554688 48.660156 C 4.289062 48.667969 4.023438 48.667969 3.761719 48.667969 Z M 2.964844 48.667969 C 2.699219 48.667969 2.433594 48.667969 2.171875 48.667969 L 2.171875 48.601562 C 2.222656 48.601562 2.277344 48.601562 2.328125 48.601562 L 2.328125 48.585938 L 3.125 48.585938 L 3.125 48.652344 L 2.964844 48.652344 Z M 1.375 48.660156 C 1.109375 48.660156 0.84375 48.652344 0.582031 48.652344 L 0.582031 48.585938 C 0.632812 48.585938 0.6875 48.585938 0.738281 48.585938 L 0.738281 48.582031 L 1.535156 48.582031 L 1.535156 48.648438 L 1.375 48.648438 Z M 44.914062 48.613281 C 32.621094 48.640625 20.367188 48.640625 8.046875 48.613281 M 25.835938 48.667969 L 25.042969 48.667969 L 25.042969 48.601562 L 25.835938 48.601562 Z M 27.425781 48.667969 L 26.632812 48.667969 L 26.632812 48.601562 L 27.425781 48.601562 Z M 28.222656 48.667969 L 28.222656 48.601562 L 29.015625 48.601562 L 29.015625 48.667969 Z M 24.246094 48.667969 L 23.453125 48.667969 L 23.453125 48.601562 L 24.246094 48.601562 Z M 29.8125 48.667969 L 29.8125 48.601562 L 30.605469 48.601562 L 30.605469 48.667969 Z M 22.65625 48.667969 L 21.863281 48.667969 L 21.863281 48.601562 L 22.65625 48.601562 Z M 31.402344 48.667969 L 31.402344 48.601562 L 32.195312 48.601562 L 32.195312 48.667969 Z M 21.066406 48.667969 L 20.273438 48.667969 L 20.273438 48.601562 L 21.066406 48.601562 Z M 32.992188 48.667969 L 32.992188 48.601562 L 33.785156 48.601562 L 33.785156 48.667969 Z M 19.476562 48.667969 L 19.476562 48.632812 Z M 19.476562 48.667969 L 18.683594 48.667969 L 18.683594 48.601562 L 19.476562 48.601562 Z M 34.582031 48.667969 L 34.582031 48.601562 L 35.375 48.601562 L 35.375 48.667969 Z M 17.890625 48.660156 L 17.09375 48.660156 L 17.09375 48.59375 L 17.890625 48.59375 Z M 36.171875 48.660156 L 36.171875 48.59375 L 36.964844 48.59375 L 36.964844 48.660156 Z M 16.300781 48.660156 L 15.503906 48.660156 L 15.503906 48.59375 L 16.300781 48.59375 Z M 37.761719 48.660156 L 37.761719 48.59375 L 38.554688 48.59375 L 38.554688 48.660156 Z M 14.710938 48.660156 L 14.710938 48.628906 Z M 14.710938 48.660156 L 13.914062 48.660156 L 13.914062 48.59375 L 14.710938 48.59375 Z M 39.351562 48.660156 L 39.351562 48.59375 L 40.144531 48.59375 L 40.144531 48.660156 Z M 13.121094 48.660156 L 12.324219 48.660156 L 12.324219 48.59375 L 13.121094 48.59375 Z M 40.941406 48.652344 L 40.941406 48.585938 L 41.734375 48.585938 L 41.734375 48.652344 Z M 11.53125 48.652344 L 10.734375 48.652344 L 10.734375 48.585938 L 11.53125 48.585938 Z M 42.53125 48.652344 L 42.53125 48.585938 L 43.324219 48.585938 L 43.324219 48.652344 Z M 9.941406 48.652344 L 9.941406 48.621094 Z M 9.941406 48.652344 L 9.144531 48.652344 L 9.144531 48.585938 L 9.941406 48.585938 Z M 44.117188 48.652344 L 44.117188 48.585938 L 44.914062 48.585938 L 44.914062 48.652344 Z M 8.351562 48.648438 L 8.046875 48.648438 L 8.046875 48.582031 L 8.351562 48.582031 Z M 21.246094 24.886719 C 18.578125 22.210938 15.929688 19.5625 13.296875 16.9375 M 21.21875 24.914062 L 20.65625 24.351562 L 20.703125 24.304688 L 21.265625 24.867188 Z M 20.101562 23.789062 L 19.539062 23.226562 L 19.585938 23.179688 L 20.148438 23.742188 Z M 18.976562 22.660156 L 18.410156 22.097656 L 18.457031 22.050781 L 19.019531 22.617188 Z M 17.855469 21.535156 L 17.292969 20.972656 L 17.339844 20.925781 L 17.902344 21.488281 Z M 16.730469 20.410156 L 16.167969 19.847656 L 16.210938 19.800781 L 16.777344 20.363281 Z M 15.601562 19.289062 L 15.039062 18.726562 L 15.085938 18.679688 L 15.648438 19.242188 Z M 14.476562 18.164062 L 13.914062 17.601562 L 13.960938 17.554688 L 14.523438 18.117188 Z M 13.351562 17.042969 L 13.273438 16.964844 L 13.316406 16.917969 L 13.398438 17 Z M 44.875 48.515625 C 37.324219 41.023438 29.90625 33.539062 22.414062 26.054688 M 44.847656 48.542969 L 44.285156 47.976562 L 44.332031 47.929688 L 44.894531 48.496094 Z M 43.722656 47.421875 L 43.160156 46.859375 L 43.203125 46.8125 L 43.769531 47.375 Z M 42.59375 46.296875 L 42.03125 45.734375 L 42.078125 45.6875 L 42.640625 46.25 Z M 41.46875 45.175781 L 40.90625 44.613281 L 40.953125 44.566406 L 41.515625 45.128906 Z M 40.34375 44.050781 L 39.78125 43.488281 L 39.828125 43.441406 L 40.390625 44.003906 Z M 39.21875 42.929688 L 39.242188 42.902344 L 39.21875 42.929688 L 38.65625 42.367188 L 38.699219 42.320312 L 39.265625 42.882812 Z M 38.089844 41.804688 L 37.527344 41.242188 L 37.574219 41.195312 L 38.136719 41.757812 Z M 36.964844 40.679688 L 36.402344 40.117188 L 36.449219 40.070312 L 37.011719 40.632812 Z M 35.847656 39.550781 L 35.28125 38.988281 L 35.328125 38.941406 L 35.890625 39.507812 Z M 34.71875 38.433594 L 34.15625 37.871094 L 34.203125 37.824219 L 34.765625 38.386719 Z M 33.59375 37.308594 L 33.03125 36.742188 L 33.078125 36.699219 L 33.640625 37.261719 Z M 32.472656 36.179688 L 31.910156 35.617188 L 31.957031 35.570312 L 32.519531 36.132812 Z M 31.347656 35.054688 L 30.785156 34.492188 L 30.832031 34.445312 L 31.394531 35.007812 Z M 30.230469 33.929688 L 29.664062 33.367188 L 29.710938 33.320312 L 30.273438 33.882812 Z M 29.101562 32.804688 L 28.539062 32.238281 L 28.585938 32.195312 L 29.148438 32.757812 Z M 27.984375 31.675781 L 27.421875 31.113281 L 27.464844 31.066406 L 28.03125 31.628906 Z M 26.855469 30.550781 L 26.292969 29.988281 L 26.339844 29.941406 L 26.902344 30.503906 Z M 25.738281 29.425781 L 25.175781 28.863281 L 25.222656 28.816406 L 25.785156 29.378906 Z M 24.613281 28.304688 L 24.050781 27.742188 L 24.09375 27.695312 L 24.660156 28.257812 Z M 23.492188 27.179688 L 22.929688 26.617188 L 22.976562 26.570312 L 23.539062 27.132812 Z M 23.492188 27.179688 " fill-opacity="1" fill-rule="nonzero"/></g><path fill="#cca183" d="M 28.375 68.929688 C 31.625 68.929688 34.257812 71.566406 34.257812 74.8125 C 34.257812 78.058594 31.621094 80.691406 28.375 80.691406 C 25.128906 80.691406 22.492188 78.058594 22.492188 74.8125 C 22.492188 71.566406 25.121094 68.929688 28.375 68.929688 Z M 28.375 80.726562 C 25.117188 80.726562 22.460938 78.070312 22.460938 74.8125 C 22.460938 71.550781 25.117188 68.894531 28.375 68.894531 C 31.632812 68.894531 34.289062 71.550781 34.289062 74.8125 C 34.289062 78.070312 31.632812 80.726562 28.375 80.726562 Z M 28.375 68.960938 C 25.148438 68.960938 22.523438 71.585938 22.523438 74.8125 C 22.523438 78.035156 25.148438 80.660156 28.375 80.660156 C 31.601562 80.660156 34.222656 78.035156 34.222656 74.8125 C 34.222656 71.585938 31.601562 68.960938 28.375 68.960938 Z M 74.332031 56.019531 C 76.03125 56.019531 77.417969 57.402344 77.417969 59.105469 C 77.417969 60.808594 76.03125 62.191406 74.332031 62.191406 C 72.628906 62.191406 71.242188 60.808594 71.242188 59.105469 C 71.242188 57.402344 72.621094 56.019531 74.332031 56.019531 Z M 74.332031 62.226562 C 72.609375 62.226562 71.210938 60.828125 71.210938 59.105469 C 71.210938 57.382812 72.609375 55.984375 74.332031 55.984375 C 76.050781 55.984375 77.449219 57.382812 77.449219 59.105469 C 77.449219 60.828125 76.046875 62.226562 74.332031 62.226562 Z M 74.332031 56.050781 C 72.648438 56.050781 71.277344 57.421875 71.277344 59.105469 C 71.277344 60.789062 72.648438 62.160156 74.332031 62.160156 C 76.011719 62.160156 77.382812 60.789062 77.382812 59.105469 C 77.382812 57.421875 76.011719 56.050781 74.332031 56.050781 Z M 24.445312 39.976562 C 25.585938 39.976562 26.507812 40.898438 26.507812 42.035156 C 26.507812 43.175781 25.585938 44.097656 24.445312 44.097656 C 23.308594 44.097656 22.386719 43.175781 22.386719 42.035156 C 22.386719 40.898438 23.3125 39.976562 24.445312 39.976562 Z M 24.445312 44.121094 C 23.292969 44.121094 22.351562 43.183594 22.351562 42.03125 C 22.351562 40.878906 23.292969 39.9375 24.445312 39.9375 C 25.597656 39.9375 26.539062 40.878906 26.539062 42.03125 C 26.539062 43.183594 25.605469 44.121094 24.445312 44.121094 Z M 24.445312 40.007812 C 23.328125 40.007812 22.417969 40.917969 22.417969 42.035156 C 22.417969 43.15625 23.328125 44.0625 24.445312 44.0625 C 25.566406 44.0625 26.472656 43.15625 26.472656 42.035156 C 26.472656 40.917969 25.566406 40.007812 24.445312 40.007812 Z M 60.5 79.996094 C 62.253906 79.996094 63.679688 81.421875 63.679688 83.175781 C 63.679688 84.933594 62.253906 86.355469 60.5 86.355469 C 58.746094 86.355469 57.320312 84.933594 57.320312 83.175781 C 57.320312 81.421875 58.746094 79.996094 60.5 79.996094 Z M 60.5 86.382812 C 58.730469 86.382812 57.289062 84.945312 57.289062 83.171875 C 57.289062 81.394531 58.722656 79.957031 60.5 79.957031 C 62.273438 79.957031 63.710938 81.394531 63.710938 83.171875 C 63.710938 84.945312 62.269531 86.382812 60.5 86.382812 Z M 60.5 80.03125 C 58.765625 80.03125 57.351562 81.441406 57.351562 83.175781 C 57.351562 84.914062 58.765625 86.324219 60.5 86.324219 C 62.234375 86.324219 63.644531 84.914062 63.644531 83.175781 C 63.644531 81.441406 62.230469 80.03125 60.5 80.03125 Z M 65.84375 44.230469 C 66.472656 44.230469 66.976562 44.738281 66.976562 45.363281 C 66.976562 45.984375 66.46875 46.496094 65.84375 46.496094 C 65.222656 46.496094 64.710938 45.984375 64.710938 45.363281 C 64.710938 44.738281 65.222656 44.230469 65.84375 44.230469 Z M 65.84375 46.535156 C 65.203125 46.535156 64.679688 46.011719 64.679688 45.367188 C 64.679688 44.726562 65.203125 44.203125 65.84375 44.203125 C 66.488281 44.203125 67.011719 44.726562 67.011719 45.367188 C 67.011719 46.011719 66.496094 46.535156 65.84375 46.535156 Z M 65.84375 44.261719 C 65.234375 44.261719 64.746094 44.757812 64.746094 45.363281 C 64.746094 45.964844 65.242188 46.460938 65.84375 46.460938 C 66.449219 46.460938 66.945312 45.964844 66.945312 45.363281 C 66.945312 44.757812 66.453125 44.261719 65.84375 44.261719 Z M 68.746094 14.535156 C 70.632812 14.535156 72.15625 16.0625 72.15625 17.945312 C 72.15625 19.828125 70.628906 21.355469 68.746094 21.355469 C 66.863281 21.355469 65.335938 19.828125 65.335938 17.945312 C 65.335938 16.0625 66.859375 14.535156 68.746094 14.535156 Z M 68.746094 21.390625 C 66.84375 21.390625 65.300781 19.847656 65.300781 17.945312 C 65.300781 16.042969 66.84375 14.5 68.746094 14.5 C 70.648438 14.5 72.191406 16.042969 72.191406 17.945312 C 72.191406 19.847656 70.648438 21.390625 68.746094 21.390625 Z M 68.746094 14.566406 C 66.886719 14.566406 65.367188 16.085938 65.367188 17.945312 C 65.367188 19.808594 66.886719 21.324219 68.746094 21.324219 C 70.609375 21.324219 72.125 19.808594 72.125 17.945312 C 72.125 16.085938 70.613281 14.566406 68.746094 14.566406 Z M 16.972656 17.457031 C 18.863281 17.457031 20.386719 18.984375 20.386719 20.867188 C 20.386719 22.746094 18.855469 24.277344 16.972656 24.277344 C 15.09375 24.277344 13.5625 22.746094 13.5625 20.867188 C 13.5625 18.984375 15.09375 17.457031 16.972656 17.457031 Z M 16.972656 24.3125 C 15.074219 24.3125 13.53125 22.769531 13.53125 20.867188 C 13.53125 18.964844 15.074219 17.421875 16.972656 17.421875 C 18.875 17.421875 20.417969 18.964844 20.417969 20.867188 C 20.417969 22.769531 18.875 24.3125 16.972656 24.3125 Z M 16.972656 17.488281 C 15.113281 17.488281 13.597656 19.003906 13.597656 20.867188 C 13.597656 22.726562 15.113281 24.246094 16.972656 24.246094 C 18.835938 24.246094 20.351562 22.726562 20.351562 20.867188 C 20.351562 19.003906 18.84375 17.488281 16.972656 17.488281 Z M 16.972656 17.488281 " fill-opacity="1" fill-rule="nonzero"/></svg>