<svg xmlns="http://www.w3.org/2000/svg" xmlns:xlink="http://www.w3.org/1999/xlink" width="120" zoomAndPan="magnify" viewBox="0 0 90 97.5" height="130" preserveAspectRatio="xMidYMid meet" version="1.0"><defs><clipPath id="id1"><path d="M 0.230469 3.730469 L 89.769531 3.730469 L 89.769531 93.273438 L 0.230469 93.273438 Z M 0.230469 3.730469 " clip-rule="nonzero"/></clipPath><clipPath id="id2"><path d="M 89.769531 48.5 C 89.769531 49.96875 89.699219 51.429688 89.554688 52.890625 C 89.410156 54.347656 89.195312 55.796875 88.910156 57.234375 C 88.625 58.671875 88.269531 60.09375 87.84375 61.496094 C 87.417969 62.902344 86.921875 64.28125 86.363281 65.632812 C 85.800781 66.988281 85.175781 68.3125 84.484375 69.605469 C 83.792969 70.898438 83.039062 72.15625 82.226562 73.375 C 81.410156 74.59375 80.539062 75.769531 79.609375 76.902344 C 78.679688 78.035156 77.695312 79.121094 76.65625 80.160156 C 75.621094 81.195312 74.535156 82.179688 73.402344 83.109375 C 72.269531 84.039062 71.09375 84.910156 69.875 85.726562 C 68.652344 86.542969 67.398438 87.292969 66.105469 87.984375 C 64.8125 88.675781 63.488281 89.300781 62.132812 89.863281 C 60.777344 90.425781 59.398438 90.917969 57.996094 91.34375 C 56.59375 91.769531 55.171875 92.125 53.734375 92.410156 C 52.296875 92.699219 50.847656 92.914062 49.386719 93.054688 C 47.929688 93.199219 46.464844 93.273438 45 93.273438 C 43.535156 93.273438 42.070312 93.199219 40.613281 93.054688 C 39.152344 92.914062 37.703125 92.699219 36.265625 92.410156 C 34.828125 92.125 33.40625 91.769531 32.003906 91.34375 C 30.601562 90.917969 29.222656 90.425781 27.867188 89.863281 C 26.511719 89.300781 25.1875 88.675781 23.894531 87.984375 C 22.601562 87.292969 21.347656 86.542969 20.125 85.726562 C 18.90625 84.910156 17.730469 84.039062 16.597656 83.109375 C 15.464844 82.179688 14.378906 81.195312 13.34375 80.160156 C 12.304688 79.121094 11.320312 78.035156 10.390625 76.902344 C 9.460938 75.769531 8.589844 74.59375 7.773438 73.375 C 6.960938 72.15625 6.207031 70.898438 5.515625 69.605469 C 4.824219 68.3125 4.199219 66.988281 3.636719 65.632812 C 3.078125 64.28125 2.582031 62.902344 2.15625 61.496094 C 1.730469 60.09375 1.375 58.671875 1.089844 57.234375 C 0.804688 55.796875 0.589844 54.347656 0.445312 52.890625 C 0.300781 51.429688 0.230469 49.96875 0.230469 48.5 C 0.230469 47.035156 0.300781 45.570312 0.445312 44.113281 C 0.589844 42.652344 0.804688 41.207031 1.089844 39.765625 C 1.375 38.328125 1.730469 36.910156 2.15625 35.503906 C 2.582031 34.101562 3.078125 32.722656 3.636719 31.367188 C 4.199219 30.015625 4.824219 28.691406 5.515625 27.398438 C 6.207031 26.101562 6.960938 24.847656 7.773438 23.628906 C 8.589844 22.410156 9.460938 21.234375 10.390625 20.097656 C 11.320312 18.964844 12.304688 17.878906 13.34375 16.84375 C 14.378906 15.808594 15.464844 14.824219 16.597656 13.894531 C 17.730469 12.964844 18.90625 12.089844 20.125 11.277344 C 21.347656 10.460938 22.601562 9.707031 23.894531 9.015625 C 25.1875 8.324219 26.511719 7.699219 27.867188 7.140625 C 29.222656 6.578125 30.601562 6.085938 32.003906 5.660156 C 33.40625 5.234375 34.828125 4.878906 36.265625 4.589844 C 37.703125 4.304688 39.152344 4.089844 40.613281 3.945312 C 42.070312 3.800781 43.535156 3.730469 45 3.730469 C 46.464844 3.730469 47.929688 3.800781 49.386719 3.945312 C 50.847656 4.089844 52.296875 4.304688 53.734375 4.589844 C 55.171875 4.878906 56.59375 5.234375 57.996094 5.660156 C 59.398438 6.085938 60.777344 6.578125 62.132812 7.140625 C 63.488281 7.699219 64.8125 8.324219 66.105469 9.015625 C 67.398438 9.707031 68.652344 10.460938 69.875 11.277344 C 71.09375 12.089844 72.269531 12.964844 73.402344 13.894531 C 74.535156 14.824219 75.621094 15.808594 76.65625 16.84375 C 77.695312 17.878906 78.679688 18.964844 79.609375 20.097656 C 80.539062 21.234375 81.410156 22.410156 82.226562 23.628906 C 83.039062 24.847656 83.792969 26.101562 84.484375 27.398438 C 85.175781 28.691406 85.800781 30.015625 86.363281 31.367188 C 86.921875 32.722656 87.417969 34.101562 87.84375 35.503906 C 88.269531 36.910156 88.625 38.328125 88.910156 39.765625 C 89.195312 41.207031 89.410156 42.652344 89.554688 44.113281 C 89.699219 45.570312 89.769531 47.035156 89.769531 48.5 Z M 89.769531 48.5 " clip-rule="nonzero"/></clipPath><linearGradient x1="0.00000690889" gradientTransform="matrix(0.174884, 0, 0, -0.174884, 0.229592, 93.621455)" y1="514.000006" x2="511.999986" gradientUnits="userSpaceOnUse" y2="2.000027" id="id3"><stop stop-opacity="1" stop-color="rgb(0%, 62.399292%, 100%)" offset="0"/><stop stop-opacity="1" stop-color="rgb(0%, 62.399292%, 100%)" offset="0.125"/><stop stop-opacity="1" stop-color="rgb(0%, 62.399292%, 100%)" offset="0.140625"/><stop stop-opacity="1" stop-color="rgb(0.1297%, 62.336731%, 99.899292%)" offset="0.148438"/><stop stop-opacity="1" stop-color="rgb(0.770569%, 62.031555%, 99.409485%)" offset="0.152344"/><stop stop-opacity="1" stop-color="rgb(1.281738%, 61.78894%, 99.020386%)" offset="0.15625"/><stop stop-opacity="1" stop-color="rgb(1.792908%, 61.546326%, 98.629761%)" offset="0.160156"/><stop stop-opacity="1" stop-color="rgb(2.304077%, 61.303711%, 98.240662%)" offset="0.164063"/><stop stop-opacity="1" stop-color="rgb(2.813721%, 61.05957%, 97.850037%)" offset="0.167969"/><stop stop-opacity="1" stop-color="rgb(3.32489%, 60.816956%, 97.460938%)" offset="0.171875"/><stop stop-opacity="1" stop-color="rgb(3.83606%, 60.572815%, 97.070312%)" offset="0.175781"/><stop stop-opacity="1" stop-color="rgb(4.347229%, 60.3302%, 96.679688%)" offset="0.179688"/><stop stop-opacity="1" stop-color="rgb(4.858398%, 60.087585%, 96.289062%)" offset="0.183594"/><stop stop-opacity="1" stop-color="rgb(5.369568%, 59.844971%, 95.899963%)" offset="0.1875"/><stop stop-opacity="1" stop-color="rgb(5.880737%, 59.60083%, 95.509338%)" offset="0.191406"/><stop stop-opacity="1" stop-color="rgb(6.391907%, 59.358215%, 95.120239%)" offset="0.195313"/><stop stop-opacity="1" stop-color="rgb(6.903076%, 59.115601%, 94.729614%)" offset="0.199219"/><stop stop-opacity="1" stop-color="rgb(7.414246%, 58.872986%, 94.340515%)" offset="0.203125"/><stop stop-opacity="1" stop-color="rgb(7.923889%, 58.628845%, 93.94989%)" offset="0.207031"/><stop stop-opacity="1" stop-color="rgb(8.435059%, 58.38623%, 93.560791%)" offset="0.210938"/><stop stop-opacity="1" stop-color="rgb(8.946228%, 58.14209%, 93.170166%)" offset="0.214844"/><stop stop-opacity="1" stop-color="rgb(9.457397%, 57.899475%, 92.779541%)" offset="0.21875"/><stop stop-opacity="1" stop-color="rgb(9.968567%, 57.65686%, 92.388916%)" offset="0.222656"/><stop stop-opacity="1" stop-color="rgb(10.479736%, 57.414246%, 91.999817%)" offset="0.226563"/><stop stop-opacity="1" stop-color="rgb(10.990906%, 57.170105%, 91.609192%)" offset="0.230469"/><stop stop-opacity="1" stop-color="rgb(11.502075%, 56.92749%, 91.220093%)" offset="0.234375"/><stop stop-opacity="1" stop-color="rgb(12.011719%, 56.684875%, 90.829468%)" offset="0.238281"/><stop stop-opacity="1" stop-color="rgb(12.522888%, 56.442261%, 90.440369%)" offset="0.242188"/><stop stop-opacity="1" stop-color="rgb(13.034058%, 56.19812%, 90.049744%)" offset="0.246094"/><stop stop-opacity="1" stop-color="rgb(13.545227%, 55.955505%, 89.660645%)" offset="0.25"/><stop stop-opacity="1" stop-color="rgb(14.056396%, 55.711365%, 89.27002%)" offset="0.253906"/><stop stop-opacity="1" stop-color="rgb(14.567566%, 55.46875%, 88.879395%)" offset="0.257812"/><stop stop-opacity="1" stop-color="rgb(15.078735%, 55.226135%, 88.48877%)" offset="0.261719"/><stop stop-opacity="1" stop-color="rgb(15.589905%, 54.983521%, 88.09967%)" offset="0.265625"/><stop stop-opacity="1" stop-color="rgb(16.099548%, 54.73938%, 87.709045%)" offset="0.269531"/><stop stop-opacity="1" stop-color="rgb(16.610718%, 54.496765%, 87.319946%)" offset="0.273438"/><stop stop-opacity="1" stop-color="rgb(17.121887%, 54.25415%, 86.929321%)" offset="0.277344"/><stop stop-opacity="1" stop-color="rgb(17.633057%, 54.011536%, 86.540222%)" offset="0.28125"/><stop stop-opacity="1" stop-color="rgb(18.144226%, 53.767395%, 86.149597%)" offset="0.285156"/><stop stop-opacity="1" stop-color="rgb(18.655396%, 53.52478%, 85.760498%)" offset="0.289062"/><stop stop-opacity="1" stop-color="rgb(19.166565%, 53.282166%, 85.369873%)" offset="0.292969"/><stop stop-opacity="1" stop-color="rgb(19.677734%, 53.039551%, 84.979248%)" offset="0.296875"/><stop stop-opacity="1" stop-color="rgb(20.188904%, 52.79541%, 84.588623%)" offset="0.300781"/><stop stop-opacity="1" stop-color="rgb(20.700073%, 52.552795%, 84.199524%)" offset="0.304688"/><stop stop-opacity="1" stop-color="rgb(21.209717%, 52.308655%, 83.808899%)" offset="0.308594"/><stop stop-opacity="1" stop-color="rgb(21.720886%, 52.06604%, 83.4198%)" offset="0.3125"/><stop stop-opacity="1" stop-color="rgb(22.232056%, 51.823425%, 83.029175%)" offset="0.316406"/><stop stop-opacity="1" stop-color="rgb(22.743225%, 51.580811%, 82.640076%)" offset="0.320312"/><stop stop-opacity="1" stop-color="rgb(23.254395%, 51.33667%, 82.249451%)" offset="0.324219"/><stop stop-opacity="1" stop-color="rgb(23.765564%, 51.094055%, 81.860352%)" offset="0.328125"/><stop stop-opacity="1" stop-color="rgb(24.276733%, 50.85144%, 81.469727%)" offset="0.332031"/><stop stop-opacity="1" stop-color="rgb(24.787903%, 50.608826%, 81.079102%)" offset="0.335938"/><stop stop-opacity="1" stop-color="rgb(25.297546%, 50.364685%, 80.688477%)" offset="0.339844"/><stop stop-opacity="1" stop-color="rgb(25.808716%, 50.12207%, 80.299377%)" offset="0.34375"/><stop stop-opacity="1" stop-color="rgb(26.319885%, 49.87793%, 79.908752%)" offset="0.347656"/><stop stop-opacity="1" stop-color="rgb(26.831055%, 49.635315%, 79.519653%)" offset="0.351562"/><stop stop-opacity="1" stop-color="rgb(27.342224%, 49.3927%, 79.129028%)" offset="0.355469"/><stop stop-opacity="1" stop-color="rgb(27.853394%, 49.150085%, 78.739929%)" offset="0.359375"/><stop stop-opacity="1" stop-color="rgb(28.364563%, 48.905945%, 78.349304%)" offset="0.363281"/><stop stop-opacity="1" stop-color="rgb(28.875732%, 48.66333%, 77.960205%)" offset="0.367188"/><stop stop-opacity="1" stop-color="rgb(29.386902%, 48.420715%, 77.56958%)" offset="0.371094"/><stop stop-opacity="1" stop-color="rgb(29.898071%, 48.178101%, 77.178955%)" offset="0.375"/><stop stop-opacity="1" stop-color="rgb(30.407715%, 47.93396%, 76.78833%)" offset="0.378906"/><stop stop-opacity="1" stop-color="rgb(30.918884%, 47.691345%, 76.399231%)" offset="0.382812"/><stop stop-opacity="1" stop-color="rgb(31.430054%, 47.447205%, 76.008606%)" offset="0.386719"/><stop stop-opacity="1" stop-color="rgb(31.941223%, 47.20459%, 75.619507%)" offset="0.390625"/><stop stop-opacity="1" stop-color="rgb(32.452393%, 46.961975%, 75.228882%)" offset="0.394531"/><stop stop-opacity="1" stop-color="rgb(32.963562%, 46.71936%, 74.839783%)" offset="0.398438"/><stop stop-opacity="1" stop-color="rgb(33.474731%, 46.47522%, 74.449158%)" offset="0.402344"/><stop stop-opacity="1" stop-color="rgb(33.985901%, 46.232605%, 74.060059%)" offset="0.40625"/><stop stop-opacity="1" stop-color="rgb(34.495544%, 45.98999%, 73.669434%)" offset="0.410156"/><stop stop-opacity="1" stop-color="rgb(35.006714%, 45.747375%, 73.278809%)" offset="0.414062"/><stop stop-opacity="1" stop-color="rgb(35.517883%, 45.503235%, 72.888184%)" offset="0.417969"/><stop stop-opacity="1" stop-color="rgb(36.029053%, 45.26062%, 72.499084%)" offset="0.421875"/><stop stop-opacity="1" stop-color="rgb(36.540222%, 45.016479%, 72.108459%)" offset="0.425781"/><stop stop-opacity="1" stop-color="rgb(37.051392%, 44.773865%, 71.71936%)" offset="0.429688"/><stop stop-opacity="1" stop-color="rgb(37.562561%, 44.53125%, 71.328735%)" offset="0.433594"/><stop stop-opacity="1" stop-color="rgb(38.07373%, 44.288635%, 70.939636%)" offset="0.4375"/><stop stop-opacity="1" stop-color="rgb(38.583374%, 44.044495%, 70.549011%)" offset="0.441406"/><stop stop-opacity="1" stop-color="rgb(39.094543%, 43.80188%, 70.159912%)" offset="0.445312"/><stop stop-opacity="1" stop-color="rgb(39.605713%, 43.559265%, 69.769287%)" offset="0.449219"/><stop stop-opacity="1" stop-color="rgb(40.116882%, 43.31665%, 69.378662%)" offset="0.453125"/><stop stop-opacity="1" stop-color="rgb(40.628052%, 43.07251%, 68.988037%)" offset="0.457031"/><stop stop-opacity="1" stop-color="rgb(41.139221%, 42.829895%, 68.598938%)" offset="0.460938"/><stop stop-opacity="1" stop-color="rgb(41.650391%, 42.585754%, 68.208313%)" offset="0.464844"/><stop stop-opacity="1" stop-color="rgb(42.16156%, 42.34314%, 67.819214%)" offset="0.46875"/><stop stop-opacity="1" stop-color="rgb(42.672729%, 42.100525%, 67.428589%)" offset="0.472656"/><stop stop-opacity="1" stop-color="rgb(43.183899%, 41.85791%, 67.03949%)" offset="0.476562"/><stop stop-opacity="1" stop-color="rgb(43.693542%, 41.61377%, 66.648865%)" offset="0.480469"/><stop stop-opacity="1" stop-color="rgb(44.204712%, 41.371155%, 66.259766%)" offset="0.484375"/><stop stop-opacity="1" stop-color="rgb(44.715881%, 41.12854%, 65.869141%)" offset="0.488281"/><stop stop-opacity="1" stop-color="rgb(45.227051%, 40.885925%, 65.478516%)" offset="0.492188"/><stop stop-opacity="1" stop-color="rgb(45.73822%, 40.641785%, 65.087891%)" offset="0.496094"/><stop stop-opacity="1" stop-color="rgb(46.24939%, 40.39917%, 64.698792%)" offset="0.5"/><stop stop-opacity="1" stop-color="rgb(46.760559%, 40.155029%, 64.308167%)" offset="0.503906"/><stop stop-opacity="1" stop-color="rgb(47.271729%, 39.912415%, 63.919067%)" offset="0.507812"/><stop stop-opacity="1" stop-color="rgb(47.781372%, 39.6698%, 63.528442%)" offset="0.511719"/><stop stop-opacity="1" stop-color="rgb(48.292542%, 39.427185%, 63.139343%)" offset="0.515625"/><stop stop-opacity="1" stop-color="rgb(48.803711%, 39.183044%, 62.748718%)" offset="0.519531"/><stop stop-opacity="1" stop-color="rgb(49.31488%, 38.94043%, 62.359619%)" offset="0.523438"/><stop stop-opacity="1" stop-color="rgb(49.82605%, 38.697815%, 61.968994%)" offset="0.527344"/><stop stop-opacity="1" stop-color="rgb(50.337219%, 38.4552%, 61.578369%)" offset="0.53125"/><stop stop-opacity="1" stop-color="rgb(50.848389%, 38.21106%, 61.187744%)" offset="0.535156"/><stop stop-opacity="1" stop-color="rgb(51.359558%, 37.968445%, 60.798645%)" offset="0.539062"/><stop stop-opacity="1" stop-color="rgb(51.870728%, 37.724304%, 60.40802%)" offset="0.542969"/><stop stop-opacity="1" stop-color="rgb(52.381897%, 37.481689%, 60.018921%)" offset="0.546875"/><stop stop-opacity="1" stop-color="rgb(52.891541%, 37.239075%, 59.628296%)" offset="0.550781"/><stop stop-opacity="1" stop-color="rgb(53.40271%, 36.99646%, 59.239197%)" offset="0.554688"/><stop stop-opacity="1" stop-color="rgb(53.913879%, 36.752319%, 58.848572%)" offset="0.558594"/><stop stop-opacity="1" stop-color="rgb(54.425049%, 36.509705%, 58.459473%)" offset="0.5625"/><stop stop-opacity="1" stop-color="rgb(54.936218%, 36.26709%, 58.068848%)" offset="0.566406"/><stop stop-opacity="1" stop-color="rgb(55.447388%, 36.024475%, 57.678223%)" offset="0.570312"/><stop stop-opacity="1" stop-color="rgb(55.958557%, 35.780334%, 57.287598%)" offset="0.574219"/><stop stop-opacity="1" stop-color="rgb(56.469727%, 35.53772%, 56.898499%)" offset="0.578125"/><stop stop-opacity="1" stop-color="rgb(56.97937%, 35.295105%, 56.507874%)" offset="0.582031"/><stop stop-opacity="1" stop-color="rgb(57.49054%, 35.05249%, 56.118774%)" offset="0.585938"/><stop stop-opacity="1" stop-color="rgb(58.001709%, 34.80835%, 55.728149%)" offset="0.589844"/><stop stop-opacity="1" stop-color="rgb(58.512878%, 34.565735%, 55.33905%)" offset="0.59375"/><stop stop-opacity="1" stop-color="rgb(59.024048%, 34.321594%, 54.948425%)" offset="0.597656"/><stop stop-opacity="1" stop-color="rgb(59.535217%, 34.078979%, 54.559326%)" offset="0.601562"/><stop stop-opacity="1" stop-color="rgb(60.046387%, 33.836365%, 54.168701%)" offset="0.605469"/><stop stop-opacity="1" stop-color="rgb(60.557556%, 33.59375%, 53.778076%)" offset="0.609375"/><stop stop-opacity="1" stop-color="rgb(61.0672%, 33.349609%, 53.387451%)" offset="0.613281"/><stop stop-opacity="1" stop-color="rgb(61.578369%, 33.106995%, 52.998352%)" offset="0.617188"/><stop stop-opacity="1" stop-color="rgb(62.089539%, 32.86438%, 52.607727%)" offset="0.621094"/><stop stop-opacity="1" stop-color="rgb(62.600708%, 32.621765%, 52.218628%)" offset="0.625"/><stop stop-opacity="1" stop-color="rgb(63.111877%, 32.377625%, 51.828003%)" offset="0.628906"/><stop stop-opacity="1" stop-color="rgb(63.623047%, 32.13501%, 51.438904%)" offset="0.632812"/><stop stop-opacity="1" stop-color="rgb(64.134216%, 31.890869%, 51.048279%)" offset="0.636719"/><stop stop-opacity="1" stop-color="rgb(64.645386%, 31.648254%, 50.65918%)" offset="0.640625"/><stop stop-opacity="1" stop-color="rgb(65.156555%, 31.40564%, 50.268555%)" offset="0.644531"/><stop stop-opacity="1" stop-color="rgb(65.667725%, 31.163025%, 49.879456%)" offset="0.648438"/><stop stop-opacity="1" stop-color="rgb(66.177368%, 30.918884%, 49.488831%)" offset="0.652344"/><stop stop-opacity="1" stop-color="rgb(66.688538%, 30.67627%, 49.098206%)" offset="0.65625"/><stop stop-opacity="1" stop-color="rgb(67.199707%, 30.433655%, 48.707581%)" offset="0.660156"/><stop stop-opacity="1" stop-color="rgb(67.710876%, 30.19104%, 48.318481%)" offset="0.664062"/><stop stop-opacity="1" stop-color="rgb(68.222046%, 29.946899%, 47.927856%)" offset="0.667969"/><stop stop-opacity="1" stop-color="rgb(68.733215%, 29.704285%, 47.538757%)" offset="0.671875"/><stop stop-opacity="1" stop-color="rgb(69.244385%, 29.460144%, 47.148132%)" offset="0.675781"/><stop stop-opacity="1" stop-color="rgb(69.755554%, 29.217529%, 46.759033%)" offset="0.679688"/><stop stop-opacity="1" stop-color="rgb(70.265198%, 28.974915%, 46.368408%)" offset="0.683594"/><stop stop-opacity="1" stop-color="rgb(70.776367%, 28.7323%, 45.979309%)" offset="0.6875"/><stop stop-opacity="1" stop-color="rgb(71.287537%, 28.488159%, 45.588684%)" offset="0.691406"/><stop stop-opacity="1" stop-color="rgb(71.798706%, 28.245544%, 45.198059%)" offset="0.695312"/><stop stop-opacity="1" stop-color="rgb(72.309875%, 28.00293%, 44.807434%)" offset="0.699219"/><stop stop-opacity="1" stop-color="rgb(72.821045%, 27.760315%, 44.418335%)" offset="0.703125"/><stop stop-opacity="1" stop-color="rgb(73.332214%, 27.516174%, 44.02771%)" offset="0.707031"/><stop stop-opacity="1" stop-color="rgb(73.843384%, 27.27356%, 43.638611%)" offset="0.710938"/><stop stop-opacity="1" stop-color="rgb(74.354553%, 27.029419%, 43.247986%)" offset="0.714844"/><stop stop-opacity="1" stop-color="rgb(74.865723%, 26.786804%, 42.858887%)" offset="0.71875"/><stop stop-opacity="1" stop-color="rgb(75.375366%, 26.544189%, 42.468262%)" offset="0.722656"/><stop stop-opacity="1" stop-color="rgb(75.886536%, 26.301575%, 42.079163%)" offset="0.726562"/><stop stop-opacity="1" stop-color="rgb(76.397705%, 26.057434%, 41.688538%)" offset="0.730469"/><stop stop-opacity="1" stop-color="rgb(76.908875%, 25.814819%, 41.297913%)" offset="0.734375"/><stop stop-opacity="1" stop-color="rgb(77.420044%, 25.572205%, 40.907288%)" offset="0.738281"/><stop stop-opacity="1" stop-color="rgb(77.931213%, 25.32959%, 40.518188%)" offset="0.742188"/><stop stop-opacity="1" stop-color="rgb(78.442383%, 25.085449%, 40.127563%)" offset="0.746094"/><stop stop-opacity="1" stop-color="rgb(78.953552%, 24.842834%, 39.738464%)" offset="0.75"/><stop stop-opacity="1" stop-color="rgb(79.463196%, 24.598694%, 39.347839%)" offset="0.753906"/><stop stop-opacity="1" stop-color="rgb(79.974365%, 24.356079%, 38.95874%)" offset="0.757813"/><stop stop-opacity="1" stop-color="rgb(80.485535%, 24.113464%, 38.568115%)" offset="0.761719"/><stop stop-opacity="1" stop-color="rgb(80.996704%, 23.87085%, 38.179016%)" offset="0.765625"/><stop stop-opacity="1" stop-color="rgb(81.507874%, 23.626709%, 37.788391%)" offset="0.769531"/><stop stop-opacity="1" stop-color="rgb(82.019043%, 23.384094%, 37.397766%)" offset="0.773438"/><stop stop-opacity="1" stop-color="rgb(82.530212%, 23.141479%, 37.007141%)" offset="0.777344"/><stop stop-opacity="1" stop-color="rgb(83.041382%, 22.898865%, 36.618042%)" offset="0.78125"/><stop stop-opacity="1" stop-color="rgb(83.551025%, 22.654724%, 36.227417%)" offset="0.785156"/><stop stop-opacity="1" stop-color="rgb(84.062195%, 22.412109%, 35.838318%)" offset="0.789062"/><stop stop-opacity="1" stop-color="rgb(84.573364%, 22.167969%, 35.447693%)" offset="0.792969"/><stop stop-opacity="1" stop-color="rgb(85.084534%, 21.925354%, 35.058594%)" offset="0.796875"/><stop stop-opacity="1" stop-color="rgb(85.595703%, 21.682739%, 34.667969%)" offset="0.800781"/><stop stop-opacity="1" stop-color="rgb(86.106873%, 21.440125%, 34.27887%)" offset="0.804688"/><stop stop-opacity="1" stop-color="rgb(86.618042%, 21.195984%, 33.888245%)" offset="0.808594"/><stop stop-opacity="1" stop-color="rgb(87.129211%, 20.953369%, 33.49762%)" offset="0.8125"/><stop stop-opacity="1" stop-color="rgb(87.640381%, 20.710754%, 33.106995%)" offset="0.816406"/><stop stop-opacity="1" stop-color="rgb(88.15155%, 20.46814%, 32.717896%)" offset="0.820313"/><stop stop-opacity="1" stop-color="rgb(88.661194%, 20.223999%, 32.327271%)" offset="0.824219"/><stop stop-opacity="1" stop-color="rgb(89.172363%, 19.981384%, 31.938171%)" offset="0.828125"/><stop stop-opacity="1" stop-color="rgb(89.683533%, 19.737244%, 31.547546%)" offset="0.832031"/><stop stop-opacity="1" stop-color="rgb(90.194702%, 19.494629%, 31.158447%)" offset="0.835938"/><stop stop-opacity="1" stop-color="rgb(90.705872%, 19.252014%, 30.767822%)" offset="0.839844"/><stop stop-opacity="1" stop-color="rgb(91.217041%, 19.009399%, 30.378723%)" offset="0.84375"/><stop stop-opacity="1" stop-color="rgb(91.72821%, 18.765259%, 29.988098%)" offset="0.847656"/><stop stop-opacity="1" stop-color="rgb(92.23938%, 18.522644%, 29.597473%)" offset="0.851562"/><stop stop-opacity="1" stop-color="rgb(92.36908%, 18.460083%, 29.498291%)" offset="0.859375"/><stop stop-opacity="1" stop-color="rgb(92.498779%, 18.399048%, 29.399109%)" offset="0.875"/><stop stop-opacity="1" stop-color="rgb(92.498779%, 18.399048%, 29.399109%)" offset="1"/></linearGradient></defs><g clip-path="url(#id1)"><g clip-path="url(#id2)"><path fill="url(#id3)" d="M 0.230469 93.273438 L 0.230469 3.730469 L 89.769531 3.730469 L 89.769531 93.273438 Z M 0.230469 93.273438 " fill-rule="nonzero"/></g></g><path fill="#fffffe" d="M 35.933594 49.941406 C 35.660156 49.113281 35.363281 47.914062 35.386719 46.675781 C 35.386719 46.554688 35.351562 46.429688 35.285156 46.328125 C 34.953125 45.820312 34.515625 45.644531 34.039062 45.644531 C 33.492188 45.644531 32.894531 45.871094 32.335938 46.082031 C 30.839844 46.648438 28.980469 47.347656 26.570312 45.832031 C 26.382812 45.710938 26.140625 45.707031 25.949219 45.8125 C 25.8125 45.886719 24.886719 46.480469 24.394531 48.734375 C 24.117188 47.441406 24.136719 45.925781 25.339844 45.058594 C 25.460938 44.96875 25.546875 44.84375 25.582031 44.699219 C 25.996094 42.890625 27.058594 41.792969 28.65625 41.527344 C 31.046875 41.132812 34.167969 42.710938 35.613281 45.050781 C 36.589844 46.628906 36.691406 48.332031 35.933594 49.941406 Z M 35.933594 49.941406 " fill-opacity="1" fill-rule="nonzero"/><path fill="#fffffe" d="M 35.199219 51.453125 C 35.121094 53.765625 34.304688 55.375 33.199219 56.347656 C 33.136719 56.382812 33.082031 56.429688 33.035156 56.484375 C 33.035156 56.488281 33.035156 56.488281 33.035156 56.488281 C 32.195312 57.160156 31.214844 57.480469 30.269531 57.484375 L 30.265625 57.484375 C 29.371094 57.484375 28.441406 57.195312 27.636719 56.597656 C 27.589844 56.550781 27.535156 56.507812 27.480469 56.476562 C 26.28125 55.511719 25.386719 53.828125 25.324219 51.355469 L 25.324219 51.347656 C 25.410156 48.714844 26.003906 47.5625 26.339844 47.113281 C 29.070312 48.625 31.28125 47.789062 32.765625 47.226562 C 33.644531 46.894531 33.988281 46.804688 34.164062 46.902344 C 34.1875 49.027344 34.964844 50.925781 35.199219 51.453125 Z M 35.199219 51.453125 " fill-opacity="1" fill-rule="nonzero"/><path fill="#fffffe" d="M 32.894531 58.046875 L 32.894531 59.558594 L 30.347656 63.96875 L 27.796875 59.558594 L 27.796875 58.132812 C 28.589844 58.515625 29.4375 58.703125 30.265625 58.703125 L 30.269531 58.703125 C 31.152344 58.703125 32.058594 58.488281 32.894531 58.046875 Z M 32.894531 58.046875 " fill-opacity="1" fill-rule="nonzero"/><path fill="#fffffe" d="M 41.359375 66.226562 L 41.359375 73.78125 L 37.910156 73.78125 L 37.910156 66.160156 C 37.910156 65.820312 37.636719 65.546875 37.300781 65.546875 C 36.960938 65.546875 36.6875 65.820312 36.6875 66.160156 L 36.6875 73.78125 L 24.003906 73.78125 L 24.003906 66.160156 C 24.003906 65.820312 23.730469 65.546875 23.390625 65.546875 C 23.054688 65.546875 22.78125 65.820312 22.78125 66.160156 L 22.78125 73.78125 L 19.332031 73.78125 L 19.332031 66.226562 C 19.332031 62.976562 21.976562 60.332031 25.226562 60.332031 L 26.835938 60.332031 L 29.816406 65.5 C 29.925781 65.6875 30.128906 65.804688 30.347656 65.804688 C 30.5625 65.804688 30.765625 65.6875 30.875 65.5 L 33.847656 60.347656 L 33.855469 60.332031 L 35.464844 60.332031 C 38.714844 60.332031 41.359375 62.976562 41.359375 66.226562 Z M 41.359375 66.226562 " fill-opacity="1" fill-rule="nonzero"/><path fill="#fffffe" d="M 58.621094 65.019531 L 58.621094 73.78125 L 52.636719 73.78125 L 52.636719 65.859375 C 52.636719 65.519531 52.363281 65.246094 52.023438 65.246094 C 51.683594 65.246094 51.414062 65.519531 51.414062 65.859375 L 51.414062 73.78125 L 47.792969 73.78125 L 47.792969 65.929688 C 47.792969 62.882812 50.027344 60.347656 52.9375 59.878906 C 52.941406 59.878906 52.945312 59.878906 52.949219 59.875 C 52.953125 59.875 52.953125 59.875 52.953125 59.875 C 53.269531 59.824219 53.59375 59.796875 53.925781 59.796875 L 55.605469 59.796875 Z M 58.621094 65.019531 " fill-opacity="1" fill-rule="nonzero"/><path fill="#fffffe" d="M 70.667969 65.929688 L 70.667969 73.78125 L 67.050781 73.78125 L 67.050781 65.859375 C 67.050781 65.519531 66.777344 65.246094 66.4375 65.246094 C 66.101562 65.246094 65.828125 65.519531 65.828125 65.859375 L 65.828125 73.78125 L 59.839844 73.78125 L 59.839844 65.023438 L 62.855469 59.800781 L 64.535156 59.800781 C 65.128906 59.800781 65.699219 59.886719 66.242188 60.042969 C 66.246094 60.046875 66.253906 60.046875 66.257812 60.046875 C 66.277344 60.054688 66.300781 60.0625 66.324219 60.066406 C 68.839844 60.832031 70.667969 63.171875 70.667969 65.929688 Z M 70.667969 65.929688 " fill-opacity="1" fill-rule="nonzero"/><path fill="#fffffe" d="M 61.902344 59.007812 L 59.230469 63.636719 L 56.566406 59.019531 C 56.5625 58.496094 56.589844 58.113281 56.621094 57.773438 C 56.621094 57.773438 56.621094 57.769531 56.621094 57.765625 C 57.480469 58.578125 58.472656 59.019531 59.5 59.019531 C 60.304688 59.019531 61.089844 58.75 61.800781 58.238281 C 61.804688 58.492188 61.835938 58.75 61.902344 59.007812 Z M 61.902344 59.007812 " fill-opacity="1" fill-rule="nonzero"/><path fill="#fffffe" d="M 63.457031 53.246094 C 63.351562 53.976562 63.148438 54.605469 62.886719 55.015625 L 62.878906 55.035156 C 62.84375 55.085938 62.804688 55.148438 62.761719 55.21875 C 62.742188 55.246094 62.722656 55.273438 62.707031 55.300781 C 62.703125 55.316406 62.695312 55.328125 62.6875 55.339844 C 62.632812 55.433594 62.574219 55.535156 62.511719 55.648438 C 61.683594 57.019531 60.601562 57.800781 59.5 57.800781 C 58.335938 57.800781 57.1875 56.921875 56.34375 55.394531 C 56.269531 55.1875 56.183594 54.964844 56.078125 54.71875 C 55.253906 52.789062 56.144531 49.449219 56.761719 47.609375 C 57.675781 48.503906 59.261719 48.421875 60.511719 48.355469 C 61.980469 48.277344 62.96875 48.273438 63.265625 48.90625 C 63.492188 49.386719 63.640625 51.976562 63.457031 53.246094 Z M 63.457031 53.246094 " fill-opacity="1" fill-rule="nonzero"/><path fill="#fffffe" d="M 66.035156 58.730469 C 65.550781 58.628906 65.050781 58.578125 64.539062 58.578125 L 63.058594 58.578125 C 62.90625 57.707031 63.261719 56.832031 63.578125 56.242188 C 63.578125 56.242188 63.582031 56.238281 63.582031 56.238281 C 63.640625 56.140625 63.695312 56.039062 63.753906 55.9375 C 63.8125 55.839844 63.863281 55.757812 63.90625 55.691406 L 63.914062 55.675781 C 64.367188 54.964844 64.574219 54.058594 64.664062 53.421875 C 64.832031 52.285156 64.800781 49.296875 64.367188 48.382812 C 63.695312 46.964844 61.96875 47.054688 60.441406 47.132812 C 58.382812 47.242188 57.460938 47.164062 57.273438 45.972656 C 57.230469 45.703125 57.015625 45.492188 56.742188 45.460938 C 56.46875 45.425781 56.210938 45.578125 56.105469 45.832031 C 56.003906 46.082031 53.570312 51.980469 54.949219 55.199219 C 55.027344 55.382812 55.09375 55.546875 55.148438 55.695312 C 55.160156 55.757812 55.179688 55.820312 55.210938 55.878906 C 55.214844 55.886719 55.21875 55.890625 55.21875 55.894531 C 55.484375 56.667969 55.453125 57.046875 55.398438 57.675781 C 55.378906 57.925781 55.355469 58.21875 55.34375 58.578125 L 53.921875 58.578125 C 53.726562 58.578125 53.527344 58.585938 53.335938 58.601562 C 52.886719 55.582031 53.0625 49.960938 53.382812 46.808594 C 53.761719 43.113281 56.832031 41.457031 59.710938 41.457031 C 62.589844 41.457031 65.660156 43.113281 66.035156 46.808594 C 66.257812 48.960938 66.90625 55.289062 66.035156 58.730469 Z M 66.035156 58.730469 " fill-opacity="1" fill-rule="nonzero"/><path fill="#fffffe" d="M 50.566406 23.222656 C 48.246094 23.222656 46.980469 24.191406 45.546875 27.058594 C 45.445312 27.265625 45.230469 27.398438 45 27.398438 C 44.769531 27.398438 44.558594 27.265625 44.453125 27.058594 C 43.019531 24.191406 41.753906 23.222656 39.433594 23.222656 C 36.699219 23.222656 34.476562 25.445312 34.476562 28.179688 C 34.476562 33.347656 39.753906 38.761719 45 44.011719 C 50.246094 38.761719 55.519531 33.347656 55.519531 28.179688 C 55.523438 25.445312 53.296875 23.222656 50.566406 23.222656 Z M 49.371094 35.277344 C 49.371094 35.617188 49.101562 35.890625 48.761719 35.890625 L 46.992188 35.890625 L 46.992188 37.660156 C 46.992188 37.996094 46.71875 38.269531 46.382812 38.269531 L 43.617188 38.269531 C 43.28125 38.269531 43.007812 37.996094 43.007812 37.660156 L 43.007812 35.890625 L 41.238281 35.890625 C 40.902344 35.890625 40.628906 35.617188 40.628906 35.277344 L 40.628906 32.515625 C 40.628906 32.175781 40.902344 31.902344 41.238281 31.902344 L 43.007812 31.902344 L 43.007812 30.132812 C 43.007812 29.796875 43.28125 29.523438 43.617188 29.523438 L 46.382812 29.523438 C 46.71875 29.523438 46.992188 29.796875 46.992188 30.132812 L 46.992188 31.902344 L 48.761719 31.902344 C 49.101562 31.902344 49.375 32.175781 49.375 32.515625 L 49.375 35.277344 Z M 49.371094 35.277344 " fill-opacity="1" fill-rule="nonzero"/><path fill="#fffffe" d="M 48.152344 33.125 L 48.152344 34.667969 L 46.382812 34.667969 C 46.042969 34.667969 45.769531 34.941406 45.769531 35.277344 L 45.769531 37.046875 L 44.230469 37.046875 L 44.230469 35.277344 C 44.230469 34.941406 43.957031 34.667969 43.617188 34.667969 L 41.851562 34.667969 L 41.851562 33.125 L 43.617188 33.125 C 43.957031 33.125 44.230469 32.851562 44.230469 32.515625 L 44.230469 30.746094 L 45.769531 30.746094 L 45.769531 32.515625 C 45.769531 32.851562 46.042969 33.125 46.382812 33.125 C 46.382812 33.125 48.152344 33.125 48.152344 33.125 Z M 48.152344 33.125 " fill-opacity="1" fill-rule="nonzero"/></svg>