<svg xmlns="http://www.w3.org/2000/svg" xmlns:xlink="http://www.w3.org/1999/xlink" width="120" zoomAndPan="magnify" viewBox="0 0 90 97.5" height="130" preserveAspectRatio="xMidYMid meet" version="1.0"><defs><clipPath id="id1"><path d="M 42 3 L 78.269531 3 L 78.269531 77 L 42 77 Z M 42 3 " clip-rule="nonzero"/></clipPath></defs><path fill="#3f3755" d="M 31.710938 94.292969 C 28.53125 93.898438 12.785156 96.449219 12.832031 92.851562 C 11.867188 84.277344 11.9375 75.617188 12.265625 67.007812 C 12.390625 64.191406 12.730469 61.402344 13.707031 58.71875 C 15.558594 51.84375 25.171875 50.832031 24.179688 46.523438 C 23.894531 44.800781 22.703125 43.503906 21.671875 42.167969 C 18.535156 38.347656 18.589844 32.710938 21.609375 28.839844 C 27.15625 20.246094 43.0625 23.363281 41.964844 34.507812 C 41.734375 37.199219 40.707031 39.59375 39.09375 41.75 C 30.804688 51.480469 44.097656 47.050781 48.019531 61.109375 C 49.265625 65.585938 48.867188 70.3125 49.214844 74.90625 C 49.265625 80.824219 49.640625 86.746094 49.546875 92.660156 C 49.429688 93.847656 47.925781 93.863281 47.003906 93.871094 C 41.898438 93.789062 36.8125 94.347656 31.710938 94.292969 Z M 31.710938 94.292969 " fill-opacity="1" fill-rule="nonzero"/><g clip-path="url(#id1)"><path fill="#3f3756" d="M 50.113281 71.632812 C 50.363281 64.195312 48.890625 56.265625 42.992188 51.175781 C 42.449219 47.148438 42.914062 42.804688 43.640625 38.75 C 44.335938 34.265625 48.566406 32.355469 51.644531 29.664062 C 54.605469 26.832031 51.253906 23.617188 49.078125 21.582031 C 41.425781 14.230469 50.832031 0.382812 60.5 4.359375 C 66.140625 6.46875 69.59375 13.21875 66.738281 18.792969 C 65.554688 21.425781 61.960938 24.605469 64.742188 27.386719 C 69.15625 30.945312 73.523438 32.269531 75.25 38.40625 C 77.902344 47.101562 77.511719 56.375 78.144531 65.363281 C 78.28125 68.085938 78.265625 70.835938 77.632812 73.507812 C 77.179688 76.535156 63.550781 75.761719 60.664062 76.101562 C 57.324219 76.179688 54 76.433594 50.679688 76.808594 C 49.953125 77.40625 50.320312 71.542969 50.113281 71.632812 Z M 50.113281 71.632812 " fill-opacity="1" fill-rule="nonzero"/></g><path fill="#d54f60" d="M 38.730469 62.941406 C 40.144531 56.265625 42.976562 61.605469 40.207031 65.472656 C 39.957031 65.816406 39.636719 66.519531 39.128906 66.164062 C 38.261719 65.582031 37.300781 65.117188 36.585938 64.335938 C 34.371094 61.613281 36.121094 58.992188 38.730469 62.941406 Z M 38.730469 62.941406 " fill-opacity="1" fill-rule="nonzero"/><path fill="#d54f60" d="M 66.664062 41.132812 C 67.378906 36.628906 69.796875 41.3125 68.0625 43.9375 C 67.441406 44.570312 66.390625 43.742188 65.859375 43.308594 C 64.003906 42.074219 64.15625 38.4375 66.664062 41.132812 Z M 66.664062 41.132812 " fill-opacity="1" fill-rule="nonzero"/></svg>