<svg xmlns="http://www.w3.org/2000/svg" xmlns:xlink="http://www.w3.org/1999/xlink" width="120" zoomAndPan="magnify" viewBox="0 0 90 97.5" height="130" preserveAspectRatio="xMidYMid meet" version="1.0"><defs><clipPath id="id1"><path d="M 44 6.753906 L 53 6.753906 L 53 60 L 44 60 Z M 44 6.753906 " clip-rule="nonzero"/></clipPath><clipPath id="id2"><path d="M 0.230469 22 L 88 22 L 88 90.324219 L 0.230469 90.324219 Z M 0.230469 22 " clip-rule="nonzero"/></clipPath><clipPath id="id3"><path d="M 14 22 L 88 22 L 88 90.324219 L 14 90.324219 Z M 14 22 " clip-rule="nonzero"/></clipPath><clipPath id="id4"><path d="M 80 19 L 89.769531 19 L 89.769531 31 L 80 31 Z M 80 19 " clip-rule="nonzero"/></clipPath></defs><path fill="#dc624a" d="M 39.28125 25.246094 C 39.492188 25.707031 39.664062 26.136719 39.742188 26.660156 C 39.832031 27.277344 39.714844 27.925781 39.453125 28.488281 C 39.152344 29.140625 38.828125 29.800781 38.488281 30.4375 C 37.785156 31.75 36.960938 33.054688 36.761719 34.558594 C 36.699219 35.054688 36.703125 35.554688 36.644531 36.050781 C 36.46875 37.484375 35.730469 38.597656 34.78125 39.632812 C 33.820312 40.679688 32.195312 40.996094 30.847656 41.148438 C 29.992188 41.242188 29.191406 41.425781 28.324219 41.425781 C 27.449219 41.429688 26.558594 41.371094 25.722656 41.089844 C 25.859375 40.988281 26.472656 40.550781 26.472656 40.371094 C 26.222656 40.507812 25.96875 40.644531 25.695312 40.714844 C 25.417969 40.785156 25.113281 40.789062 24.863281 40.65625 C 25.332031 40.058594 25.792969 39.289062 25.867188 38.515625 C 25.945312 37.699219 25.585938 36.90625 25.476562 36.09375 C 25.371094 35.296875 25.511719 34.46875 25.875 33.753906 C 26.203125 33.113281 26.699219 32.570312 27.117188 31.980469 C 27.632812 31.253906 28.039062 30.433594 28.167969 29.550781 C 28.457031 27.597656 27 25.609375 27.769531 23.710938 C 27.808594 23.613281 28.457031 21.871094 28.285156 21.871094 C 28.3125 21.867188 28.335938 21.867188 28.359375 21.863281 C 29.011719 21.804688 29.664062 21.75 30.316406 21.691406 C 31.445312 21.59375 32.570312 21.492188 33.699219 21.394531 C 34.746094 21.300781 35.792969 21.207031 36.84375 21.113281 C 37.089844 21.09375 37.339844 21.074219 37.585938 21.050781 C 37.738281 21.035156 37.988281 20.957031 38.128906 21.050781 C 38.273438 21.152344 38.257812 21.40625 38.277344 21.5625 C 38.308594 21.789062 38.339844 22.019531 38.375 22.246094 C 38.523438 23.175781 38.734375 24.109375 39.144531 24.960938 C 39.191406 25.058594 39.238281 25.152344 39.28125 25.246094 " fill-opacity="1" fill-rule="nonzero"/><path fill="#d75145" d="M 30.625 25.695312 C 30.644531 25.828125 30.65625 25.960938 30.671875 26.09375 L 30.6875 26.496094 C 30.703125 26.769531 30.605469 27.039062 30.527344 27.289062 C 30.441406 27.539062 30.371094 27.789062 30.300781 28.042969 L 30.101562 28.8125 C 30.109375 28.546875 30.144531 28.28125 30.1875 28.019531 C 30.234375 27.753906 30.300781 27.492188 30.386719 27.242188 C 30.46875 26.988281 30.5625 26.746094 30.570312 26.484375 L 30.625 25.695312 " fill-opacity="1" fill-rule="nonzero"/><path fill="#d75145" d="M 37.34375 24.882812 C 37.226562 25.273438 37.160156 25.675781 37.152344 26.078125 C 37.140625 26.476562 37.195312 26.871094 37.296875 27.257812 C 37.394531 27.648438 37.527344 28.039062 37.605469 28.449219 C 37.6875 28.855469 37.695312 29.296875 37.546875 29.683594 C 37.609375 29.273438 37.539062 28.875 37.433594 28.488281 C 37.328125 28.101562 37.1875 27.71875 37.082031 27.316406 C 36.976562 26.910156 36.929688 26.480469 36.976562 26.066406 C 37.019531 25.648438 37.144531 25.242188 37.34375 24.882812 " fill-opacity="1" fill-rule="nonzero"/><path fill="#d75145" d="M 37.691406 23.210938 C 37.804688 23.488281 37.804688 23.796875 37.785156 24.089844 C 37.765625 24.382812 37.730469 24.679688 37.800781 24.957031 C 37.953125 25.519531 38.378906 25.957031 38.667969 26.480469 C 38.949219 27.011719 39.078125 27.625 39.003906 28.222656 C 38.96875 28.519531 38.886719 28.8125 38.75 29.078125 C 38.617188 29.34375 38.441406 29.585938 38.378906 29.878906 C 38.421875 29.582031 38.585938 29.320312 38.699219 29.054688 C 38.820312 28.789062 38.894531 28.503906 38.917969 28.210938 C 38.96875 27.632812 38.847656 27.039062 38.566406 26.535156 C 38.296875 26.023438 37.859375 25.582031 37.714844 24.976562 C 37.59375 24.371094 37.882812 23.789062 37.691406 23.210938 " fill-opacity="1" fill-rule="nonzero"/><path fill="#dc624a" d="M 39.285156 29.554688 C 39.714844 28.945312 39.949219 28.199219 39.949219 27.449219 C 39.949219 27.320312 39.941406 27.1875 39.925781 27.058594 C 39.828125 26.183594 39.402344 25.355469 38.75 24.765625 L 38.699219 24.769531 L 38.703125 24.820312 C 39.339844 25.394531 39.757812 26.210938 39.851562 27.066406 C 39.867188 27.195312 39.875 27.320312 39.875 27.449219 C 39.875 28.179688 39.644531 28.914062 39.222656 29.511719 L 39.230469 29.5625 L 39.285156 29.554688 " fill-opacity="1" fill-rule="nonzero"/><path fill="#dc624a" d="M 26.496094 32.90625 C 26.769531 32.472656 27.042969 32.035156 27.261719 31.566406 C 27.722656 30.578125 27.910156 29.488281 27.910156 28.398438 C 27.910156 27.949219 27.878906 27.5 27.820312 27.054688 C 27.765625 26.628906 27.6875 26.199219 27.6875 25.777344 C 27.6875 25.570312 27.703125 25.367188 27.753906 25.164062 L 27.726562 25.117188 L 27.683594 25.144531 C 27.628906 25.355469 27.613281 25.566406 27.613281 25.777344 C 27.613281 26.207031 27.691406 26.640625 27.746094 27.066406 C 27.804688 27.503906 27.835938 27.953125 27.835938 28.398438 C 27.835938 29.480469 27.648438 30.558594 27.195312 31.535156 C 26.980469 31.996094 26.707031 32.433594 26.429688 32.863281 L 26.441406 32.917969 L 26.496094 32.90625 " fill-opacity="1" fill-rule="nonzero"/><path fill="#d75145" d="M 28.328125 23 C 28.15625 23.5 28 23.996094 27.9375 24.511719 C 27.859375 25.027344 27.875 25.550781 27.949219 26.070312 C 27.78125 25.570312 27.753906 25.023438 27.824219 24.496094 C 27.902344 23.972656 28.070312 23.460938 28.328125 23 " fill-opacity="1" fill-rule="nonzero"/><path fill="#d75145" d="M 28.863281 23.347656 C 28.914062 23.632812 28.902344 23.925781 28.871094 24.210938 C 28.855469 24.355469 28.832031 24.496094 28.804688 24.640625 C 28.777344 24.789062 28.714844 24.925781 28.644531 25.054688 C 28.496094 25.304688 28.328125 25.53125 28.226562 25.796875 C 28.117188 26.054688 28.046875 26.332031 28.039062 26.621094 C 28 26.335938 28.046875 26.039062 28.144531 25.765625 C 28.234375 25.484375 28.410156 25.242188 28.542969 24.996094 C 28.613281 24.875 28.675781 24.75 28.703125 24.617188 C 28.734375 24.480469 28.757812 24.339844 28.785156 24.199219 C 28.835938 23.917969 28.867188 23.636719 28.863281 23.347656 " fill-opacity="1" fill-rule="nonzero"/><path fill="#d75145" d="M 29.730469 27.242188 C 29.585938 27.023438 29.488281 26.769531 29.429688 26.511719 C 29.371094 26.25 29.355469 25.984375 29.355469 25.71875 C 29.363281 25.457031 29.382812 25.1875 29.449219 24.933594 C 29.511719 24.675781 29.585938 24.425781 29.632812 24.167969 C 29.632812 24.433594 29.578125 24.695312 29.535156 24.949219 C 29.488281 25.203125 29.472656 25.460938 29.46875 25.722656 C 29.453125 26.238281 29.519531 26.757812 29.730469 27.242188 " fill-opacity="1" fill-rule="nonzero"/><path fill="#448bc7" d="M 23.390625 18.882812 C 23.234375 18.722656 22.921875 18.6875 22.699219 18.6875 C 22.265625 18.6875 21.800781 18.816406 21.394531 18.972656 L 21.703125 19.335938 L 22.203125 19.511719 C 22.6875 19.511719 22.992188 19.453125 23.316406 19.09375 C 23.347656 19.058594 23.375 19.015625 23.371094 18.96875 C 23.371094 18.933594 23.414062 18.910156 23.390625 18.882812 " fill-opacity="1" fill-rule="nonzero"/><path fill="#7fb5e5" d="M 43.394531 57.992188 C 43.269531 57.851562 43.082031 57.785156 42.902344 57.730469 C 42.78125 57.695312 42.664062 57.660156 42.546875 57.625 C 42.097656 57.488281 41.636719 57.34375 41.242188 57.078125 C 41.148438 57.011719 41.058594 56.941406 40.976562 56.863281 C 40.902344 56.792969 40.84375 56.683594 40.761719 56.621094 C 40.675781 56.5625 40.539062 56.558594 40.441406 56.550781 C 40.300781 56.539062 40.160156 56.539062 40.019531 56.539062 C 39.765625 56.539062 39.503906 56.542969 39.269531 56.644531 C 39.21875 56.667969 39.164062 56.695312 39.121094 56.738281 C 39.082031 56.777344 39.050781 56.824219 39.027344 56.875 C 38.871094 57.1875 38.925781 57.566406 38.988281 57.894531 C 39.0625 58.296875 39.144531 58.699219 39.207031 59.105469 C 39.371094 59.101562 39.589844 59.074219 39.738281 59.054688 C 39.707031 58.769531 39.714844 58.546875 39.667969 58.261719 C 39.664062 58.234375 39.671875 58.207031 39.6875 58.1875 C 39.71875 58.148438 39.734375 58.171875 39.777344 58.195312 C 40.085938 58.371094 40.308594 58.691406 40.644531 58.804688 C 40.867188 58.882812 41.109375 58.859375 41.34375 58.832031 C 41.914062 58.769531 42.484375 58.707031 43.054688 58.648438 C 43.195312 58.632812 43.347656 58.609375 43.441406 58.507812 C 43.566406 58.367188 43.523438 58.132812 43.394531 57.992188 " fill-opacity="1" fill-rule="nonzero"/><path fill="#7fb5e5" d="M 33.742188 59.96875 C 33.628906 59.820312 33.445312 59.734375 33.273438 59.664062 C 33.160156 59.613281 33.042969 59.566406 32.929688 59.519531 C 32.496094 59.339844 32.050781 59.152344 31.6875 58.851562 C 31.515625 58.707031 31.382812 58.527344 31.21875 58.382812 C 31.027344 58.214844 30.757812 58.21875 30.519531 58.195312 C 30.265625 58.171875 30.007812 58.148438 29.765625 58.226562 C 29.710938 58.246094 29.65625 58.269531 29.609375 58.308594 C 29.566406 58.34375 29.53125 58.386719 29.5 58.4375 C 29.316406 58.734375 29.335938 59.113281 29.363281 59.445312 C 29.394531 59.855469 29.441406 60.265625 29.464844 60.671875 C 29.625 60.683594 29.847656 60.679688 30 60.671875 C 29.992188 60.386719 30.019531 60.167969 30.003906 59.875 C 30.003906 59.851562 30.011719 59.820312 30.03125 59.804688 C 30.066406 59.769531 30.078125 59.796875 30.121094 59.824219 C 30.410156 60.027344 30.601562 60.367188 30.925781 60.515625 C 31.136719 60.613281 31.382812 60.609375 31.617188 60.609375 C 32.191406 60.601562 32.765625 60.59375 33.335938 60.589844 C 33.476562 60.585938 33.632812 60.582031 33.734375 60.488281 C 33.875 60.359375 33.855469 60.121094 33.742188 59.96875 " fill-opacity="1" fill-rule="nonzero"/><path fill="#f9a99f" d="M 40.300781 46.296875 C 40.28125 46.246094 40.265625 46.195312 40.246094 46.144531 C 39.75 44.816406 38.738281 43.710938 38.117188 42.414062 C 37.445312 41.011719 36.902344 39.550781 36.292969 38.121094 C 36.113281 37.703125 34.292969 37.871094 33.828125 37.835938 C 32.863281 37.761719 31.898438 37.671875 30.9375 37.5625 C 30.613281 37.527344 30.25 37.515625 30.003906 37.765625 C 29.761719 38.015625 29.609375 38.285156 29.503906 38.609375 C 29.28125 39.132812 29.253906 39.605469 29.128906 40.144531 C 28.984375 40.78125 28.898438 41.421875 28.882812 42.078125 C 28.808594 44.863281 29.398438 46.296875 29.71875 49.050781 C 29.753906 49.363281 29.789062 49.683594 29.765625 50 C 29.742188 50.371094 29.484375 50.832031 29.40625 51.195312 C 29.136719 52.484375 29.070312 53.679688 29.277344 54.964844 C 29.378906 55.605469 29.515625 56.523438 29.585938 57.167969 C 29.628906 57.582031 29.503906 58.203125 29.703125 58.570312 C 29.816406 58.773438 30 58.929688 30.1875 59.070312 C 30.605469 59.386719 31.113281 59.566406 31.621094 59.699219 C 31.816406 59.753906 32.15625 59.804688 32.320312 59.648438 C 32.378906 59.59375 32.402344 59.5 32.363281 59.433594 C 32.332031 59.382812 32.273438 59.355469 32.214844 59.332031 C 31.851562 59.171875 31.417969 58.792969 31.246094 58.425781 C 31.1875 58.292969 31.152344 58.148438 31.128906 58.003906 C 31.050781 57.542969 31.246094 57.007812 31.339844 56.550781 C 31.441406 56.058594 31.550781 55.566406 31.605469 55.070312 C 31.753906 53.753906 32.050781 52.601562 32.015625 51.277344 C 32.011719 51.046875 32.003906 50.820312 32.027344 50.59375 C 32.050781 50.332031 32.113281 50.078125 32.171875 49.824219 C 32.480469 48.449219 32.652344 48.339844 32.808594 46.941406 C 32.886719 46.242188 32.960938 43.226562 33.082031 42.292969 C 34.789062 44.03125 36.152344 46.117188 37.804688 47.703125 C 37.953125 47.84375 38.050781 48.03125 38.105469 48.230469 C 38.164062 48.441406 38.140625 48.667969 38.113281 48.890625 C 37.996094 49.828125 37.941406 51.0625 38.070312 52 C 38.207031 52.96875 38.453125 53.917969 38.714844 54.855469 C 38.878906 55.449219 39.035156 56.03125 39.125 56.640625 C 39.144531 56.792969 39.167969 56.953125 39.261719 57.078125 C 39.347656 57.183594 39.472656 57.242188 39.597656 57.296875 C 40.257812 57.582031 40.972656 57.804688 41.699219 57.820312 C 41.761719 57.820312 41.828125 57.820312 41.882812 57.792969 C 41.941406 57.765625 41.984375 57.703125 41.972656 57.644531 C 41.960938 57.578125 41.894531 57.539062 41.835938 57.511719 C 41.402344 57.292969 40.804688 56.878906 40.742188 56.339844 C 40.636719 56.035156 40.6875 55.683594 40.679688 55.359375 C 40.671875 54.996094 40.660156 54.632812 40.667969 54.269531 C 40.699219 52.910156 40.6875 51.113281 40.644531 49.753906 C 40.609375 48.582031 40.671875 47.410156 40.300781 46.296875 " fill-opacity="1" fill-rule="nonzero"/><path fill="#f7918a" d="M 38.105469 48.230469 C 38.164062 48.441406 38.140625 48.667969 38.113281 48.890625 C 37.996094 49.828125 37.941406 51.0625 38.070312 52 C 38.207031 52.96875 38.453125 53.917969 38.714844 54.855469 C 38.71875 54.882812 38.726562 54.90625 38.734375 54.929688 C 39.382812 54.695312 40.003906 54.382812 40.671875 54.191406 C 40.699219 52.839844 40.6875 51.089844 40.644531 49.753906 C 40.609375 48.582031 40.671875 47.410156 40.300781 46.296875 C 40.28125 46.246094 40.265625 46.195312 40.246094 46.144531 C 39.75 44.816406 38.738281 43.710938 38.117188 42.414062 C 37.445312 41.011719 36.902344 39.550781 36.292969 38.121094 C 36.113281 37.703125 34.292969 37.871094 33.828125 37.835938 C 32.863281 37.761719 31.898438 37.671875 30.9375 37.5625 C 30.613281 37.527344 30.25 37.515625 30.003906 37.765625 C 29.761719 38.015625 29.609375 38.285156 29.503906 38.609375 C 29.28125 39.132812 29.253906 39.605469 29.128906 40.144531 C 28.984375 40.78125 28.898438 41.421875 28.882812 42.078125 C 28.808594 44.863281 29.398438 46.296875 29.71875 49.050781 C 29.753906 49.363281 29.789062 49.683594 29.765625 50 C 29.742188 50.371094 29.484375 50.832031 29.40625 51.195312 C 29.136719 52.484375 29.070312 53.679688 29.277344 54.964844 C 29.300781 55.117188 29.328125 55.28125 29.355469 55.457031 C 30.074219 55.59375 30.796875 55.621094 31.53125 55.5625 C 31.5625 55.398438 31.585938 55.234375 31.605469 55.070312 C 31.753906 53.753906 32.050781 52.601562 32.015625 51.277344 C 32.011719 51.046875 32.003906 50.820312 32.027344 50.59375 C 32.050781 50.332031 32.113281 50.078125 32.171875 49.824219 C 32.480469 48.449219 32.652344 48.339844 32.808594 46.941406 C 32.886719 46.242188 32.960938 43.226562 33.082031 42.292969 C 34.789062 44.03125 36.152344 46.117188 37.804688 47.703125 C 37.953125 47.84375 38.050781 48.03125 38.105469 48.230469 " fill-opacity="1" fill-rule="nonzero"/><path fill="#fab7cc" d="M 42.722656 52.855469 C 42.429688 53.128906 41.773438 52.984375 41.425781 52.964844 C 41.261719 52.957031 41.101562 52.957031 40.945312 52.976562 C 39.476562 53.113281 38.296875 54.179688 36.820312 54.308594 C 35.949219 54.386719 35.101562 54.082031 34.238281 53.902344 C 33.851562 53.816406 33.457031 53.761719 33.066406 53.773438 C 32.679688 53.789062 32.304688 53.871094 31.9375 53.984375 C 31.460938 54.128906 30.992188 54.328125 30.519531 54.496094 C 29.683594 54.789062 28.742188 54.984375 27.929688 54.640625 C 27.8125 54.589844 27.695312 54.523438 27.628906 54.414062 C 27.507812 54.230469 27.582031 53.984375 27.65625 53.773438 C 28.304688 51.957031 29.117188 50.113281 29.066406 48.144531 C 29.03125 46.59375 28.558594 45.066406 28.472656 43.507812 C 28.363281 41.550781 28.699219 39.839844 29.664062 38.105469 C 30.101562 37.3125 31.214844 37.625 31.964844 37.5625 C 32.597656 37.515625 33.230469 37.484375 33.863281 37.480469 C 34.308594 37.472656 34.753906 37.480469 35.195312 37.496094 C 35.285156 37.496094 35.375 37.5 35.464844 37.511719 C 35.617188 37.523438 35.769531 37.558594 35.902344 37.628906 C 36.109375 37.742188 36.253906 37.929688 36.378906 38.121094 C 36.660156 38.558594 36.871094 39.015625 37.050781 39.488281 L 37.070312 39.542969 C 37.265625 40.066406 37.429688 40.601562 37.632812 41.136719 C 37.648438 41.195312 37.671875 41.25 37.695312 41.308594 C 37.703125 41.335938 37.714844 41.359375 37.722656 41.382812 C 37.910156 41.855469 38.195312 42.277344 38.476562 42.703125 C 38.609375 42.90625 38.722656 43.089844 38.800781 43.226562 C 39.355469 44.1875 39.914062 45.136719 40.46875 46.089844 C 40.847656 46.746094 41.234375 47.402344 41.480469 48.121094 C 41.804688 49.070312 41.632812 50.210938 41.996094 51.109375 C 42.179688 51.558594 43.257812 52.359375 42.722656 52.855469 " fill-opacity="1" fill-rule="nonzero"/><path fill="#f8a6c0" d="M 37.664062 50.359375 C 37.636719 49.6875 37.703125 48.683594 37.34375 48.089844 C 36.855469 47.285156 36 46.558594 35.3125 45.925781 C 35.71875 47.253906 36.367188 48.53125 36.445312 49.917969 C 36.527344 51.414062 35.851562 52.777344 35.914062 54.269531 C 36.214844 54.316406 36.515625 54.335938 36.816406 54.308594 C 37.355469 54.261719 37.851562 54.089844 38.339844 53.882812 C 38.117188 52.675781 37.710938 51.617188 37.664062 50.359375 " fill-opacity="1" fill-rule="nonzero"/><path fill="#f9a99f" d="M 35.894531 27.429688 C 35.886719 27.722656 35.542969 28.070312 35.410156 28.347656 C 35.183594 28.835938 34.792969 29.59375 34.527344 29.972656 C 34.011719 30.714844 33.542969 31.632812 32.867188 31.375 C 32.191406 31.121094 30.945312 28.21875 30.675781 27.585938 C 30.644531 27.507812 30.617188 27.40625 30.679688 27.34375 C 30.703125 27.320312 30.734375 27.292969 30.769531 27.292969 C 32.449219 27.304688 32.675781 26.628906 32.714844 25.972656 L 32.714844 25.953125 C 32.726562 25.742188 32.71875 25.53125 32.734375 25.34375 L 33.789062 25.363281 L 33.777344 25.378906 L 33.777344 25.386719 C 33.730469 25.503906 33.746094 26.015625 33.855469 26.460938 L 33.863281 26.488281 L 33.863281 26.5 C 33.925781 26.742188 34.019531 26.964844 34.148438 27.074219 C 34.472656 27.359375 35.453125 27.363281 35.894531 27.429688 " fill-opacity="1" fill-rule="nonzero"/><path fill="#fab7cc" d="M 35.871094 27.453125 C 35.902344 27.464844 35.929688 27.476562 35.960938 27.484375 C 35.941406 27.480469 35.742188 28.339844 35.730469 28.40625 C 35.640625 28.847656 35.558594 29.296875 35.488281 29.742188 C 35.34375 30.640625 35.238281 31.542969 35.148438 32.445312 C 34.976562 34.242188 34.886719 36.042969 34.769531 37.839844 C 34.765625 37.917969 34.75 38.011719 34.679688 38.046875 C 34.648438 38.0625 34.609375 38.0625 34.574219 38.0625 C 33.386719 38.054688 32.199219 37.980469 31.019531 37.84375 C 30.957031 37.839844 30.890625 37.828125 30.855469 37.773438 C 30.828125 37.738281 30.828125 37.6875 30.832031 37.644531 C 30.839844 37.367188 30.851562 37.089844 30.863281 36.808594 C 30.941406 34.957031 31.050781 33.101562 31.023438 31.246094 C 31.003906 29.957031 30.878906 28.6875 30.730469 27.410156 L 30.734375 27.34375 C 30.75 27.320312 30.777344 27.308594 30.804688 27.300781 C 31.167969 27.199219 31.527344 27.09375 31.886719 26.992188 C 31.921875 26.980469 31.960938 26.972656 31.996094 26.980469 C 32.167969 27.015625 32.175781 27.367188 32.210938 27.5 C 32.28125 27.753906 32.363281 28.007812 32.460938 28.253906 C 32.554688 28.496094 32.664062 28.738281 32.84375 28.925781 C 32.949219 29.035156 33.09375 29.128906 33.242188 29.109375 C 33.410156 29.085938 33.527344 28.9375 33.617188 28.796875 C 33.914062 28.351562 34.140625 27.855469 34.285156 27.339844 C 34.398438 26.949219 34.5625 27.058594 34.886719 27.148438 C 35.21875 27.242188 35.546875 27.34375 35.871094 27.453125 " fill-opacity="1" fill-rule="nonzero"/><path fill="#fddde4" d="M 33.265625 29.425781 C 34.003906 29.425781 34.515625 27.929688 34.789062 27.121094 C 34.527344 27.042969 34.386719 26.992188 34.285156 27.339844 C 34.140625 27.855469 33.914062 28.351562 33.617188 28.796875 C 33.527344 28.9375 33.410156 29.085938 33.242188 29.109375 C 33.09375 29.128906 32.949219 29.035156 32.84375 28.925781 C 32.664062 28.738281 32.554688 28.496094 32.460938 28.253906 C 32.363281 28.007812 32.28125 27.753906 32.210938 27.5 C 32.175781 27.367188 32.167969 27.015625 31.996094 26.980469 C 31.960938 26.972656 31.921875 26.980469 31.886719 26.992188 C 31.824219 27.011719 31.761719 27.027344 31.699219 27.046875 C 31.90625 27.863281 32.207031 29.425781 33.265625 29.425781 " fill-opacity="1" fill-rule="nonzero"/><path fill="#f8a3ba" d="M 31.453125 27.117188 L 30.804688 27.300781 C 30.777344 27.308594 30.75 27.320312 30.734375 27.34375 L 30.730469 27.410156 C 30.878906 28.6875 31.003906 29.957031 31.023438 31.246094 C 31.050781 33.101562 30.941406 34.957031 30.863281 36.808594 C 30.851562 37.058594 30.84375 37.304688 30.835938 37.554688 C 30.355469 37.566406 29.90625 37.667969 29.664062 38.105469 C 28.925781 39.425781 28.558594 40.734375 28.472656 42.148438 C 28.632812 41.980469 28.808594 41.828125 29.003906 41.683594 C 29.539062 41.28125 30.125 40.953125 30.59375 40.484375 C 30.878906 40.15625 31.152344 39.820312 31.347656 39.429688 C 31.988281 38.121094 31.988281 36.375 32.105469 34.949219 C 32.316406 32.3125 32.242188 29.65625 31.453125 27.117188 " fill-opacity="1" fill-rule="nonzero"/><path fill="#f9a99f" d="M 38.132812 21.222656 C 38.316406 21.242188 38.492188 21.371094 38.574219 21.558594 C 38.613281 21.640625 38.632812 21.734375 38.640625 21.824219 C 38.695312 22.308594 38.453125 22.835938 38.050781 22.992188 C 38.007812 23.007812 37.964844 23.019531 37.917969 23.015625 C 37.777344 23 37.695312 22.828125 37.652344 22.671875 C 37.503906 22.136719 37.40625 21.148438 38.132812 21.222656 " fill-opacity="1" fill-rule="nonzero"/><path fill="#f68587" d="M 37.808594 22.109375 C 37.957031 21.90625 38.164062 21.761719 38.386719 21.703125 C 38.410156 21.695312 38.425781 21.671875 38.417969 21.648438 C 38.410156 21.625 38.386719 21.609375 38.363281 21.617188 C 38.121094 21.679688 37.894531 21.839844 37.734375 22.058594 L 37.746094 22.121094 L 37.808594 22.109375 " fill-opacity="1" fill-rule="nonzero"/><path fill="#f68587" d="M 37.785156 22.125 C 37.851562 22.109375 37.921875 22.101562 37.992188 22.101562 C 38.132812 22.101562 38.273438 22.136719 38.402344 22.207031 L 38.460938 22.1875 L 38.445312 22.128906 C 38.304688 22.050781 38.148438 22.011719 37.992188 22.011719 C 37.914062 22.011719 37.839844 22.019531 37.761719 22.039062 C 37.738281 22.046875 37.726562 22.070312 37.730469 22.09375 C 37.738281 22.117188 37.761719 22.132812 37.785156 22.125 " fill-opacity="1" fill-rule="nonzero"/><path fill="#f9a99f" d="M 36.097656 18.863281 C 36.265625 18.96875 36.425781 19.089844 36.574219 19.230469 C 37.367188 19.988281 37.828125 21.140625 37.816406 22.328125 C 37.796875 24.027344 36.460938 25.3125 35.15625 25.800781 C 33.761719 26.324219 32.03125 26.339844 30.703125 25.554688 C 28.949219 24.523438 28.253906 21.800781 29.554688 19.9375 C 30.925781 17.976562 33.777344 17.816406 35.691406 18.65625 C 35.832031 18.714844 35.964844 18.785156 36.097656 18.863281 " fill-opacity="1" fill-rule="nonzero"/><path fill="#f7918a" d="M 33.769531 25.851562 C 32.585938 26.09375 31.046875 25.710938 29.976562 24.972656 C 30.191406 25.199219 30.433594 25.398438 30.703125 25.554688 C 32.03125 26.335938 33.761719 26.324219 35.15625 25.800781 C 36.308594 25.367188 37.480469 24.320312 37.753906 22.914062 C 36.996094 24.480469 35.363281 25.523438 33.769531 25.851562 " fill-opacity="1" fill-rule="nonzero"/><path fill="#dc624a" d="M 35.078125 16.789062 C 34.082031 16.554688 32.917969 16.375 31.917969 16.734375 C 31.746094 16.796875 31.597656 16.917969 31.417969 16.945312 C 31.25 16.96875 31.078125 16.964844 30.910156 16.988281 C 30.402344 17.066406 29.980469 17.417969 29.640625 17.804688 C 29.113281 18.402344 28.765625 19.097656 28.546875 19.859375 C 28.480469 20.089844 28.429688 20.328125 28.394531 20.5625 C 28.359375 20.78125 28.300781 21.050781 28.332031 21.269531 C 28.445312 21.226562 28.546875 21.179688 28.667969 21.179688 C 28.792969 21.179688 28.917969 21.21875 29.007812 21.300781 C 29.089844 21.378906 29.136719 21.484375 29.164062 21.589844 C 29.234375 21.867188 29.382812 21.777344 29.53125 21.636719 C 29.742188 21.4375 29.960938 21.261719 30.148438 21.042969 C 30.628906 20.492188 30.882812 19.84375 31.230469 19.210938 C 31.519531 20.085938 32.339844 20.617188 33.171875 20.871094 C 33.996094 21.121094 34.910156 21.117188 35.761719 21.257812 C 36.144531 21.320312 36.441406 21.367188 36.742188 21.636719 C 37.007812 21.875 37.195312 22.191406 37.3125 22.527344 C 37.511719 23.089844 37.511719 23.761719 37.40625 24.347656 C 37.613281 24.285156 37.867188 24.375 38.078125 24.367188 C 38.261719 24.359375 38.632812 24.300781 38.761719 24.488281 C 38.664062 24.347656 38.644531 24.171875 38.628906 24.003906 C 38.5625 23.171875 38.59375 22.355469 38.601562 21.523438 C 38.609375 20.796875 38.445312 20.074219 38.152344 19.410156 C 38.003906 19.070312 37.820312 18.746094 37.613281 18.441406 C 37.332031 18.035156 37.058594 17.722656 36.625 17.484375 C 36.125 17.210938 35.640625 16.921875 35.078125 16.789062 " fill-opacity="1" fill-rule="nonzero"/><path fill="#f79599" d="M 31.472656 23.253906 C 31.410156 23.621094 31.148438 23.949219 30.800781 24.082031 C 29.691406 24.5 28.792969 22.75 29.96875 22.269531 C 30.25 22.15625 30.707031 22.132812 30.980469 22.292969 C 31.328125 22.492188 31.539062 22.851562 31.472656 23.253906 " fill-opacity="1" fill-rule="nonzero"/><path fill="#f79599" d="M 35.226562 23.253906 C 35.289062 23.621094 35.550781 23.949219 35.898438 24.082031 C 37.003906 24.5 37.90625 22.75 36.730469 22.269531 C 36.449219 22.15625 35.992188 22.132812 35.714844 22.292969 C 35.371094 22.492188 35.160156 22.851562 35.226562 23.253906 " fill-opacity="1" fill-rule="nonzero"/><path fill="#de4259" d="M 32.636719 24.378906 C 32.679688 24.332031 32.726562 24.285156 32.785156 24.253906 C 32.84375 24.222656 32.921875 24.222656 32.988281 24.246094 C 33.046875 24.265625 33.097656 24.308594 33.164062 24.300781 C 33.222656 24.296875 33.269531 24.253906 33.324219 24.238281 C 33.375 24.222656 33.433594 24.230469 33.480469 24.25 C 33.53125 24.273438 33.566406 24.308594 33.613281 24.335938 C 33.640625 24.355469 33.6875 24.367188 33.703125 24.394531 C 33.722656 24.4375 33.664062 24.4375 33.632812 24.445312 C 33.585938 24.460938 33.539062 24.46875 33.488281 24.480469 C 33.394531 24.496094 33.292969 24.503906 33.195312 24.503906 C 33.097656 24.5 33.003906 24.492188 32.910156 24.472656 C 32.882812 24.464844 32.636719 24.382812 32.636719 24.378906 " fill-opacity="1" fill-rule="nonzero"/><path fill="#de4259" d="M 33.71875 24.429688 C 33.714844 24.519531 33.65625 24.597656 33.582031 24.652344 C 33.507812 24.707031 33.414062 24.738281 33.320312 24.761719 C 33.203125 24.789062 33.078125 24.800781 32.960938 24.773438 C 32.769531 24.722656 32.621094 24.5625 32.605469 24.386719 L 33.71875 24.429688 " fill-opacity="1" fill-rule="nonzero"/><path fill="#bc3b52" d="M 32.371094 24.128906 C 32.578125 24.355469 32.867188 24.492188 33.164062 24.488281 C 33.464844 24.492188 33.753906 24.363281 33.980469 24.15625 L 34.023438 24.160156 L 34.023438 24.195312 C 33.921875 24.320312 33.792969 24.429688 33.644531 24.5 C 33.496094 24.574219 33.332031 24.609375 33.164062 24.613281 C 33 24.613281 32.832031 24.570312 32.683594 24.492188 C 32.539062 24.414062 32.414062 24.296875 32.328125 24.160156 L 32.339844 24.121094 L 32.371094 24.128906 " fill-opacity="1" fill-rule="nonzero"/><path fill="#3f3331" d="M 29.621094 22.710938 C 29.605469 22.453125 29.6875 22.179688 29.898438 22.003906 C 30.09375 21.835938 30.347656 21.757812 30.597656 21.757812 C 30.84375 21.757812 31.101562 21.839844 31.285156 22.019531 C 31.464844 22.195312 31.558594 22.4375 31.601562 22.671875 C 31.605469 22.703125 31.585938 22.734375 31.554688 22.738281 C 31.523438 22.746094 31.496094 22.722656 31.488281 22.695312 C 31.441406 22.476562 31.351562 22.261719 31.191406 22.117188 C 31.035156 21.972656 30.8125 21.910156 30.597656 21.914062 C 30.382812 21.921875 30.171875 22 30.015625 22.140625 C 29.867188 22.269531 29.804688 22.492188 29.824219 22.695312 C 29.828125 22.75 29.789062 22.800781 29.734375 22.804688 C 29.675781 22.8125 29.628906 22.773438 29.621094 22.714844 L 29.621094 22.710938 " fill-opacity="1" fill-rule="nonzero"/><path fill="#3f3331" d="M 29.695312 22.785156 C 29.570312 22.730469 29.453125 22.644531 29.390625 22.519531 L 29.394531 22.5 L 29.417969 22.503906 C 29.492188 22.605469 29.609375 22.664062 29.726562 22.699219 C 29.753906 22.703125 29.769531 22.730469 29.761719 22.757812 C 29.753906 22.78125 29.726562 22.796875 29.703125 22.789062 L 29.695312 22.785156 " fill-opacity="1" fill-rule="nonzero"/><path fill="#3f3331" d="M 29.671875 22.722656 C 29.582031 22.644531 29.539062 22.539062 29.527344 22.4375 L 29.539062 22.417969 L 29.554688 22.429688 C 29.589844 22.519531 29.648438 22.601562 29.726562 22.636719 C 29.753906 22.648438 29.761719 22.679688 29.75 22.707031 C 29.738281 22.730469 29.707031 22.742188 29.683594 22.730469 L 29.671875 22.722656 " fill-opacity="1" fill-rule="nonzero"/><path fill="#3f3331" d="M 36.457031 22.695312 C 36.480469 22.488281 36.40625 22.285156 36.253906 22.136719 C 36.113281 21.988281 35.902344 21.910156 35.691406 21.914062 C 35.480469 21.917969 35.265625 21.996094 35.105469 22.136719 C 35.027344 22.207031 34.960938 22.292969 34.914062 22.386719 C 34.863281 22.480469 34.847656 22.59375 34.8125 22.699219 L 34.804688 22.71875 C 34.792969 22.757812 34.75 22.777344 34.707031 22.765625 C 34.667969 22.75 34.648438 22.707031 34.660156 22.667969 C 34.695312 22.550781 34.710938 22.429688 34.769531 22.316406 C 34.820312 22.199219 34.898438 22.09375 34.996094 22.011719 C 35.183594 21.839844 35.433594 21.742188 35.6875 21.734375 C 35.9375 21.722656 36.207031 21.816406 36.390625 22 C 36.578125 22.175781 36.683594 22.449219 36.660156 22.710938 L 36.660156 22.714844 C 36.652344 22.769531 36.605469 22.8125 36.546875 22.804688 C 36.492188 22.800781 36.453125 22.75 36.457031 22.695312 " fill-opacity="1" fill-rule="nonzero"/><path fill="#3f3331" d="M 36.546875 22.683594 C 36.695312 22.644531 36.832031 22.574219 36.925781 22.449219 L 36.953125 22.445312 L 36.960938 22.472656 C 36.882812 22.617188 36.738281 22.726562 36.589844 22.792969 C 36.558594 22.808594 36.523438 22.792969 36.511719 22.765625 C 36.496094 22.734375 36.511719 22.703125 36.539062 22.6875 L 36.546875 22.683594 " fill-opacity="1" fill-rule="nonzero"/><path fill="#3f3331" d="M 36.550781 22.613281 C 36.644531 22.566406 36.71875 22.46875 36.757812 22.359375 L 36.78125 22.347656 L 36.792969 22.367188 C 36.78125 22.492188 36.726562 22.621094 36.617188 22.714844 C 36.589844 22.738281 36.550781 22.734375 36.527344 22.707031 C 36.507812 22.679688 36.511719 22.640625 36.535156 22.621094 L 36.550781 22.613281 " fill-opacity="1" fill-rule="nonzero"/><path fill="#f9a99f" d="M 28.589844 21.183594 C 28.398438 21.203125 28.214844 21.335938 28.125 21.535156 C 28.089844 21.621094 28.066406 21.714844 28.058594 21.8125 C 28 22.316406 28.253906 22.871094 28.671875 23.03125 C 28.71875 23.050781 28.765625 23.0625 28.8125 23.054688 C 28.960938 23.039062 29.046875 22.859375 29.09375 22.695312 C 29.25 22.136719 29.351562 21.101562 28.589844 21.183594 " fill-opacity="1" fill-rule="nonzero"/><path fill="#f68587" d="M 29.046875 22.054688 C 28.878906 21.828125 28.648438 21.660156 28.390625 21.59375 C 28.367188 21.585938 28.339844 21.601562 28.335938 21.625 C 28.328125 21.652344 28.34375 21.675781 28.367188 21.683594 C 28.601562 21.746094 28.816406 21.898438 28.972656 22.109375 L 29.039062 22.121094 L 29.046875 22.054688 " fill-opacity="1" fill-rule="nonzero"/><path fill="#f68587" d="M 29.019531 22.039062 C 28.941406 22.015625 28.859375 22.007812 28.78125 22.007812 C 28.617188 22.007812 28.453125 22.046875 28.304688 22.128906 C 28.285156 22.140625 28.277344 22.167969 28.289062 22.191406 C 28.300781 22.214844 28.328125 22.222656 28.351562 22.210938 C 28.484375 22.136719 28.632812 22.101562 28.78125 22.101562 C 28.851562 22.101562 28.925781 22.109375 28.996094 22.128906 C 29.019531 22.132812 29.046875 22.117188 29.050781 22.09375 C 29.058594 22.070312 29.042969 22.042969 29.019531 22.039062 " fill-opacity="1" fill-rule="nonzero"/><path fill="#f68587" d="M 33.449219 22.535156 C 33.390625 22.515625 33.324219 22.503906 33.253906 22.503906 C 33.132812 22.503906 33.007812 22.539062 32.921875 22.636719 C 32.875 22.699219 32.851562 22.773438 32.851562 22.84375 C 32.851562 23 32.945312 23.152344 33.101562 23.207031 C 33.15625 23.226562 33.210938 23.230469 33.261719 23.230469 C 33.308594 23.230469 33.351562 23.226562 33.394531 23.226562 C 33.429688 23.226562 33.457031 23.195312 33.457031 23.15625 C 33.457031 23.121094 33.425781 23.089844 33.390625 23.09375 C 33.34375 23.09375 33.300781 23.097656 33.261719 23.097656 C 33.21875 23.097656 33.179688 23.09375 33.144531 23.082031 C 33.050781 23.050781 32.984375 22.945312 32.984375 22.84375 C 32.984375 22.800781 32.996094 22.757812 33.027344 22.722656 C 33.070312 22.667969 33.160156 22.636719 33.253906 22.636719 C 33.308594 22.636719 33.363281 22.644531 33.40625 22.660156 C 33.441406 22.671875 33.480469 22.652344 33.492188 22.617188 C 33.503906 22.582031 33.484375 22.546875 33.449219 22.535156 " fill-opacity="1" fill-rule="nonzero"/><path fill="#3f3331" d="M 30.144531 21.230469 C 30.332031 21.09375 30.550781 21.03125 30.765625 20.976562 C 30.984375 20.925781 31.199219 20.890625 31.433594 20.898438 C 31.476562 20.902344 31.507812 20.9375 31.507812 20.976562 C 31.503906 21.019531 31.46875 21.050781 31.425781 21.050781 L 31.417969 21.050781 C 31.21875 21.027344 30.996094 21.046875 30.785156 21.082031 C 30.578125 21.121094 30.359375 21.171875 30.183594 21.28125 L 30.183594 21.285156 L 30.136719 21.273438 L 30.144531 21.230469 " fill-opacity="1" fill-rule="nonzero"/><path fill="#d75145" d="M 37.417969 22.644531 C 37.367188 22.371094 37.320312 22.09375 37.238281 21.832031 C 37.160156 21.566406 37.050781 21.3125 36.886719 21.101562 C 36.722656 20.886719 36.503906 20.722656 36.261719 20.617188 C 36.011719 20.507812 35.746094 20.4375 35.476562 20.355469 C 35.207031 20.269531 34.945312 20.164062 34.691406 20.039062 C 34.441406 19.90625 34.195312 19.738281 34.019531 19.511719 C 33.648438 19.058594 33.566406 18.472656 33.171875 18.070312 C 33.617188 18.429688 33.746094 19.039062 34.109375 19.433594 C 34.46875 19.839844 35.003906 20.042969 35.523438 20.203125 C 35.785156 20.289062 36.058594 20.367188 36.316406 20.484375 C 36.578125 20.605469 36.820312 20.789062 36.980469 21.03125 C 37.316406 21.511719 37.382812 22.09375 37.417969 22.644531 " fill-opacity="1" fill-rule="nonzero"/><path fill="#d75145" d="M 31.917969 17.789062 C 32.308594 17.722656 32.714844 17.667969 33.113281 17.769531 C 33.519531 17.875 33.820312 18.175781 34.128906 18.414062 C 34.742188 18.914062 35.539062 19.074219 36.28125 19.398438 C 36.652344 19.5625 36.996094 19.808594 37.253906 20.125 C 37.519531 20.441406 37.699219 20.820312 37.800781 21.210938 C 37.851562 21.410156 37.886719 21.609375 37.90625 21.808594 L 37.953125 22.40625 C 37.984375 22.800781 38.054688 23.199219 38.269531 23.539062 C 38.023438 23.21875 37.933594 22.808594 37.878906 22.414062 L 37.808594 21.820312 C 37.78125 21.625 37.738281 21.433594 37.683594 21.246094 C 37.566406 20.871094 37.398438 20.511719 37.144531 20.21875 C 36.898438 19.921875 36.574219 19.695312 36.214844 19.539062 C 35.507812 19.214844 34.683594 19.050781 34.054688 18.507812 C 33.746094 18.253906 33.46875 17.957031 33.09375 17.84375 C 32.71875 17.722656 32.3125 17.757812 31.917969 17.789062 " fill-opacity="1" fill-rule="nonzero"/><path fill="#d75145" d="M 37.382812 18.960938 C 37.160156 18.675781 36.914062 18.414062 36.640625 18.1875 C 36.371094 17.957031 36.078125 17.753906 35.757812 17.597656 C 35.449219 17.429688 35.113281 17.304688 34.769531 17.214844 C 34.425781 17.121094 34.070312 17.074219 33.710938 17.054688 C 34.070312 17.007812 34.4375 17.027344 34.796875 17.097656 C 35.15625 17.167969 35.503906 17.296875 35.832031 17.457031 C 36.152344 17.632812 36.460938 17.84375 36.722656 18.097656 C 36.988281 18.347656 37.214844 18.640625 37.382812 18.960938 " fill-opacity="1" fill-rule="nonzero"/><path fill="#d75145" d="M 28.898438 21.050781 C 28.910156 20.667969 28.976562 20.285156 29.085938 19.917969 C 29.199219 19.546875 29.367188 19.195312 29.578125 18.867188 C 29.800781 18.546875 30.066406 18.257812 30.378906 18.023438 C 30.6875 17.792969 31.042969 17.617188 31.414062 17.53125 C 31.0625 17.679688 30.738281 17.878906 30.453125 18.121094 C 30.167969 18.363281 29.914062 18.640625 29.710938 18.953125 C 29.496094 19.261719 29.332031 19.601562 29.203125 19.957031 C 29.070312 20.308594 28.972656 20.675781 28.898438 21.050781 " fill-opacity="1" fill-rule="nonzero"/><path fill="#7fb5e5" d="M 31.511719 37.050781 C 31.460938 37.359375 31.398438 37.664062 31.324219 37.96875 C 31.207031 38.46875 31.058594 38.972656 30.738281 39.371094 C 30.273438 39.953125 29.738281 39.921875 29.070312 39.921875 C 28.878906 39.921875 28.671875 39.917969 28.507812 39.816406 C 28.472656 39.792969 28.4375 39.761719 28.425781 39.722656 C 28.414062 39.679688 28.425781 39.640625 28.441406 39.597656 C 28.703125 38.785156 29.0625 38.023438 29.261719 37.183594 C 29.535156 36.042969 29.554688 34.839844 29.324219 33.6875 C 29.257812 33.359375 29.171875 33.035156 29.105469 32.707031 C 28.789062 31.210938 28.695312 29.972656 28.992188 28.210938 C 28.992188 27.871094 29.246094 27.574219 29.550781 27.457031 C 29.730469 27.386719 29.90625 27.371094 30.09375 27.34375 C 30.570312 27.273438 31.042969 27.144531 31.523438 27.066406 C 31.558594 27.0625 31.917969 31.152344 31.871094 32.21875 C 31.800781 33.832031 31.785156 35.460938 31.511719 37.050781 " fill-opacity="1" fill-rule="nonzero"/><path fill="#d75145" d="M 29.320312 21.121094 C 29.605469 20.785156 29.847656 20.425781 30.066406 20.050781 C 30.285156 19.675781 30.476562 19.28125 30.703125 18.902344 C 30.636719 19.113281 30.558594 19.320312 30.46875 19.523438 C 30.382812 19.722656 30.285156 19.921875 30.175781 20.113281 C 29.953125 20.492188 29.675781 20.855469 29.320312 21.121094 " fill-opacity="1" fill-rule="nonzero"/><path fill="#d75145" d="M 31.632812 18.882812 C 31.8125 19.347656 32.183594 19.710938 32.605469 19.949219 C 33.035156 20.1875 33.515625 20.3125 34.003906 20.390625 C 34.488281 20.484375 34.988281 20.507812 35.480469 20.625 C 35.722656 20.683594 35.964844 20.769531 36.183594 20.894531 C 36.402344 21.023438 36.597656 21.179688 36.777344 21.355469 C 36.390625 21.039062 35.945312 20.804688 35.457031 20.71875 C 34.976562 20.625 34.476562 20.601562 33.980469 20.515625 C 33.492188 20.425781 32.992188 20.300781 32.558594 20.03125 C 32.128906 19.769531 31.761719 19.367188 31.632812 18.882812 " fill-opacity="1" fill-rule="nonzero"/><path fill="#d75145" d="M 31.882812 18.257812 C 32.128906 18.664062 32.414062 19.035156 32.75 19.355469 C 33.082031 19.679688 33.460938 19.953125 33.867188 20.195312 C 33.417969 20.042969 33.007812 19.777344 32.660156 19.445312 C 32.320312 19.113281 32.039062 18.707031 31.882812 18.257812 " fill-opacity="1" fill-rule="nonzero"/><path fill="#d75145" d="M 32.066406 17.316406 C 32.554688 17.230469 33.058594 17.238281 33.546875 17.332031 C 34.039062 17.417969 34.507812 17.617188 34.941406 17.851562 C 35.375 18.089844 35.789062 18.355469 36.226562 18.578125 C 36.65625 18.8125 37.136719 18.929688 37.59375 19.121094 C 37.359375 19.050781 37.117188 18.992188 36.878906 18.925781 C 36.640625 18.859375 36.410156 18.769531 36.183594 18.667969 C 35.730469 18.457031 35.3125 18.191406 34.882812 17.960938 C 34.453125 17.722656 34.003906 17.53125 33.527344 17.425781 C 33.050781 17.3125 32.558594 17.285156 32.066406 17.316406 " fill-opacity="1" fill-rule="nonzero"/><path fill="#63a7e0" d="M 30.847656 27.300781 C 30.808594 27.488281 30.6875 27.960938 30.574219 28.421875 C 30.457031 28.882812 30.347656 29.328125 30.328125 29.480469 C 30.324219 29.511719 30.339844 29.539062 30.367188 29.550781 C 30.664062 29.667969 30.996094 29.769531 31.265625 29.882812 C 31.289062 29.894531 31.304688 29.90625 31.3125 29.910156 L 31.316406 29.917969 C 31.316406 29.917969 31.3125 29.933594 31.296875 29.960938 C 31.042969 30.363281 30.652344 30.792969 30.414062 31.210938 L 30.410156 31.269531 C 30.503906 31.460938 30.710938 31.757812 30.933594 32.050781 C 31.15625 32.34375 31.390625 32.632812 31.527344 32.804688 C 31.550781 32.835938 31.589844 32.839844 31.617188 32.816406 C 31.644531 32.796875 31.648438 32.753906 31.628906 32.726562 C 31.488281 32.550781 31.253906 32.261719 31.035156 31.972656 C 30.816406 31.683594 30.605469 31.386719 30.523438 31.214844 L 30.46875 31.242188 L 30.523438 31.273438 C 30.75 30.875 31.140625 30.445312 31.402344 30.027344 C 31.425781 29.992188 31.441406 29.957031 31.441406 29.917969 C 31.441406 29.878906 31.421875 29.84375 31.398438 29.820312 C 31.375 29.796875 31.347656 29.78125 31.316406 29.769531 C 31.035156 29.648438 30.707031 29.546875 30.414062 29.429688 L 30.390625 29.492188 L 30.453125 29.5 C 30.46875 29.363281 30.582031 28.910156 30.695312 28.453125 C 30.8125 27.992188 30.929688 27.519531 30.972656 27.328125 C 30.976562 27.292969 30.957031 27.257812 30.921875 27.253906 C 30.886719 27.246094 30.855469 27.265625 30.847656 27.300781 " fill-opacity="1" fill-rule="nonzero"/><path fill="#f9a99f" d="M 28.128906 29.757812 C 27.820312 29.558594 27.558594 29.359375 27.324219 29.164062 C 27.082031 28.96875 26.855469 28.769531 26.632812 28.570312 C 26.1875 28.171875 25.761719 27.769531 25.339844 27.359375 C 24.917969 26.949219 24.503906 26.535156 24.09375 26.113281 C 23.886719 25.898438 23.6875 25.6875 23.476562 25.457031 L 23.3125 25.269531 L 23.265625 25.210938 L 23.1875 25.109375 C 23.160156 25.074219 23.144531 25.046875 23.128906 25.019531 L 23.082031 24.941406 C 22.976562 24.746094 22.917969 24.589844 22.859375 24.433594 C 22.636719 23.824219 22.496094 23.257812 22.351562 22.679688 C 22.210938 22.105469 22.085938 21.535156 21.96875 20.960938 C 21.738281 19.816406 21.527344 18.671875 21.363281 17.503906 C 21.308594 17.132812 21.566406 16.789062 21.9375 16.738281 C 22.296875 16.6875 22.628906 16.925781 22.699219 17.277344 L 22.699219 17.285156 C 22.914062 18.394531 23.175781 19.511719 23.460938 20.617188 C 23.601562 21.167969 23.75 21.71875 23.910156 22.257812 C 24.070312 22.792969 24.242188 23.339844 24.441406 23.808594 C 24.488281 23.917969 24.542969 24.027344 24.578125 24.082031 L 24.585938 24.097656 L 24.589844 24.097656 L 24.578125 24.082031 L 24.601562 24.105469 L 24.734375 24.230469 C 24.925781 24.414062 25.144531 24.601562 25.351562 24.789062 C 25.777344 25.160156 26.214844 25.527344 26.652344 25.886719 C 27.089844 26.246094 27.53125 26.597656 27.976562 26.933594 C 28.199219 27.101562 28.421875 27.265625 28.640625 27.414062 C 28.863281 27.570312 29.082031 27.703125 29.261719 27.800781 L 29.289062 27.816406 C 29.835938 28.113281 30.039062 28.804688 29.742188 29.351562 C 29.441406 29.902344 28.753906 30.105469 28.207031 29.804688 C 28.179688 29.792969 28.152344 29.777344 28.128906 29.757812 " fill-opacity="1" fill-rule="nonzero"/><path fill="#7fb5e5" d="M 28.253906 30.265625 C 27.460938 29.574219 24.976562 27.304688 24.519531 26.871094 C 24.046875 26.421875 23.613281 25.933594 23.21875 25.414062 C 22.992188 25.113281 22.78125 24.804688 22.617188 24.46875 C 22.449219 24.117188 22.339844 23.738281 22.25 23.363281 C 22.078125 22.664062 21.964844 21.957031 21.851562 21.25 C 21.734375 20.503906 21.574219 19.800781 21.375 19.082031 C 21.367188 19.042969 21.359375 18.992188 21.394531 18.972656 C 21.421875 18.960938 21.457031 18.980469 21.484375 18.996094 C 21.746094 19.179688 22.132812 19.226562 22.453125 19.210938 C 22.769531 19.195312 23.097656 19.066406 23.328125 18.84375 L 23.347656 18.832031 L 23.367188 18.84375 C 23.441406 18.921875 23.453125 18.988281 23.433594 19.085938 C 23.414062 19.203125 23.421875 19.324219 23.429688 19.4375 C 23.445312 19.660156 23.5 19.878906 23.546875 20.097656 C 23.589844 20.304688 23.628906 20.515625 23.679688 20.722656 C 23.886719 21.546875 24.171875 22.351562 24.378906 23.171875 C 24.394531 23.226562 24.410156 23.285156 24.449219 23.328125 C 24.484375 23.363281 24.535156 23.382812 24.578125 23.410156 C 24.730469 23.507812 24.726562 23.675781 24.753906 23.832031 L 24.769531 23.867188 L 24.824219 23.875 C 24.855469 23.871094 24.886719 23.867188 24.921875 23.867188 C 24.976562 23.867188 25.046875 23.878906 25.070312 23.929688 C 25.097656 23.984375 25.066406 24.046875 25.050781 24.105469 C 25.03125 24.207031 25.082031 24.320312 25.171875 24.371094 C 25.226562 24.402344 25.292969 24.414062 25.335938 24.460938 C 25.359375 24.484375 25.371094 24.519531 25.386719 24.550781 C 25.492188 24.777344 25.707031 24.921875 25.894531 25.074219 C 26.136719 25.269531 26.378906 25.464844 26.621094 25.65625 C 27.121094 26.054688 27.625 26.457031 28.152344 26.816406 C 28.230469 26.871094 28.3125 26.925781 28.394531 26.972656 C 28.878906 27.238281 29.3125 27.339844 29.863281 27.375 C 29.960938 28.125 30.3125 28.71875 30.089844 29.503906 C 29.945312 30.011719 29.625 30.46875 29.195312 30.777344 C 29.148438 30.8125 29.09375 30.84375 29.03125 30.84375 C 28.964844 30.84375 28.90625 30.800781 28.851562 30.761719 C 28.644531 30.601562 28.445312 30.4375 28.253906 30.265625 " fill-opacity="1" fill-rule="nonzero"/><path fill="#f9a99f" d="M 38.023438 28.285156 C 38.808594 28.992188 39.550781 29.710938 40.300781 30.402344 C 40.671875 30.746094 41.050781 31.082031 41.425781 31.386719 C 41.609375 31.539062 41.796875 31.679688 41.964844 31.789062 C 42.042969 31.839844 42.128906 31.886719 42.140625 31.894531 C 42.078125 31.886719 42.160156 31.902344 42.222656 31.902344 C 42.371094 31.90625 42.578125 31.875 42.789062 31.824219 C 43.003906 31.773438 43.230469 31.703125 43.457031 31.625 C 43.914062 31.46875 44.375 31.277344 44.839844 31.074219 C 45.773438 30.664062 46.691406 30.207031 47.703125 29.808594 C 48.050781 29.667969 48.445312 29.839844 48.585938 30.1875 C 48.714844 30.519531 48.566406 30.894531 48.25 31.050781 L 48.234375 31.054688 C 47.347656 31.480469 46.441406 32.003906 45.5 32.472656 C 45.027344 32.710938 44.546875 32.945312 44.035156 33.152344 C 43.777344 33.257812 43.511719 33.355469 43.226562 33.441406 C 42.941406 33.523438 42.640625 33.597656 42.269531 33.621094 C 42.074219 33.621094 41.890625 33.636719 41.582031 33.539062 C 41.351562 33.460938 41.207031 33.382812 41.0625 33.304688 C 40.789062 33.144531 40.554688 32.984375 40.332031 32.820312 C 39.882812 32.496094 39.46875 32.164062 39.0625 31.828125 C 38.246094 31.164062 37.464844 30.476562 36.6875 29.828125 L 36.6875 29.824219 C 36.253906 29.464844 36.199219 28.820312 36.558594 28.386719 C 36.921875 27.953125 37.5625 27.898438 37.996094 28.257812 L 38.023438 28.285156 " fill-opacity="1" fill-rule="nonzero"/><path fill="#7fb5e5" d="M 38.039062 28.261719 C 38.222656 28.402344 38.398438 28.550781 38.570312 28.679688 C 38.777344 28.835938 38.976562 29.011719 39.1875 29.160156 C 39.328125 29.261719 39.460938 29.425781 39.617188 29.488281 C 39.683594 29.515625 39.753906 29.523438 39.820312 29.546875 C 39.976562 29.601562 39.9375 29.726562 40.039062 29.8125 C 40.070312 29.835938 40.109375 29.851562 40.144531 29.867188 C 40.210938 29.90625 40.269531 29.960938 40.304688 30.027344 C 40.503906 30.378906 40.871094 30.632812 41.179688 30.902344 C 41.320312 31.023438 41.480469 31.171875 41.664062 31.214844 C 41.742188 31.230469 41.832031 31.234375 41.878906 31.300781 C 41.914062 31.347656 41.921875 31.425781 41.980469 31.441406 C 42.003906 31.445312 42.027344 31.4375 42.050781 31.429688 C 42.164062 31.390625 42.292969 31.328125 42.394531 31.394531 C 42.441406 31.421875 42.488281 31.496094 42.550781 31.496094 C 42.628906 31.5 42.671875 31.382812 42.738281 31.347656 C 42.765625 31.332031 42.792969 31.320312 42.824219 31.320312 C 42.910156 31.324219 42.953125 31.421875 43.027344 31.464844 C 43.148438 31.539062 43.359375 31.449219 43.484375 31.402344 C 43.636719 31.347656 43.785156 31.285156 43.933594 31.21875 C 44.152344 31.125 44.367188 31.023438 44.585938 30.933594 C 45.175781 30.691406 45.769531 30.449219 46.359375 30.207031 C 46.421875 30.183594 46.492188 30.15625 46.558594 30.171875 C 46.722656 30.214844 46.824219 30.558594 46.898438 30.691406 C 47.03125 30.925781 47.164062 31.164062 47.296875 31.398438 C 47.363281 31.511719 47.429688 31.636719 47.40625 31.765625 C 47.375 31.949219 47.179688 32.054688 47.007812 32.125 C 46.457031 32.355469 45.894531 32.527344 45.351562 32.769531 C 44.628906 33.085938 43.890625 33.355469 43.136719 33.574219 C 42.667969 33.710938 42.175781 33.828125 41.699219 33.730469 C 41.277344 33.644531 40.910156 33.402344 40.554688 33.15625 C 40.367188 33.011719 40.175781 32.863281 39.972656 32.746094 C 39.28125 32.351562 38.609375 31.925781 37.960938 31.464844 C 37.65625 31.25 37.363281 30.988281 37.039062 30.808594 C 36.742188 30.644531 36.585938 30.304688 36.476562 29.996094 C 36.203125 29.191406 36.15625 28.378906 36.339844 27.550781 C 36.347656 27.523438 36.355469 27.492188 36.378906 27.480469 C 36.402344 27.460938 36.4375 27.472656 36.46875 27.484375 C 36.816406 27.625 37.191406 27.765625 37.527344 27.929688 C 37.703125 28.015625 37.875 28.132812 38.039062 28.261719 " fill-opacity="1" fill-rule="nonzero"/><path fill="#63a7e0" d="M 36.929688 31.644531 C 37.0625 30.726562 37.128906 29.804688 37.128906 28.878906 C 37.128906 28.847656 37.128906 28.816406 37.128906 28.785156 C 37.128906 28.757812 37.105469 28.738281 37.082031 28.738281 C 37.054688 28.738281 37.035156 28.757812 37.035156 28.785156 C 37.035156 28.816406 37.035156 28.847656 37.035156 28.878906 C 37.035156 29.796875 36.96875 30.71875 36.835938 31.628906 C 36.832031 31.65625 36.851562 31.679688 36.878906 31.683594 C 36.902344 31.6875 36.925781 31.671875 36.929688 31.644531 " fill-opacity="1" fill-rule="nonzero"/><path fill="#63a7e0" d="M 28.996094 30.902344 C 28.882812 30.21875 28.824219 29.527344 28.824219 28.832031 C 28.824219 28.757812 28.824219 28.679688 28.824219 28.605469 C 28.828125 28.578125 28.804688 28.558594 28.78125 28.554688 C 28.753906 28.554688 28.730469 28.578125 28.730469 28.601562 C 28.730469 28.679688 28.730469 28.757812 28.730469 28.832031 C 28.730469 29.53125 28.785156 30.230469 28.902344 30.917969 C 28.90625 30.941406 28.929688 30.960938 28.957031 30.957031 C 28.984375 30.953125 29 30.925781 28.996094 30.902344 " fill-opacity="1" fill-rule="nonzero"/><path fill="#63a7e0" d="M 30.304688 36.464844 C 30.074219 36.699219 29.773438 36.867188 29.449219 36.929688 C 29.425781 36.9375 29.40625 36.960938 29.414062 36.988281 C 29.417969 37.011719 29.441406 37.03125 29.46875 37.023438 C 29.8125 36.957031 30.128906 36.78125 30.371094 36.527344 L 30.371094 36.460938 L 30.304688 36.464844 " fill-opacity="1" fill-rule="nonzero"/><path fill="#f35d92" d="M 76.015625 11.433594 C 75.96875 11.53125 75.867188 11.617188 75.773438 11.6875 C 74.363281 12.757812 73.792969 14.109375 74.214844 15.707031 C 74.496094 16.789062 75.03125 17.832031 75.035156 18.941406 C 75.046875 20.625 73.585938 22.636719 71.902344 23.425781 C 71.917969 22.738281 71.710938 22.050781 71.308594 21.460938 C 70.75 20.652344 69.859375 20.273438 68.871094 20.152344 L 68.867188 20.152344 C 67.488281 19.984375 65.917969 20.304688 64.78125 20.625 C 64.105469 20.816406 63.425781 21.070312 62.75 21.339844 L 62.746094 21.34375 C 61.957031 21.664062 61.171875 22.003906 60.402344 22.292969 C 60.304688 22.328125 60.210938 22.359375 60.117188 22.394531 C 56.890625 23.542969 53.464844 23.574219 50.011719 23.308594 L 52.492188 8.058594 C 52.582031 8.105469 52.667969 8.15625 52.757812 8.207031 C 52.804688 8.234375 52.851562 8.257812 52.898438 8.28125 C 55.039062 9.421875 57.652344 9.867188 60.136719 9.507812 C 61.375 9.324219 62.574219 8.953125 63.804688 8.71875 C 68.125 7.898438 72.253906 8.957031 75.832031 11.074219 C 75.910156 11.121094 75.996094 11.171875 76.027344 11.253906 C 76.054688 11.3125 76.046875 11.375 76.015625 11.433594 " fill-opacity="1" fill-rule="nonzero"/><path fill="#f14786" d="M 68.867188 20.152344 C 67.488281 19.984375 65.917969 20.304688 64.78125 20.625 C 64.105469 20.816406 63.425781 21.070312 62.75 21.34375 L 62.746094 21.34375 C 62.574219 21.398438 62.398438 21.457031 62.226562 21.523438 C 61.613281 21.769531 61.015625 22.050781 60.402344 22.292969 C 60.304688 22.328125 60.214844 22.359375 60.117188 22.394531 C 56.890625 23.542969 53.464844 23.574219 50.011719 23.308594 L 52.492188 8.058594 C 52.582031 8.105469 52.667969 8.15625 52.757812 8.207031 C 52.804688 8.234375 52.851562 8.257812 52.898438 8.28125 C 52.972656 8.320312 52.757812 9.410156 52.746094 9.496094 C 52.613281 10.476562 52.484375 11.449219 52.355469 12.425781 C 52.042969 14.8125 51.667969 17.242188 51.824219 19.65625 C 51.875 20.480469 52.351562 21.140625 53.148438 21.4375 C 53.652344 21.625 54.195312 21.652344 54.734375 21.636719 C 57.179688 21.585938 59.535156 20.773438 61.910156 20.195312 C 63.210938 19.878906 64.542969 19.632812 65.882812 19.617188 C 66.539062 19.609375 67.214844 19.636719 67.859375 19.777344 C 68.117188 19.835938 68.417969 19.890625 68.664062 20 C 68.703125 20.019531 68.785156 20.082031 68.867188 20.152344 " fill-opacity="1" fill-rule="nonzero"/><path fill="#f14786" d="M 73.882812 21.019531 C 73.167969 21.835938 72.078125 21.546875 71.207031 21.152344 C 71.125 21.117188 71.039062 21.085938 70.957031 21.050781 C 71.082031 21.175781 71.203125 21.3125 71.308594 21.464844 C 71.710938 22.050781 71.917969 22.738281 71.902344 23.429688 C 73.585938 22.636719 75.042969 20.625 75.035156 18.941406 C 75.03125 18.246094 74.820312 17.578125 74.597656 16.910156 C 74.839844 19.027344 74.707031 20.078125 73.882812 21.019531 " fill-opacity="1" fill-rule="nonzero"/><g clip-path="url(#id1)"><path fill="#3f3331" d="M 44.824219 59.242188 C 47.019531 44.984375 50.679688 21.21875 52.878906 6.964844 C 52.890625 6.871094 52.828125 6.785156 52.734375 6.769531 C 52.640625 6.753906 52.550781 6.820312 52.539062 6.914062 C 50.339844 21.167969 46.679688 44.933594 44.480469 59.1875 C 44.46875 59.28125 44.53125 59.371094 44.625 59.382812 C 44.71875 59.398438 44.808594 59.335938 44.824219 59.242188 " fill-opacity="1" fill-rule="nonzero"/></g><path fill="#f57aa3" d="M 68.15625 9.34375 C 70.222656 9.457031 72.277344 9.910156 73.824219 11.09375 C 73.980469 11.214844 74.140625 11.4375 74.007812 11.582031 C 73.023438 11.546875 72.21875 11.085938 71.289062 10.851562 C 70.292969 10.601562 69.273438 10.476562 68.25 10.414062 C 66.257812 10.289062 64.261719 10.40625 62.273438 10.328125 C 62.054688 10.320312 61.761719 10.21875 61.804688 10.007812 C 62.425781 9.625 63.175781 9.527344 63.902344 9.464844 C 65.207031 9.347656 66.683594 9.261719 68.15625 9.34375 " fill-opacity="1" fill-rule="nonzero"/><path fill="#f9a99f" d="M 48.300781 29.589844 C 48.125 29.667969 47.949219 29.746094 47.773438 29.824219 L 47.726562 29.855469 L 47.710938 29.894531 C 47.679688 30.007812 47.683594 30.148438 47.675781 30.269531 C 47.65625 30.542969 47.722656 30.78125 47.792969 31.042969 C 47.800781 31.074219 47.808594 31.109375 47.828125 31.136719 C 47.871094 31.195312 47.949219 31.214844 48.019531 31.230469 C 48.285156 31.292969 48.558594 31.339844 48.820312 31.414062 C 49.003906 31.464844 49.199219 31.550781 49.359375 31.382812 C 49.464844 31.269531 49.453125 31.058594 49.320312 30.988281 C 49.453125 30.988281 49.585938 30.902344 49.636719 30.777344 C 49.6875 30.652344 49.65625 30.496094 49.5625 30.402344 C 49.671875 30.3125 49.71875 30.152344 49.675781 30.015625 C 49.632812 29.882812 49.5 29.78125 49.359375 29.773438 C 49.488281 29.683594 49.519531 29.480469 49.421875 29.359375 C 49.195312 29.066406 48.542969 29.488281 48.300781 29.589844 " fill-opacity="1" fill-rule="nonzero"/><path fill="#f9a99f" d="M 21.109375 17.144531 C 21.203125 17.367188 21.3125 17.578125 21.40625 17.804688 L 21.425781 17.835938 L 21.472656 17.839844 C 21.5625 17.824219 22.558594 17.726562 22.558594 17.652344 C 22.589844 17.644531 22.625 17.636719 22.652344 17.617188 C 22.730469 17.558594 22.710938 17.488281 22.734375 17.410156 C 22.757812 17.3125 22.839844 17.242188 22.898438 17.15625 C 23.082031 16.890625 23.046875 16.523438 22.925781 16.21875 C 22.890625 16.121094 22.839844 16.023438 22.75 15.972656 C 22.664062 15.917969 22.527344 15.933594 22.480469 16.023438 C 22.519531 15.953125 22.339844 15.828125 22.292969 15.808594 C 22.167969 15.753906 22.011719 15.785156 21.917969 15.882812 C 21.828125 15.769531 21.667969 15.722656 21.53125 15.769531 C 21.398438 15.8125 21.296875 15.945312 21.289062 16.085938 C 21.199219 15.957031 21 15.925781 20.875 16.019531 C 20.585938 16.25 21.003906 16.902344 21.109375 17.144531 " fill-opacity="1" fill-rule="nonzero"/><path fill="#63a7e0" d="M 24.496094 23.941406 C 24.226562 24.027344 23.96875 24.144531 23.730469 24.289062 C 23.699219 24.308594 23.691406 24.347656 23.710938 24.378906 C 23.726562 24.40625 23.765625 24.417969 23.796875 24.398438 C 24.027344 24.257812 24.273438 24.144531 24.535156 24.0625 C 24.566406 24.050781 24.585938 24.015625 24.574219 23.980469 C 24.5625 23.949219 24.527344 23.929688 24.496094 23.941406 " fill-opacity="1" fill-rule="nonzero"/><path fill="#63a7e0" d="M 24.820312 24.285156 C 24.421875 24.597656 24.074219 24.980469 23.804688 25.410156 C 23.789062 25.441406 23.796875 25.480469 23.824219 25.5 C 23.855469 25.515625 23.894531 25.507812 23.914062 25.476562 C 24.175781 25.058594 24.511719 24.6875 24.898438 24.382812 C 24.925781 24.363281 24.929688 24.324219 24.910156 24.296875 C 24.886719 24.269531 24.847656 24.261719 24.820312 24.285156 " fill-opacity="1" fill-rule="nonzero"/><path fill="#63a7e0" d="M 24.964844 24.574219 C 24.980469 24.757812 24.992188 24.941406 25.007812 25.125 C 25.007812 25.160156 25.039062 25.1875 25.074219 25.183594 C 25.109375 25.179688 25.136719 25.152344 25.132812 25.117188 C 25.117188 24.929688 25.105469 24.746094 25.089844 24.5625 C 25.089844 24.527344 25.058594 24.503906 25.023438 24.503906 C 24.988281 24.507812 24.960938 24.539062 24.964844 24.574219 " fill-opacity="1" fill-rule="nonzero"/><path fill="#63a7e0" d="M 21.640625 19.816406 C 21.8125 19.867188 21.992188 19.890625 22.171875 19.890625 C 22.460938 19.890625 22.746094 19.828125 23.007812 19.703125 C 23.039062 19.6875 23.054688 19.652344 23.039062 19.621094 C 23.023438 19.589844 22.984375 19.574219 22.953125 19.589844 C 22.710938 19.703125 22.441406 19.765625 22.171875 19.765625 C 22.003906 19.765625 21.835938 19.742188 21.675781 19.695312 C 21.640625 19.683594 21.605469 19.703125 21.597656 19.738281 C 21.585938 19.773438 21.605469 19.808594 21.640625 19.816406 " fill-opacity="1" fill-rule="nonzero"/><path fill="#f68587" d="M 21.324219 16.3125 C 21.347656 16.386719 21.371094 16.460938 21.394531 16.539062 C 21.433594 16.660156 21.46875 16.785156 21.476562 16.90625 L 21.476562 16.929688 C 21.476562 16.972656 21.46875 17.011719 21.449219 17.039062 C 21.429688 17.074219 21.375 17.09375 21.320312 17.089844 C 21.296875 17.089844 21.273438 17.089844 21.253906 17.082031 L 21.21875 17.101562 L 21.238281 17.136719 C 21.261719 17.144531 21.292969 17.148438 21.320312 17.148438 C 21.386719 17.148438 21.460938 17.132812 21.5 17.070312 C 21.527344 17.027344 21.53125 16.976562 21.53125 16.929688 L 21.53125 16.90625 C 21.527344 16.769531 21.488281 16.644531 21.449219 16.519531 C 21.425781 16.445312 21.402344 16.371094 21.378906 16.292969 L 21.34375 16.273438 L 21.324219 16.3125 " fill-opacity="1" fill-rule="nonzero"/><path fill="#f68587" d="M 22.492188 16.945312 C 22.410156 16.980469 22.320312 17.011719 22.144531 17.066406 C 22.082031 17.082031 22.011719 17.101562 21.957031 17.148438 C 21.910156 17.183594 21.878906 17.238281 21.878906 17.300781 L 21.890625 17.355469 L 21.917969 17.34375 L 21.890625 17.355469 C 21.929688 17.441406 22.027344 17.464844 22.101562 17.46875 C 22.128906 17.472656 22.15625 17.472656 22.183594 17.472656 C 22.347656 17.472656 22.511719 17.433594 22.660156 17.359375 L 22.675781 17.320312 L 22.636719 17.308594 C 22.496094 17.378906 22.339844 17.414062 22.183594 17.414062 C 22.15625 17.414062 22.132812 17.414062 22.105469 17.414062 C 22.035156 17.40625 21.964844 17.382812 21.945312 17.332031 L 21.941406 17.332031 L 21.9375 17.300781 C 21.9375 17.261719 21.960938 17.21875 21.992188 17.191406 C 22.035156 17.15625 22.097656 17.136719 22.160156 17.121094 C 22.339844 17.066406 22.429688 17.035156 22.515625 16.996094 L 22.53125 16.957031 L 22.492188 16.945312 " fill-opacity="1" fill-rule="nonzero"/><path fill="#f68587" d="M 21.476562 16.988281 C 21.519531 17.066406 21.609375 17.089844 21.683594 17.089844 C 21.710938 17.089844 21.738281 17.085938 21.761719 17.078125 C 21.867188 17.042969 21.914062 16.949219 21.945312 16.859375 L 21.921875 16.847656 L 21.890625 16.851562 C 21.914062 16.96875 22.015625 17.054688 22.128906 17.0625 L 22.140625 17.0625 C 22.253906 17.0625 22.355469 16.988281 22.386719 16.878906 L 22.367188 16.84375 L 22.332031 16.863281 C 22.308594 16.945312 22.226562 17.007812 22.140625 17.007812 L 22.132812 17.003906 C 22.046875 17 21.964844 16.929688 21.949219 16.84375 L 21.921875 16.820312 L 21.894531 16.839844 C 21.859375 16.925781 21.820312 17 21.746094 17.023438 C 21.730469 17.027344 21.707031 17.03125 21.683594 17.03125 C 21.621094 17.03125 21.550781 17.007812 21.523438 16.960938 L 21.484375 16.949219 L 21.476562 16.988281 " fill-opacity="1" fill-rule="nonzero"/><path fill="#f68587" d="M 22.488281 16.222656 C 22.457031 16.394531 22.425781 16.5625 22.394531 16.734375 L 22.414062 16.769531 L 22.449219 16.746094 C 22.480469 16.574219 22.511719 16.402344 22.542969 16.234375 L 22.523438 16.199219 L 22.488281 16.222656 " fill-opacity="1" fill-rule="nonzero"/><path fill="#f68587" d="M 21.890625 15.984375 C 21.902344 16.132812 21.910156 16.285156 21.921875 16.433594 L 21.953125 16.460938 L 21.980469 16.429688 C 21.96875 16.28125 21.957031 16.128906 21.949219 15.980469 L 21.917969 15.953125 L 21.890625 15.984375 " fill-opacity="1" fill-rule="nonzero"/><path fill="#63a7e0" d="M 41.980469 31.503906 C 41.945312 31.53125 41.917969 31.5625 41.894531 31.59375 C 41.738281 31.785156 41.609375 32.003906 41.515625 32.230469 C 41.503906 32.261719 41.519531 32.300781 41.550781 32.3125 C 41.582031 32.328125 41.621094 32.3125 41.632812 32.277344 C 41.722656 32.0625 41.84375 31.855469 41.992188 31.675781 C 42.015625 31.644531 42.039062 31.621094 42.0625 31.601562 C 42.089844 31.578125 42.09375 31.539062 42.070312 31.511719 C 42.046875 31.484375 42.007812 31.480469 41.980469 31.503906 " fill-opacity="1" fill-rule="nonzero"/><path fill="#63a7e0" d="M 42.144531 31.554688 C 42.03125 31.902344 41.972656 32.265625 41.972656 32.628906 C 41.972656 32.699219 41.972656 32.765625 41.976562 32.832031 C 41.980469 32.867188 42.007812 32.894531 42.046875 32.890625 C 42.078125 32.890625 42.105469 32.859375 42.105469 32.824219 C 42.101562 32.761719 42.097656 32.695312 42.097656 32.628906 C 42.097656 32.277344 42.15625 31.925781 42.265625 31.59375 C 42.273438 31.558594 42.257812 31.523438 42.222656 31.511719 C 42.191406 31.503906 42.15625 31.519531 42.144531 31.554688 " fill-opacity="1" fill-rule="nonzero"/><path fill="#63a7e0" d="M 42.578125 31.585938 L 42.578125 31.601562 C 42.578125 31.738281 42.613281 31.878906 42.679688 32 C 42.695312 32.03125 42.734375 32.042969 42.765625 32.023438 C 42.796875 32.007812 42.808594 31.96875 42.792969 31.9375 C 42.734375 31.835938 42.703125 31.71875 42.703125 31.601562 L 42.703125 31.589844 C 42.703125 31.554688 42.675781 31.523438 42.640625 31.523438 C 42.609375 31.523438 42.578125 31.550781 42.578125 31.585938 " fill-opacity="1" fill-rule="nonzero"/><path fill="#63a7e0" d="M 38.832031 30.726562 C 39.183594 30.503906 39.5 30.226562 39.773438 29.910156 C 39.792969 29.882812 39.792969 29.84375 39.765625 29.820312 C 39.738281 29.796875 39.699219 29.800781 39.675781 29.828125 C 39.414062 30.132812 39.105469 30.402344 38.761719 30.621094 C 38.734375 30.640625 38.726562 30.679688 38.746094 30.710938 C 38.761719 30.738281 38.800781 30.746094 38.832031 30.726562 " fill-opacity="1" fill-rule="nonzero"/><path fill="#d75145" d="M 37.976562 20.332031 C 38.171875 20.699219 38.25 21.125 38.273438 21.539062 C 38.304688 21.957031 38.273438 22.375 38.28125 22.785156 C 38.277344 23.195312 38.300781 23.613281 38.417969 24 C 38.554688 24.382812 38.753906 24.75 38.988281 25.09375 C 38.714844 24.777344 38.492188 24.421875 38.335938 24.03125 C 38.191406 23.625 38.171875 23.203125 38.164062 22.785156 C 38.171875 22.367188 38.195312 21.957031 38.1875 21.542969 C 38.179688 21.132812 38.128906 20.71875 37.976562 20.332031 " fill-opacity="1" fill-rule="nonzero"/><path fill="#f795aa" d="M 32.414062 43.601562 C 33.328125 43.273438 34.273438 43.039062 35.230469 42.90625 C 35.273438 42.902344 35.300781 42.863281 35.296875 42.824219 C 35.289062 42.78125 35.253906 42.753906 35.210938 42.757812 C 34.242188 42.894531 33.285156 43.128906 32.367188 43.457031 C 32.328125 43.472656 32.304688 43.515625 32.320312 43.554688 C 32.335938 43.59375 32.378906 43.613281 32.414062 43.601562 " fill-opacity="1" fill-rule="nonzero"/><path fill="#f795aa" d="M 31.96875 43.421875 C 32.527344 43.128906 33.089844 42.839844 33.648438 42.546875 C 34.296875 42.210938 34.945312 41.875 35.640625 41.699219 C 35.679688 41.691406 35.703125 41.648438 35.695312 41.609375 C 35.683594 41.570312 35.644531 41.542969 35.605469 41.554688 C 34.886719 41.734375 34.226562 42.078125 33.578125 42.414062 C 33.019531 42.707031 32.460938 42.996094 31.898438 43.289062 C 31.863281 43.308594 31.847656 43.355469 31.867188 43.390625 C 31.886719 43.425781 31.933594 43.441406 31.96875 43.421875 " fill-opacity="1" fill-rule="nonzero"/><path fill="#e9e9e9" d="M 28.542969 23.203125 C 28.542969 23.265625 28.582031 23.328125 28.640625 23.351562 C 28.699219 23.375 28.773438 23.359375 28.8125 23.3125 C 28.863281 23.257812 28.867188 23.171875 28.828125 23.113281 C 28.738281 22.984375 28.546875 23.050781 28.542969 23.203125 " fill-opacity="1" fill-rule="nonzero"/><path fill="#e9e9e9" d="M 28.582031 22.90625 C 28.578125 22.957031 28.609375 23.003906 28.65625 23.019531 C 28.699219 23.039062 28.753906 23.023438 28.785156 22.988281 C 28.824219 22.949219 28.828125 22.882812 28.796875 22.839844 C 28.730469 22.742188 28.582031 22.792969 28.582031 22.90625 " fill-opacity="1" fill-rule="nonzero"/><path fill="#e9e9e9" d="M 28.457031 23.628906 C 28.453125 23.726562 28.519531 23.820312 28.609375 23.859375 C 28.699219 23.894531 28.8125 23.867188 28.878906 23.796875 C 28.953125 23.714844 28.960938 23.578125 28.898438 23.484375 C 28.761719 23.285156 28.460938 23.390625 28.457031 23.628906 " fill-opacity="1" fill-rule="nonzero"/><path fill="#f8a6c0" d="M 42.722656 52.855469 C 42.429688 53.128906 41.773438 52.984375 41.425781 52.964844 C 41.261719 52.957031 41.101562 52.957031 40.945312 52.976562 C 41.972656 52.070312 40.910156 51.609375 40.625 48.648438 C 40.476562 47.167969 39.574219 46.183594 38.890625 44.863281 C 38.496094 44.089844 38.285156 43.253906 37.75 42.542969 C 36.949219 41.484375 35.71875 40.878906 34.875 39.863281 C 34.234375 39.09375 33.925781 38.347656 33.863281 37.480469 C 33.835938 37.132812 33.851562 36.769531 33.898438 36.375 C 34.027344 35.292969 34.207031 34.214844 34.429688 33.148438 C 34.8125 34.59375 34.816406 36.210938 35.464844 37.511719 C 35.589844 37.761719 35.742188 37.996094 35.921875 38.222656 C 36.210938 38.582031 36.566406 38.878906 36.921875 39.179688 C 36.964844 39.28125 37.007812 39.386719 37.050781 39.488281 L 37.070312 39.542969 C 37.265625 40.066406 37.429688 40.601562 37.632812 41.136719 C 37.648438 41.191406 37.671875 41.246094 37.695312 41.308594 C 37.867188 41.742188 38.203125 42.273438 38.476562 42.703125 C 38.609375 42.90625 38.722656 43.089844 38.800781 43.226562 C 39.355469 44.1875 39.914062 45.136719 40.46875 46.089844 C 40.847656 46.746094 41.234375 47.402344 41.480469 48.121094 C 41.804688 49.070312 41.632812 50.210938 41.996094 51.109375 C 42.179688 51.558594 43.257812 52.359375 42.722656 52.855469 " fill-opacity="1" fill-rule="nonzero"/><path fill="#7fb5e5" d="M 36.78125 37.964844 C 37.007812 38.472656 37.285156 38.96875 37.484375 39.484375 C 37.511719 39.5625 37.542969 39.648438 37.507812 39.722656 C 37.464844 39.824219 37.332031 39.847656 37.222656 39.855469 C 36.28125 39.925781 35.480469 39.875 34.832031 39.191406 C 34.328125 38.65625 34.152344 37.796875 34.136719 37.0625 C 34.089844 35.207031 34.09375 34.007812 34.363281 32.28125 C 34.394531 32.160156 34.398438 32.027344 34.414062 31.90625 C 34.613281 30.363281 34.707031 28.777344 35.042969 27.261719 C 35.050781 27.226562 35.0625 27.183594 35.097656 27.167969 C 35.117188 27.160156 35.144531 27.160156 35.167969 27.164062 C 35.519531 27.214844 35.859375 27.308594 36.203125 27.40625 C 36.503906 27.492188 36.8125 27.648438 36.933594 27.960938 C 37.222656 28.710938 37.113281 29.511719 37.046875 30.304688 C 36.917969 31.933594 36.765625 33.351562 36.523438 35.199219 C 36.472656 35.582031 36.363281 35.957031 36.367188 36.34375 C 36.371094 36.921875 36.550781 37.449219 36.78125 37.964844 " fill-opacity="1" fill-rule="nonzero"/><path fill="#63a7e0" d="M 34.476562 32.808594 C 34.773438 32.460938 35.488281 31.652344 35.742188 31.320312 L 35.75 31.257812 C 35.605469 30.894531 35.382812 30.328125 35.171875 29.910156 L 35.164062 29.882812 C 35.164062 29.882812 35.160156 29.878906 35.183594 29.863281 C 35.207031 29.847656 35.246094 29.832031 35.289062 29.816406 C 35.617188 29.707031 35.9375 29.5625 36.164062 29.507812 C 36.199219 29.5 36.21875 29.464844 36.210938 29.429688 L 36.203125 29.398438 L 36.144531 29.410156 L 36.203125 29.398438 C 36.171875 29.242188 36.050781 28.816406 35.929688 28.382812 C 35.808594 27.953125 35.683594 27.515625 35.652344 27.347656 C 35.648438 27.316406 35.613281 27.292969 35.578125 27.296875 C 35.546875 27.304688 35.523438 27.339844 35.53125 27.371094 C 35.5625 27.550781 35.683594 27.984375 35.804688 28.417969 C 35.929688 28.847656 36.050781 29.277344 36.082031 29.425781 L 36.089844 29.460938 L 36.152344 29.445312 L 36.136719 29.382812 C 35.886719 29.445312 35.570312 29.589844 35.25 29.699219 C 35.203125 29.714844 35.15625 29.730469 35.117188 29.753906 C 35.078125 29.777344 35.035156 29.824219 35.035156 29.882812 C 35.035156 29.914062 35.042969 29.941406 35.058594 29.964844 C 35.265625 30.378906 35.488281 30.941406 35.632812 31.304688 L 35.691406 31.28125 L 35.640625 31.242188 C 35.394531 31.566406 34.679688 32.375 34.382812 32.726562 C 34.359375 32.753906 34.363281 32.792969 34.386719 32.816406 C 34.414062 32.839844 34.457031 32.835938 34.476562 32.808594 " fill-opacity="1" fill-rule="nonzero"/><path fill="#63a7e0" d="M 36.089844 37.070312 C 35.773438 36.980469 35.476562 36.816406 35.234375 36.59375 L 35.167969 36.597656 L 35.171875 36.664062 C 35.425781 36.894531 35.734375 37.066406 36.0625 37.164062 C 36.089844 37.167969 36.113281 37.15625 36.121094 37.128906 C 36.128906 37.105469 36.113281 37.078125 36.089844 37.070312 " fill-opacity="1" fill-rule="nonzero"/><path fill="#f8a6c0" d="M 34.238281 53.902344 C 33.851562 53.816406 33.457031 53.761719 33.066406 53.773438 C 32.679688 53.789062 32.304688 53.871094 31.9375 53.984375 C 31.953125 53.644531 32.144531 53.199219 32.191406 52.914062 C 32.265625 52.453125 32.324219 51.976562 32.324219 51.507812 C 32.328125 51.242188 32.328125 50.976562 32.363281 50.714844 C 32.398438 50.460938 32.472656 50.210938 32.542969 49.964844 C 32.898438 48.691406 33.128906 47.382812 33.234375 46.0625 C 33.679688 47.261719 33.609375 48.496094 33.648438 49.761719 C 33.6875 50.960938 33.738281 52.179688 34.074219 53.339844 C 34.125 53.519531 34.191406 53.707031 34.238281 53.902344 " fill-opacity="1" fill-rule="nonzero"/><path fill="#dc624a" d="M 24.683594 40.320312 C 25.128906 39.820312 25.554688 39.050781 25.652344 38.382812 C 25.667969 38.269531 25.675781 38.160156 25.675781 38.054688 C 25.675781 37.433594 25.433594 36.910156 25.40625 36.28125 C 25.402344 36.199219 25.402344 36.113281 25.402344 36.03125 C 25.402344 35.3125 25.550781 34.664062 25.910156 34.023438 L 25.894531 33.972656 L 25.84375 33.984375 C 25.480469 34.636719 25.324219 35.304688 25.328125 36.03125 C 25.328125 36.117188 25.328125 36.199219 25.332031 36.285156 C 25.363281 36.929688 25.601562 37.457031 25.601562 38.054688 C 25.601562 38.15625 25.59375 38.261719 25.578125 38.371094 C 25.484375 39.015625 25.0625 39.78125 24.625 40.269531 L 24.628906 40.320312 L 24.683594 40.320312 " fill-opacity="1" fill-rule="nonzero"/><path fill="#d75145" d="M 36.027344 26.976562 C 35.96875 26.734375 35.96875 26.488281 35.984375 26.246094 C 36.011719 26.003906 36.050781 25.761719 36.152344 25.535156 C 36.144531 25.78125 36.113281 26.015625 36.097656 26.257812 C 36.070312 26.492188 36.0625 26.730469 36.027344 26.976562 " fill-opacity="1" fill-rule="nonzero"/><path fill="#d75145" d="M 26.914062 40.019531 C 27.269531 39.472656 27.351562 38.824219 27.324219 38.203125 C 27.296875 37.574219 27.140625 36.957031 27.003906 36.324219 C 26.878906 35.695312 26.765625 35.03125 26.859375 34.367188 C 26.945312 33.710938 27.214844 33.085938 27.617188 32.578125 C 27.3125 33.148438 27.136719 33.769531 27.09375 34.394531 C 27.050781 35.015625 27.164062 35.640625 27.296875 36.265625 C 27.421875 36.890625 27.574219 37.535156 27.554688 38.199219 C 27.550781 38.527344 27.503906 38.859375 27.402344 39.175781 C 27.296875 39.488281 27.140625 39.785156 26.914062 40.019531 " fill-opacity="1" fill-rule="nonzero"/><path fill="#d75145" d="M 27.757812 41.152344 C 28.003906 40.488281 28.058594 39.773438 28.0625 39.066406 C 28.066406 38.363281 28.03125 37.652344 28.089844 36.9375 C 28.148438 36.222656 28.378906 35.535156 28.628906 34.875 C 28.871094 34.214844 29.105469 33.53125 29.058594 32.816406 C 29.101562 33.167969 29.074219 33.527344 29.003906 33.878906 C 28.933594 34.226562 28.824219 34.566406 28.710938 34.902344 C 28.601562 35.242188 28.480469 35.574219 28.386719 35.914062 C 28.292969 36.25 28.238281 36.597656 28.207031 36.949219 C 28.136719 37.648438 28.175781 38.359375 28.152344 39.070312 C 28.132812 39.777344 28.042969 40.503906 27.757812 41.152344 " fill-opacity="1" fill-rule="nonzero"/><path fill="#d75145" d="M 25.90625 39.949219 C 26.152344 39.539062 26.441406 39.144531 26.582031 38.691406 C 26.71875 38.238281 26.765625 37.757812 26.777344 37.28125 C 26.796875 36.804688 26.773438 36.324219 26.792969 35.84375 C 26.8125 35.363281 26.863281 34.875 27.019531 34.417969 C 26.800781 35.359375 26.914062 36.320312 26.890625 37.285156 C 26.871094 37.769531 26.824219 38.253906 26.664062 38.71875 C 26.5 39.183594 26.191406 39.566406 25.90625 39.949219 " fill-opacity="1" fill-rule="nonzero"/><path fill="#d75145" d="M 25.945312 36.175781 C 25.835938 35.671875 25.839844 35.144531 25.949219 34.640625 C 26.050781 34.128906 26.28125 33.652344 26.570312 33.222656 C 26.863281 32.796875 27.199219 32.410156 27.523438 32.011719 C 27.84375 31.617188 28.140625 31.199219 28.355469 30.730469 C 28.1875 31.21875 27.902344 31.660156 27.589844 32.066406 C 27.28125 32.476562 26.945312 32.867188 26.664062 33.289062 C 26.375 33.703125 26.152344 34.164062 26.03125 34.660156 C 25.910156 35.148438 25.882812 35.667969 25.945312 36.175781 " fill-opacity="1" fill-rule="nonzero"/><path fill="#d75145" d="M 28.023438 34.21875 C 28.105469 33.671875 28.203125 33.132812 28.269531 32.589844 C 28.351562 32.046875 28.398438 31.5 28.460938 30.953125 C 28.492188 31.503906 28.449219 32.058594 28.382812 32.605469 C 28.304688 33.152344 28.199219 33.695312 28.023438 34.21875 " fill-opacity="1" fill-rule="nonzero"/><g clip-path="url(#id2)"><path fill="#fcd250" d="M 57.398438 55.371094 C 56.734375 56.046875 56.152344 56.34375 55.21875 56.511719 C 51.421875 57.191406 27.996094 60.953125 19.460938 62.097656 C 18.835938 62.183594 18.175781 62.230469 17.648438 62.578125 C 17.164062 62.894531 16.847656 63.40625 16.546875 63.902344 C 11.742188 71.804688 5.074219 82.417969 0.269531 90.324219 L 18.515625 90.324219 C 20.183594 87.179688 24.992188 79.15625 26.460938 76.324219 C 32.675781 75.195312 57.023438 71.433594 61.246094 70.882812 C 61.96875 70.789062 62.769531 70.78125 63.300781 70.28125 C 63.710938 69.898438 63.800781 69.304688 64.046875 68.804688 C 66.625 63.542969 84.1875 32.554688 87.453125 22.800781 C 82.789062 27.863281 63.914062 48.75 57.398438 55.371094 " fill-opacity="1" fill-rule="nonzero"/></g><g clip-path="url(#id3)"><path fill="#fabd3f" d="M 82.304688 28.4375 C 83.589844 30.363281 82.503906 31.925781 81.527344 33.953125 C 80.070312 36.988281 78.640625 39.484375 77.003906 42.425781 C 74.855469 46.285156 72.804688 50.199219 70.535156 53.992188 C 68.238281 57.820312 66.292969 61.320312 63.910156 65.074219 C 62.277344 67.640625 61.800781 68.164062 56.957031 68.601562 C 46.925781 69.507812 36.976562 70.550781 26.988281 71.824219 C 26.539062 71.878906 26.082031 71.941406 25.675781 72.144531 C 25.242188 72.363281 24.902344 72.734375 24.582031 73.101562 C 21.617188 76.515625 16.550781 86.734375 14.003906 90.324219 L 18.519531 90.324219 C 20.1875 87.179688 24.992188 79.15625 26.460938 76.324219 C 32.675781 75.195312 57.023438 71.433594 61.242188 70.882812 C 61.96875 70.789062 62.769531 70.78125 63.300781 70.28125 C 63.710938 69.898438 63.800781 69.304688 64.046875 68.804688 C 66.625 63.542969 84.1875 32.554688 87.453125 22.800781 C 86.378906 23.964844 84.558594 25.964844 82.304688 28.4375 " fill-opacity="1" fill-rule="nonzero"/></g><g clip-path="url(#id4)"><path fill="#fcd250" d="M 89.183594 19.964844 C 89.34375 19.933594 89.5 19.953125 89.605469 20.074219 C 89.726562 20.21875 89.703125 20.4375 89.671875 20.621094 C 89.402344 22.191406 87.855469 29.386719 87.625 30.019531 C 87.570312 30.160156 87.382812 30.210938 87.242188 30.160156 C 87.101562 30.113281 86.996094 29.992188 86.90625 29.871094 C 86.078125 28.78125 85.703125 27.292969 84.542969 26.566406 C 83.5625 25.953125 82.34375 26.070312 81.261719 25.789062 C 80.871094 25.683594 80.171875 25.523438 80.414062 24.984375 C 80.582031 24.613281 81.230469 24.429688 81.558594 24.246094 C 82.695312 23.613281 87.492188 20.847656 88.78125 20.125 C 88.898438 20.058594 89.042969 19.992188 89.183594 19.964844 " fill-opacity="1" fill-rule="nonzero"/></g><path fill="#fde36d" d="M 17.617188 64.921875 C 17.640625 64.886719 17.664062 64.851562 17.683594 64.8125 C 17.832031 64.566406 17.988281 64.3125 18.222656 64.144531 C 18.648438 63.835938 19.226562 63.882812 19.75 63.941406 C 19.953125 63.964844 20.199219 64.023438 20.253906 64.222656 C 20.296875 64.378906 20.191406 64.53125 20.09375 64.660156 C 19.070312 65.96875 18.113281 67.328125 17.207031 68.71875 C 16.375 69.992188 11.257812 78.183594 9.503906 81.003906 C 8.496094 82.621094 7.421875 84.132812 6.347656 85.703125 C 6.273438 85.808594 6.105469 85.921875 6.039062 85.808594 C 6.011719 85.765625 6.023438 85.710938 6.035156 85.664062 C 6.265625 84.664062 6.71875 83.71875 7.183594 82.816406 C 8.261719 80.707031 9.316406 78.691406 10.535156 76.664062 C 12.886719 72.75 15.265625 68.84375 17.617188 64.921875 " fill-opacity="1" fill-rule="nonzero"/><path fill="#fde36d" d="M 76.105469 38.269531 C 76.882812 37.421875 77.652344 36.566406 78.410156 35.691406 C 78.71875 35.332031 79.035156 34.96875 79.222656 34.535156 C 79.3125 34.332031 79.363281 34.070312 79.210938 33.90625 C 79.089844 33.78125 78.882812 33.769531 78.722656 33.839844 C 78.5625 33.90625 78.4375 34.03125 78.316406 34.160156 C 74.679688 37.902344 71.15625 41.746094 67.707031 45.671875 C 65.296875 48.417969 62.773438 51.574219 60.605469 53.992188 C 60.496094 54.109375 60.414062 54.261719 60.425781 54.417969 C 60.429688 54.464844 60.445312 54.507812 60.480469 54.535156 C 60.554688 54.597656 60.664062 54.539062 60.738281 54.480469 C 62.097656 53.421875 63.175781 52.089844 64.363281 50.847656 C 65.6875 49.46875 72.597656 42.097656 73.441406 41.167969 C 74.332031 40.191406 75.222656 39.234375 76.105469 38.269531 " fill-opacity="1" fill-rule="nonzero"/></svg>