<svg xmlns="http://www.w3.org/2000/svg" xmlns:xlink="http://www.w3.org/1999/xlink" width="120" zoomAndPan="magnify" viewBox="0 0 90 97.5" height="130" preserveAspectRatio="xMidYMid meet" version="1.0"><defs><clipPath id="id1"><path d="M 0.230469 11.675781 L 50 11.675781 L 50 75 L 0.230469 75 Z M 0.230469 11.675781 " clip-rule="nonzero"/></clipPath><clipPath id="id2"><path d="M 41 24 L 89.769531 24 L 89.769531 85.550781 L 41 85.550781 Z M 41 24 " clip-rule="nonzero"/></clipPath></defs><g clip-path="url(#id1)"><path fill="#9bb49a" d="M 0.230469 22.230469 L 16.105469 74.117188 L 49.316406 63.433594 L 34.503906 11.675781 Z M 0.230469 22.230469 " fill-opacity="1" fill-rule="nonzero"/></g><path fill="#aac7a9" d="M 3.347656 23.886719 L 32.808594 14.816406 L 46.253906 61.792969 L 17.75 70.960938 Z M 3.347656 23.886719 " fill-opacity="1" fill-rule="nonzero"/><path fill="#0c0f10" d="M 17.75 71.039062 C 17.734375 71.039062 17.722656 71.035156 17.710938 71.03125 C 17.695312 71.019531 17.679688 71.003906 17.675781 70.984375 L 3.269531 23.910156 C 3.265625 23.890625 3.265625 23.867188 3.277344 23.847656 C 3.285156 23.832031 3.304688 23.816406 3.324219 23.8125 L 32.785156 14.742188 C 32.804688 14.734375 32.828125 14.738281 32.84375 14.746094 C 32.863281 14.757812 32.878906 14.773438 32.882812 14.792969 L 46.328125 61.773438 C 46.339844 61.8125 46.316406 61.855469 46.277344 61.867188 L 17.773438 71.035156 C 17.765625 71.039062 17.757812 71.039062 17.75 71.039062 Z M 3.441406 23.9375 L 17.800781 70.863281 L 46.15625 61.742188 L 32.753906 14.914062 Z M 3.441406 23.9375 " fill-opacity="1" fill-rule="nonzero"/><path fill="#0c0f10" d="M 4.300781 27.085938 C 4.265625 27.085938 4.234375 27.0625 4.226562 27.03125 C 4.214844 26.988281 4.238281 26.945312 4.277344 26.933594 L 33.699219 17.929688 C 33.738281 17.914062 33.78125 17.9375 33.792969 17.980469 C 33.808594 18.019531 33.785156 18.066406 33.742188 18.078125 L 4.324219 27.082031 C 4.316406 27.085938 4.308594 27.085938 4.300781 27.085938 Z M 4.300781 27.085938 " fill-opacity="1" fill-rule="nonzero"/><path fill="#0c0f10" d="M 16.949219 68.421875 C 16.914062 68.421875 16.882812 68.398438 16.875 68.367188 C 16.859375 68.324219 16.882812 68.28125 16.925781 68.269531 L 45.492188 59.140625 C 45.53125 59.128906 45.578125 59.148438 45.589844 59.191406 C 45.601562 59.230469 45.578125 59.277344 45.539062 59.289062 L 16.972656 68.417969 C 16.964844 68.417969 16.957031 68.421875 16.949219 68.421875 Z M 16.949219 68.421875 " fill-opacity="1" fill-rule="nonzero"/><path fill="#0c0f10" d="M 31.933594 35.496094 C 31.902344 35.496094 31.871094 35.472656 31.859375 35.441406 C 31.15625 33.175781 29.765625 33.464844 29.753906 33.46875 C 29.710938 33.476562 29.671875 33.453125 29.660156 33.414062 C 29.652344 33.371094 29.671875 33.328125 29.714844 33.316406 C 30.902344 32.953125 30.523438 30.789062 30.519531 30.765625 C 30.511719 30.722656 30.539062 30.683594 30.578125 30.675781 C 30.617188 30.664062 30.660156 30.6875 30.671875 30.726562 C 30.9375 31.59375 31.386719 32.15625 31.976562 32.347656 C 32.410156 32.492188 32.769531 32.386719 32.785156 32.382812 C 32.832031 32.371094 32.871094 32.394531 32.882812 32.433594 C 32.894531 32.476562 32.871094 32.519531 32.832031 32.535156 C 31.554688 32.925781 32.007812 35.378906 32.011719 35.402344 C 32.019531 35.445312 31.992188 35.484375 31.953125 35.492188 C 31.949219 35.496094 31.941406 35.496094 31.933594 35.496094 Z M 30.085938 33.308594 C 30.519531 33.359375 31.253906 33.628906 31.78125 34.792969 C 31.738281 34.109375 31.785156 33.0625 32.40625 32.582031 C 32.269531 32.578125 32.105469 32.554688 31.929688 32.496094 C 31.5625 32.378906 31.089844 32.074219 30.734375 31.328125 C 30.761719 31.949219 30.691406 32.886719 30.085938 33.308594 Z M 30.085938 33.308594 " fill-opacity="1" fill-rule="nonzero"/><path fill="#0c0f10" d="M 31.105469 41.109375 C 31.105469 41.109375 31.367188 42.546875 30.554688 42.796875 C 30.554688 42.796875 31.492188 42.582031 31.960938 44.09375 C 31.960938 44.09375 31.652344 42.46875 32.519531 42.203125 C 32.519531 42.203125 31.53125 42.503906 31.105469 41.109375 Z M 31.105469 41.109375 " fill-opacity="1" fill-rule="nonzero"/><path fill="#0c0f10" d="M 20.136719 58.320312 C 20.105469 58.320312 20.074219 58.296875 20.0625 58.265625 C 19.261719 55.691406 17.730469 56.007812 17.664062 56.019531 C 17.621094 56.027344 17.582031 56.003906 17.570312 55.964844 C 17.558594 55.921875 17.582031 55.882812 17.621094 55.871094 C 18.980469 55.449219 18.546875 52.988281 18.542969 52.964844 C 18.535156 52.921875 18.5625 52.882812 18.601562 52.875 C 18.640625 52.859375 18.683594 52.886719 18.695312 52.925781 C 19.417969 55.292969 21.03125 54.832031 21.105469 54.8125 C 21.148438 54.796875 21.191406 54.820312 21.203125 54.863281 C 21.214844 54.902344 21.191406 54.949219 21.152344 54.960938 C 19.695312 55.410156 20.210938 58.199219 20.214844 58.226562 C 20.222656 58.265625 20.199219 58.308594 20.15625 58.316406 C 20.152344 58.320312 20.144531 58.320312 20.136719 58.320312 Z M 18.011719 55.859375 C 18.503906 55.90625 19.371094 56.203125 19.980469 57.589844 C 19.921875 56.808594 19.964844 55.558594 20.707031 55.007812 C 20.1875 55.003906 19.328125 54.785156 18.765625 53.554688 C 18.800781 54.261719 18.734375 55.378906 18.011719 55.859375 Z M 18.011719 55.859375 " fill-opacity="1" fill-rule="nonzero"/><path fill="#0c0f10" d="M 15.441406 52.140625 C 15.441406 52.140625 15.800781 54.121094 14.683594 54.464844 C 14.683594 54.464844 15.972656 54.167969 16.621094 56.25 C 16.621094 56.25 16.191406 54.011719 17.390625 53.644531 C 17.390625 53.644531 16.027344 54.0625 15.441406 52.140625 Z M 15.441406 52.140625 " fill-opacity="1" fill-rule="nonzero"/><path fill="#0c0f10" d="M 33.695312 37.289062 C 33.660156 37.289062 33.632812 37.269531 33.621094 37.234375 C 33.492188 36.816406 33.003906 36.765625 32.984375 36.761719 C 32.945312 36.761719 32.917969 36.730469 32.914062 36.695312 C 32.910156 36.65625 32.933594 36.621094 32.96875 36.613281 C 33.140625 36.558594 33.207031 36.089844 33.210938 35.875 C 33.210938 35.835938 33.238281 35.804688 33.277344 35.796875 C 33.316406 35.792969 33.351562 35.816406 33.363281 35.851562 C 33.492188 36.28125 33.992188 36.304688 34.011719 36.304688 C 34.050781 36.308594 34.082031 36.335938 34.085938 36.375 C 34.09375 36.410156 34.070312 36.449219 34.035156 36.457031 C 33.703125 36.5625 33.773438 37.195312 33.773438 37.203125 C 33.777344 37.242188 33.75 37.28125 33.710938 37.289062 C 33.707031 37.289062 33.699219 37.289062 33.695312 37.289062 Z M 33.171875 36.644531 C 33.300781 36.679688 33.480469 36.757812 33.613281 36.910156 C 33.628906 36.746094 33.675781 36.554688 33.796875 36.425781 C 33.65625 36.390625 33.472656 36.308594 33.34375 36.148438 C 33.320312 36.3125 33.269531 36.515625 33.171875 36.644531 Z M 33.171875 36.644531 " fill-opacity="1" fill-rule="nonzero"/><path fill="#0c0f10" d="M 34.839844 34.644531 C 34.808594 34.644531 34.777344 34.625 34.765625 34.589844 C 34.527344 33.808594 33.597656 33.714844 33.589844 33.714844 C 33.550781 33.710938 33.523438 33.683594 33.519531 33.644531 C 33.515625 33.609375 33.539062 33.574219 33.574219 33.5625 C 33.941406 33.449219 34.035156 32.542969 34.039062 32.207031 C 34.039062 32.167969 34.070312 32.132812 34.105469 32.128906 C 34.144531 32.125 34.183594 32.148438 34.191406 32.183594 C 34.4375 32.980469 35.390625 33.027344 35.398438 33.027344 C 35.4375 33.027344 35.46875 33.054688 35.472656 33.09375 C 35.476562 33.132812 35.453125 33.167969 35.417969 33.179688 C 34.777344 33.378906 34.917969 34.546875 34.917969 34.558594 C 34.921875 34.597656 34.898438 34.636719 34.855469 34.644531 C 34.851562 34.644531 34.84375 34.644531 34.839844 34.644531 Z M 33.808594 33.597656 C 34.058594 33.65625 34.484375 33.8125 34.746094 34.195312 C 34.757812 33.859375 34.832031 33.386719 35.144531 33.148438 C 34.871094 33.085938 34.429688 32.929688 34.175781 32.523438 C 34.144531 32.855469 34.050781 33.359375 33.808594 33.597656 Z M 33.808594 33.597656 " fill-opacity="1" fill-rule="nonzero"/><path fill="#0c0f10" d="M 39.535156 49.195312 C 39.6875 49.691406 39.410156 50.214844 38.914062 50.367188 C 38.421875 50.519531 37.898438 50.242188 37.746094 49.746094 C 37.59375 49.25 37.871094 48.722656 38.367188 48.574219 C 38.859375 48.421875 39.382812 48.699219 39.535156 49.195312 Z M 39.535156 49.195312 " fill-opacity="1" fill-rule="nonzero"/><path fill="#0c0f10" d="M 39.601562 52.179688 C 39.3125 52.179688 39.042969 51.988281 38.953125 51.699219 C 38.84375 51.335938 39.042969 50.957031 39.402344 50.84375 C 39.578125 50.789062 39.757812 50.808594 39.921875 50.894531 C 40.082031 50.980469 40.199219 51.121094 40.253906 51.296875 C 40.363281 51.65625 40.160156 52.039062 39.800781 52.148438 C 39.734375 52.167969 39.667969 52.179688 39.601562 52.179688 Z M 39.605469 50.972656 C 39.550781 50.972656 39.5 50.980469 39.449219 50.996094 C 39.171875 51.078125 39.015625 51.375 39.101562 51.652344 C 39.1875 51.929688 39.480469 52.082031 39.757812 52 C 40.03125 51.914062 40.1875 51.621094 40.105469 51.34375 C 40.0625 51.207031 39.972656 51.097656 39.847656 51.03125 C 39.769531 50.992188 39.6875 50.972656 39.605469 50.972656 Z M 39.605469 50.972656 " fill-opacity="1" fill-rule="nonzero"/><path fill="#0c0f10" d="M 14.703125 41.597656 C 14.824219 42 14.597656 42.429688 14.195312 42.550781 C 13.796875 42.675781 13.371094 42.449219 13.246094 42.046875 C 13.121094 41.644531 13.347656 41.214844 13.75 41.09375 C 14.152344 40.96875 14.578125 41.195312 14.703125 41.597656 Z M 14.703125 41.597656 " fill-opacity="1" fill-rule="nonzero"/><path fill="#0c0f10" d="M 14.070312 38.09375 C 14.261719 38.722656 13.910156 39.382812 13.285156 39.578125 C 12.664062 39.769531 12 39.417969 11.808594 38.789062 C 11.617188 38.164062 11.96875 37.5 12.59375 37.308594 C 13.21875 37.117188 13.878906 37.46875 14.070312 38.09375 Z M 14.070312 38.09375 " fill-opacity="1" fill-rule="nonzero"/><path fill="#0c0f10" d="M 11.472656 41.777344 C 11.113281 41.777344 10.78125 41.542969 10.667969 41.183594 C 10.535156 40.738281 10.78125 40.265625 11.222656 40.128906 C 11.4375 40.066406 11.664062 40.085938 11.863281 40.191406 C 12.0625 40.296875 12.207031 40.472656 12.273438 40.6875 C 12.410156 41.132812 12.160156 41.601562 11.71875 41.738281 C 11.636719 41.765625 11.554688 41.777344 11.472656 41.777344 Z M 11.472656 40.25 C 11.40625 40.25 11.335938 40.257812 11.269531 40.28125 C 10.910156 40.390625 10.707031 40.773438 10.816406 41.136719 C 10.929688 41.496094 11.308594 41.699219 11.671875 41.589844 C 12.03125 41.480469 12.234375 41.09375 12.125 40.734375 C 12.070312 40.558594 11.953125 40.414062 11.792969 40.328125 C 11.691406 40.277344 11.582031 40.25 11.472656 40.25 Z M 11.472656 40.25 " fill-opacity="1" fill-rule="nonzero"/><path fill="#0c0f10" d="M 40.566406 49.371094 C 40.355469 49.371094 40.160156 49.234375 40.09375 49.023438 C 40.015625 48.761719 40.160156 48.484375 40.421875 48.40625 C 40.546875 48.367188 40.679688 48.378906 40.796875 48.441406 C 40.914062 48.503906 40.996094 48.605469 41.035156 48.730469 C 41.074219 48.859375 41.0625 48.992188 41 49.109375 C 40.9375 49.226562 40.835938 49.3125 40.710938 49.347656 C 40.664062 49.363281 40.613281 49.371094 40.566406 49.371094 Z M 40.566406 48.539062 C 40.53125 48.539062 40.5 48.542969 40.464844 48.554688 C 40.289062 48.609375 40.1875 48.796875 40.242188 48.976562 C 40.296875 49.152344 40.484375 49.253906 40.664062 49.199219 C 40.75 49.171875 40.820312 49.117188 40.863281 49.035156 C 40.90625 48.957031 40.914062 48.863281 40.886719 48.777344 C 40.859375 48.691406 40.800781 48.621094 40.722656 48.578125 C 40.671875 48.550781 40.621094 48.539062 40.566406 48.539062 Z M 40.566406 48.539062 " fill-opacity="1" fill-rule="nonzero"/><path fill="#0c0f10" d="M 16.90625 58.523438 C 16.664062 58.410156 16.554688 58.125 16.667969 57.878906 C 16.78125 57.636719 17.070312 57.53125 17.3125 57.640625 C 17.554688 57.753906 17.660156 58.042969 17.546875 58.289062 C 17.4375 58.53125 17.148438 58.636719 16.90625 58.523438 Z M 16.90625 58.523438 " fill-opacity="1" fill-rule="nonzero"/><path fill="#0c0f10" d="M 29.363281 45.570312 C 29.285156 45.570312 29.207031 45.554688 29.128906 45.519531 C 28.847656 45.386719 28.726562 45.050781 28.855469 44.769531 C 28.988281 44.488281 29.320312 44.363281 29.601562 44.496094 C 29.738281 44.558594 29.84375 44.671875 29.894531 44.8125 C 29.945312 44.953125 29.941406 45.105469 29.878906 45.242188 C 29.78125 45.449219 29.578125 45.570312 29.363281 45.570312 Z M 29.195312 45.378906 C 29.398438 45.46875 29.640625 45.382812 29.734375 45.179688 C 29.78125 45.078125 29.785156 44.96875 29.746094 44.867188 C 29.710938 44.765625 29.636719 44.683594 29.535156 44.636719 C 29.335938 44.542969 29.089844 44.632812 28.996094 44.835938 C 28.902344 45.039062 28.992188 45.28125 29.195312 45.378906 Z M 29.195312 45.378906 " fill-opacity="1" fill-rule="nonzero"/><path fill="#f7f7f1" d="M 35.273438 51.621094 C 34.324219 52.253906 33.277344 52.761719 32.128906 53.113281 C 25.875 55.042969 19.238281 51.519531 17.320312 45.242188 C 15.398438 38.957031 18.917969 32.308594 25.175781 30.382812 C 26.320312 30.027344 27.472656 29.859375 28.613281 29.851562 C 23.09375 31.992188 20.09375 38.074219 21.859375 43.84375 C 23.621094 49.605469 29.507812 52.953125 35.273438 51.621094 Z M 35.273438 51.621094 " fill-opacity="1" fill-rule="nonzero"/><path fill="#0c0f10" d="M 31.90625 52.089844 C 30.085938 52.089844 28.277344 51.644531 26.617188 50.761719 C 23.945312 49.34375 21.988281 46.96875 21.105469 44.078125 C 20.21875 41.183594 20.511719 38.113281 21.929688 35.433594 C 23.34375 32.753906 25.714844 30.789062 28.597656 29.902344 C 28.636719 29.890625 28.683594 29.902344 28.703125 29.9375 C 28.722656 29.96875 28.722656 30.007812 28.695312 30.03125 C 24.800781 33.066406 23.15625 38.277344 24.601562 43 C 26.042969 47.71875 30.320312 51.105469 35.238281 51.425781 C 35.277344 51.429688 35.308594 51.457031 35.3125 51.496094 C 35.316406 51.535156 35.292969 51.570312 35.253906 51.582031 L 35.234375 51.585938 C 34.140625 51.925781 33.019531 52.089844 31.90625 52.089844 Z M 28.269531 30.171875 C 25.59375 31.097656 23.402344 32.980469 22.066406 35.507812 C 20.667969 38.152344 20.378906 41.179688 21.253906 44.03125 C 22.125 46.882812 24.054688 49.222656 26.691406 50.625 C 29.210938 51.960938 32.078125 52.285156 34.804688 51.546875 C 30 51.058594 25.871094 47.691406 24.453125 43.046875 C 23.03125 38.398438 24.5625 33.28125 28.269531 30.171875 Z M 28.269531 30.171875 " fill-opacity="1" fill-rule="nonzero"/><path fill="#0c0f10" d="M 14.464844 31.152344 C 13.464844 31.152344 12.535156 30.503906 12.226562 29.496094 C 12.042969 28.894531 12.105469 28.261719 12.398438 27.707031 C 12.691406 27.152344 13.179688 26.746094 13.777344 26.566406 C 14.375 26.378906 15.007812 26.441406 15.558594 26.734375 C 16.109375 27.027344 16.515625 27.519531 16.699219 28.117188 C 16.882812 28.71875 16.820312 29.351562 16.527344 29.90625 C 16.234375 30.457031 15.746094 30.863281 15.148438 31.050781 C 14.921875 31.121094 14.691406 31.152344 14.464844 31.152344 Z M 14.464844 26.617188 C 14.25 26.617188 14.035156 26.648438 13.824219 26.714844 C 13.265625 26.886719 12.808594 27.265625 12.535156 27.78125 C 12.261719 28.296875 12.207031 28.890625 12.375 29.449219 C 12.730469 30.601562 13.953125 31.257812 15.101562 30.898438 C 15.660156 30.726562 16.117188 30.347656 16.390625 29.832031 C 16.664062 29.316406 16.71875 28.722656 16.550781 28.164062 C 16.378906 27.605469 16 27.144531 15.484375 26.871094 C 15.164062 26.703125 14.816406 26.617188 14.464844 26.617188 Z M 14.464844 26.617188 " fill-opacity="1" fill-rule="nonzero"/><path fill="#0c0f10" d="M 17.414062 30.242188 C 17.039062 30.242188 16.664062 30.152344 16.324219 29.96875 C 15.769531 29.675781 15.367188 29.183594 15.183594 28.585938 C 14.804688 27.347656 15.5 26.035156 16.730469 25.65625 C 17.964844 25.273438 19.273438 25.972656 19.652344 27.207031 C 20.03125 28.445312 19.335938 29.761719 18.105469 30.140625 C 17.878906 30.210938 17.644531 30.242188 17.414062 30.242188 Z M 17.417969 25.707031 C 17.207031 25.707031 16.992188 25.738281 16.777344 25.804688 C 15.628906 26.160156 14.980469 27.386719 15.332031 28.539062 C 15.503906 29.097656 15.878906 29.558594 16.394531 29.832031 C 16.910156 30.105469 17.5 30.160156 18.058594 29.988281 C 19.210938 29.636719 19.859375 28.410156 19.503906 27.253906 C 19.214844 26.3125 18.351562 25.707031 17.417969 25.707031 Z M 17.417969 25.707031 " fill-opacity="1" fill-rule="nonzero"/><path fill="#0c0f10" d="M 20.371094 29.332031 C 19.992188 29.332031 19.621094 29.242188 19.277344 29.058594 C 18.726562 28.765625 18.320312 28.273438 18.140625 27.675781 C 17.953125 27.078125 18.015625 26.441406 18.308594 25.886719 C 18.601562 25.335938 19.089844 24.929688 19.6875 24.746094 C 20.917969 24.363281 22.230469 25.0625 22.609375 26.296875 C 22.988281 27.535156 22.292969 28.851562 21.058594 29.230469 C 20.832031 29.300781 20.601562 29.332031 20.371094 29.332031 Z M 20.371094 24.796875 C 20.160156 24.796875 19.945312 24.828125 19.734375 24.894531 C 19.175781 25.066406 18.71875 25.445312 18.445312 25.960938 C 18.171875 26.476562 18.117188 27.070312 18.289062 27.628906 C 18.457031 28.1875 18.835938 28.648438 19.351562 28.921875 C 19.867188 29.195312 20.457031 29.25 21.011719 29.082031 C 22.164062 28.726562 22.8125 27.5 22.460938 26.34375 C 22.171875 25.402344 21.304688 24.796875 20.371094 24.796875 Z M 20.371094 24.796875 " fill-opacity="1" fill-rule="nonzero"/><path fill="#0c0f10" d="M 23.328125 28.421875 C 22.949219 28.421875 22.574219 28.332031 22.234375 28.148438 C 21.679688 27.855469 21.277344 27.363281 21.09375 26.765625 C 20.910156 26.167969 20.96875 25.53125 21.261719 24.976562 C 21.554688 24.425781 22.046875 24.019531 22.640625 23.835938 C 23.238281 23.652344 23.871094 23.710938 24.425781 24.003906 C 24.976562 24.296875 25.378906 24.789062 25.5625 25.386719 C 25.746094 25.988281 25.6875 26.621094 25.394531 27.175781 C 25.101562 27.730469 24.613281 28.136719 24.015625 28.320312 C 23.789062 28.390625 23.554688 28.421875 23.328125 28.421875 Z M 23.332031 23.886719 C 23.117188 23.886719 22.898438 23.917969 22.6875 23.984375 C 22.132812 24.15625 21.671875 24.535156 21.402344 25.050781 C 21.128906 25.566406 21.070312 26.160156 21.242188 26.71875 C 21.414062 27.277344 21.792969 27.738281 22.304688 28.011719 C 22.820312 28.285156 23.414062 28.339844 23.96875 28.171875 C 24.527344 28 24.984375 27.621094 25.257812 27.101562 C 25.53125 26.585938 25.585938 25.992188 25.414062 25.433594 C 25.246094 24.875 24.867188 24.417969 24.351562 24.144531 C 24.03125 23.972656 23.683594 23.886719 23.332031 23.886719 Z M 23.332031 23.886719 " fill-opacity="1" fill-rule="nonzero"/><path fill="#0c0f10" d="M 26.28125 27.511719 C 25.90625 27.511719 25.53125 27.421875 25.1875 27.238281 C 24.636719 26.945312 24.230469 26.453125 24.050781 25.855469 C 23.671875 24.617188 24.363281 23.304688 25.597656 22.925781 C 26.832031 22.542969 28.140625 23.242188 28.519531 24.480469 C 28.703125 25.078125 28.640625 25.710938 28.351562 26.265625 C 28.058594 26.820312 27.566406 27.226562 26.96875 27.410156 C 26.742188 27.480469 26.511719 27.511719 26.28125 27.511719 Z M 26.28125 22.976562 C 26.070312 22.976562 25.855469 23.007812 25.644531 23.074219 C 24.492188 23.429688 23.84375 24.65625 24.199219 25.808594 C 24.367188 26.367188 24.746094 26.828125 25.261719 27.101562 C 25.777344 27.375 26.367188 27.429688 26.925781 27.261719 C 27.480469 27.089844 27.9375 26.710938 28.210938 26.191406 C 28.484375 25.675781 28.542969 25.082031 28.371094 24.523438 C 28.082031 23.582031 27.214844 22.976562 26.28125 22.976562 Z M 26.28125 22.976562 " fill-opacity="1" fill-rule="nonzero"/><path fill="#0c0f10" d="M 24.253906 63.167969 C 23.878906 63.167969 23.503906 63.074219 23.164062 62.894531 C 22.609375 62.601562 22.207031 62.109375 22.023438 61.511719 C 21.644531 60.273438 22.339844 58.957031 23.570312 58.578125 C 24.804688 58.199219 26.113281 58.898438 26.492188 60.132812 C 26.675781 60.734375 26.617188 61.367188 26.324219 61.921875 C 26.03125 62.472656 25.542969 62.878906 24.945312 63.0625 C 24.71875 63.132812 24.484375 63.167969 24.253906 63.167969 Z M 24.257812 58.632812 C 24.046875 58.632812 23.832031 58.664062 23.617188 58.726562 C 22.46875 59.082031 21.820312 60.308594 22.171875 61.464844 C 22.34375 62.023438 22.722656 62.480469 23.234375 62.753906 C 23.75 63.027344 24.339844 63.085938 24.898438 62.914062 C 25.457031 62.742188 25.914062 62.363281 26.1875 61.847656 C 26.460938 61.332031 26.515625 60.738281 26.34375 60.179688 C 26.058594 59.238281 25.191406 58.632812 24.257812 58.632812 Z M 24.257812 58.632812 " fill-opacity="1" fill-rule="nonzero"/><path fill="#0c0f10" d="M 27.210938 62.257812 C 26.835938 62.257812 26.460938 62.167969 26.117188 61.984375 C 25.566406 61.691406 25.160156 61.199219 24.980469 60.601562 C 24.792969 60 24.855469 59.367188 25.148438 58.8125 C 25.441406 58.257812 25.929688 57.851562 26.527344 57.667969 C 27.125 57.484375 27.757812 57.546875 28.308594 57.839844 C 28.859375 58.132812 29.265625 58.625 29.449219 59.222656 C 29.828125 60.460938 29.132812 61.773438 27.898438 62.152344 C 27.671875 62.222656 27.441406 62.257812 27.210938 62.257812 Z M 27.214844 57.722656 C 27 57.722656 26.785156 57.753906 26.574219 57.820312 C 26.015625 57.992188 25.558594 58.367188 25.285156 58.886719 C 25.011719 59.402344 24.957031 59.996094 25.128906 60.554688 C 25.296875 61.113281 25.675781 61.570312 26.191406 61.84375 C 26.707031 62.121094 27.296875 62.175781 27.851562 62.003906 C 29.003906 61.648438 29.652344 60.421875 29.300781 59.269531 C 29.128906 58.710938 28.75 58.25 28.234375 57.976562 C 27.917969 57.808594 27.570312 57.722656 27.214844 57.722656 Z M 27.214844 57.722656 " fill-opacity="1" fill-rule="nonzero"/><path fill="#0c0f10" d="M 30.164062 61.347656 C 29.789062 61.347656 29.414062 61.257812 29.074219 61.074219 C 28.519531 60.78125 28.117188 60.289062 27.933594 59.691406 C 27.75 59.089844 27.808594 58.457031 28.101562 57.902344 C 28.394531 57.351562 28.886719 56.945312 29.480469 56.757812 C 30.082031 56.574219 30.710938 56.636719 31.265625 56.929688 C 31.816406 57.222656 32.222656 57.714844 32.402344 58.3125 C 32.585938 58.914062 32.527344 59.546875 32.234375 60.101562 C 31.941406 60.652344 31.453125 61.058594 30.855469 61.242188 C 30.628906 61.3125 30.394531 61.347656 30.164062 61.347656 Z M 30.171875 56.8125 C 29.957031 56.8125 29.738281 56.84375 29.527344 56.910156 C 28.972656 57.082031 28.511719 57.460938 28.242188 57.976562 C 27.96875 58.492188 27.910156 59.085938 28.082031 59.644531 C 28.253906 60.203125 28.632812 60.664062 29.144531 60.9375 C 29.660156 61.210938 30.25 61.265625 30.808594 61.09375 C 31.367188 60.921875 31.824219 60.542969 32.097656 60.027344 C 32.371094 59.511719 32.425781 58.917969 32.253906 58.359375 C 32.085938 57.800781 31.707031 57.339844 31.191406 57.066406 C 30.871094 56.898438 30.523438 56.8125 30.171875 56.8125 Z M 30.171875 56.8125 " fill-opacity="1" fill-rule="nonzero"/><path fill="#0c0f10" d="M 33.125 60.4375 C 32.125 60.4375 31.199219 59.789062 30.890625 58.78125 C 30.511719 57.542969 31.207031 56.230469 32.4375 55.847656 C 33.035156 55.664062 33.667969 55.726562 34.21875 56.019531 C 34.769531 56.3125 35.175781 56.804688 35.359375 57.402344 C 35.542969 58.003906 35.484375 58.636719 35.191406 59.191406 C 34.898438 59.746094 34.40625 60.148438 33.808594 60.335938 C 33.582031 60.40625 33.351562 60.4375 33.125 60.4375 Z M 33.125 55.902344 C 32.910156 55.902344 32.695312 55.933594 32.484375 56 C 31.335938 56.351562 30.683594 57.578125 31.039062 58.734375 C 31.390625 59.886719 32.617188 60.539062 33.765625 60.183594 C 34.320312 60.011719 34.777344 59.632812 35.050781 59.117188 C 35.324219 58.601562 35.382812 58.007812 35.210938 57.449219 C 35.039062 56.890625 34.660156 56.433594 34.148438 56.15625 C 33.828125 55.988281 33.476562 55.902344 33.125 55.902344 Z M 33.125 55.902344 " fill-opacity="1" fill-rule="nonzero"/><path fill="#0c0f10" d="M 36.082031 59.527344 C 35.082031 59.527344 34.152344 58.878906 33.84375 57.871094 C 33.464844 56.632812 34.160156 55.320312 35.394531 54.941406 C 35.992188 54.753906 36.621094 54.816406 37.175781 55.109375 C 37.726562 55.402344 38.132812 55.894531 38.316406 56.492188 C 38.691406 57.730469 37.996094 59.042969 36.765625 59.425781 C 36.539062 59.496094 36.308594 59.527344 36.082031 59.527344 Z M 36.082031 54.992188 C 35.867188 54.992188 35.652344 55.023438 35.441406 55.089844 C 34.882812 55.261719 34.425781 55.640625 34.152344 56.15625 C 33.878906 56.671875 33.820312 57.265625 33.992188 57.824219 C 34.347656 58.976562 35.566406 59.628906 36.71875 59.273438 C 37.871094 58.921875 38.519531 57.695312 38.167969 56.539062 C 37.996094 55.980469 37.617188 55.523438 37.101562 55.246094 C 36.78125 55.078125 36.433594 54.992188 36.082031 54.992188 Z M 36.082031 54.992188 " fill-opacity="1" fill-rule="nonzero"/><g clip-path="url(#id2)"><path fill="#9bb49a" d="M 55.09375 24.570312 L 41.351562 77.070312 L 75.195312 85.53125 L 89.769531 33.707031 Z M 55.09375 24.570312 " fill-opacity="1" fill-rule="nonzero"/></g><path fill="#aac7a9" d="M 56.871094 27.628906 L 86.679688 35.476562 L 73.449219 82.519531 L 44.40625 75.253906 Z M 56.871094 27.628906 " fill-opacity="1" fill-rule="nonzero"/><path fill="#0c0f10" d="M 73.449219 82.597656 C 73.445312 82.597656 73.4375 82.597656 73.433594 82.59375 L 44.386719 75.328125 C 44.367188 75.324219 44.351562 75.3125 44.339844 75.292969 C 44.328125 75.277344 44.324219 75.253906 44.332031 75.234375 L 56.796875 27.605469 C 56.800781 27.585938 56.8125 27.570312 56.832031 27.558594 C 56.851562 27.550781 56.871094 27.546875 56.890625 27.550781 L 86.699219 35.402344 C 86.71875 35.40625 86.738281 35.421875 86.746094 35.4375 C 86.757812 35.457031 86.761719 35.480469 86.753906 35.5 L 73.527344 82.539062 C 73.515625 82.574219 73.484375 82.597656 73.449219 82.597656 Z M 44.5 75.199219 L 73.398438 82.425781 L 86.582031 35.535156 L 56.925781 27.722656 Z M 44.5 75.199219 " fill-opacity="1" fill-rule="nonzero"/><path fill="#0c0f10" d="M 85.78125 38.75 C 85.777344 38.75 85.769531 38.75 85.761719 38.746094 L 56.023438 30.859375 C 55.984375 30.851562 55.957031 30.808594 55.96875 30.765625 C 55.980469 30.722656 56.023438 30.699219 56.066406 30.710938 L 85.800781 38.59375 C 85.84375 38.605469 85.867188 38.648438 85.859375 38.691406 C 85.847656 38.726562 85.816406 38.75 85.78125 38.75 Z M 85.78125 38.75 " fill-opacity="1" fill-rule="nonzero"/><path fill="#0c0f10" d="M 74.175781 80.015625 C 74.171875 80.015625 74.164062 80.015625 74.160156 80.011719 L 45.082031 72.679688 C 45.039062 72.671875 45.011719 72.628906 45.023438 72.585938 C 45.035156 72.546875 45.078125 72.515625 45.117188 72.53125 L 74.195312 79.859375 C 74.238281 79.871094 74.261719 79.914062 74.253906 79.957031 C 74.242188 79.992188 74.210938 80.015625 74.175781 80.015625 Z M 74.175781 80.015625 " fill-opacity="1" fill-rule="nonzero"/><path fill="#f7f7f1" d="M 71.246094 51.667969 C 71.476562 52.046875 71.667969 52.441406 71.820312 52.855469 C 71.972656 53.273438 72.085938 53.699219 72.15625 54.132812 C 72.222656 54.570312 72.25 55.011719 72.234375 55.453125 C 72.214844 55.894531 72.15625 56.332031 72.050781 56.761719 C 71.949219 57.191406 71.804688 57.609375 71.621094 58.011719 C 71.4375 58.410156 71.214844 58.792969 70.957031 59.148438 C 70.695312 59.507812 70.40625 59.835938 70.082031 60.136719 C 69.757812 60.4375 69.410156 60.703125 69.03125 60.933594 C 68.65625 61.167969 68.261719 61.359375 67.847656 61.511719 C 67.433594 61.664062 67.007812 61.777344 66.574219 61.847656 C 66.136719 61.914062 65.699219 61.941406 65.257812 61.925781 C 64.820312 61.90625 64.382812 61.847656 63.957031 61.742188 C 63.527344 61.640625 63.113281 61.496094 62.710938 61.3125 C 62.3125 61.125 61.933594 60.902344 61.574219 60.644531 C 61.21875 60.382812 60.890625 60.089844 60.589844 59.765625 C 60.289062 59.441406 60.027344 59.089844 59.796875 58.714844 C 59.566406 58.335938 59.371094 57.941406 59.21875 57.527344 C 59.066406 57.109375 58.957031 56.683594 58.886719 56.246094 C 58.816406 55.8125 58.792969 55.371094 58.808594 54.929688 C 58.828125 54.488281 58.886719 54.050781 58.988281 53.621094 C 59.09375 53.191406 59.234375 52.773438 59.421875 52.371094 C 59.605469 51.972656 59.828125 51.589844 60.085938 51.234375 C 60.34375 50.875 60.636719 50.546875 60.960938 50.246094 C 61.285156 49.945312 61.632812 49.679688 62.007812 49.449219 C 62.386719 49.214844 62.78125 49.023438 63.195312 48.871094 C 63.605469 48.71875 64.03125 48.605469 64.46875 48.535156 C 64.902344 48.46875 65.339844 48.441406 65.78125 48.457031 C 66.222656 48.476562 66.65625 48.535156 67.085938 48.640625 C 67.515625 48.742188 67.929688 48.886719 68.332031 49.070312 C 68.730469 49.257812 69.109375 49.480469 69.464844 49.738281 C 69.824219 50 70.152344 50.289062 70.453125 50.617188 C 70.75 50.941406 71.015625 51.292969 71.246094 51.667969 Z M 71.246094 51.667969 " fill-opacity="1" fill-rule="nonzero"/><path fill="#0c0f10" d="M 65.535156 63.625 C 64.820312 63.625 64.097656 63.535156 63.386719 63.347656 C 58.902344 62.164062 56.214844 57.546875 57.390625 53.046875 C 57.960938 50.871094 59.34375 49.046875 61.28125 47.910156 C 63.222656 46.773438 65.484375 46.460938 67.65625 47.035156 C 69.828125 47.605469 71.648438 48.992188 72.78125 50.9375 C 73.914062 52.882812 74.222656 55.152344 73.652344 57.332031 C 73.082031 59.511719 71.699219 61.335938 69.761719 62.472656 C 68.457031 63.234375 67.007812 63.625 65.535156 63.625 Z M 65.507812 46.910156 C 64.0625 46.910156 62.640625 47.292969 61.359375 48.042969 C 59.457031 49.160156 58.101562 50.949219 57.542969 53.089844 C 56.386719 57.5 59.027344 62.035156 63.425781 63.195312 C 65.558594 63.757812 67.78125 63.449219 69.683594 62.335938 C 71.585938 61.222656 72.941406 59.429688 73.5 57.292969 C 74.058594 55.152344 73.757812 52.925781 72.644531 51.015625 C 71.535156 49.109375 69.746094 47.746094 67.617188 47.1875 C 66.917969 47.003906 66.210938 46.910156 65.507812 46.910156 Z M 65.507812 46.910156 " fill-opacity="1" fill-rule="nonzero"/><path fill="#0c0f10" d="M 64.328125 39.773438 C 64.132812 39.773438 63.933594 39.75 63.738281 39.699219 C 62.488281 39.371094 61.742188 38.085938 62.070312 36.832031 C 62.398438 35.582031 63.675781 34.832031 64.925781 35.160156 C 66.171875 35.488281 66.917969 36.773438 66.59375 38.023438 C 66.316406 39.078125 65.367188 39.773438 64.328125 39.773438 Z M 64.332031 35.238281 C 63.363281 35.238281 62.476562 35.890625 62.21875 36.875 C 61.914062 38.039062 62.613281 39.238281 63.777344 39.546875 C 64.9375 39.855469 66.136719 39.152344 66.441406 37.984375 C 66.746094 36.816406 66.046875 35.617188 64.882812 35.3125 C 64.699219 35.261719 64.511719 35.238281 64.332031 35.238281 Z M 66.515625 38.003906 L 66.519531 38.003906 Z M 66.515625 38.003906 " fill-opacity="1" fill-rule="nonzero"/><path fill="#0c0f10" d="M 67.320312 40.5625 C 67.125 40.5625 66.925781 40.539062 66.726562 40.484375 C 65.480469 40.15625 64.730469 38.871094 65.058594 37.621094 C 65.386719 36.371094 66.664062 35.621094 67.914062 35.949219 C 69.160156 36.277344 69.910156 37.5625 69.582031 38.8125 C 69.304688 39.863281 68.355469 40.5625 67.320312 40.5625 Z M 67.320312 36.027344 C 66.351562 36.027344 65.464844 36.679688 65.210938 37.660156 C 64.90625 38.828125 65.601562 40.027344 66.765625 40.332031 C 67.925781 40.640625 69.125 39.9375 69.429688 38.773438 C 69.738281 37.605469 69.039062 36.40625 67.875 36.097656 C 67.691406 36.050781 67.503906 36.027344 67.320312 36.027344 Z M 67.320312 36.027344 " fill-opacity="1" fill-rule="nonzero"/><path fill="#0c0f10" d="M 70.3125 41.351562 C 70.113281 41.351562 69.914062 41.324219 69.714844 41.273438 C 68.46875 40.945312 67.722656 39.660156 68.046875 38.40625 C 68.375 37.15625 69.660156 36.40625 70.902344 36.734375 C 72.152344 37.0625 72.898438 38.347656 72.570312 39.597656 C 72.414062 40.207031 72.03125 40.714844 71.488281 41.03125 C 71.125 41.242188 70.722656 41.351562 70.3125 41.351562 Z M 70.3125 36.8125 C 69.34375 36.8125 68.457031 37.464844 68.199219 38.449219 C 67.894531 39.617188 68.59375 40.816406 69.757812 41.121094 C 70.320312 41.269531 70.90625 41.1875 71.410156 40.894531 C 71.914062 40.597656 72.273438 40.125 72.421875 39.558594 C 72.726562 38.390625 72.027344 37.191406 70.863281 36.886719 C 70.679688 36.835938 70.492188 36.8125 70.3125 36.8125 Z M 70.3125 36.8125 " fill-opacity="1" fill-rule="nonzero"/><path fill="#0c0f10" d="M 73.300781 42.136719 C 73.105469 42.136719 72.90625 42.113281 72.707031 42.058594 C 72.101562 41.902344 71.597656 41.515625 71.28125 40.976562 C 70.964844 40.433594 70.878906 39.800781 71.039062 39.195312 C 71.367188 37.945312 72.644531 37.195312 73.894531 37.523438 C 75.140625 37.851562 75.890625 39.136719 75.5625 40.386719 C 75.285156 41.441406 74.335938 42.136719 73.300781 42.136719 Z M 73.300781 37.601562 C 72.332031 37.601562 71.445312 38.253906 71.191406 39.234375 C 71.042969 39.800781 71.121094 40.390625 71.417969 40.894531 C 71.710938 41.398438 72.183594 41.761719 72.746094 41.910156 C 73.910156 42.214844 75.105469 41.515625 75.410156 40.347656 C 75.714844 39.179688 75.019531 37.980469 73.855469 37.675781 C 73.667969 37.625 73.484375 37.601562 73.300781 37.601562 Z M 75.488281 40.367188 Z M 75.488281 40.367188 " fill-opacity="1" fill-rule="nonzero"/><path fill="#0c0f10" d="M 76.289062 42.925781 C 76.09375 42.925781 75.894531 42.898438 75.695312 42.847656 C 74.449219 42.519531 73.703125 41.234375 74.027344 39.984375 C 74.355469 38.730469 75.632812 37.980469 76.882812 38.308594 C 78.128906 38.636719 78.878906 39.921875 78.550781 41.175781 C 78.277344 42.226562 77.328125 42.925781 76.289062 42.925781 Z M 76.289062 38.390625 C 75.324219 38.390625 74.4375 39.039062 74.179688 40.023438 C 73.875 41.191406 74.570312 42.390625 75.734375 42.695312 C 76.902344 43.003906 78.09375 42.300781 78.402344 41.136719 C 78.707031 39.964844 78.007812 38.769531 76.84375 38.460938 C 76.660156 38.414062 76.472656 38.390625 76.289062 38.390625 Z M 78.476562 41.15625 Z M 78.476562 41.15625 " fill-opacity="1" fill-rule="nonzero"/><path fill="#0c0f10" d="M 55.984375 71.65625 C 55.789062 71.65625 55.589844 71.628906 55.394531 71.578125 C 54.144531 71.25 53.398438 69.964844 53.726562 68.714844 C 53.882812 68.105469 54.269531 67.597656 54.808594 67.28125 C 55.347656 66.96875 55.976562 66.878906 56.582031 67.039062 C 57.828125 67.367188 58.574219 68.652344 58.25 69.90625 C 57.972656 70.957031 57.023438 71.65625 55.984375 71.65625 Z M 55.984375 67.117188 C 55.601562 67.117188 55.222656 67.21875 54.886719 67.417969 C 54.382812 67.714844 54.023438 68.1875 53.875 68.753906 C 53.570312 69.921875 54.269531 71.121094 55.433594 71.425781 C 56.59375 71.734375 57.792969 71.03125 58.097656 69.863281 C 58.402344 68.695312 57.703125 67.496094 56.539062 67.191406 C 56.355469 67.140625 56.167969 67.117188 55.984375 67.117188 Z M 55.984375 67.117188 " fill-opacity="1" fill-rule="nonzero"/><path fill="#0c0f10" d="M 58.976562 72.441406 C 58.78125 72.441406 58.582031 72.417969 58.382812 72.363281 C 57.136719 72.035156 56.386719 70.75 56.714844 69.5 C 57.042969 68.25 58.324219 67.5 59.570312 67.828125 C 60.816406 68.15625 61.566406 69.441406 61.238281 70.691406 C 60.960938 71.742188 60.011719 72.441406 58.976562 72.441406 Z M 58.976562 67.90625 C 58.007812 67.90625 57.121094 68.558594 56.867188 69.539062 C 56.558594 70.707031 57.257812 71.90625 58.421875 72.214844 C 59.582031 72.519531 60.78125 71.820312 61.085938 70.652344 C 61.394531 69.484375 60.695312 68.285156 59.53125 67.976562 C 59.347656 67.929688 59.160156 67.90625 58.976562 67.90625 Z M 58.976562 67.90625 " fill-opacity="1" fill-rule="nonzero"/><path fill="#0c0f10" d="M 61.96875 73.230469 C 61.773438 73.230469 61.570312 73.203125 61.371094 73.152344 C 60.125 72.824219 59.378906 71.539062 59.703125 70.289062 C 60.03125 69.035156 61.316406 68.289062 62.558594 68.613281 C 63.808594 68.941406 64.554688 70.226562 64.226562 71.476562 L 64.226562 71.480469 C 64.070312 72.085938 63.683594 72.59375 63.144531 72.910156 C 62.78125 73.121094 62.378906 73.230469 61.96875 73.230469 Z M 61.96875 68.695312 C 61 68.695312 60.113281 69.34375 59.855469 70.328125 C 59.550781 71.496094 60.25 72.695312 61.414062 73 C 61.976562 73.148438 62.5625 73.070312 63.066406 72.773438 C 63.570312 72.476562 63.929688 72.003906 64.078125 71.4375 C 64.382812 70.273438 63.683594 69.074219 62.519531 68.765625 C 62.335938 68.71875 62.148438 68.695312 61.96875 68.695312 Z M 64.152344 71.457031 L 64.15625 71.457031 Z M 64.152344 71.457031 " fill-opacity="1" fill-rule="nonzero"/><path fill="#0c0f10" d="M 64.957031 74.015625 C 64.761719 74.015625 64.5625 73.992188 64.363281 73.941406 C 63.117188 73.613281 62.367188 72.328125 62.695312 71.074219 C 63.023438 69.824219 64.300781 69.074219 65.550781 69.402344 C 66.796875 69.730469 67.546875 71.015625 67.21875 72.265625 C 66.941406 73.320312 65.992188 74.015625 64.957031 74.015625 Z M 64.957031 69.480469 C 63.988281 69.480469 63.101562 70.132812 62.84375 71.113281 C 62.539062 72.28125 63.238281 73.480469 64.402344 73.789062 C 65.566406 74.097656 66.761719 73.394531 67.066406 72.226562 C 67.371094 71.058594 66.675781 69.859375 65.511719 69.554688 C 65.324219 69.503906 65.140625 69.480469 64.957031 69.480469 Z M 67.144531 72.246094 Z M 67.144531 72.246094 " fill-opacity="1" fill-rule="nonzero"/><path fill="#0c0f10" d="M 67.945312 74.804688 C 67.75 74.804688 67.550781 74.78125 67.351562 74.726562 C 66.105469 74.398438 65.359375 73.113281 65.683594 71.863281 C 65.84375 71.257812 66.226562 70.75 66.765625 70.433594 C 67.308594 70.117188 67.9375 70.03125 68.539062 70.191406 C 69.789062 70.519531 70.535156 71.804688 70.207031 73.054688 C 69.933594 74.105469 68.980469 74.804688 67.945312 74.804688 Z M 67.941406 70.269531 C 67.5625 70.269531 67.183594 70.371094 66.84375 70.570312 C 66.34375 70.863281 65.984375 71.335938 65.835938 71.902344 C 65.53125 73.070312 66.226562 74.269531 67.390625 74.574219 C 68.554688 74.882812 69.75 74.179688 70.058594 73.015625 C 70.363281 71.847656 69.664062 70.648438 68.5 70.339844 C 68.316406 70.292969 68.128906 70.269531 67.941406 70.269531 Z M 67.941406 70.269531 " fill-opacity="1" fill-rule="nonzero"/><path fill="#0c0f10" d="M 68.210938 45.347656 C 68.203125 45.347656 68.199219 45.347656 68.191406 45.34375 C 68.148438 45.332031 68.125 45.289062 68.132812 45.25 L 68.984375 41.914062 C 68.992188 41.875 69.035156 41.847656 69.078125 41.859375 C 69.121094 41.871094 69.144531 41.914062 69.132812 41.953125 L 68.285156 45.289062 C 68.277344 45.324219 68.246094 45.347656 68.210938 45.347656 Z M 68.210938 45.347656 " fill-opacity="1" fill-rule="nonzero"/><path fill="#0c0f10" d="M 62.886719 67.441406 C 62.882812 67.441406 62.875 67.441406 62.867188 67.4375 C 62.824219 67.429688 62.800781 67.386719 62.8125 67.34375 L 63.511719 64.671875 C 63.523438 64.628906 63.566406 64.605469 63.605469 64.617188 C 63.648438 64.625 63.671875 64.667969 63.664062 64.710938 L 62.964844 67.382812 C 62.953125 67.417969 62.921875 67.441406 62.886719 67.441406 Z M 62.886719 67.441406 " fill-opacity="1" fill-rule="nonzero"/><path fill="#0c0f10" d="M 56.035156 52.769531 C 56.03125 52.769531 56.023438 52.769531 56.015625 52.769531 L 52.347656 51.800781 C 52.304688 51.789062 52.28125 51.746094 52.292969 51.707031 C 52.304688 51.664062 52.347656 51.640625 52.386719 51.648438 L 56.054688 52.617188 C 56.097656 52.628906 56.121094 52.671875 56.113281 52.710938 C 56.101562 52.746094 56.070312 52.769531 56.035156 52.769531 Z M 56.035156 52.769531 " fill-opacity="1" fill-rule="nonzero"/><path fill="#0c0f10" d="M 78.550781 58.699219 C 78.542969 58.699219 78.539062 58.699219 78.53125 58.699219 L 75.164062 57.8125 C 75.121094 57.800781 75.097656 57.757812 75.109375 57.714844 C 75.121094 57.675781 75.167969 57.648438 75.203125 57.660156 L 78.570312 58.546875 C 78.613281 58.558594 78.636719 58.601562 78.628906 58.640625 C 78.617188 58.675781 78.585938 58.699219 78.550781 58.699219 Z M 78.550781 58.699219 " fill-opacity="1" fill-rule="nonzero"/><path fill="#0c0f10" d="M 74 49.902344 C 73.972656 49.902344 73.945312 49.890625 73.929688 49.863281 C 73.910156 49.828125 73.921875 49.777344 73.960938 49.757812 L 76.910156 48.003906 C 76.945312 47.980469 76.992188 47.992188 77.015625 48.03125 C 77.039062 48.066406 77.027344 48.113281 76.988281 48.136719 L 74.039062 49.890625 C 74.027344 49.898438 74.011719 49.902344 74 49.902344 Z M 74 49.902344 " fill-opacity="1" fill-rule="nonzero"/><path fill="#0c0f10" d="M 54.660156 61.75 C 54.632812 61.75 54.609375 61.738281 54.59375 61.710938 C 54.574219 61.675781 54.585938 61.628906 54.621094 61.605469 L 57 60.210938 C 57.035156 60.191406 57.085938 60.203125 57.105469 60.238281 C 57.128906 60.277344 57.117188 60.324219 57.078125 60.347656 L 54.699219 61.742188 C 54.6875 61.746094 54.675781 61.75 54.660156 61.75 Z M 54.660156 61.75 " fill-opacity="1" fill-rule="nonzero"/><path fill="#0c0f10" d="M 60.15625 46.515625 C 60.132812 46.515625 60.105469 46.503906 60.089844 46.476562 L 58.175781 43.191406 C 58.15625 43.15625 58.167969 43.105469 58.203125 43.085938 C 58.242188 43.0625 58.289062 43.074219 58.3125 43.113281 L 60.226562 46.398438 C 60.246094 46.4375 60.234375 46.484375 60.199219 46.507812 C 60.183594 46.511719 60.171875 46.515625 60.15625 46.515625 Z M 60.15625 46.515625 " fill-opacity="1" fill-rule="nonzero"/><path fill="#0c0f10" d="M 71.898438 66.679688 C 71.871094 66.679688 71.84375 66.667969 71.832031 66.644531 L 70.074219 63.628906 C 70.054688 63.589844 70.066406 63.542969 70.101562 63.519531 C 70.140625 63.5 70.1875 63.511719 70.210938 63.546875 L 71.964844 66.5625 C 71.988281 66.601562 71.976562 66.648438 71.9375 66.671875 C 71.925781 66.679688 71.910156 66.679688 71.898438 66.679688 Z M 71.898438 66.679688 " fill-opacity="1" fill-rule="nonzero"/><path fill="#8064ab" d="M 29.140625 19.035156 L 29.140625 73.3125 L 64.015625 72.875 L 64.996094 19.035156 Z M 29.140625 19.035156 " fill-opacity="1" fill-rule="nonzero"/><path fill="#9687c0" d="M 31.636719 21.535156 L 62.453125 21.535156 L 61.566406 70.402344 L 31.636719 70.777344 Z M 31.636719 21.535156 " fill-opacity="1" fill-rule="nonzero"/><path fill="#0c0f10" d="M 31.636719 70.855469 C 31.613281 70.855469 31.59375 70.847656 31.582031 70.832031 C 31.566406 70.816406 31.558594 70.796875 31.558594 70.777344 L 31.558594 21.535156 C 31.558594 21.492188 31.59375 21.457031 31.636719 21.457031 L 62.453125 21.457031 C 62.476562 21.457031 62.496094 21.464844 62.507812 21.480469 C 62.523438 21.496094 62.53125 21.515625 62.53125 21.535156 L 61.644531 70.40625 C 61.644531 70.445312 61.609375 70.480469 61.566406 70.480469 Z M 31.714844 21.613281 L 31.714844 70.699219 L 61.492188 70.328125 L 62.375 21.613281 Z M 31.714844 21.613281 " fill-opacity="1" fill-rule="nonzero"/><path fill="#f7f7f1" d="M 59.148438 45.449219 C 59.148438 45.449219 53.582031 51.386719 46.710938 51.386719 C 39.84375 51.386719 34.273438 45.449219 34.273438 45.449219 C 34.273438 45.449219 39.976562 40.152344 46.847656 40.152344 C 53.714844 40.152344 59.148438 45.449219 59.148438 45.449219 Z M 59.148438 45.449219 " fill-opacity="1" fill-rule="nonzero"/><path fill="#9687c0" d="M 47.953125 40.675781 C 48.285156 40.757812 48.609375 40.867188 48.917969 41.011719 C 49.230469 41.152344 49.523438 41.324219 49.800781 41.527344 C 50.078125 41.726562 50.335938 41.953125 50.566406 42.203125 C 50.800781 42.457031 51.007812 42.726562 51.1875 43.019531 C 51.367188 43.3125 51.515625 43.617188 51.636719 43.941406 C 51.753906 44.261719 51.84375 44.59375 51.898438 44.933594 C 51.953125 45.269531 51.972656 45.613281 51.960938 45.953125 C 51.949219 46.296875 51.902344 46.636719 51.824219 46.96875 C 51.742188 47.304688 51.632812 47.628906 51.492188 47.941406 C 51.347656 48.253906 51.175781 48.546875 50.976562 48.824219 C 50.777344 49.105469 50.550781 49.359375 50.300781 49.59375 C 50.050781 49.828125 49.777344 50.035156 49.488281 50.214844 C 49.195312 50.394531 48.890625 50.546875 48.570312 50.664062 C 48.25 50.785156 47.917969 50.871094 47.582031 50.925781 C 47.242188 50.980469 46.902344 51.003906 46.5625 50.988281 C 46.21875 50.976562 45.882812 50.933594 45.550781 50.851562 C 45.214844 50.773438 44.894531 50.664062 44.582031 50.519531 C 44.273438 50.375 43.976562 50.203125 43.699219 50.003906 C 43.421875 49.804688 43.167969 49.578125 42.933594 49.324219 C 42.703125 49.074219 42.496094 48.800781 42.316406 48.511719 C 42.136719 48.21875 41.984375 47.910156 41.867188 47.589844 C 41.746094 47.265625 41.660156 46.9375 41.605469 46.597656 C 41.550781 46.257812 41.53125 45.917969 41.542969 45.574219 C 41.554688 45.230469 41.601562 44.894531 41.679688 44.558594 C 41.757812 44.226562 41.871094 43.902344 42.011719 43.589844 C 42.152344 43.277344 42.324219 42.980469 42.527344 42.703125 C 42.726562 42.425781 42.953125 42.167969 43.203125 41.9375 C 43.453125 41.703125 43.722656 41.496094 44.015625 41.316406 C 44.304688 41.132812 44.613281 40.984375 44.933594 40.863281 C 45.253906 40.746094 45.582031 40.65625 45.921875 40.601562 C 46.257812 40.546875 46.597656 40.527344 46.941406 40.539062 C 47.28125 40.550781 47.621094 40.597656 47.953125 40.675781 Z M 47.953125 40.675781 " fill-opacity="1" fill-rule="nonzero"/><path fill="#0c0f10" d="M 46.75 51.464844 C 43.621094 51.464844 41.074219 48.910156 41.074219 45.769531 C 41.074219 42.628906 43.621094 40.074219 46.75 40.074219 C 49.882812 40.074219 52.425781 42.628906 52.425781 45.769531 C 52.425781 48.910156 49.882812 51.464844 46.75 51.464844 Z M 46.75 40.230469 C 43.707031 40.230469 41.230469 42.714844 41.230469 45.769531 C 41.230469 48.824219 43.707031 51.308594 46.75 51.308594 C 49.796875 51.308594 52.273438 48.824219 52.273438 45.769531 C 52.273438 42.714844 49.796875 40.230469 46.75 40.230469 Z M 46.75 40.230469 " fill-opacity="1" fill-rule="nonzero"/><path fill="#0c0f10" d="M 49.179688 45.769531 C 49.179688 47.132812 48.074219 48.242188 46.710938 48.242188 C 45.351562 48.242188 44.246094 47.132812 44.246094 45.769531 C 44.246094 44.402344 45.351562 43.292969 46.710938 43.292969 C 48.074219 43.292969 49.179688 44.402344 49.179688 45.769531 Z M 49.179688 45.769531 " fill-opacity="1" fill-rule="nonzero"/><path fill="#0c0f10" d="M 33.738281 43.878906 C 33.722656 43.878906 33.703125 43.871094 33.6875 43.859375 C 33.65625 43.828125 33.652344 43.78125 33.683594 43.746094 C 33.734375 43.691406 38.800781 38.222656 46.75 38.222656 C 54.703125 38.222656 59.34375 43.695312 59.390625 43.75 C 59.417969 43.78125 59.414062 43.832031 59.378906 43.859375 C 59.347656 43.886719 59.296875 43.882812 59.269531 43.851562 C 59.226562 43.796875 54.625 38.378906 46.75 38.378906 C 38.871094 38.378906 33.847656 43.796875 33.796875 43.851562 C 33.78125 43.871094 33.761719 43.878906 33.738281 43.878906 Z M 33.738281 43.878906 " fill-opacity="1" fill-rule="nonzero"/><path fill="#0c0f10" d="M 34.472656 43.171875 C 34.449219 43.171875 34.425781 43.164062 34.410156 43.140625 L 32.859375 41.097656 C 32.832031 41.0625 32.839844 41.015625 32.875 40.988281 C 32.910156 40.964844 32.957031 40.96875 32.984375 41.003906 L 34.535156 43.046875 C 34.5625 43.082031 34.554688 43.128906 34.519531 43.15625 C 34.507812 43.167969 34.488281 43.171875 34.472656 43.171875 Z M 34.472656 43.171875 " fill-opacity="1" fill-rule="nonzero"/><path fill="#0c0f10" d="M 37.242188 41.128906 C 37.214844 41.128906 37.191406 41.117188 37.175781 41.089844 L 35.894531 38.914062 C 35.871094 38.878906 35.882812 38.828125 35.921875 38.808594 C 35.957031 38.785156 36.003906 38.796875 36.027344 38.835938 L 37.308594 41.011719 C 37.332031 41.046875 37.320312 41.097656 37.28125 41.117188 C 37.269531 41.125 37.253906 41.128906 37.242188 41.128906 Z M 37.242188 41.128906 " fill-opacity="1" fill-rule="nonzero"/><path fill="#0c0f10" d="M 39.722656 39.847656 C 39.6875 39.847656 39.65625 39.824219 39.648438 39.789062 L 38.964844 37.527344 C 38.953125 37.488281 38.976562 37.445312 39.015625 37.429688 C 39.058594 37.421875 39.101562 37.441406 39.113281 37.484375 L 39.796875 39.746094 C 39.808594 39.789062 39.785156 39.832031 39.746094 39.84375 C 39.738281 39.84375 39.730469 39.847656 39.722656 39.847656 Z M 39.722656 39.847656 " fill-opacity="1" fill-rule="nonzero"/><path fill="#0c0f10" d="M 43.347656 38.714844 C 43.3125 38.714844 43.277344 38.6875 43.273438 38.652344 L 42.9375 36.621094 C 42.929688 36.578125 42.960938 36.535156 43.003906 36.53125 C 43.042969 36.523438 43.085938 36.550781 43.09375 36.59375 L 43.425781 38.625 C 43.433594 38.667969 43.40625 38.707031 43.363281 38.714844 C 43.355469 38.714844 43.351562 38.714844 43.347656 38.714844 Z M 43.347656 38.714844 " fill-opacity="1" fill-rule="nonzero"/><path fill="#0c0f10" d="M 47.042969 38.378906 C 47 38.378906 46.964844 38.34375 46.964844 38.300781 L 46.964844 36.175781 C 46.964844 36.132812 47 36.097656 47.042969 36.097656 C 47.089844 36.097656 47.121094 36.132812 47.121094 36.175781 L 47.121094 38.300781 C 47.121094 38.34375 47.089844 38.378906 47.042969 38.378906 Z M 47.042969 38.378906 " fill-opacity="1" fill-rule="nonzero"/><path fill="#0c0f10" d="M 49.929688 38.675781 C 49.917969 38.675781 49.90625 38.675781 49.894531 38.667969 C 49.855469 38.652344 49.839844 38.605469 49.859375 38.566406 L 50.855469 36.457031 C 50.875 36.417969 50.917969 36.402344 50.960938 36.417969 C 51 36.4375 51.015625 36.484375 50.996094 36.523438 L 50 38.632812 C 49.988281 38.660156 49.960938 38.675781 49.929688 38.675781 Z M 49.929688 38.675781 " fill-opacity="1" fill-rule="nonzero"/><path fill="#0c0f10" d="M 52.875 39.519531 C 52.863281 39.519531 52.851562 39.515625 52.835938 39.507812 C 52.800781 39.488281 52.785156 39.441406 52.808594 39.402344 L 54.054688 37.199219 C 54.074219 37.160156 54.121094 37.148438 54.160156 37.171875 C 54.199219 37.191406 54.210938 37.242188 54.1875 37.277344 L 52.941406 39.480469 C 52.929688 39.503906 52.902344 39.519531 52.875 39.519531 Z M 52.875 39.519531 " fill-opacity="1" fill-rule="nonzero"/><path fill="#0c0f10" d="M 55.574219 40.839844 C 55.558594 40.839844 55.546875 40.835938 55.535156 40.828125 C 55.496094 40.804688 55.484375 40.757812 55.507812 40.71875 L 56.742188 38.597656 C 56.765625 38.5625 56.8125 38.550781 56.851562 38.570312 C 56.886719 38.59375 56.898438 38.640625 56.878906 38.675781 L 55.640625 40.800781 C 55.625 40.824219 55.601562 40.839844 55.574219 40.839844 Z M 55.574219 40.839844 " fill-opacity="1" fill-rule="nonzero"/><path fill="#0c0f10" d="M 58.085938 42.65625 C 58.070312 42.65625 58.050781 42.648438 58.039062 42.640625 C 58.003906 42.613281 57.996094 42.566406 58.023438 42.53125 L 59.515625 40.492188 C 59.539062 40.457031 59.589844 40.453125 59.625 40.476562 C 59.660156 40.503906 59.664062 40.550781 59.640625 40.585938 L 58.148438 42.621094 C 58.132812 42.644531 58.109375 42.65625 58.085938 42.65625 Z M 58.085938 42.65625 " fill-opacity="1" fill-rule="nonzero"/><path fill="#0c0f10" d="M 46.75 53.566406 C 38.800781 53.566406 33.734375 48.097656 33.683594 48.042969 C 33.652344 48.007812 33.65625 47.960938 33.6875 47.929688 C 33.71875 47.902344 33.765625 47.902344 33.796875 47.9375 C 33.847656 47.992188 38.871094 53.410156 46.75 53.410156 C 54.628906 53.410156 59.226562 47.992188 59.269531 47.9375 C 59.296875 47.90625 59.347656 47.902344 59.382812 47.929688 C 59.414062 47.957031 59.417969 48.003906 59.390625 48.039062 C 59.34375 48.09375 54.703125 53.566406 46.75 53.566406 Z M 46.75 53.566406 " fill-opacity="1" fill-rule="nonzero"/><path fill="#0c0f10" d="M 32.921875 50.816406 C 32.90625 50.816406 32.890625 50.8125 32.875 50.800781 C 32.839844 50.773438 32.832031 50.726562 32.859375 50.691406 L 34.410156 48.648438 C 34.4375 48.613281 34.484375 48.609375 34.519531 48.632812 C 34.554688 48.660156 34.5625 48.707031 34.535156 48.742188 L 32.984375 50.785156 C 32.96875 50.804688 32.945312 50.816406 32.921875 50.816406 Z M 32.921875 50.816406 " fill-opacity="1" fill-rule="nonzero"/><path fill="#0c0f10" d="M 35.960938 52.992188 C 35.949219 52.992188 35.933594 52.988281 35.921875 52.980469 C 35.882812 52.960938 35.871094 52.914062 35.894531 52.875 L 37.175781 50.699219 C 37.195312 50.660156 37.246094 50.648438 37.28125 50.671875 C 37.320312 50.695312 37.332031 50.742188 37.308594 50.777344 L 36.027344 52.953125 C 36.011719 52.980469 35.988281 52.992188 35.960938 52.992188 Z M 35.960938 52.992188 " fill-opacity="1" fill-rule="nonzero"/><path fill="#0c0f10" d="M 39.039062 54.359375 C 39.03125 54.359375 39.023438 54.359375 39.015625 54.359375 C 38.976562 54.34375 38.953125 54.300781 38.964844 54.261719 L 39.648438 52 C 39.660156 51.957031 39.703125 51.9375 39.746094 51.945312 C 39.785156 51.960938 39.808594 52.003906 39.796875 52.042969 L 39.113281 54.304688 C 39.105469 54.339844 39.074219 54.359375 39.039062 54.359375 Z M 39.039062 54.359375 " fill-opacity="1" fill-rule="nonzero"/><path fill="#0c0f10" d="M 43.015625 55.261719 C 43.011719 55.261719 43.007812 55.261719 43.003906 55.257812 C 42.960938 55.253906 42.929688 55.210938 42.9375 55.167969 L 43.273438 53.140625 C 43.277344 53.097656 43.316406 53.066406 43.363281 53.074219 C 43.402344 53.082031 43.433594 53.121094 43.425781 53.164062 L 43.089844 55.195312 C 43.085938 55.234375 43.050781 55.261719 43.015625 55.261719 Z M 43.015625 55.261719 " fill-opacity="1" fill-rule="nonzero"/><path fill="#0c0f10" d="M 47.042969 55.691406 C 47 55.691406 46.964844 55.65625 46.964844 55.613281 L 46.964844 53.488281 C 46.964844 53.445312 47 53.410156 47.042969 53.410156 C 47.089844 53.410156 47.121094 53.445312 47.121094 53.488281 L 47.121094 55.613281 C 47.121094 55.65625 47.089844 55.691406 47.042969 55.691406 Z M 47.042969 55.691406 " fill-opacity="1" fill-rule="nonzero"/><path fill="#0c0f10" d="M 50.925781 55.378906 C 50.898438 55.378906 50.867188 55.359375 50.855469 55.332031 L 49.859375 53.222656 C 49.839844 53.183594 49.855469 53.136719 49.894531 53.121094 C 49.9375 53.101562 49.980469 53.117188 50 53.15625 L 50.996094 55.265625 C 51.015625 55.304688 51 55.351562 50.960938 55.371094 C 50.949219 55.375 50.9375 55.378906 50.925781 55.378906 Z M 50.925781 55.378906 " fill-opacity="1" fill-rule="nonzero"/><path fill="#0c0f10" d="M 54.121094 54.628906 C 54.09375 54.628906 54.066406 54.613281 54.054688 54.589844 L 52.808594 52.386719 C 52.785156 52.347656 52.800781 52.300781 52.835938 52.28125 C 52.875 52.257812 52.921875 52.269531 52.945312 52.308594 L 54.1875 54.511719 C 54.210938 54.546875 54.199219 54.597656 54.160156 54.617188 C 54.148438 54.625 54.136719 54.628906 54.121094 54.628906 Z M 54.121094 54.628906 " fill-opacity="1" fill-rule="nonzero"/><path fill="#0c0f10" d="M 56.8125 53.230469 C 56.785156 53.230469 56.757812 53.214844 56.742188 53.191406 L 55.507812 51.070312 C 55.484375 51.03125 55.496094 50.984375 55.535156 50.960938 C 55.570312 50.941406 55.617188 50.953125 55.640625 50.988281 L 56.878906 53.113281 C 56.898438 53.148438 56.886719 53.199219 56.851562 53.21875 C 56.835938 53.226562 56.824219 53.230469 56.8125 53.230469 Z M 56.8125 53.230469 " fill-opacity="1" fill-rule="nonzero"/><path fill="#0c0f10" d="M 59.578125 51.328125 C 59.554688 51.328125 59.53125 51.316406 59.515625 51.296875 L 58.023438 49.261719 C 57.996094 49.226562 58.003906 49.175781 58.039062 49.152344 C 58.074219 49.125 58.121094 49.132812 58.148438 49.167969 L 59.640625 51.203125 C 59.664062 51.238281 59.660156 51.285156 59.625 51.3125 C 59.609375 51.324219 59.59375 51.328125 59.578125 51.328125 Z M 59.578125 51.328125 " fill-opacity="1" fill-rule="nonzero"/><path fill="#0c0f10" d="M 40.351562 31.789062 C 39.0625 31.789062 38.015625 30.738281 38.015625 29.445312 C 38.015625 28.152344 39.0625 27.097656 40.351562 27.097656 C 41.640625 27.097656 42.691406 28.152344 42.691406 29.445312 C 42.691406 30.738281 41.640625 31.789062 40.351562 31.789062 Z M 40.351562 27.253906 C 39.148438 27.253906 38.171875 28.238281 38.171875 29.445312 C 38.171875 30.652344 39.148438 31.632812 40.351562 31.632812 C 41.554688 31.632812 42.535156 30.652344 42.535156 29.445312 C 42.535156 28.238281 41.554688 27.253906 40.351562 27.253906 Z M 40.351562 27.253906 " fill-opacity="1" fill-rule="nonzero"/><path fill="#0c0f10" d="M 43.445312 31.789062 C 42.15625 31.789062 41.105469 30.738281 41.105469 29.445312 C 41.105469 28.152344 42.15625 27.097656 43.445312 27.097656 C 44.734375 27.097656 45.78125 28.152344 45.78125 29.445312 C 45.78125 30.738281 44.734375 31.789062 43.445312 31.789062 Z M 43.445312 27.253906 C 42.242188 27.253906 41.261719 28.238281 41.261719 29.445312 C 41.261719 30.652344 42.242188 31.632812 43.445312 31.632812 C 44.648438 31.632812 45.625 30.652344 45.625 29.445312 C 45.625 28.238281 44.648438 27.253906 43.445312 27.253906 Z M 43.445312 27.253906 " fill-opacity="1" fill-rule="nonzero"/><path fill="#0c0f10" d="M 46.535156 31.789062 C 45.246094 31.789062 44.195312 30.738281 44.195312 29.445312 C 44.195312 28.152344 45.246094 27.097656 46.535156 27.097656 C 47.824219 27.097656 48.875 28.152344 48.875 29.445312 C 48.875 30.738281 47.824219 31.789062 46.535156 31.789062 Z M 46.535156 27.253906 C 45.332031 27.253906 44.351562 28.238281 44.351562 29.445312 C 44.351562 30.652344 45.332031 31.632812 46.535156 31.632812 C 47.738281 31.632812 48.71875 30.652344 48.71875 29.445312 C 48.71875 28.238281 47.738281 27.253906 46.535156 27.253906 Z M 46.535156 27.253906 " fill-opacity="1" fill-rule="nonzero"/><path fill="#0c0f10" d="M 49.625 31.789062 C 48.335938 31.789062 47.289062 30.738281 47.289062 29.445312 C 47.289062 28.152344 48.335938 27.097656 49.625 27.097656 C 50.914062 27.097656 51.964844 28.152344 51.964844 29.445312 C 51.964844 30.738281 50.914062 31.789062 49.625 31.789062 Z M 49.625 27.253906 C 48.421875 27.253906 47.445312 28.238281 47.445312 29.445312 C 47.445312 30.652344 48.421875 31.632812 49.625 31.632812 C 50.828125 31.632812 51.808594 30.652344 51.808594 29.445312 C 51.808594 28.238281 50.828125 27.253906 49.625 27.253906 Z M 49.625 27.253906 " fill-opacity="1" fill-rule="nonzero"/><path fill="#0c0f10" d="M 52.71875 31.789062 C 51.429688 31.789062 50.378906 30.738281 50.378906 29.445312 C 50.378906 28.152344 51.429688 27.097656 52.71875 27.097656 C 54.007812 27.097656 55.054688 28.152344 55.054688 29.445312 C 55.054688 30.738281 54.007812 31.789062 52.71875 31.789062 Z M 52.71875 27.253906 C 51.515625 27.253906 50.535156 28.238281 50.535156 29.445312 C 50.535156 30.652344 51.515625 31.632812 52.71875 31.632812 C 53.921875 31.632812 54.902344 30.652344 54.902344 29.445312 C 54.902344 28.238281 53.921875 27.253906 52.71875 27.253906 Z M 52.71875 27.253906 " fill-opacity="1" fill-rule="nonzero"/><path fill="#0c0f10" d="M 40.351562 64.199219 C 39.0625 64.199219 38.015625 63.144531 38.015625 61.851562 C 38.015625 60.558594 39.0625 59.507812 40.351562 59.507812 C 41.640625 59.507812 42.691406 60.558594 42.691406 61.851562 C 42.691406 63.144531 41.640625 64.199219 40.351562 64.199219 Z M 40.351562 59.664062 C 39.148438 59.664062 38.171875 60.644531 38.171875 61.851562 C 38.171875 63.058594 39.148438 64.042969 40.351562 64.042969 C 41.554688 64.042969 42.535156 63.058594 42.535156 61.851562 C 42.535156 60.644531 41.554688 59.664062 40.351562 59.664062 Z M 40.351562 59.664062 " fill-opacity="1" fill-rule="nonzero"/><path fill="#0c0f10" d="M 43.445312 64.199219 C 42.15625 64.199219 41.105469 63.144531 41.105469 61.851562 C 41.105469 60.558594 42.15625 59.507812 43.445312 59.507812 C 44.734375 59.507812 45.78125 60.558594 45.78125 61.851562 C 45.78125 63.144531 44.734375 64.199219 43.445312 64.199219 Z M 43.445312 59.664062 C 42.242188 59.664062 41.261719 60.644531 41.261719 61.851562 C 41.261719 63.058594 42.242188 64.042969 43.445312 64.042969 C 44.648438 64.042969 45.625 63.058594 45.625 61.851562 C 45.625 60.644531 44.648438 59.664062 43.445312 59.664062 Z M 43.445312 59.664062 " fill-opacity="1" fill-rule="nonzero"/><path fill="#0c0f10" d="M 46.535156 64.199219 C 45.246094 64.199219 44.195312 63.144531 44.195312 61.851562 C 44.195312 60.558594 45.246094 59.507812 46.535156 59.507812 C 47.824219 59.507812 48.875 60.558594 48.875 61.851562 C 48.875 63.144531 47.824219 64.199219 46.535156 64.199219 Z M 46.535156 59.664062 C 45.332031 59.664062 44.351562 60.644531 44.351562 61.851562 C 44.351562 63.058594 45.332031 64.042969 46.535156 64.042969 C 47.738281 64.042969 48.71875 63.058594 48.71875 61.851562 C 48.71875 60.644531 47.738281 59.664062 46.535156 59.664062 Z M 46.535156 59.664062 " fill-opacity="1" fill-rule="nonzero"/><path fill="#0c0f10" d="M 49.625 64.199219 C 48.335938 64.199219 47.289062 63.144531 47.289062 61.851562 C 47.289062 60.558594 48.335938 59.507812 49.625 59.507812 C 50.914062 59.507812 51.964844 60.558594 51.964844 61.851562 C 51.964844 63.144531 50.914062 64.199219 49.625 64.199219 Z M 49.625 59.664062 C 48.421875 59.664062 47.445312 60.644531 47.445312 61.851562 C 47.445312 63.058594 48.421875 64.042969 49.625 64.042969 C 50.828125 64.042969 51.808594 63.058594 51.808594 61.851562 C 51.808594 60.644531 50.828125 59.664062 49.625 59.664062 Z M 49.625 59.664062 " fill-opacity="1" fill-rule="nonzero"/><path fill="#0c0f10" d="M 52.71875 64.199219 C 51.429688 64.199219 50.378906 63.144531 50.378906 61.851562 C 50.378906 60.558594 51.429688 59.507812 52.71875 59.507812 C 54.007812 59.507812 55.054688 60.558594 55.054688 61.851562 C 55.054688 63.144531 54.007812 64.199219 52.71875 64.199219 Z M 52.71875 59.664062 C 51.515625 59.664062 50.535156 60.644531 50.535156 61.851562 C 50.535156 63.058594 51.515625 64.042969 52.71875 64.042969 C 53.921875 64.042969 54.902344 63.058594 54.902344 61.851562 C 54.902344 60.644531 53.921875 59.664062 52.71875 59.664062 Z M 52.71875 59.664062 " fill-opacity="1" fill-rule="nonzero"/><path fill="#0c0f10" d="M 62.394531 24.929688 L 31.636719 24.878906 C 31.59375 24.878906 31.558594 24.84375 31.558594 24.800781 C 31.558594 24.757812 31.59375 24.722656 31.636719 24.722656 L 62.394531 24.773438 C 62.4375 24.773438 62.472656 24.808594 62.472656 24.851562 C 62.472656 24.894531 62.4375 24.929688 62.394531 24.929688 Z M 62.394531 24.929688 " fill-opacity="1" fill-rule="nonzero"/><path fill="#0c0f10" d="M 31.636719 68.117188 C 31.59375 68.117188 31.558594 68.082031 31.558594 68.039062 C 31.558594 67.996094 31.589844 67.960938 31.636719 67.960938 L 61.613281 67.644531 L 61.617188 67.644531 C 61.65625 67.644531 61.691406 67.679688 61.695312 67.722656 C 61.695312 67.765625 61.660156 67.800781 61.617188 67.800781 Z M 31.636719 68.117188 " fill-opacity="1" fill-rule="nonzero"/></svg>