<svg xmlns="http://www.w3.org/2000/svg" xmlns:xlink="http://www.w3.org/1999/xlink" width="120" zoomAndPan="magnify" viewBox="0 0 90 97.5" height="130" preserveAspectRatio="xMidYMid meet" version="1.0"><defs><clipPath id="id1"><path d="M 0.832031 3.980469 L 88.878906 3.980469 L 88.878906 92.808594 L 0.832031 92.808594 Z M 0.832031 3.980469 " clip-rule="nonzero"/></clipPath><clipPath id="id2"><path d="M 86.117188 48.785156 L 84.699219 48.785156 C 83.917969 48.785156 83.28125 48.148438 83.28125 47.367188 L 83.28125 45.945312 L 84.699219 45.945312 C 85.480469 45.945312 86.117188 46.582031 86.117188 47.367188 Z M 88.953125 47.367188 C 88.953125 45.015625 87.046875 43.105469 84.699219 43.105469 L 80.445312 43.105469 L 80.445312 47.367188 C 80.445312 49.710938 82.355469 51.625 84.699219 51.625 L 88.953125 51.625 Z M 77.609375 30.1875 C 77.609375 27.578125 79.378906 25.308594 81.910156 24.675781 L 86.117188 23.625 L 86.117188 25.476562 C 86.117188 28.332031 83.984375 30.757812 81.148438 31.113281 L 77.609375 31.554688 Z M 74.773438 32.578125 L 70.9375 36.421875 L 72.941406 38.429688 L 76.851562 34.511719 L 81.503906 33.929688 C 85.753906 33.398438 88.953125 29.765625 88.953125 25.476562 L 88.953125 19.984375 L 81.222656 21.921875 C 77.429688 22.867188 74.773438 26.269531 74.773438 30.1875 Z M 66.417969 11.546875 L 73.355469 8.382812 L 73.355469 13.742188 C 73.355469 18.546875 69.929688 22.664062 65.199219 23.523438 L 60.742188 24.359375 L 60.597656 20.601562 C 60.597656 16.710938 62.882812 13.15625 66.417969 11.546875 Z M 53.164062 35.503906 L 60.136719 27.367188 L 65.714844 26.3125 C 71.785156 25.210938 76.191406 19.921875 76.191406 13.742188 L 76.191406 3.972656 L 65.242188 8.960938 C 60.695312 11.03125 57.761719 15.597656 57.761719 20.648438 L 57.945312 25.558594 L 51.015625 33.660156 Z M 60.597656 64.40625 L 60.597656 61.566406 L 63.433594 61.566406 L 63.433594 64.40625 Z M 54.925781 64.40625 L 54.925781 61.566406 L 57.761719 61.566406 L 57.761719 64.40625 Z M 49.253906 61.566406 L 52.089844 61.566406 L 52.089844 64.40625 L 49.253906 64.40625 Z M 74.773438 48.785156 C 74.773438 48.003906 74.136719 47.367188 73.355469 47.367188 L 71.9375 47.367188 L 71.9375 44.527344 L 73.355469 44.527344 C 75.707031 44.527344 77.609375 46.433594 77.609375 48.785156 C 77.609375 51.132812 75.707031 53.046875 73.355469 53.046875 L 54.925781 53.046875 L 54.925781 50.207031 L 73.355469 50.207031 C 74.136719 50.207031 74.773438 49.566406 74.773438 48.785156 Z M 74.773438 70.089844 C 74.773438 73.21875 77.324219 75.769531 80.445312 75.769531 C 83.574219 75.769531 86.117188 73.21875 86.117188 70.089844 C 86.117188 63.824219 81.027344 58.726562 74.773438 58.726562 L 52.089844 58.726562 L 52.089844 55.886719 L 74.773438 55.886719 C 82.59375 55.886719 88.953125 62.253906 88.953125 70.089844 C 88.953125 74.785156 85.136719 78.609375 80.445312 78.609375 C 75.753906 78.609375 71.9375 74.785156 71.9375 70.089844 C 71.9375 66.953125 74.488281 64.40625 77.609375 64.40625 C 80.738281 64.40625 83.28125 66.953125 83.28125 70.089844 L 80.445312 70.089844 C 80.445312 68.519531 79.179688 67.246094 77.609375 67.246094 C 76.050781 67.246094 74.773438 68.519531 74.773438 70.089844 Z M 37.910156 41.683594 L 40.746094 41.683594 C 40.746094 44.03125 38.839844 45.945312 36.492188 45.945312 C 34.152344 45.945312 32.238281 44.03125 32.238281 41.683594 L 35.074219 41.683594 C 35.074219 42.46875 35.710938 43.105469 36.492188 43.105469 C 37.273438 43.105469 37.910156 42.46875 37.910156 41.683594 Z M 3.882812 49.308594 L 3.882812 33.164062 C 3.882812 23.765625 11.515625 16.121094 20.898438 16.121094 L 21.039062 16.121094 C 20.945312 16.582031 20.898438 17.054688 20.898438 17.542969 C 20.898438 21.460938 24.074219 24.644531 27.984375 24.644531 L 29.402344 24.644531 L 29.402344 21.804688 L 27.984375 21.804688 C 25.644531 21.804688 23.734375 19.890625 23.734375 17.542969 C 23.734375 15.191406 25.644531 13.28125 27.984375 13.28125 L 39.328125 13.28125 C 43.238281 13.28125 46.417969 16.46875 46.417969 20.382812 C 46.417969 24.300781 43.238281 27.484375 39.328125 27.484375 L 28.59375 27.484375 C 23.476562 27.484375 19.230469 31.335938 18.71875 36.433594 L 18.359375 40.027344 C 17.40625 39.261719 16.226562 38.84375 14.980469 38.84375 C 11.992188 38.84375 9.554688 41.28125 9.554688 44.28125 C 9.554688 48.4375 12.203125 52.109375 16.132812 53.421875 L 17.101562 53.75 L 16.675781 54.285156 C 13.878906 57.785156 12.582031 62.167969 13.03125 66.625 L 13.285156 69.222656 C 13.375 70.078125 13.292969 70.914062 13.085938 71.707031 C 7.21875 65.773438 3.882812 57.71875 3.882812 49.308594 Z M 43.582031 41.128906 C 43.582031 42.554688 43.753906 43.976562 44.097656 45.339844 L 44.722656 47.855469 L 43.476562 48.269531 C 41.871094 48.804688 40.742188 50.238281 40.585938 51.925781 L 40.226562 55.886719 L 38.25 55.886719 C 36.832031 55.886719 35.558594 55.097656 34.925781 53.828125 L 32.390625 55.097656 C 33.507812 57.335938 35.75 58.726562 38.25 58.726562 L 39.867188 58.726562 C 39.070312 62.027344 36.148438 64.40625 32.570312 64.40625 C 31.589844 64.40625 30.640625 64.222656 29.746094 63.863281 L 24.257812 61.667969 L 23.207031 64.300781 L 27.984375 66.222656 L 27.984375 75.179688 L 32.457031 77.664062 C 34.15625 78.613281 35.695312 79.773438 37.085938 81.066406 C 35.972656 81.316406 34.84375 81.449219 33.703125 81.449219 C 29.480469 81.449219 25.511719 79.800781 22.53125 76.8125 C 21.0625 75.347656 19.378906 74.132812 17.523438 73.199219 L 15.847656 72.355469 C 16.117188 71.257812 16.226562 70.109375 16.113281 68.941406 L 15.851562 66.34375 C 15.480469 62.625 16.558594 58.976562 18.886719 56.058594 L 21.855469 52.34375 L 17.03125 50.734375 C 14.257812 49.808594 12.390625 47.210938 12.390625 44.28125 C 12.390625 42.851562 13.554688 41.683594 14.980469 41.683594 C 15.675781 41.683594 16.328125 41.957031 16.816406 42.445312 L 20.59375 46.230469 L 21.539062 36.714844 C 21.90625 33.070312 24.941406 30.324219 28.59375 30.324219 L 39.328125 30.324219 C 39.800781 30.324219 40.253906 30.28125 40.707031 30.214844 C 42.585938 33.546875 43.582031 37.304688 43.582031 41.128906 Z M 52.285156 74.1875 L 59.011719 76.207031 C 65.667969 78.203125 70.859375 83.402344 72.917969 89.96875 L 68.804688 89.96875 C 67.503906 84.738281 63.636719 80.59375 58.414062 79.023438 L 48.660156 76.097656 C 43.53125 74.554688 39.144531 71.113281 36.375 66.558594 C 37.535156 66.117188 38.585938 65.46875 39.496094 64.65625 C 42.511719 69.234375 46.984375 72.589844 52.285156 74.1875 Z M 4.144531 89.671875 C 4.652344 86.085938 6.351562 82.835938 8.917969 80.378906 C 13.253906 81.941406 16.542969 85.542969 17.722656 89.96875 L 4.097656 89.96875 Z M 30.820312 67.09375 C 31.414062 67.1875 32.023438 67.246094 32.660156 67.246094 C 32.941406 67.246094 33.214844 67.230469 33.484375 67.210938 C 36.578125 72.769531 41.742188 76.984375 47.847656 78.8125 L 57.601562 81.75 C 61.625 82.957031 64.679688 86.03125 65.890625 89.96875 L 60.140625 89.96875 C 58.984375 87.328125 56.871094 85.199219 54.199219 84.054688 L 48.394531 81.566406 L 47.277344 84.171875 L 53.082031 86.664062 C 54.6875 87.351562 56.023438 88.515625 56.9375 89.96875 L 46.015625 89.96875 C 43.9375 83.664062 39.660156 78.429688 33.828125 75.1875 L 30.820312 73.511719 Z M 14.761719 74.992188 L 16.253906 75.742188 C 17.839844 76.535156 19.273438 77.570312 20.527344 78.820312 C 24.042969 82.347656 28.722656 84.289062 33.703125 84.289062 C 35.601562 84.289062 37.480469 83.988281 39.296875 83.417969 C 40.875 85.367188 42.132812 87.574219 43.023438 89.96875 L 20.664062 89.96875 C 19.550781 84.882812 16.132812 80.601562 11.496094 78.359375 C 12.878906 77.492188 13.96875 76.328125 14.761719 74.992188 Z M 9.992188 75.945312 C 5.277344 78.902344 2.121094 83.757812 1.335938 89.269531 L 0.832031 92.808594 L 88.953125 92.808594 L 88.953125 89.96875 L 75.871094 89.96875 C 73.722656 82.105469 67.675781 75.839844 59.828125 73.484375 L 53.101562 71.464844 C 48.167969 69.984375 44.058594 66.757812 41.417969 62.367188 C 42.21875 61.050781 42.742188 59.535156 42.890625 57.894531 L 43.410156 52.179688 C 43.460938 51.621094 43.835938 51.144531 44.375 50.964844 L 48.113281 49.71875 L 46.851562 44.652344 C 46.5625 43.511719 46.417969 42.324219 46.417969 41.128906 C 46.417969 37.03125 45.40625 33.003906 43.492188 29.390625 C 46.890625 27.8125 49.253906 24.371094 49.253906 20.382812 C 49.253906 14.902344 44.800781 10.441406 39.328125 10.441406 L 27.984375 10.441406 C 25.683594 10.441406 23.648438 11.570312 22.351562 13.28125 L 20.898438 13.28125 C 9.953125 13.28125 1.046875 22.203125 1.046875 33.164062 L 1.046875 49.308594 C 1.046875 58.789062 4.941406 67.847656 11.753906 74.371094 C 11.261719 74.976562 10.679688 75.519531 9.992188 75.945312 Z M 9.992188 75.945312 " clip-rule="nonzero"/></clipPath><clipPath id="id3"><path d="M 86.117188 48.785156 L 84.699219 48.785156 C 83.917969 48.785156 83.28125 48.148438 83.28125 47.367188 L 83.28125 45.945312 L 84.699219 45.945312 C 85.480469 45.945312 86.117188 46.582031 86.117188 47.367188 Z M 88.953125 47.367188 C 88.953125 45.015625 87.046875 43.105469 84.699219 43.105469 L 80.445312 43.105469 L 80.445312 47.367188 C 80.445312 49.710938 82.355469 51.625 84.699219 51.625 L 88.953125 51.625 Z M 77.609375 30.1875 C 77.609375 27.578125 79.378906 25.308594 81.910156 24.675781 L 86.117188 23.625 L 86.117188 25.476562 C 86.117188 28.332031 83.984375 30.757812 81.148438 31.113281 L 77.609375 31.554688 Z M 74.773438 32.578125 L 70.9375 36.421875 L 72.941406 38.429688 L 76.851562 34.511719 L 81.503906 33.929688 C 85.753906 33.398438 88.953125 29.765625 88.953125 25.476562 L 88.953125 19.984375 L 81.222656 21.921875 C 77.429688 22.867188 74.773438 26.269531 74.773438 30.1875 Z M 66.417969 11.546875 L 73.355469 8.382812 L 73.355469 13.742188 C 73.355469 18.546875 69.929688 22.664062 65.199219 23.523438 L 60.742188 24.359375 L 60.597656 20.601562 C 60.597656 16.710938 62.882812 13.15625 66.417969 11.546875 Z M 53.164062 35.503906 L 60.136719 27.367188 L 65.714844 26.3125 C 71.785156 25.210938 76.191406 19.921875 76.191406 13.742188 L 76.191406 3.972656 L 65.242188 8.960938 C 60.695312 11.03125 57.761719 15.597656 57.761719 20.648438 L 57.945312 25.558594 L 51.015625 33.660156 Z M 60.597656 64.40625 L 60.597656 61.566406 L 63.433594 61.566406 L 63.433594 64.40625 Z M 54.925781 64.40625 L 54.925781 61.566406 L 57.761719 61.566406 L 57.761719 64.40625 Z M 49.253906 61.566406 L 52.089844 61.566406 L 52.089844 64.40625 L 49.253906 64.40625 Z M 74.773438 48.785156 C 74.773438 48.003906 74.136719 47.367188 73.355469 47.367188 L 71.9375 47.367188 L 71.9375 44.527344 L 73.355469 44.527344 C 75.707031 44.527344 77.609375 46.433594 77.609375 48.785156 C 77.609375 51.132812 75.707031 53.046875 73.355469 53.046875 L 54.925781 53.046875 L 54.925781 50.207031 L 73.355469 50.207031 C 74.136719 50.207031 74.773438 49.566406 74.773438 48.785156 Z M 74.773438 70.089844 C 74.773438 73.21875 77.324219 75.769531 80.445312 75.769531 C 83.574219 75.769531 86.117188 73.21875 86.117188 70.089844 C 86.117188 63.824219 81.027344 58.726562 74.773438 58.726562 L 52.089844 58.726562 L 52.089844 55.886719 L 74.773438 55.886719 C 82.59375 55.886719 88.953125 62.253906 88.953125 70.089844 C 88.953125 74.785156 85.136719 78.609375 80.445312 78.609375 C 75.753906 78.609375 71.9375 74.785156 71.9375 70.089844 C 71.9375 66.953125 74.488281 64.40625 77.609375 64.40625 C 80.738281 64.40625 83.28125 66.953125 83.28125 70.089844 L 80.445312 70.089844 C 80.445312 68.519531 79.179688 67.246094 77.609375 67.246094 C 76.050781 67.246094 74.773438 68.519531 74.773438 70.089844 Z M 37.910156 41.683594 L 40.746094 41.683594 C 40.746094 44.03125 38.839844 45.945312 36.492188 45.945312 C 34.152344 45.945312 32.238281 44.03125 32.238281 41.683594 L 35.074219 41.683594 C 35.074219 42.46875 35.710938 43.105469 36.492188 43.105469 C 37.273438 43.105469 37.910156 42.46875 37.910156 41.683594 Z M 3.882812 49.308594 L 3.882812 33.164062 C 3.882812 23.765625 11.515625 16.121094 20.898438 16.121094 L 21.039062 16.121094 C 20.945312 16.582031 20.898438 17.054688 20.898438 17.542969 C 20.898438 21.460938 24.074219 24.644531 27.984375 24.644531 L 29.402344 24.644531 L 29.402344 21.804688 L 27.984375 21.804688 C 25.644531 21.804688 23.734375 19.890625 23.734375 17.542969 C 23.734375 15.191406 25.644531 13.28125 27.984375 13.28125 L 39.328125 13.28125 C 43.238281 13.28125 46.417969 16.46875 46.417969 20.382812 C 46.417969 24.300781 43.238281 27.484375 39.328125 27.484375 L 28.59375 27.484375 C 23.476562 27.484375 19.230469 31.335938 18.71875 36.433594 L 18.359375 40.027344 C 17.40625 39.261719 16.226562 38.84375 14.980469 38.84375 C 11.992188 38.84375 9.554688 41.28125 9.554688 44.28125 C 9.554688 48.4375 12.203125 52.109375 16.132812 53.421875 L 17.101562 53.75 L 16.675781 54.285156 C 13.878906 57.785156 12.582031 62.167969 13.03125 66.625 L 13.285156 69.222656 C 13.375 70.078125 13.292969 70.914062 13.085938 71.707031 C 7.21875 65.773438 3.882812 57.71875 3.882812 49.308594 Z M 43.582031 41.128906 C 43.582031 42.554688 43.753906 43.976562 44.097656 45.339844 L 44.722656 47.855469 L 43.476562 48.269531 C 41.871094 48.804688 40.742188 50.238281 40.585938 51.925781 L 40.226562 55.886719 L 38.25 55.886719 C 36.832031 55.886719 35.558594 55.097656 34.925781 53.828125 L 32.390625 55.097656 C 33.507812 57.335938 35.75 58.726562 38.25 58.726562 L 39.867188 58.726562 C 39.070312 62.027344 36.148438 64.40625 32.570312 64.40625 C 31.589844 64.40625 30.640625 64.222656 29.746094 63.863281 L 24.257812 61.667969 L 23.207031 64.300781 L 27.984375 66.222656 L 27.984375 75.179688 L 32.457031 77.664062 C 34.15625 78.613281 35.695312 79.773438 37.085938 81.066406 C 35.972656 81.316406 34.84375 81.449219 33.703125 81.449219 C 29.480469 81.449219 25.511719 79.800781 22.53125 76.8125 C 21.0625 75.347656 19.378906 74.132812 17.523438 73.199219 L 15.847656 72.355469 C 16.117188 71.257812 16.226562 70.109375 16.113281 68.941406 L 15.851562 66.34375 C 15.480469 62.625 16.558594 58.976562 18.886719 56.058594 L 21.855469 52.34375 L 17.03125 50.734375 C 14.257812 49.808594 12.390625 47.210938 12.390625 44.28125 C 12.390625 42.851562 13.554688 41.683594 14.980469 41.683594 C 15.675781 41.683594 16.328125 41.957031 16.816406 42.445312 L 20.59375 46.230469 L 21.539062 36.714844 C 21.90625 33.070312 24.941406 30.324219 28.59375 30.324219 L 39.328125 30.324219 C 39.800781 30.324219 40.253906 30.28125 40.707031 30.214844 C 42.585938 33.546875 43.582031 37.304688 43.582031 41.128906 Z M 52.285156 74.1875 L 59.011719 76.207031 C 65.667969 78.203125 70.859375 83.402344 72.917969 89.96875 L 68.804688 89.96875 C 67.503906 84.738281 63.636719 80.59375 58.414062 79.023438 L 48.660156 76.097656 C 43.53125 74.554688 39.144531 71.113281 36.375 66.558594 C 37.535156 66.117188 38.585938 65.46875 39.496094 64.65625 C 42.511719 69.234375 46.984375 72.589844 52.285156 74.1875 Z M 4.144531 89.671875 C 4.652344 86.085938 6.351562 82.835938 8.917969 80.378906 C 13.253906 81.941406 16.542969 85.542969 17.722656 89.96875 L 4.097656 89.96875 Z M 30.820312 67.09375 C 31.414062 67.1875 32.023438 67.246094 32.660156 67.246094 C 32.941406 67.246094 33.214844 67.230469 33.484375 67.210938 C 36.578125 72.769531 41.742188 76.984375 47.847656 78.8125 L 57.601562 81.75 C 61.625 82.957031 64.679688 86.03125 65.890625 89.96875 L 60.140625 89.96875 C 58.984375 87.328125 56.871094 85.199219 54.199219 84.054688 L 48.394531 81.566406 L 47.277344 84.171875 L 53.082031 86.664062 C 54.6875 87.351562 56.023438 88.515625 56.9375 89.96875 L 46.015625 89.96875 C 43.9375 83.664062 39.660156 78.429688 33.828125 75.1875 L 30.820312 73.511719 Z M 14.761719 74.992188 L 16.253906 75.742188 C 17.839844 76.535156 19.273438 77.570312 20.527344 78.820312 C 24.042969 82.347656 28.722656 84.289062 33.703125 84.289062 C 35.601562 84.289062 37.480469 83.988281 39.296875 83.417969 C 40.875 85.367188 42.132812 87.574219 43.023438 89.96875 L 20.664062 89.96875 C 19.550781 84.882812 16.132812 80.601562 11.496094 78.359375 C 12.878906 77.492188 13.96875 76.328125 14.761719 74.992188 Z M 9.992188 75.945312 C 5.277344 78.902344 2.121094 83.757812 1.335938 89.269531 L 0.832031 92.808594 L 88.953125 92.808594 L 88.953125 89.96875 L 75.871094 89.96875 C 73.722656 82.105469 67.675781 75.839844 59.828125 73.484375 L 53.101562 71.464844 C 48.167969 69.984375 44.058594 66.757812 41.417969 62.367188 C 42.21875 61.050781 42.742188 59.535156 42.890625 57.894531 L 43.410156 52.179688 C 43.460938 51.621094 43.835938 51.144531 44.375 50.964844 L 48.113281 49.71875 L 46.851562 44.652344 C 46.5625 43.511719 46.417969 42.324219 46.417969 41.128906 C 46.417969 37.03125 45.40625 33.003906 43.492188 29.390625 C 46.890625 27.8125 49.253906 24.371094 49.253906 20.382812 C 49.253906 14.902344 44.800781 10.441406 39.328125 10.441406 L 27.984375 10.441406 C 25.683594 10.441406 23.648438 11.570312 22.351562 13.28125 L 20.898438 13.28125 C 9.953125 13.28125 1.046875 22.203125 1.046875 33.164062 L 1.046875 49.308594 C 1.046875 58.789062 4.941406 67.847656 11.753906 74.371094 C 11.261719 74.976562 10.679688 75.519531 9.992188 75.945312 " clip-rule="nonzero"/></clipPath><linearGradient x1="-0.0000124261" gradientTransform="matrix(0.000000000000005431, -88.833377, 88.690327, 0.000000000000005439, 44.892033, 92.809283)" y1="0" x2="0.999957" gradientUnits="userSpaceOnUse" y2="0" id="id4"><stop stop-opacity="1" stop-color="rgb(62.399292%, 18.399048%, 100%)" offset="0"/><stop stop-opacity="1" stop-color="rgb(62.199402%, 18.598938%, 100%)" offset="0.00390625"/><stop stop-opacity="1" stop-color="rgb(61.999512%, 18.798828%, 100%)" offset="0.0078125"/><stop stop-opacity="1" stop-color="rgb(61.799622%, 18.998718%, 99.798584%)" offset="0.0117188"/><stop stop-opacity="1" stop-color="rgb(61.599731%, 19.198608%, 99.598694%)" offset="0.015625"/><stop stop-opacity="1" stop-color="rgb(61.378479%, 19.419861%, 99.598694%)" offset="0.0195312"/><stop stop-opacity="1" stop-color="rgb(61.157227%, 19.641113%, 99.598694%)" offset="0.0234375"/><stop stop-opacity="1" stop-color="rgb(60.777283%, 19.831848%, 99.586487%)" offset="0.0273438"/><stop stop-opacity="1" stop-color="rgb(60.398865%, 20.022583%, 99.575806%)" offset="0.03125"/><stop stop-opacity="1" stop-color="rgb(60.198975%, 20.213318%, 99.386597%)" offset="0.0351562"/><stop stop-opacity="1" stop-color="rgb(59.999084%, 20.404053%, 99.198914%)" offset="0.0390625"/><stop stop-opacity="1" stop-color="rgb(59.805298%, 20.600891%, 99.198914%)" offset="0.0429688"/><stop stop-opacity="1" stop-color="rgb(59.613037%, 20.799255%, 99.198914%)" offset="0.046875"/><stop stop-opacity="1" stop-color="rgb(59.405518%, 20.999146%, 99.198914%)" offset="0.0507812"/><stop stop-opacity="1" stop-color="rgb(59.199524%, 21.199036%, 99.198914%)" offset="0.0546875"/><stop stop-opacity="1" stop-color="rgb(58.999634%, 21.398926%, 98.999023%)" offset="0.0585938"/><stop stop-opacity="1" stop-color="rgb(58.799744%, 21.598816%, 98.799133%)" offset="0.0625"/><stop stop-opacity="1" stop-color="rgb(58.584595%, 21.813965%, 98.799133%)" offset="0.0664062"/><stop stop-opacity="1" stop-color="rgb(58.369446%, 22.029114%, 98.799133%)" offset="0.0703125"/><stop stop-opacity="1" stop-color="rgb(57.983398%, 22.218323%, 98.79303%)" offset="0.0742188"/><stop stop-opacity="1" stop-color="rgb(57.598877%, 22.407532%, 98.788452%)" offset="0.078125"/><stop stop-opacity="1" stop-color="rgb(57.450867%, 22.55249%, 98.59314%)" offset="0.0859375"/><stop stop-opacity="1" stop-color="rgb(57.115173%, 22.898865%, 98.399353%)" offset="0.0898438"/><stop stop-opacity="1" stop-color="rgb(56.925964%, 23.098755%, 98.399353%)" offset="0.09375"/><stop stop-opacity="1" stop-color="rgb(56.735229%, 23.298645%, 98.399353%)" offset="0.0976562"/><stop stop-opacity="1" stop-color="rgb(56.544495%, 23.498535%, 98.399353%)" offset="0.101562"/><stop stop-opacity="1" stop-color="rgb(56.303406%, 23.716736%, 98.199463%)" offset="0.105469"/><stop stop-opacity="1" stop-color="rgb(56.063843%, 23.934937%, 97.999573%)" offset="0.109375"/><stop stop-opacity="1" stop-color="rgb(55.873108%, 24.125671%, 97.999573%)" offset="0.117188"/><stop stop-opacity="1" stop-color="rgb(55.291748%, 24.507141%, 97.799683%)" offset="0.121094"/><stop stop-opacity="1" stop-color="rgb(54.901123%, 24.699402%, 97.601318%)" offset="0.125"/><stop stop-opacity="1" stop-color="rgb(54.710388%, 24.899292%, 97.599792%)" offset="0.128906"/><stop stop-opacity="1" stop-color="rgb(54.519653%, 25.099182%, 97.599792%)" offset="0.132812"/><stop stop-opacity="1" stop-color="rgb(54.328918%, 25.299072%, 97.599792%)" offset="0.136719"/><stop stop-opacity="1" stop-color="rgb(54.138184%, 25.498962%, 97.599792%)" offset="0.140625"/><stop stop-opacity="1" stop-color="rgb(53.897095%, 25.720215%, 97.44873%)" offset="0.144531"/><stop stop-opacity="1" stop-color="rgb(53.657532%, 25.941467%, 97.299194%)" offset="0.148438"/><stop stop-opacity="1" stop-color="rgb(53.466797%, 26.132202%, 97.299194%)" offset="0.15625"/><stop stop-opacity="1" stop-color="rgb(53.085327%, 26.513672%, 97.299194%)" offset="0.164062"/><stop stop-opacity="1" stop-color="rgb(52.696228%, 26.901245%, 97.105408%)" offset="0.167969"/><stop stop-opacity="1" stop-color="rgb(52.49939%, 27.099609%, 96.913147%)" offset="0.171875"/><stop stop-opacity="1" stop-color="rgb(52.165222%, 27.2995%, 96.905518%)" offset="0.175781"/><stop stop-opacity="1" stop-color="rgb(51.832581%, 27.49939%, 96.899414%)" offset="0.179688"/><stop stop-opacity="1" stop-color="rgb(51.641846%, 27.648926%, 96.899414%)" offset="0.1875"/><stop stop-opacity="1" stop-color="rgb(51.225281%, 28.013611%, 96.699524%)" offset="0.191406"/><stop stop-opacity="1" stop-color="rgb(50.999451%, 28.22876%, 96.499634%)" offset="0.195312"/><stop stop-opacity="1" stop-color="rgb(50.793457%, 28.419495%, 96.499634%)" offset="0.199219"/><stop stop-opacity="1" stop-color="rgb(50.588989%, 28.610229%, 96.499634%)" offset="0.203125"/><stop stop-opacity="1" stop-color="rgb(50.393677%, 28.804016%, 96.499634%)" offset="0.210938"/><stop stop-opacity="1" stop-color="rgb(49.998474%, 29.199219%, 96.311951%)" offset="0.214844"/><stop stop-opacity="1" stop-color="rgb(49.798584%, 29.399109%, 96.125793%)" offset="0.21875"/><stop stop-opacity="1" stop-color="rgb(49.421692%, 29.598999%, 96.112061%)" offset="0.222656"/><stop stop-opacity="1" stop-color="rgb(49.0448%, 29.798889%, 96.099854%)" offset="0.226562"/><stop stop-opacity="1" stop-color="rgb(48.822021%, 30.01709%, 96.099854%)" offset="0.230469"/><stop stop-opacity="1" stop-color="rgb(48.599243%, 30.235291%, 96.099854%)" offset="0.234375"/><stop stop-opacity="1" stop-color="rgb(48.399353%, 30.426025%, 95.898438%)" offset="0.238281"/><stop stop-opacity="1" stop-color="rgb(48.199463%, 30.61676%, 95.698547%)" offset="0.242188"/><stop stop-opacity="1" stop-color="rgb(47.999573%, 30.807495%, 95.698547%)" offset="0.246094"/><stop stop-opacity="1" stop-color="rgb(47.801208%, 30.999756%, 95.698547%)" offset="0.25"/><stop stop-opacity="1" stop-color="rgb(47.650146%, 31.388855%, 95.698547%)" offset="0.253906"/><stop stop-opacity="1" stop-color="rgb(47.499084%, 31.777954%, 95.698547%)" offset="0.257812"/><stop stop-opacity="1" stop-color="rgb(47.299194%, 31.968689%, 95.498657%)" offset="0.261719"/><stop stop-opacity="1" stop-color="rgb(47.099304%, 32.159424%, 95.298767%)" offset="0.265625"/><stop stop-opacity="1" stop-color="rgb(46.878052%, 32.328796%, 95.298767%)" offset="0.269531"/><stop stop-opacity="1" stop-color="rgb(46.658325%, 32.499695%, 95.298767%)" offset="0.273438"/><stop stop-opacity="1" stop-color="rgb(46.278381%, 32.699585%, 95.28656%)" offset="0.277344"/><stop stop-opacity="1" stop-color="rgb(45.899963%, 32.899475%, 95.275879%)" offset="0.28125"/><stop stop-opacity="1" stop-color="rgb(45.698547%, 33.099365%, 95.08667%)" offset="0.285156"/><stop stop-opacity="1" stop-color="rgb(45.498657%, 33.299255%, 94.898987%)" offset="0.289062"/><stop stop-opacity="1" stop-color="rgb(45.306396%, 33.491516%, 94.898987%)" offset="0.296875"/><stop stop-opacity="1" stop-color="rgb(44.906616%, 33.874512%, 94.898987%)" offset="0.300781"/><stop stop-opacity="1" stop-color="rgb(44.699097%, 34.065247%, 94.898987%)" offset="0.304688"/><stop stop-opacity="1" stop-color="rgb(44.499207%, 34.255981%, 94.699097%)" offset="0.308594"/><stop stop-opacity="1" stop-color="rgb(44.299316%, 34.446716%, 94.499207%)" offset="0.3125"/><stop stop-opacity="1" stop-color="rgb(44.084167%, 34.672546%, 94.499207%)" offset="0.316406"/><stop stop-opacity="1" stop-color="rgb(43.870544%, 34.899902%, 94.499207%)" offset="0.320312"/><stop stop-opacity="1" stop-color="rgb(43.484497%, 35.099792%, 94.493103%)" offset="0.324219"/><stop stop-opacity="1" stop-color="rgb(43.099976%, 35.299683%, 94.488525%)" offset="0.328125"/><stop stop-opacity="1" stop-color="rgb(42.903137%, 35.494995%, 94.293213%)" offset="0.332031"/><stop stop-opacity="1" stop-color="rgb(42.707825%, 35.690308%, 94.099426%)" offset="0.335938"/><stop stop-opacity="1" stop-color="rgb(42.562866%, 35.881042%, 94.099426%)" offset="0.34375"/><stop stop-opacity="1" stop-color="rgb(42.23175%, 36.262512%, 94.099426%)" offset="0.351562"/><stop stop-opacity="1" stop-color="rgb(41.804504%, 36.676025%, 93.899536%)" offset="0.355469"/><stop stop-opacity="1" stop-color="rgb(41.563416%, 36.898804%, 93.699646%)" offset="0.359375"/><stop stop-opacity="1" stop-color="rgb(41.372681%, 37.098694%, 93.699646%)" offset="0.363281"/><stop stop-opacity="1" stop-color="rgb(41.183472%, 37.298584%, 93.699646%)" offset="0.367188"/><stop stop-opacity="1" stop-color="rgb(40.991211%, 37.44812%, 93.499756%)" offset="0.371094"/><stop stop-opacity="1" stop-color="rgb(40.79895%, 37.597656%, 93.301392%)" offset="0.375"/><stop stop-opacity="1" stop-color="rgb(40.409851%, 37.786865%, 93.299866%)" offset="0.378906"/><stop stop-opacity="1" stop-color="rgb(40.020752%, 37.9776%, 93.299866%)" offset="0.382812"/><stop stop-opacity="1" stop-color="rgb(39.830017%, 38.168335%, 93.299866%)" offset="0.390625"/><stop stop-opacity="1" stop-color="rgb(39.398193%, 38.578796%, 93.09845%)" offset="0.394531"/><stop stop-opacity="1" stop-color="rgb(39.15863%, 38.798523%, 92.89856%)" offset="0.398438"/><stop stop-opacity="1" stop-color="rgb(38.967896%, 38.998413%, 92.89856%)" offset="0.402344"/><stop stop-opacity="1" stop-color="rgb(38.777161%, 39.199829%, 92.89856%)" offset="0.40625"/><stop stop-opacity="1" stop-color="rgb(38.586426%, 39.399719%, 92.89856%)" offset="0.410156"/><stop stop-opacity="1" stop-color="rgb(38.395691%, 39.599609%, 92.89856%)" offset="0.414062"/><stop stop-opacity="1" stop-color="rgb(38.197327%, 39.79187%, 92.706299%)" offset="0.417969"/><stop stop-opacity="1" stop-color="rgb(37.998962%, 39.984131%, 92.514038%)" offset="0.421875"/><stop stop-opacity="1" stop-color="rgb(37.661743%, 40.174866%, 92.506409%)" offset="0.425781"/><stop stop-opacity="1" stop-color="rgb(37.324524%, 40.365601%, 92.498779%)" offset="0.429688"/><stop stop-opacity="1" stop-color="rgb(37.138367%, 40.556335%, 92.498779%)" offset="0.4375"/><stop stop-opacity="1" stop-color="rgb(36.724854%, 40.9729%, 92.349243%)" offset="0.441406"/><stop stop-opacity="1" stop-color="rgb(36.499023%, 41.19873%, 92.199707%)" offset="0.445312"/><stop stop-opacity="1" stop-color="rgb(36.294556%, 41.398621%, 92.199707%)" offset="0.449219"/><stop stop-opacity="1" stop-color="rgb(36.090088%, 41.598511%, 92.199707%)" offset="0.453125"/><stop stop-opacity="1" stop-color="rgb(35.894775%, 41.793823%, 92.199707%)" offset="0.457031"/><stop stop-opacity="1" stop-color="rgb(35.699463%, 41.990662%, 92.199707%)" offset="0.460938"/><stop stop-opacity="1" stop-color="rgb(35.499573%, 42.181396%, 92.01355%)" offset="0.464844"/><stop stop-opacity="1" stop-color="rgb(35.299683%, 42.372131%, 91.827393%)" offset="0.46875"/><stop stop-opacity="1" stop-color="rgb(34.922791%, 42.518616%, 91.81366%)" offset="0.472656"/><stop stop-opacity="1" stop-color="rgb(34.545898%, 42.6651%, 91.799927%)" offset="0.476562"/><stop stop-opacity="1" stop-color="rgb(34.321594%, 42.881775%, 91.799927%)" offset="0.480469"/><stop stop-opacity="1" stop-color="rgb(34.098816%, 43.099976%, 91.799927%)" offset="0.484375"/><stop stop-opacity="1" stop-color="rgb(33.898926%, 43.299866%, 91.598511%)" offset="0.488281"/><stop stop-opacity="1" stop-color="rgb(33.699036%, 43.499756%, 91.398621%)" offset="0.492188"/><stop stop-opacity="1" stop-color="rgb(33.500671%, 43.69812%, 91.398621%)" offset="0.496094"/><stop stop-opacity="1" stop-color="rgb(33.302307%, 43.896484%, 91.398621%)" offset="0.5"/><stop stop-opacity="1" stop-color="rgb(33.100891%, 44.0979%, 91.398621%)" offset="0.503906"/><stop stop-opacity="1" stop-color="rgb(32.899475%, 44.299316%, 91.398621%)" offset="0.507812"/><stop stop-opacity="1" stop-color="rgb(32.699585%, 44.499207%, 91.19873%)" offset="0.511719"/><stop stop-opacity="1" stop-color="rgb(32.499695%, 44.699097%, 90.99884%)" offset="0.515625"/><stop stop-opacity="1" stop-color="rgb(32.328796%, 44.918823%, 90.99884%)" offset="0.519531"/><stop stop-opacity="1" stop-color="rgb(32.157898%, 45.140076%, 90.99884%)" offset="0.523438"/><stop stop-opacity="1" stop-color="rgb(31.777954%, 45.330811%, 90.988159%)" offset="0.527344"/><stop stop-opacity="1" stop-color="rgb(31.399536%, 45.521545%, 90.977478%)" offset="0.53125"/><stop stop-opacity="1" stop-color="rgb(31.199646%, 45.71228%, 90.788269%)" offset="0.535156"/><stop stop-opacity="1" stop-color="rgb(30.999756%, 45.903015%, 90.59906%)" offset="0.539063"/><stop stop-opacity="1" stop-color="rgb(30.807495%, 46.101379%, 90.59906%)" offset="0.542969"/><stop stop-opacity="1" stop-color="rgb(30.615234%, 46.299744%, 90.59906%)" offset="0.546875"/><stop stop-opacity="1" stop-color="rgb(30.406189%, 46.499634%, 90.59906%)" offset="0.550781"/><stop stop-opacity="1" stop-color="rgb(30.198669%, 46.699524%, 90.59906%)" offset="0.554688"/><stop stop-opacity="1" stop-color="rgb(29.998779%, 46.899414%, 90.39917%)" offset="0.558594"/><stop stop-opacity="1" stop-color="rgb(29.798889%, 47.099304%, 90.19928%)" offset="0.5625"/><stop stop-opacity="1" stop-color="rgb(29.585266%, 47.309875%, 90.19928%)" offset="0.566406"/><stop stop-opacity="1" stop-color="rgb(29.371643%, 47.520447%, 90.19928%)" offset="0.570313"/><stop stop-opacity="1" stop-color="rgb(28.985596%, 47.663879%, 90.194702%)" offset="0.574219"/><stop stop-opacity="1" stop-color="rgb(28.599548%, 47.808838%, 90.190125%)" offset="0.578125"/><stop stop-opacity="1" stop-color="rgb(28.404236%, 48.00415%, 89.994812%)" offset="0.585938"/><stop stop-opacity="1" stop-color="rgb(28.018188%, 48.399353%, 89.7995%)" offset="0.589844"/><stop stop-opacity="1" stop-color="rgb(27.827454%, 48.599243%, 89.7995%)" offset="0.59375"/><stop stop-opacity="1" stop-color="rgb(27.680969%, 48.799133%, 89.7995%)" offset="0.597656"/><stop stop-opacity="1" stop-color="rgb(27.534485%, 48.999023%, 89.7995%)" offset="0.601563"/><stop stop-opacity="1" stop-color="rgb(27.2995%, 49.215698%, 89.599609%)" offset="0.605469"/><stop stop-opacity="1" stop-color="rgb(27.064514%, 49.433899%, 89.399719%)" offset="0.609375"/><stop stop-opacity="1" stop-color="rgb(26.873779%, 49.624634%, 89.399719%)" offset="0.617188"/><stop stop-opacity="1" stop-color="rgb(26.490784%, 50.007629%, 89.201355%)" offset="0.621094"/><stop stop-opacity="1" stop-color="rgb(26.298523%, 50.19989%, 89.002991%)" offset="0.625"/><stop stop-opacity="1" stop-color="rgb(25.909424%, 50.39978%, 89.001465%)" offset="0.628906"/><stop stop-opacity="1" stop-color="rgb(25.521851%, 50.59967%, 88.999939%)" offset="0.632813"/><stop stop-opacity="1" stop-color="rgb(25.331116%, 50.799561%, 88.999939%)" offset="0.636719"/><stop stop-opacity="1" stop-color="rgb(25.140381%, 50.999451%, 88.999939%)" offset="0.640625"/><stop stop-opacity="1" stop-color="rgb(24.899292%, 51.219177%, 88.798523%)" offset="0.644531"/><stop stop-opacity="1" stop-color="rgb(24.658203%, 51.44043%, 88.598633%)" offset="0.648438"/><stop stop-opacity="1" stop-color="rgb(24.467468%, 51.629639%, 88.598633%)" offset="0.65625"/><stop stop-opacity="1" stop-color="rgb(24.085999%, 52.011108%, 88.598633%)" offset="0.664063"/><stop stop-opacity="1" stop-color="rgb(23.696899%, 52.349854%, 88.406372%)" offset="0.667969"/><stop stop-opacity="1" stop-color="rgb(23.498535%, 52.49939%, 88.215637%)" offset="0.671875"/><stop stop-opacity="1" stop-color="rgb(23.11554%, 52.69928%, 88.206482%)" offset="0.675781"/><stop stop-opacity="1" stop-color="rgb(22.73407%, 52.89917%, 88.198853%)" offset="0.679688"/><stop stop-opacity="1" stop-color="rgb(22.58606%, 53.09906%, 88.198853%)" offset="0.683594"/><stop stop-opacity="1" stop-color="rgb(22.439575%, 53.29895%, 88.198853%)" offset="0.6875"/><stop stop-opacity="1" stop-color="rgb(22.218323%, 53.512573%, 87.998962%)" offset="0.691406"/><stop stop-opacity="1" stop-color="rgb(21.998596%, 53.727722%, 87.799072%)" offset="0.695313"/><stop stop-opacity="1" stop-color="rgb(21.794128%, 53.916931%, 87.799072%)" offset="0.699219"/><stop stop-opacity="1" stop-color="rgb(21.589661%, 54.107666%, 87.799072%)" offset="0.703125"/><stop stop-opacity="1" stop-color="rgb(21.394348%, 54.302979%, 87.799072%)" offset="0.707031"/><stop stop-opacity="1" stop-color="rgb(21.199036%, 54.499817%, 87.799072%)" offset="0.710938"/><stop stop-opacity="1" stop-color="rgb(20.999146%, 54.699707%, 87.658691%)" offset="0.714844"/><stop stop-opacity="1" stop-color="rgb(20.799255%, 54.899597%, 87.519836%)" offset="0.71875"/><stop stop-opacity="1" stop-color="rgb(20.422363%, 55.099487%, 87.509155%)" offset="0.722656"/><stop stop-opacity="1" stop-color="rgb(20.046997%, 55.299377%, 87.5%)" offset="0.726563"/><stop stop-opacity="1" stop-color="rgb(19.822693%, 55.516052%, 87.5%)" offset="0.730469"/><stop stop-opacity="1" stop-color="rgb(19.599915%, 55.732727%, 87.5%)" offset="0.734375"/><stop stop-opacity="1" stop-color="rgb(19.398499%, 55.923462%, 87.298584%)" offset="0.738281"/><stop stop-opacity="1" stop-color="rgb(19.198608%, 56.114197%, 87.098694%)" offset="0.742188"/><stop stop-opacity="1" stop-color="rgb(19.000244%, 56.306458%, 87.098694%)" offset="0.746094"/><stop stop-opacity="1" stop-color="rgb(18.803406%, 56.498718%, 87.098694%)" offset="0.75"/><stop stop-opacity="1" stop-color="rgb(18.600464%, 56.887817%, 87.098694%)" offset="0.753906"/><stop stop-opacity="1" stop-color="rgb(18.399048%, 57.276917%, 87.098694%)" offset="0.757812"/><stop stop-opacity="1" stop-color="rgb(18.199158%, 57.421875%, 86.898804%)" offset="0.761719"/><stop stop-opacity="1" stop-color="rgb(17.999268%, 57.568359%, 86.698914%)" offset="0.765625"/><stop stop-opacity="1" stop-color="rgb(17.784119%, 57.783508%, 86.698914%)" offset="0.769531"/><stop stop-opacity="1" stop-color="rgb(17.56897%, 57.998657%, 86.698914%)" offset="0.773438"/><stop stop-opacity="1" stop-color="rgb(17.233276%, 58.198547%, 86.688232%)" offset="0.777344"/><stop stop-opacity="1" stop-color="rgb(16.899109%, 58.399963%, 86.677551%)" offset="0.78125"/><stop stop-opacity="1" stop-color="rgb(16.699219%, 58.599854%, 86.488342%)" offset="0.785156"/><stop stop-opacity="1" stop-color="rgb(16.499329%, 58.799744%, 86.299133%)" offset="0.789062"/><stop stop-opacity="1" stop-color="rgb(16.307068%, 58.990479%, 86.299133%)" offset="0.796875"/><stop stop-opacity="1" stop-color="rgb(15.907288%, 59.373474%, 86.299133%)" offset="0.800781"/><stop stop-opacity="1" stop-color="rgb(15.699768%, 59.564209%, 86.299133%)" offset="0.804688"/><stop stop-opacity="1" stop-color="rgb(15.499878%, 59.754944%, 86.099243%)" offset="0.808594"/><stop stop-opacity="1" stop-color="rgb(15.299988%, 59.945679%, 85.899353%)" offset="0.8125"/><stop stop-opacity="1" stop-color="rgb(15.084839%, 60.171509%, 85.899353%)" offset="0.816406"/><stop stop-opacity="1" stop-color="rgb(14.871216%, 60.398865%, 85.899353%)" offset="0.820312"/><stop stop-opacity="1" stop-color="rgb(14.485168%, 60.598755%, 85.894775%)" offset="0.824219"/><stop stop-opacity="1" stop-color="rgb(14.099121%, 60.798645%, 85.890198%)" offset="0.828125"/><stop stop-opacity="1" stop-color="rgb(13.903809%, 60.993958%, 85.694885%)" offset="0.835938"/><stop stop-opacity="1" stop-color="rgb(13.519287%, 61.380005%, 85.499573%)" offset="0.84375"/><stop stop-opacity="1" stop-color="rgb(13.137817%, 61.761475%, 85.499573%)" offset="0.851562"/><stop stop-opacity="1" stop-color="rgb(12.710571%, 62.174988%, 85.299683%)" offset="0.855469"/><stop stop-opacity="1" stop-color="rgb(12.47406%, 62.399292%, 85.099792%)" offset="0.859375"/><stop stop-opacity="1" stop-color="rgb(12.329102%, 62.548828%, 85.099792%)" offset="0.867188"/><stop stop-opacity="1" stop-color="rgb(11.991882%, 62.896729%, 84.901428%)" offset="0.871094"/><stop stop-opacity="1" stop-color="rgb(11.799622%, 63.095093%, 84.703064%)" offset="0.875"/><stop stop-opacity="1" stop-color="rgb(11.410522%, 63.285828%, 84.700012%)" offset="0.878906"/><stop stop-opacity="1" stop-color="rgb(11.021423%, 63.476562%, 84.698486%)" offset="0.882812"/><stop stop-opacity="1" stop-color="rgb(10.830688%, 63.667297%, 84.698486%)" offset="0.890625"/><stop stop-opacity="1" stop-color="rgb(10.398865%, 64.077759%, 84.498596%)" offset="0.894531"/><stop stop-opacity="1" stop-color="rgb(10.159302%, 64.299011%, 84.298706%)" offset="0.898438"/><stop stop-opacity="1" stop-color="rgb(9.968567%, 64.498901%, 84.298706%)" offset="0.902344"/><stop stop-opacity="1" stop-color="rgb(9.777832%, 64.698792%, 84.298706%)" offset="0.90625"/><stop stop-opacity="1" stop-color="rgb(9.587097%, 64.898682%, 84.298706%)" offset="0.910156"/><stop stop-opacity="1" stop-color="rgb(9.396362%, 65.098572%, 84.298706%)" offset="0.914062"/><stop stop-opacity="1" stop-color="rgb(9.197998%, 65.290833%, 84.106445%)" offset="0.917969"/><stop stop-opacity="1" stop-color="rgb(8.999634%, 65.483093%, 83.91571%)" offset="0.921875"/><stop stop-opacity="1" stop-color="rgb(8.616638%, 65.673828%, 83.906555%)" offset="0.925781"/><stop stop-opacity="1" stop-color="rgb(8.235168%, 65.864563%, 83.898926%)" offset="0.929688"/><stop stop-opacity="1" stop-color="rgb(8.044434%, 66.053772%, 83.898926%)" offset="0.9375"/><stop stop-opacity="1" stop-color="rgb(7.676697%, 66.471863%, 83.699036%)" offset="0.941406"/><stop stop-opacity="1" stop-color="rgb(7.499695%, 66.699219%, 83.499146%)" offset="0.945312"/><stop stop-opacity="1" stop-color="rgb(7.295227%, 66.899109%, 83.499146%)" offset="0.949219"/><stop stop-opacity="1" stop-color="rgb(7.090759%, 67.098999%, 83.499146%)" offset="0.953125"/><stop stop-opacity="1" stop-color="rgb(6.893921%, 67.292786%, 83.499146%)" offset="0.957031"/><stop stop-opacity="1" stop-color="rgb(6.698608%, 67.488098%, 83.499146%)" offset="0.960938"/><stop stop-opacity="1" stop-color="rgb(6.498718%, 67.633057%, 83.312988%)" offset="0.964844"/><stop stop-opacity="1" stop-color="rgb(6.298828%, 67.778015%, 83.128357%)" offset="0.96875"/><stop stop-opacity="1" stop-color="rgb(5.921936%, 67.964172%, 83.113098%)" offset="0.972656"/><stop stop-opacity="1" stop-color="rgb(5.54657%, 68.151855%, 83.099365%)" offset="0.976562"/><stop stop-opacity="1" stop-color="rgb(5.322266%, 68.374634%, 83.099365%)" offset="0.980469"/><stop stop-opacity="1" stop-color="rgb(5.099487%, 68.598938%, 83.099365%)" offset="0.984375"/><stop stop-opacity="1" stop-color="rgb(4.899597%, 68.798828%, 82.899475%)" offset="0.988281"/><stop stop-opacity="1" stop-color="rgb(4.699707%, 68.998718%, 82.699585%)" offset="0.992188"/><stop stop-opacity="1" stop-color="rgb(4.501343%, 69.197083%, 82.699585%)" offset="0.996094"/><stop stop-opacity="1" stop-color="rgb(4.302979%, 69.395447%, 82.699585%)" offset="1"/></linearGradient></defs><g clip-path="url(#id1)"><g clip-path="url(#id2)"><g clip-path="url(#id3)"><path fill="url(#id4)" d="M 0.832031 92.808594 L 88.878906 92.808594 L 88.878906 3.980469 L 0.832031 3.980469 Z M 0.832031 92.808594 " fill-rule="nonzero"/></g></g></g></svg>