<svg xmlns="http://www.w3.org/2000/svg" xmlns:xlink="http://www.w3.org/1999/xlink" width="120" zoomAndPan="magnify" viewBox="0 0 90 97.5" height="130" preserveAspectRatio="xMidYMid meet" version="1.0"><defs><clipPath id="id1"><path d="M 12.222656 0.0585938 L 72.859375 0.0585938 L 72.859375 52 L 12.222656 52 Z M 12.222656 0.0585938 " clip-rule="nonzero"/></clipPath><clipPath id="id2"><path d="M 50 52 L 72.867188 52 L 72.867188 52.453125 L 50 52.453125 Z M 50 52 " clip-rule="nonzero"/></clipPath><clipPath id="id3"><path d="M 59.210938 47.335938 L 71 47.335938 L 71 79 L 59.210938 79 Z M 59.210938 47.335938 " clip-rule="nonzero"/></clipPath><clipPath id="id4"><path d="M 65 77 L 77 77 L 77 96.511719 L 65 96.511719 Z M 65 77 " clip-rule="nonzero"/></clipPath><clipPath id="id5"><path d="M 65.378906 76.898438 L 76.644531 76.898438 L 76.644531 96.511719 L 65.378906 96.511719 Z M 65.378906 76.898438 " clip-rule="nonzero"/></clipPath></defs><g clip-path="url(#id1)"><path fill="#1b2985" d="M 35.316406 26.636719 C 35.269531 26.414062 35.121094 26.222656 34.914062 26.128906 L 34.398438 25.894531 L 39.984375 14.757812 C 42.890625 16.058594 45.625 16.777344 48.328125 16.953125 C 50.039062 17.074219 51.519531 17.332031 52.949219 17.578125 C 54.476562 17.839844 56.058594 18.113281 57.929688 18.230469 C 59.921875 18.363281 66.445312 27.816406 69.230469 31.851562 C 70.214844 33.28125 70.992188 34.410156 71.464844 35.019531 C 71.859375 36.382812 66.9375 44.6875 65.320312 47.414062 C 65.003906 47.953125 64.722656 48.425781 64.5 48.808594 C 62.300781 47.027344 63.082031 44.765625 65.039062 39.890625 C 65.433594 38.898438 65.863281 37.832031 66.289062 36.683594 C 66.398438 36.390625 66.304688 36.0625 66.0625 35.871094 L 65.855469 35.707031 C 62.773438 33.292969 59.6875 30.875 56.632812 28.460938 C 56.601562 28.4375 56.566406 28.429688 56.535156 28.414062 C 56.40625 28.339844 56.257812 28.296875 56.105469 28.320312 C 53.777344 28.652344 51.082031 30.058594 51.46875 34.871094 C 51.480469 35.003906 51.53125 35.128906 51.609375 35.238281 C 51.609375 35.238281 51.609375 35.246094 51.613281 35.246094 C 51.613281 35.25 51.617188 35.253906 51.617188 35.253906 C 51.617188 35.253906 51.621094 35.253906 51.621094 35.257812 C 52.078125 35.839844 52.554688 36.417969 53.035156 36.988281 C 53.808594 37.90625 54.59375 38.800781 55.375 39.664062 C 58.003906 42.578125 60.488281 45.328125 60.363281 47.6875 C 60.316406 48.542969 59.933594 49.355469 59.199219 50.152344 C 55.796875 46.039062 50.902344 42.023438 46.558594 38.464844 C 41.097656 33.984375 35.9375 29.753906 35.316406 26.636719 Z M 32.472656 26.605469 L 29.933594 25.257812 L 33.675781 17.789062 L 37.117188 10.929688 L 39.644531 12.269531 Z M 55.117188 37.027344 L 54.933594 37.050781 C 54.21875 36.234375 53.519531 35.394531 52.847656 34.542969 C 52.832031 34.324219 52.839844 34.125 52.839844 33.917969 C 52.84375 33.796875 52.832031 33.667969 52.839844 33.550781 C 52.847656 33.359375 52.878906 33.195312 52.902344 33.019531 C 52.914062 32.90625 52.921875 32.78125 52.941406 32.671875 C 52.972656 32.519531 53.023438 32.382812 53.066406 32.242188 C 53.097656 32.132812 53.121094 32.015625 53.160156 31.914062 C 53.203125 31.804688 53.261719 31.714844 53.3125 31.617188 C 53.371094 31.496094 53.421875 31.371094 53.492188 31.265625 C 53.539062 31.195312 53.601562 31.140625 53.65625 31.074219 C 53.746094 30.957031 53.835938 30.832031 53.945312 30.730469 C 53.988281 30.6875 54.046875 30.65625 54.09375 30.617188 C 54.585938 30.207031 55.21875 29.917969 56.015625 29.769531 C 56.203125 29.921875 56.394531 30.070312 56.585938 30.21875 L 59.566406 32.566406 C 58.570312 36.644531 58.453125 36.65625 55.117188 37.027344 Z M 58.589844 51.640625 C 58.710938 51.792969 58.886719 51.886719 59.074219 51.902344 C 59.09375 51.90625 59.117188 51.90625 59.136719 51.90625 C 59.304688 51.90625 59.46875 51.84375 59.597656 51.730469 C 60.972656 50.5 61.679688 49.203125 61.757812 47.765625 C 61.914062 44.808594 59.359375 41.980469 56.402344 38.703125 C 56.296875 38.585938 56.191406 38.460938 56.082031 38.34375 C 59.292969 37.941406 59.773438 37.453125 60.769531 33.507812 C 62.113281 34.5625 63.453125 35.617188 64.796875 36.671875 C 64.4375 37.625 64.082031 38.515625 63.742188 39.355469 C 61.761719 44.296875 60.328125 47.871094 64.351562 50.433594 C 64.515625 50.539062 64.710938 50.570312 64.894531 50.519531 C 65.082031 50.472656 65.238281 50.347656 65.332031 50.179688 C 65.558594 49.765625 65.984375 49.050781 66.519531 48.148438 C 72.046875 38.820312 73.527344 35.433594 72.605469 34.210938 C 72.117188 33.570312 71.347656 32.453125 70.371094 31.039062 C 65.265625 23.636719 60.476562 16.980469 58.019531 16.8125 C 56.21875 16.699219 54.742188 16.445312 53.183594 16.175781 C 51.71875 15.925781 50.203125 15.664062 48.421875 15.535156 C 45.90625 15.371094 43.339844 14.679688 40.613281 13.464844 L 40.914062 12.863281 C 41.09375 12.527344 41.125 12.132812 41.003906 11.78125 C 40.882812 11.433594 40.628906 11.164062 40.347656 11.042969 L 37.742188 9.660156 L 37.910156 9.324219 C 38.082031 8.980469 37.949219 8.554688 37.609375 8.375 L 22.039062 0.140625 C 21.695312 -0.0429688 21.273438 0.09375 21.097656 0.441406 C 20.917969 0.789062 21.050781 1.21875 21.390625 1.398438 L 36.351562 9.308594 L 32.414062 17.171875 L 28.367188 25.234375 C 28.355469 25.253906 28.359375 25.277344 28.351562 25.296875 L 28.214844 25.5625 L 13.242188 17.632812 C 12.902344 17.449219 12.476562 17.585938 12.300781 17.933594 C 12.121094 18.28125 12.253906 18.707031 12.597656 18.890625 L 28.195312 27.152344 C 28.296875 27.207031 28.40625 27.234375 28.519531 27.234375 C 28.589844 27.234375 28.664062 27.222656 28.730469 27.199219 C 28.910156 27.140625 29.058594 27.011719 29.140625 26.84375 L 29.300781 26.523438 L 31.859375 27.882812 C 32.058594 27.992188 32.277344 28.050781 32.5 28.050781 C 32.625 28.050781 32.75 28.03125 32.875 27.996094 C 33.21875 27.890625 33.5 27.660156 33.675781 27.328125 L 33.761719 27.160156 L 34.035156 27.285156 C 35.011719 30.820312 39.96875 34.886719 45.679688 39.570312 C 50.179688 43.257812 55.28125 47.4375 58.589844 51.640625 " fill-opacity="1" fill-rule="nonzero"/></g><g clip-path="url(#id2)"><path fill="#1b2985" d="M 61.679688 82.117188 C 56.453125 82.117188 52.199219 77.746094 52.199219 72.378906 C 52.199219 67.007812 56.453125 62.636719 61.679688 62.636719 C 66.90625 62.636719 71.160156 67.007812 71.160156 72.378906 C 71.160156 77.746094 66.90625 82.117188 61.679688 82.117188 Z M 62.378906 61.242188 L 62.378906 53.097656 C 62.378906 52.707031 62.066406 52.390625 61.679688 52.390625 C 61.292969 52.390625 60.984375 52.707031 60.984375 53.097656 L 60.984375 61.242188 C 55.308594 61.613281 50.804688 66.464844 50.804688 72.378906 C 50.804688 78.53125 55.683594 83.535156 61.679688 83.535156 C 67.675781 83.535156 72.558594 78.53125 72.558594 72.378906 C 72.558594 66.464844 68.050781 61.613281 62.378906 61.242188 " fill-opacity="1" fill-rule="nonzero"/></g><g clip-path="url(#id3)"><path fill="#11468c" d="M 69.40625 78.058594 L 70.132812 77.882812 L 60.199219 34.027344 L 59.472656 34.203125 L 69.40625 78.058594 " fill-opacity="1" fill-rule="nonzero"/><path fill="#4d429a" d="M 59.691406 34.347656 L 69.542969 77.828125 L 69.910156 77.738281 L 60.058594 34.257812 Z M 69.269531 78.289062 L 69.226562 78.105469 L 59.25 34.0625 L 60.332031 33.796875 L 70.351562 78.023438 L 69.269531 78.289062 " fill-opacity="1" fill-rule="nonzero"/></g><g clip-path="url(#id4)"><path fill="#1b2985" d="M 75.480469 80.828125 C 75.09375 80.34375 74.203125 79.449219 72.121094 79.128906 C 72.394531 78.800781 72.636719 78.367188 72.527344 77.933594 C 72.425781 77.53125 72.0625 77.324219 71.980469 77.273438 C 71.414062 76.953125 70.9375 77.367188 69.582031 77.699219 C 68.25 78.023438 67.667969 77.875 67.3125 78.417969 C 67.277344 78.476562 67.054688 78.828125 67.136719 79.257812 C 67.222656 79.691406 67.609375 79.96875 67.980469 80.140625 C 66.277344 81.390625 65.816406 82.621094 65.675781 83.234375 C 65.054688 85.949219 67.324219 88.835938 71.714844 94.464844 C 72.667969 95.691406 73.5 96.671875 74.03125 97.339844 C 74.335938 96.46875 74.601562 95.21875 74.929688 93.675781 C 76.441406 86.597656 77.203125 82.96875 75.480469 80.828125 " fill-opacity="1" fill-rule="nonzero"/></g><g clip-path="url(#id5)"><path fill="#4d429a" d="M 71.550781 77.351562 C 71.347656 77.351562 71.109375 77.425781 70.730469 77.554688 C 70.441406 77.652344 70.078125 77.773438 69.621094 77.886719 C 69.179688 77.992188 68.8125 78.050781 68.519531 78.097656 C 67.90625 78.191406 67.652344 78.242188 67.464844 78.527344 C 67.414062 78.605469 67.253906 78.886719 67.316406 79.21875 C 67.375 79.515625 67.625 79.765625 68.054688 79.96875 L 68.351562 80.105469 L 68.085938 80.296875 C 66.546875 81.429688 66.023438 82.542969 65.855469 83.277344 C 65.257812 85.882812 67.433594 88.675781 71.773438 94.238281 L 71.855469 94.34375 C 72.453125 95.113281 73.011719 95.796875 73.460938 96.34375 C 73.644531 96.566406 73.8125 96.773438 73.960938 96.957031 C 74.214844 96.140625 74.449219 95.050781 74.734375 93.71875 L 74.75 93.632812 C 76.210938 86.796875 77.015625 83.03125 75.339844 80.953125 C 74.648438 80.09375 73.558594 79.542969 72.097656 79.320312 L 71.765625 79.269531 L 71.984375 79.003906 C 72.300781 78.617188 72.421875 78.273438 72.347656 77.984375 C 72.277344 77.699219 72.03125 77.523438 71.890625 77.441406 C 71.777344 77.378906 71.671875 77.351562 71.550781 77.351562 Z M 74.09375 97.71875 L 73.886719 97.460938 C 73.691406 97.214844 73.457031 96.925781 73.183594 96.59375 C 72.730469 96.042969 72.171875 95.359375 71.570312 94.585938 L 71.488281 94.480469 C 67.074219 88.820312 64.855469 85.976562 65.496094 83.191406 C 65.667969 82.429688 66.183594 81.304688 67.632812 80.167969 C 67.253906 79.933594 67.027344 79.640625 66.957031 79.292969 C 66.863281 78.816406 67.089844 78.421875 67.160156 78.308594 C 67.445312 77.878906 67.851562 77.816406 68.464844 77.71875 C 68.75 77.671875 69.109375 77.617188 69.539062 77.511719 C 69.980469 77.40625 70.335938 77.285156 70.617188 77.191406 C 71.222656 76.988281 71.617188 76.851562 72.066406 77.105469 C 72.257812 77.214844 72.597656 77.460938 72.703125 77.886719 C 72.792969 78.230469 72.707031 78.601562 72.453125 78.992188 C 73.855469 79.257812 74.921875 79.835938 75.621094 80.707031 C 77.414062 82.933594 76.59375 86.761719 75.109375 93.71875 L 75.09375 93.800781 C 74.765625 95.332031 74.507812 96.539062 74.203125 97.40625 L 74.09375 97.71875 " fill-opacity="1" fill-rule="nonzero"/></g><path fill="#004aad" d="M 67.921875 78.433594 C 67.917969 78.382812 68.632812 78.40625 69.667969 78.09375 C 70.273438 77.90625 70.851562 77.648438 71.605469 77.746094 C 71.757812 77.769531 71.941406 77.804688 72.03125 77.949219 C 72.238281 78.285156 71.832031 79 71.589844 78.976562 C 71.4375 78.957031 71.480469 78.65625 71.246094 78.441406 C 70.933594 78.15625 70.472656 78.328125 69.726562 78.425781 C 68.765625 78.558594 67.925781 78.488281 67.921875 78.433594 " fill-opacity="1" fill-rule="nonzero"/><path fill="#004aad" d="M 71.566406 79.984375 C 72.15625 79.488281 73.605469 80.121094 74.449219 81.027344 C 75.4375 82.09375 75.621094 83.585938 75.4375 86.328125 C 75.289062 88.597656 74.882812 91.78125 73.753906 95.5625 C 73.867188 93.691406 73.878906 90.734375 73.089844 87.253906 C 72.191406 83.3125 70.71875 80.699219 71.566406 79.984375 " fill-opacity="1" fill-rule="nonzero"/></svg>