<svg xmlns="http://www.w3.org/2000/svg" xmlns:xlink="http://www.w3.org/1999/xlink" width="120" zoomAndPan="magnify" viewBox="0 0 90 97.5" height="130" preserveAspectRatio="xMidYMid meet" version="1.0"><defs><clipPath id="id1"><path d="M 20 75.460938 L 74.398438 75.460938 L 74.398438 97.003906 L 20 97.003906 Z M 20 75.460938 " clip-rule="nonzero"/></clipPath><clipPath id="id2"><path d="M 2.320312 34 L 8 34 L 8 38 L 2.320312 38 Z M 2.320312 34 " clip-rule="nonzero"/></clipPath><clipPath id="id3"><path d="M 2.320312 41 L 7 41 L 7 44 L 2.320312 44 Z M 2.320312 41 " clip-rule="nonzero"/></clipPath><clipPath id="id4"><path d="M 84.425781 43 L 87.363281 43 L 87.363281 45.503906 L 84.425781 45.503906 Z M 84.425781 43 " clip-rule="nonzero"/></clipPath></defs><path fill="#3c3c3c" d="M 73.347656 82.679688 C 71.453125 82.878906 69.480469 82.949219 69.246094 82.289062 C 68.589844 80.457031 66.285156 79.917969 66.527344 79.6875 C 66.621094 79.597656 67.441406 79.640625 68.800781 79.890625 C 69.46875 80.011719 71.464844 80.664062 72.128906 80.800781 C 72.46875 80.875 72.75 80.992188 72.992188 81.117188 C 73.96875 81.617188 75.644531 81.769531 76.929688 82.078125 C 77.628906 82.246094 78.207031 82.640625 78.503906 82.738281 C 78.160156 82.320312 77.632812 82.171875 77.351562 82.066406 C 76.851562 81.871094 76.417969 81.683594 75.960938 81.605469 C 75.199219 81.472656 74.722656 81.425781 74.167969 81.152344 C 72.828125 80.492188 72.074219 80.179688 70.777344 79.976562 C 70.832031 79.835938 73.113281 79.644531 74.085938 79.6875 C 75.105469 79.726562 76.769531 79.984375 78.003906 79.914062 C 78.445312 79.890625 78.828125 79.8125 79.246094 79.765625 C 79.667969 79.722656 80.171875 79.84375 80.632812 79.949219 C 80.230469 79.703125 79.410156 79.617188 78.777344 79.636719 C 78.148438 79.65625 77.570312 79.742188 76.902344 79.707031 C 75.921875 79.652344 74.964844 79.332031 73.980469 79.265625 C 72.691406 79.175781 71.699219 79.542969 70.40625 79.460938 C 69.6875 79.414062 69.015625 79.199219 68.289062 79.101562 C 66.484375 78.851562 63.488281 79.234375 60.882812 79.085938 C 59.535156 79.007812 58 79.035156 56.855469 78.699219 C 55.925781 78.429688 54.015625 77.230469 53.917969 77.070312 C 53.628906 76.609375 54.929688 76.273438 55.925781 76.371094 C 56.921875 76.472656 57.675781 76.605469 58.675781 76.703125 C 59.882812 76.820312 61.175781 76.777344 62.386719 76.722656 C 63.378906 76.675781 65.453125 76.601562 66.453125 76.683594 C 68.195312 76.824219 68.878906 77.113281 70.617188 77.261719 C 69.636719 77.046875 68.636719 76.847656 67.671875 76.617188 C 66.507812 76.339844 64.863281 76.382812 64.191406 76.382812 C 57.421875 76.417969 57.726562 75.261719 53.6875 75.007812 C 51.8125 74.894531 48.539062 74.855469 46.660156 74.914062 C 45.425781 74.953125 44.191406 75.230469 42.957031 75.238281 C 42.320312 75.246094 41.683594 75.25 41.046875 75.253906 C 40.738281 75.253906 40.359375 74.816406 40.234375 74.929688 C 39.652344 74.871094 38.148438 75.164062 38.074219 75.171875 C 37.226562 75.238281 36.265625 75.203125 35.457031 75.332031 C 34.800781 75.4375 33.621094 75.722656 33.246094 76.019531 C 32.332031 76.410156 31.445312 76.851562 30.296875 77.050781 C 29.816406 77.132812 29.300781 77.171875 28.835938 77.277344 C 27.808594 77.503906 27.15625 78.015625 26.183594 78.296875 C 25.226562 78.570312 24.070312 78.597656 22.996094 78.570312 C 21.921875 78.539062 20.847656 78.464844 19.765625 78.558594 C 18.683594 78.652344 17.558594 78.960938 17.152344 79.445312 C 18.128906 78.847656 19.949219 78.785156 21.453125 78.878906 C 22.953125 78.972656 24.5625 79.152344 25.980469 78.820312 C 27.03125 78.574219 27.800781 78.078125 28.894531 77.890625 C 29.285156 77.824219 29.769531 77.816406 30.015625 77.957031 C 30.234375 78.089844 30.113281 78.28125 30.035156 78.449219 C 29.648438 79.28125 28.890625 79.394531 28.0625 79.777344 C 27.464844 80.050781 26.816406 80.171875 26.078125 80.355469 C 24.839844 80.65625 23.449219 80.855469 22.101562 80.980469 C 20.757812 81.101562 19.339844 81.304688 18.382812 81.785156 C 17.832031 82.066406 17.476562 82.410156 16.964844 82.703125 C 15.78125 83.367188 14.074219 83.832031 13.558594 84.636719 C 13.265625 85.089844 13.230469 85.488281 13.207031 85.949219 C 13.183594 86.398438 12.847656 86.855469 12.253906 87.234375 C 12.929688 86.785156 13.542969 86.46875 13.8125 85.949219 C 14.113281 85.371094 13.929688 84.796875 14.757812 84.320312 C 15.464844 83.910156 16.722656 83.316406 17.511719 82.933594 C 18.011719 82.691406 18.347656 82.523438 18.804688 82.265625 C 19.835938 81.683594 21.09375 81.59375 22.621094 81.394531 C 24.144531 81.195312 26.019531 80.851562 27.488281 80.558594 C 28.953125 80.265625 30.441406 79.570312 30.894531 78.855469 C 31.097656 78.527344 31.003906 78.351562 31.238281 78.027344 C 31.648438 77.449219 32.753906 77.023438 33.902344 76.734375 C 35.050781 76.445312 35.589844 76.148438 37.566406 76.125 C 37.988281 76.121094 40.179688 75.914062 41.09375 76.453125 C 41.585938 76.746094 41.054688 77.101562 40.644531 77.429688 C 39.703125 78.183594 37.957031 78.613281 36.410156 79.105469 C 34.863281 79.59375 33.316406 80.285156 33.21875 81.148438 C 33.164062 81.640625 33.242188 82.097656 33.726562 82.589844 C 34.164062 83.023438 34.695312 83.390625 33.039062 83.679688 C 32.164062 83.835938 30.65625 83.769531 29.808594 83.957031 C 28.90625 84.15625 28.488281 84.585938 27.757812 84.910156 C 26.757812 85.355469 25.390625 85.359375 24.054688 85.445312 C 22.007812 85.582031 20.179688 86.339844 19.492188 87.25 C 19.902344 86.882812 20.796875 86.660156 21.53125 86.402344 C 23.191406 85.824219 25.355469 86 26.65625 85.796875 C 26.175781 86.46875 26.867188 87.574219 27.207031 88.25 C 27.578125 88.992188 26.921875 89.003906 26.789062 89.933594 C 26.691406 90.582031 27.261719 91.339844 28.554688 91.554688 C 27.765625 91.257812 27.582031 90.722656 27.6875 90.242188 C 27.792969 89.761719 28.132812 89.289062 28.160156 88.804688 C 28.222656 87.8125 26.796875 86.652344 28.007812 85.808594 C 28.894531 85.191406 29.136719 84.707031 30.550781 84.457031 C 32.636719 84.085938 34.84375 84.324219 35.53125 83.488281 C 35.832031 83.125 35.234375 82.621094 35.074219 82.246094 C 34.148438 80.058594 38.40625 79.542969 38.738281 79.695312 C 39.210938 79.90625 38.160156 80.59375 38.898438 81.226562 C 39.390625 81.652344 40.609375 81.839844 40.882812 82.308594 C 41.140625 82.75 40.316406 83.164062 40.074219 83.613281 C 39.570312 84.539062 41.609375 85.472656 40.914062 86.371094 C 40.25 87.234375 37.785156 87.320312 36.117188 87.792969 C 33.632812 88.503906 33.160156 90.378906 35.234375 91.28125 C 33.835938 90.054688 34.386719 88.609375 36.726562 88.234375 C 37.753906 88.066406 38.980469 87.917969 39.917969 87.652344 C 40.832031 87.394531 41.464844 86.597656 42.515625 86.574219 C 43.304688 86.558594 43.878906 87.492188 44.261719 87.816406 C 44.640625 88.136719 44.828125 88.507812 45.226562 88.828125 C 45.875 89.347656 47.097656 89.796875 46.929688 90.398438 C 46.847656 90.699219 46.738281 90.917969 46.730469 91.28125 C 47.570312 90.722656 47.644531 89.929688 46.910156 89.351562 C 46.457031 88.996094 45.734375 88.714844 45.484375 88.320312 C 45.320312 88.058594 44.691406 86.988281 44.441406 86.742188 C 43.527344 85.855469 42.476562 86.042969 41.808594 85.109375 C 40.429688 83.191406 43.367188 83.269531 42.730469 82.398438 C 42.167969 81.628906 39.808594 81.226562 40.035156 80.410156 C 40.191406 79.851562 41.53125 79.539062 42.089844 79.035156 C 42.332031 78.816406 42.421875 78.5625 42.671875 78.347656 C 43.101562 77.972656 44.03125 77.742188 44.917969 77.789062 C 45.808594 77.835938 46.027344 78.304688 46.257812 78.710938 C 46.769531 79.605469 45.316406 80.367188 45.847656 81.257812 C 46.015625 81.535156 46.421875 81.785156 46.382812 82.074219 C 46.347656 82.347656 45.921875 82.566406 45.644531 82.808594 C 45.011719 83.359375 45.199219 84.089844 46.089844 84.546875 C 46.992188 85.011719 48.398438 85.15625 49.585938 85.449219 C 50.773438 85.746094 51.859375 86.382812 51.328125 86.964844 C 52.054688 86.472656 51.945312 85.742188 51.078125 85.308594 C 50.355469 84.941406 49.273438 84.804688 48.34375 84.570312 C 47.410156 84.332031 46.53125 83.878906 46.777344 83.394531 C 46.992188 82.964844 47.996094 82.6875 48.101562 82.253906 C 48.144531 82.070312 48.152344 81.867188 47.996094 81.699219 C 46.667969 80.242188 48.363281 78.976562 52.128906 80.5 C 53.382812 81.007812 52.34375 81.921875 53.328125 82.285156 C 54.457031 82.695312 57.410156 82.167969 58.058594 82.773438 C 58.667969 83.335938 56.5 84.386719 56.554688 85.019531 C 56.613281 85.652344 57.882812 86.132812 58.167969 86.753906 C 58.5625 87.613281 57 88.390625 56.6875 89.257812 C 56.421875 90.011719 57.199219 90.820312 58.570312 91.214844 C 57.347656 90.78125 57.414062 89.898438 57.914062 89.214844 C 58.417969 88.53125 59.246094 87.867188 59.140625 87.144531 C 59.042969 86.488281 58.183594 85.90625 57.921875 85.257812 C 57.65625 84.613281 58.480469 83.941406 59.867188 83.851562 C 63.210938 83.640625 61.953125 85.457031 63.386719 86.164062 C 64.726562 86.828125 68.179688 87.257812 68.175781 88.496094 C 68.175781 89.054688 68.050781 89.777344 67.011719 90.0625 C 69.066406 89.578125 69.710938 88.175781 68.25 87.328125 C 67.042969 86.628906 63.257812 85.816406 63.875 85.140625 C 63.675781 85.359375 67.285156 85.546875 70.226562 85.207031 C 71.957031 85.007812 73.769531 85.527344 74.253906 86.320312 C 73.847656 85.652344 72.964844 85.128906 71.699219 84.953125 C 70.433594 84.773438 69.488281 84.917969 68.183594 84.941406 C 66.878906 84.960938 65.089844 85.050781 64.167969 84.609375 C 63.492188 84.28125 63.527344 83.621094 62.714844 83.367188 C 61.96875 83.136719 60.945312 83.15625 60.261719 82.882812 C 59.726562 82.671875 59.523438 82.328125 59.070312 82.078125 C 57.710938 81.332031 54.386719 82.390625 54.300781 81.421875 C 54.1875 80.183594 52.566406 79.542969 50.949219 79.320312 C 49.882812 79.175781 48.804688 78.933594 48.230469 78.484375 C 47.660156 78.039062 47.769531 77.375 48.6875 77.082031 C 49.609375 76.789062 50.914062 76.980469 51.75 77.332031 C 52.582031 77.683594 53.117188 78.164062 53.828125 78.570312 C 55.527344 79.542969 58.6875 79.898438 61.3125 79.777344 C 62.082031 79.734375 66.769531 79.601562 67.878906 81.953125 C 68.160156 82.546875 68.738281 83.195312 69.929688 83.457031 C 71.359375 83.765625 73.226562 82.894531 74.625 83.242188 C 75.78125 83.527344 75.984375 84.597656 76.671875 85.105469 C 77.441406 85.671875 78.945312 85.839844 80.25 86.144531 C 78.261719 85.683594 77.246094 84.9375 76.609375 84.257812 C 75.882812 83.484375 75.476562 82.460938 73.347656 82.679688 " fill-opacity="1" fill-rule="nonzero"/><g clip-path="url(#id1)"><path fill="#3c3c3c" d="M 25.886719 85.550781 C 27.390625 85.863281 28.957031 85.988281 29.144531 85.113281 C 29.660156 82.671875 31.492188 82 31.296875 81.6875 C 31.222656 81.5625 30.574219 81.609375 29.492188 81.910156 C 28.960938 82.058594 27.378906 82.882812 26.851562 83.054688 C 26.582031 83.144531 26.355469 83.296875 26.164062 83.457031 C 25.390625 84.105469 24.058594 84.269531 23.039062 84.652344 C 22.484375 84.859375 22.023438 85.375 21.789062 85.5 C 22.058594 84.941406 22.476562 84.757812 22.703125 84.621094 C 23.097656 84.371094 23.445312 84.128906 23.808594 84.035156 C 24.414062 83.878906 24.789062 83.832031 25.230469 83.476562 C 26.296875 82.617188 26.890625 82.21875 27.921875 81.984375 C 27.878906 81.792969 26.066406 81.476562 25.292969 81.5 C 24.480469 81.523438 23.160156 81.816406 22.179688 81.679688 C 21.824219 81.632812 21.519531 81.511719 21.1875 81.4375 C 20.851562 81.359375 20.449219 81.503906 20.082031 81.628906 C 20.402344 81.3125 21.054688 81.226562 21.558594 81.273438 C 22.058594 81.324219 22.519531 81.464844 23.050781 81.4375 C 23.828125 81.394531 24.59375 80.996094 25.375 80.9375 C 26.398438 80.859375 27.191406 81.375 28.214844 81.296875 C 28.789062 81.253906 29.324219 80.984375 29.898438 80.867188 C 31.332031 80.578125 33.710938 81.144531 35.777344 80.976562 C 36.84375 80.890625 38.0625 80.941406 38.972656 80.511719 C 39.707031 80.160156 41.222656 78.601562 41.304688 78.390625 C 41.53125 77.789062 40.5 77.335938 39.710938 77.457031 C 38.917969 77.578125 38.324219 77.742188 37.53125 77.859375 C 36.570312 77.996094 35.546875 77.921875 34.585938 77.824219 C 33.792969 77.746094 32.148438 77.605469 31.351562 77.6875 C 29.96875 77.832031 29.425781 78.195312 28.042969 78.34375 C 28.824219 78.085938 29.617188 77.847656 30.386719 77.566406 C 31.3125 77.230469 32.617188 77.324219 33.148438 77.339844 C 38.527344 77.515625 38.28125 75.96875 41.488281 75.683594 C 42.972656 75.554688 45.570312 75.515625 47.0625 75.589844 C 48.039062 75.636719 49.015625 75.988281 49.996094 75.996094 C 50.5 76 51.007812 76 51.511719 76 C 51.753906 75.996094 52.058594 75.425781 52.15625 75.570312 C 52.617188 75.488281 53.566406 75.886719 53.6875 75.859375 C 53.746094 75.84375 53.804688 75.851562 53.867188 75.859375 C 54.539062 75.933594 55.296875 75.878906 55.9375 76.03125 C 56.457031 76.15625 57.394531 76.503906 57.691406 76.878906 C 58.414062 77.367188 59.117188 77.917969 60.027344 78.152344 C 60.40625 78.25 60.8125 78.285156 61.183594 78.410156 C 61.996094 78.679688 62.511719 79.320312 63.28125 79.65625 C 64.039062 79.984375 64.953125 79.984375 65.808594 79.914062 C 66.660156 79.839844 67.511719 79.703125 68.371094 79.785156 C 69.226562 79.867188 70.121094 80.222656 70.441406 80.832031 C 69.667969 80.097656 68.222656 80.085938 67.03125 80.257812 C 65.839844 80.433594 64.5625 80.714844 63.4375 80.328125 C 62.605469 80.042969 62 79.421875 61.132812 79.207031 C 60.824219 79.132812 60.441406 79.128906 60.246094 79.324219 C 60.070312 79.496094 60.167969 79.742188 60.226562 79.960938 C 60.53125 81.027344 61.132812 81.152344 61.785156 81.625 C 62.257812 81.96875 62.773438 82.105469 63.359375 82.316406 C 64.335938 82.671875 65.441406 82.890625 66.507812 83.003906 C 67.574219 83.113281 68.695312 83.328125 69.453125 83.917969 C 69.886719 84.253906 70.167969 84.6875 70.574219 85.046875 C 71.507812 85.867188 72.859375 86.398438 73.265625 87.417969 C 73.496094 87.996094 73.519531 88.507812 73.539062 89.109375 C 73.554688 89.691406 73.820312 90.269531 74.285156 90.734375 C 73.753906 90.179688 73.269531 89.796875 73.058594 89.128906 C 72.824219 88.390625 72.96875 87.644531 72.316406 87.058594 C 71.757812 86.554688 70.761719 85.835938 70.136719 85.371094 C 69.746094 85.074219 69.476562 84.871094 69.113281 84.550781 C 68.300781 83.835938 67.300781 83.769531 66.09375 83.558594 C 64.886719 83.347656 63.402344 82.964844 62.238281 82.625 C 61.078125 82.289062 59.902344 81.421875 59.546875 80.503906 C 59.382812 80.085938 59.460938 79.855469 59.277344 79.4375 C 58.949219 78.699219 58.078125 78.171875 57.167969 77.820312 C 56.261719 77.46875 55.832031 77.089844 54.265625 77.089844 C 53.929688 77.089844 52.195312 76.851562 51.46875 77.5625 C 51.078125 77.945312 51.496094 78.402344 51.824219 78.824219 C 52.566406 79.792969 53.949219 80.332031 55.171875 80.941406 C 56.398438 81.550781 57.621094 82.414062 57.695312 83.53125 C 57.738281 84.167969 57.675781 84.761719 57.289062 85.40625 C 56.941406 85.980469 56.519531 86.46875 57.828125 86.808594 C 58.523438 86.988281 59.714844 86.863281 60.386719 87.085938 C 61.101562 87.320312 61.429688 87.867188 62.007812 88.265625 C 62.800781 88.8125 63.882812 88.777344 64.941406 88.851562 C 66.5625 88.960938 68.007812 89.882812 68.546875 91.03125 C 68.222656 90.570312 67.519531 90.316406 66.9375 90.007812 C 65.621094 89.3125 63.910156 89.609375 62.875 89.382812 C 63.257812 90.238281 62.703125 91.691406 62.433594 92.574219 C 62.132812 93.546875 62.652344 93.542969 62.757812 94.742188 C 62.832031 95.582031 62.375 96.574219 61.351562 96.890625 C 61.980469 96.488281 62.125 95.789062 62.042969 95.167969 C 61.960938 94.546875 61.695312 93.945312 61.675781 93.320312 C 61.628906 92.035156 62.761719 90.492188 61.808594 89.4375 C 61.105469 88.660156 60.917969 88.042969 59.796875 87.753906 C 58.144531 87.328125 56.398438 87.679688 55.859375 86.613281 C 55.621094 86.144531 56.09375 85.480469 56.222656 84.988281 C 56.964844 82.136719 53.589844 81.542969 53.328125 81.742188 C 52.953125 82.023438 53.78125 82.902344 53.199219 83.734375 C 52.804688 84.292969 51.839844 84.554688 51.621094 85.175781 C 51.417969 85.75 52.066406 86.277344 52.257812 86.851562 C 52.65625 88.050781 51.039062 89.296875 51.585938 90.457031 C 52.109375 91.566406 54.058594 91.628906 55.378906 92.210938 C 57.347656 93.074219 57.710938 95.488281 56.070312 96.714844 C 57.175781 95.085938 56.75 93.226562 54.898438 92.789062 C 54.082031 92.597656 53.113281 92.425781 52.375 92.101562 C 51.648438 91.785156 51.152344 90.761719 50.316406 90.746094 C 49.695312 90.734375 49.234375 91.960938 48.9375 92.386719 C 48.636719 92.8125 48.484375 93.296875 48.167969 93.71875 C 47.65625 94.40625 46.6875 95.011719 46.816406 95.796875 C 46.882812 96.1875 46.96875 96.472656 46.976562 96.941406 C 46.308594 96.230469 46.253906 95.195312 46.835938 94.429688 C 47.195312 93.960938 47.765625 93.582031 47.964844 93.0625 C 48.097656 92.71875 48.59375 91.3125 48.792969 90.992188 C 49.519531 89.824219 50.351562 90.050781 50.882812 88.828125 C 51.980469 86.3125 49.652344 86.457031 50.160156 85.3125 C 50.605469 84.304688 52.476562 83.75 52.296875 82.695312 C 52.175781 81.964844 51.117188 81.578125 50.675781 80.925781 C 50.484375 80.644531 50.414062 80.316406 50.214844 80.039062 C 49.875 79.554688 49.136719 79.261719 48.433594 79.328125 C 47.730469 79.394531 47.554688 80.007812 47.371094 80.539062 C 46.964844 81.710938 48.113281 82.691406 47.691406 83.855469 C 47.558594 84.21875 47.234375 84.554688 47.265625 84.929688 C 47.296875 85.28125 47.628906 85.566406 47.847656 85.875 C 48.347656 86.589844 48.199219 87.546875 47.496094 88.148438 C 46.777344 88.765625 45.664062 88.96875 44.722656 89.363281 C 43.785156 89.757812 42.921875 90.601562 43.34375 91.359375 C 42.769531 90.722656 42.855469 89.765625 43.542969 89.1875 C 44.117188 88.703125 44.972656 88.515625 45.710938 88.203125 C 46.449219 87.886719 47.148438 87.285156 46.949219 86.652344 C 46.78125 86.097656 45.988281 85.742188 45.90625 85.175781 C 45.871094 84.933594 45.863281 84.671875 45.988281 84.445312 C 47.046875 82.539062 45.703125 80.898438 42.71875 82.890625 C 41.722656 83.558594 42.546875 84.757812 41.765625 85.234375 C 40.871094 85.777344 38.53125 85.078125 38.015625 85.867188 C 37.53125 86.609375 39.25 88 39.207031 88.832031 C 39.160156 89.667969 38.15625 90.300781 37.929688 91.117188 C 37.613281 92.253906 38.851562 93.269531 39.097656 94.414062 C 39.308594 95.398438 38.695312 96.46875 37.605469 97.003906 C 38.574219 96.421875 38.523438 95.257812 38.125 94.359375 C 37.730469 93.460938 37.074219 92.589844 37.15625 91.636719 C 37.234375 90.773438 37.914062 90 38.125 89.148438 C 38.335938 88.292969 37.679688 87.40625 36.582031 87.285156 C 33.933594 86.988281 34.929688 89.398438 33.796875 90.335938 C 32.730469 91.214844 29.996094 91.769531 30 93.417969 C 30 94.164062 30.101562 95.132812 30.925781 95.511719 C 29.296875 94.867188 28.78125 92.980469 29.9375 91.859375 C 30.894531 90.933594 33.894531 89.871094 33.40625 88.972656 C 33.566406 89.265625 30.703125 89.496094 28.367188 89.003906 C 26.996094 88.714844 25.558594 89.378906 25.175781 90.445312 C 25.496094 89.550781 26.195312 88.859375 27.199219 88.640625 C 28.203125 88.421875 28.953125 88.625 29.988281 88.667969 C 31.023438 88.714844 32.445312 88.847656 33.171875 88.265625 C 33.710938 87.835938 33.683594 86.960938 34.324219 86.632812 C 34.917969 86.328125 35.726562 86.359375 36.269531 86.007812 C 36.695312 85.730469 36.855469 85.277344 37.214844 84.949219 C 38.292969 83.972656 40.925781 85.378906 40.996094 84.101562 C 41.085938 82.472656 42.371094 81.640625 43.65625 81.347656 C 44.5 81.15625 45.355469 80.839844 45.808594 80.253906 C 46.265625 79.667969 46.175781 78.800781 45.449219 78.417969 C 44.71875 78.039062 43.6875 78.285156 43.023438 78.742188 C 42.359375 79.199219 41.9375 79.828125 41.371094 80.359375 C 40.023438 81.628906 37.519531 82.078125 35.4375 81.886719 C 34.828125 81.828125 31.105469 81.566406 30.226562 84.6875 C 30.003906 85.46875 29.546875 86.332031 28.601562 86.664062 C 27.46875 87.054688 25.984375 85.847656 24.875 86.28125 C 23.953125 86.640625 23.796875 88.085938 23.253906 88.757812 C 22.640625 89.511719 21.449219 89.710938 20.414062 90.09375 C 21.992188 89.507812 22.796875 88.515625 23.300781 87.609375 C 23.875 86.582031 24.195312 85.207031 25.886719 85.550781 " fill-opacity="1" fill-rule="nonzero"/></g><path fill="#3c3c3c" d="M 68.230469 39.5625 L 68.5 39.460938 L 68.625 39.5 C 69.871094 39.894531 70.964844 40.179688 71.96875 40.367188 C 72.949219 40.542969 73.953125 40.667969 74.964844 40.746094 C 74.671875 40.699219 74.378906 40.652344 74.089844 40.601562 C 72.964844 40.398438 71.644531 40.046875 70.175781 39.554688 L 69.15625 39.210938 L 70.433594 38.738281 C 74.210938 37.347656 76.65625 35.597656 78.230469 34.011719 C 76.902344 34.902344 75.351562 35.664062 73.839844 36.34375 L 73.160156 36.648438 L 73.3125 35.921875 C 73.542969 34.824219 73.847656 33.902344 74.226562 33.183594 C 74.027344 33.472656 73.839844 33.789062 73.667969 34.121094 C 73.335938 34.773438 73.0625 35.609375 72.851562 36.597656 L 72.8125 36.792969 L 72.628906 36.871094 C 70.46875 37.777344 68.128906 38.660156 65.871094 39.511719 C 63.605469 40.363281 61.464844 41.171875 59.640625 41.953125 L 58.589844 42.398438 L 59.164062 41.410156 C 59.574219 40.707031 59.914062 40.054688 60.203125 39.410156 C 60.613281 38.496094 61.039062 37.339844 61.488281 36.113281 L 61.605469 35.792969 L 61.847656 35.773438 C 63.066406 35.675781 64.070312 35.523438 64.910156 35.308594 C 65.191406 35.238281 65.464844 35.160156 65.730469 35.078125 C 64.789062 35.28125 63.628906 35.421875 62.28125 35.5 L 61.699219 35.53125 L 61.902344 34.988281 C 62.734375 32.761719 63.992188 29.386719 66.046875 26.59375 C 64.703125 27.863281 63.394531 29.511719 62.503906 31.589844 C 62.402344 31.828125 62.304688 32.058594 62.210938 32.289062 L 61.777344 33.328125 L 61.492188 32.238281 C 61.164062 30.976562 60.976562 29.839844 60.933594 28.867188 C 60.910156 28.253906 60.910156 27.425781 61 26.464844 C 60.730469 27.738281 60.589844 29.179688 60.703125 30.738281 C 60.777344 31.746094 60.996094 32.910156 61.363281 34.195312 L 61.398438 34.320312 L 61.316406 34.535156 C 60.167969 37.496094 59.347656 40.113281 56.847656 43.140625 L 56.4375 43.457031 C 55.011719 44.21875 53.589844 45.117188 52.21875 46.128906 L 51.75 46.476562 L 51.628906 45.90625 C 51.207031 43.988281 51.019531 42.292969 51.078125 40.867188 C 51.113281 40.003906 51.226562 38.78125 51.53125 37.355469 C 50.960938 39.015625 50.535156 40.964844 50.515625 43.097656 C 50.503906 44.207031 50.632812 45.480469 50.90625 46.886719 L 50.949219 47.109375 L 50.773438 47.253906 C 49.164062 48.5625 47.988281 49.738281 47.28125 50.492188 L 46.804688 51.003906 L 46.640625 50.320312 C 46.386719 49.285156 46.160156 48.039062 45.972656 47.035156 C 45.8125 46.164062 45.675781 45.414062 45.582031 45.121094 C 45.152344 43.75 45.953125 35.382812 47.675781 30.050781 L 47.703125 29.964844 L 47.949219 29.71875 C 48.847656 28.820312 49.558594 28.109375 50.449219 27.269531 L 50.917969 26.820312 C 52.8125 24.992188 55.535156 22.375 57.941406 19.046875 C 56.90625 20.363281 55.707031 21.675781 54.316406 22.917969 C 52.394531 24.648438 50.609375 26.292969 49.015625 27.804688 L 47.929688 28.714844 C 48.128906 28.132812 48.796875 26.246094 48.996094 25.6875 C 49.792969 23.429688 51.167969 19.523438 51.675781 14.808594 C 51.449219 16.289062 51.105469 17.816406 50.597656 19.347656 L 50.40625 19.925781 L 49.660156 19.1875 C 48.699219 18.234375 47.867188 17.414062 47.277344 16.402344 C 47.03125 15.976562 46.785156 15.542969 46.554688 15.089844 C 46.855469 15.792969 47.242188 16.53125 47.730469 17.300781 C 48.175781 18.003906 48.988281 19.011719 50.082031 20.214844 L 50.234375 20.386719 L 49.648438 21.992188 C 46.597656 30.355469 44.394531 36.398438 43.707031 41.027344 L 43.554688 42.042969 L 43.011719 41.171875 C 41.648438 38.992188 40.371094 36.589844 39.207031 34.03125 L 39.121094 33.839844 L 39.238281 33.664062 C 40.015625 32.484375 40.617188 31.398438 41.023438 30.4375 C 41.929688 28.308594 42.25 26.316406 42.289062 24.628906 C 42.039062 26.257812 41.597656 27.621094 41.242188 28.53125 C 40.804688 29.65625 40.09375 30.960938 39.128906 32.40625 L 38.738281 32.988281 L 38.464844 32.34375 C 37.417969 29.867188 36.460938 27.230469 35.621094 24.503906 L 35.566406 24.328125 L 35.675781 24.175781 C 36.484375 23.019531 37.054688 22.023438 37.429688 21.132812 C 37.765625 20.335938 37.988281 19.566406 38.128906 18.839844 C 38.011719 19.230469 37.890625 19.570312 37.78125 19.851562 C 37.410156 20.816406 36.773438 21.953125 35.882812 23.234375 L 35.429688 23.882812 L 35.210938 23.121094 C 34.179688 19.5625 33.488281 16.347656 33.042969 13.816406 C 33.132812 15.308594 33.335938 17.105469 33.746094 19.242188 L 33.917969 20.148438 L 33.160156 19.625 C 31.492188 18.476562 30.230469 17.433594 29.3125 16.441406 C 29.261719 16.386719 29.210938 16.328125 29.160156 16.273438 C 29.585938 16.828125 30.058594 17.378906 30.585938 17.917969 C 31.433594 18.785156 32.53125 19.6875 33.9375 20.671875 L 34.058594 20.757812 L 34.089844 20.902344 C 34.691406 23.609375 35.558594 26.5625 36.660156 29.679688 L 36.945312 30.488281 L 36.160156 30.15625 C 33.054688 28.859375 25.457031 25.460938 21.96875 21.917969 C 21.882812 21.832031 21.800781 21.742188 21.714844 21.648438 C 22.160156 22.21875 22.660156 22.777344 23.226562 23.324219 C 26.542969 26.523438 32.425781 29.484375 36.722656 31.648438 L 36.953125 31.765625 L 37.007812 31.902344 C 37.175781 32.351562 37.351562 32.8125 37.527344 33.277344 C 38.519531 35.917969 39.644531 38.910156 41.175781 42.132812 L 41.507812 42.835938 L 40.75 42.667969 C 38.570312 42.183594 37.203125 41.597656 35.621094 40.925781 L 35.339844 40.804688 C 33.285156 39.933594 31.355469 38.875 29.625 37.695312 C 31.539062 39.34375 34.160156 41.136719 37.570312 42.515625 C 38.109375 42.734375 38.527344 42.941406 38.929688 43.140625 C 39.679688 43.507812 40.328125 43.828125 41.503906 44.105469 L 41.679688 44.148438 L 41.757812 44.304688 C 41.898438 44.589844 42.933594 50.359375 42.945312 50.417969 L 43.0625 51.066406 C 43.097656 51.167969 42.316406 50.761719 42.324219 50.769531 C 42.226562 50.695312 41.574219 50.351562 40.820312 49.953125 C 36.074219 47.445312 23.457031 40.777344 18.621094 35.011719 C 18.054688 34.304688 17.53125 33.492188 17.058594 32.597656 C 17.726562 34.046875 18.625 35.542969 19.832031 36.976562 C 22.671875 40.363281 27.03125 42.929688 31.242188 45.414062 L 32.746094 46.484375 L 31.273438 46.285156 C 24.171875 45.054688 17.9375 43.230469 12.664062 40.835938 C 14.71875 41.910156 17.550781 43.121094 21.5 44.339844 L 22.457031 44.632812 L 21.507812 45.0625 C 20.835938 45.289062 20.207031 45.464844 19.636719 45.578125 C 19.164062 45.675781 18.683594 45.753906 18.195312 45.816406 C 19.394531 45.777344 20.574219 45.636719 21.710938 45.390625 C 21.878906 45.355469 23 44.886719 23.113281 44.835938 C 26.5 45.851562 30.601562 46.914062 35.648438 48.078125 L 35.710938 48.09375 L 35.765625 48.128906 C 36.496094 48.589844 37.140625 49.019531 37.734375 49.441406 L 38.574219 50.03125 L 37.554688 50.128906 C 36.554688 50.222656 35.5625 50.484375 34.601562 50.910156 C 34.113281 51.128906 33.652344 51.421875 33.164062 51.734375 C 32.792969 51.972656 32.410156 52.21875 31.996094 52.441406 C 30.074219 53.46875 27.957031 53.851562 26.410156 54.128906 C 25.539062 54.285156 24.632812 54.40625 23.726562 54.484375 C 23.734375 54.484375 23.742188 54.484375 23.753906 54.484375 C 25.417969 54.484375 27.078125 54.332031 28.675781 54.027344 L 28.707031 54.019531 L 29.996094 53.820312 L 29.003906 54.695312 C 27.8125 55.59375 26.5 56.523438 25.027344 57.191406 C 25.8125 56.925781 26.730469 56.542969 27.800781 56 C 28.433594 55.671875 29.097656 55.3125 29.742188 54.96875 C 32.496094 53.480469 35.34375 51.9375 37.855469 51.9375 C 39.609375 51.9375 41.039062 52.714844 42.105469 54.242188 C 43.144531 55.734375 43.394531 57.671875 43.488281 59 C 43.929688 65.050781 42.867188 72.125 39.589844 75.105469 C 40.308594 75.167969 41.226562 75.652344 41.925781 75.652344 C 42.117188 75.652344 42.917969 76.035156 43.0625 76.027344 C 46.148438 75.8125 48.636719 75.40625 51.671875 75.265625 C 51.089844 73.484375 49.273438 67.050781 49.828125 62.921875 C 50.765625 55.964844 56.015625 55.160156 59.882812 55.160156 C 60.304688 55.160156 60.746094 55.167969 61.269531 55.1875 L 61.425781 55.195312 L 61.53125 55.304688 C 62.085938 55.894531 62.636719 56.398438 63.160156 56.8125 C 64.066406 57.519531 65.019531 58.097656 65.941406 58.566406 C 65.363281 58.164062 64.867188 57.789062 64.46875 57.492188 C 63.996094 57.132812 63.480469 56.636719 62.847656 55.929688 L 62.222656 55.226562 L 63.15625 55.296875 C 63.5 55.324219 63.851562 55.351562 64.203125 55.378906 C 65.320312 55.46875 66.472656 55.558594 67.707031 55.601562 C 68.304688 55.628906 68.882812 55.640625 69.421875 55.640625 C 70.199219 55.640625 70.882812 55.617188 71.484375 55.570312 C 69.152344 55.570312 66.660156 55.148438 64.246094 54.742188 C 62.582031 54.460938 60.859375 54.167969 59.238281 54.027344 L 57.867188 53.90625 L 59.109375 53.308594 C 59.625 53.058594 60.105469 52.789062 60.554688 52.515625 C 59.359375 53.050781 58.292969 53.378906 57.53125 53.574219 C 56.734375 53.773438 55.109375 54.089844 54.496094 54.207031 C 54.398438 54.226562 54.285156 54.25 54.285156 54.25 C 51.742188 54.792969 50.148438 55.910156 49.257812 56.753906 L 48.769531 57.21875 L 48.597656 56.414062 C 48.371094 55.339844 48.175781 54.410156 48.417969 53.710938 C 49.371094 50.964844 53.609375 47.070312 56.3125 45.183594 L 56.449219 45.085938 L 57.539062 45.335938 C 62.335938 46.425781 68.308594 47.78125 72.859375 47.78125 C 73.128906 47.78125 73.394531 47.773438 73.65625 47.765625 C 69.734375 47.578125 64.050781 46.480469 58.128906 44.75 L 57.292969 44.507812 L 58.042969 44.058594 C 61.109375 42.226562 64.410156 40.992188 68.230469 39.5625 " fill-opacity="1" fill-rule="nonzero"/><path fill="#3c3c3c" d="M 31.203125 2.15625 C 31.199219 2.167969 28.566406 5.726562 32.492188 8.40625 C 32.492188 8.417969 35.164062 4.988281 31.203125 2.15625 " fill-opacity="1" fill-rule="nonzero"/><path fill="#3c3c3c" d="M 3.835938 30.71875 C 3.839844 30.734375 3.527344 33.59375 7.226562 33.375 C 7.230469 33.390625 7.601562 30.460938 3.835938 30.71875 " fill-opacity="1" fill-rule="nonzero"/><path fill="#3c3c3c" d="M 7.761719 27.78125 C 7.765625 27.789062 7.601562 30.074219 10.570312 29.867188 C 10.574219 29.875 10.789062 27.558594 7.761719 27.78125 " fill-opacity="1" fill-rule="nonzero"/><path fill="#3c3c3c" d="M 34.75 3.226562 C 34.75 3.226562 32.898438 4.917969 34.652344 6.832031 C 34.652344 6.832031 36.503906 5.238281 34.75 3.226562 " fill-opacity="1" fill-rule="nonzero"/><path fill="#3c3c3c" d="M 36.015625 2.144531 C 36.015625 2.144531 35.519531 3.472656 37.011719 4.402344 C 37.105469 3.976562 37.507812 3.105469 36.015625 2.144531 " fill-opacity="1" fill-rule="nonzero"/><path fill="#3c3c3c" d="M 46.5625 1.523438 C 46.5625 1.511719 42.8125 3.855469 45.398438 7.917969 C 45.394531 7.90625 49.117188 5.773438 46.5625 1.523438 " fill-opacity="1" fill-rule="nonzero"/><path fill="#3c3c3c" d="M 50.511719 0.835938 C 50.507812 0.835938 47.902344 4.035156 51.875 7.289062 C 51.875 7.289062 54.519531 4.273438 50.511719 0.835938 " fill-opacity="1" fill-rule="nonzero"/><path fill="#3c3c3c" d="M 28.519531 6.8125 C 28.519531 6.828125 26.601562 10.667969 31.070312 12.59375 C 31.070312 12.613281 33.050781 8.835938 28.519531 6.8125 " fill-opacity="1" fill-rule="nonzero"/><path fill="#3c3c3c" d="M 36.832031 6.125 C 36.828125 6.105469 32.550781 7.925781 33.945312 12.277344 C 33.941406 12.261719 38.148438 10.640625 36.832031 6.125 " fill-opacity="1" fill-rule="nonzero"/><path fill="#3c3c3c" d="M 40.304688 6.914062 C 40.304688 6.902344 37.132812 8.148438 38.160156 11.410156 C 38.15625 11.402344 41.277344 10.289062 40.304688 6.914062 " fill-opacity="1" fill-rule="nonzero"/><path fill="#3c3c3c" d="M 48.542969 7.800781 C 48.539062 7.789062 45.363281 8.828125 46.382812 12.15625 C 46.382812 12.144531 49.503906 11.234375 48.542969 7.800781 " fill-opacity="1" fill-rule="nonzero"/><path fill="#3c3c3c" d="M 40.007812 1.222656 C 40.003906 1.210938 36.828125 2.46875 37.859375 5.726562 C 37.855469 5.714844 40.984375 4.59375 40.007812 1.222656 " fill-opacity="1" fill-rule="nonzero"/><path fill="#3c3c3c" d="M 42.609375 12.796875 C 42.609375 12.785156 39.21875 13.214844 39.238281 16.652344 C 39.238281 16.640625 42.542969 16.296875 42.609375 12.796875 " fill-opacity="1" fill-rule="nonzero"/><path fill="#3c3c3c" d="M 49.335938 9.609375 C 49.332031 9.613281 47.8125 11.734375 50.597656 13.394531 C 50.597656 13.398438 52.152344 11.367188 49.335938 9.609375 " fill-opacity="1" fill-rule="nonzero"/><path fill="#3c3c3c" d="M 13.71875 14.070312 C 13.71875 14.082031 13.085938 16.617188 16.214844 16.601562 C 16.21875 16.609375 16.902344 14.058594 13.71875 14.070312 " fill-opacity="1" fill-rule="nonzero"/><path fill="#3c3c3c" d="M 41.589844 17.242188 C 41.589844 17.234375 38.679688 17.476562 38.855469 20.367188 C 38.855469 20.359375 41.699219 20.195312 41.589844 17.242188 " fill-opacity="1" fill-rule="nonzero"/><path fill="#3c3c3c" d="M 55.246094 6.039062 C 55.246094 6.027344 52.324219 5.945312 52.488281 8.847656 C 52.488281 8.839844 55.339844 8.980469 55.246094 6.039062 " fill-opacity="1" fill-rule="nonzero"/><path fill="#3c3c3c" d="M 45.011719 17.472656 C 45.011719 17.464844 42.660156 17.761719 43.007812 20.101562 C 43.007812 20.097656 45.308594 19.867188 45.011719 17.472656 " fill-opacity="1" fill-rule="nonzero"/><path fill="#3c3c3c" d="M 45.03125 12.589844 C 45.03125 12.59375 44.910156 10.480469 42.230469 10.59375 C 42.230469 10.601562 42.289062 12.621094 45.03125 12.589844 " fill-opacity="1" fill-rule="nonzero"/><path fill="#3c3c3c" d="M 45.5625 15.113281 C 45.5625 15.117188 45.457031 13.273438 43.121094 13.359375 C 43.121094 13.363281 43.171875 15.128906 45.5625 15.113281 " fill-opacity="1" fill-rule="nonzero"/><path fill="#3c3c3c" d="M 46.441406 16.5625 C 46.441406 16.566406 45.839844 15.1875 44.09375 15.761719 C 44.09375 15.761719 44.644531 17.097656 46.441406 16.5625 " fill-opacity="1" fill-rule="nonzero"/><path fill="#3c3c3c" d="M 48.484375 19.789062 C 48.484375 19.796875 47.683594 17.9375 45.351562 18.679688 C 45.351562 18.6875 46.082031 20.46875 48.484375 19.789062 " fill-opacity="1" fill-rule="nonzero"/><path fill="#3c3c3c" d="M 43.375 15.074219 C 43.375 15.070312 41.1875 15.914062 42.210938 18.082031 C 42.207031 18.078125 44.367188 17.316406 43.375 15.074219 " fill-opacity="1" fill-rule="nonzero"/><path fill="#3c3c3c" d="M 49.460938 6.402344 C 49.460938 6.40625 48.507812 8.265625 50.949219 9.359375 C 50.949219 9.363281 51.941406 7.5625 49.460938 6.402344 " fill-opacity="1" fill-rule="nonzero"/><path fill="#3c3c3c" d="M 41.84375 0.0585938 C 41.84375 0.0625 40.890625 1.984375 43.34375 2.933594 C 43.34375 2.9375 44.332031 1.066406 41.84375 0.0585938 " fill-opacity="1" fill-rule="nonzero"/><path fill="#3c3c3c" d="M 27.738281 3.519531 C 27.738281 3.523438 26.800781 5.539062 29.242188 6.191406 C 29.242188 6.195312 30.210938 4.222656 27.738281 3.519531 " fill-opacity="1" fill-rule="nonzero"/><path fill="#3c3c3c" d="M 40.625 24.910156 C 40.625 24.914062 42.40625 22.835938 39.835938 21.097656 C 39.835938 21.097656 38.039062 23.089844 40.625 24.910156 " fill-opacity="1" fill-rule="nonzero"/><path fill="#3c3c3c" d="M 44.628906 9.921875 C 44.628906 9.933594 45.175781 7.378906 41.941406 6.832031 C 41.941406 6.839844 41.335938 9.277344 44.628906 9.921875 " fill-opacity="1" fill-rule="nonzero"/><path fill="#3c3c3c" d="M 43.292969 22.925781 C 43.292969 22.917969 45.820312 22.800781 45.691406 20.292969 C 45.691406 20.289062 43.214844 20.34375 43.292969 22.925781 " fill-opacity="1" fill-rule="nonzero"/><path fill="#3c3c3c" d="M 33.375 34.644531 C 33.375 34.640625 35.886719 34.371094 35.75 31.871094 C 35.746094 31.867188 33.289062 32.078125 33.375 34.644531 " fill-opacity="1" fill-rule="nonzero"/><path fill="#3c3c3c" d="M 38.863281 13.382812 C 38.863281 13.378906 41.398438 13.179688 41.265625 10.675781 C 41.261719 10.667969 38.78125 10.808594 38.863281 13.382812 " fill-opacity="1" fill-rule="nonzero"/><path fill="#3c3c3c" d="M 40.371094 6.0625 C 40.371094 6.054688 42.914062 5.886719 42.78125 3.378906 C 42.78125 3.371094 40.292969 3.484375 40.371094 6.0625 " fill-opacity="1" fill-rule="nonzero"/><path fill="#3c3c3c" d="M 38.402344 25.046875 C 38.402344 25.054688 37.207031 27.578125 40.371094 28.714844 C 40.371094 28.71875 41.617188 26.257812 38.402344 25.046875 " fill-opacity="1" fill-rule="nonzero"/><path fill="#3c3c3c" d="M 35.132812 15.066406 C 35.132812 15.074219 33.9375 17.621094 37.113281 18.675781 C 37.113281 18.683594 38.355469 16.1875 35.132812 15.066406 " fill-opacity="1" fill-rule="nonzero"/><path fill="#3c3c3c" d="M 35.734375 12.421875 C 35.734375 12.429688 35.039062 14.628906 37.8125 15.210938 C 37.8125 15.21875 38.554688 13.054688 35.734375 12.421875 " fill-opacity="1" fill-rule="nonzero"/><path fill="#3c3c3c" d="M 48.15625 12.890625 C 48.152344 12.894531 46.949219 15.335938 50.121094 16.691406 C 50.121094 16.695312 51.378906 14.328125 48.15625 12.890625 " fill-opacity="1" fill-rule="nonzero"/><path fill="#3c3c3c" d="M 48.683594 34.726562 C 48.679688 34.726562 47.171875 36.878906 49.933594 38.484375 C 49.933594 38.488281 51.476562 36.425781 48.683594 34.726562 " fill-opacity="1" fill-rule="nonzero"/><path fill="#3c3c3c" d="M 49.734375 32.460938 C 49.734375 32.464844 48.789062 34.34375 51.207031 35.394531 C 51.207031 35.398438 52.191406 33.582031 49.734375 32.460938 " fill-opacity="1" fill-rule="nonzero"/><path fill="#3c3c3c" d="M 47.515625 38.027344 C 47.511719 38.03125 46.316406 40.496094 49.464844 41.789062 C 49.460938 41.796875 50.707031 39.410156 47.515625 38.027344 " fill-opacity="1" fill-rule="nonzero"/><path fill="#3c3c3c" d="M 47.472656 41.835938 C 47.472656 41.839844 46.277344 44.308594 49.417969 45.597656 C 49.417969 45.597656 50.664062 43.210938 47.472656 41.835938 " fill-opacity="1" fill-rule="nonzero"/><path fill="#3c3c3c" d="M 45.355469 27.859375 C 45.355469 27.847656 42.296875 27.589844 41.929688 30.648438 C 41.929688 30.636719 44.902344 30.949219 45.355469 27.859375 " fill-opacity="1" fill-rule="nonzero"/><path fill="#3c3c3c" d="M 43.160156 25.988281 C 43.160156 25.980469 46 26.722656 46.980469 23.9375 C 46.980469 23.933594 44.226562 23.105469 43.160156 25.988281 " fill-opacity="1" fill-rule="nonzero"/><path fill="#3c3c3c" d="M 51.4375 20.042969 C 51.4375 20.035156 54.269531 20.960938 55.285156 18.261719 C 55.285156 18.257812 52.539062 17.242188 51.4375 20.042969 " fill-opacity="1" fill-rule="nonzero"/><path fill="#3c3c3c" d="M 52.460938 17.128906 C 52.460938 17.121094 55.410156 17.59375 55.792969 14.734375 C 55.796875 14.726562 52.921875 14.167969 52.460938 17.128906 " fill-opacity="1" fill-rule="nonzero"/><path fill="#3c3c3c" d="M 52.578125 13.898438 C 52.578125 13.890625 55.511719 14.488281 56.046875 11.664062 C 56.046875 11.65625 53.191406 10.972656 52.578125 13.898438 " fill-opacity="1" fill-rule="nonzero"/><path fill="#3c3c3c" d="M 52.820312 11.074219 C 52.820312 11.066406 55.757812 11.679688 56.292969 8.855469 C 56.292969 8.847656 53.433594 8.148438 52.820312 11.074219 " fill-opacity="1" fill-rule="nonzero"/><path fill="#3c3c3c" d="M 63.828125 4.605469 C 63.828125 4.59375 61.074219 5.96875 63.046875 9.21875 C 63.046875 9.207031 65.777344 7.976562 63.828125 4.605469 " fill-opacity="1" fill-rule="nonzero"/><path fill="#3c3c3c" d="M 60.910156 23.027344 C 60.910156 23.03125 58.554688 21.015625 56.003906 22.929688 C 56.003906 22.933594 58.246094 24.839844 60.910156 23.027344 " fill-opacity="1" fill-rule="nonzero"/><path fill="#3c3c3c" d="M 59 25.070312 C 59 25.070312 56.351562 23.433594 54.226562 25.761719 C 54.230469 25.765625 56.769531 27.324219 59 25.070312 " fill-opacity="1" fill-rule="nonzero"/><path fill="#3c3c3c" d="M 55.667969 27.375 C 55.671875 27.371094 52.914062 25.960938 50.996094 28.480469 C 50.996094 28.480469 53.640625 29.835938 55.667969 27.375 " fill-opacity="1" fill-rule="nonzero"/><path fill="#3c3c3c" d="M 59.761719 10.359375 C 59.761719 10.351562 57.527344 11.726562 59.597656 14.183594 C 59.59375 14.179688 61.824219 12.921875 59.761719 10.359375 " fill-opacity="1" fill-rule="nonzero"/><path fill="#3c3c3c" d="M 66.253906 10.144531 C 66.253906 10.140625 63.664062 9.082031 62.835938 11.503906 C 62.835938 11.5 65.34375 12.539062 66.253906 10.144531 " fill-opacity="1" fill-rule="nonzero"/><path fill="#3c3c3c" d="M 61.054688 7.550781 C 61.054688 7.550781 59.457031 8.867188 61.40625 10.710938 C 61.402344 10.710938 63.007812 9.484375 61.054688 7.550781 " fill-opacity="1" fill-rule="nonzero"/><path fill="#3c3c3c" d="M 66.863281 22.21875 C 66.863281 22.214844 64.910156 23.0625 66.355469 25.203125 C 66.355469 25.199219 68.292969 24.441406 66.863281 22.21875 " fill-opacity="1" fill-rule="nonzero"/><path fill="#3c3c3c" d="M 68.761719 20.566406 C 68.761719 20.5625 66.808594 21.367188 68.25 23.527344 C 68.25 23.523438 70.1875 22.804688 68.761719 20.566406 " fill-opacity="1" fill-rule="nonzero"/><path fill="#3c3c3c" d="M 48.128906 0 C 48.128906 0 46.570312 1.453125 48.488281 3.082031 C 48.488281 3.082031 50.058594 1.710938 48.128906 0 " fill-opacity="1" fill-rule="nonzero"/><path fill="#3c3c3c" d="M 74.203125 13.054688 C 74.203125 13.042969 71.601562 13.140625 72.464844 15.878906 C 72.464844 15.871094 75.023438 15.847656 74.203125 13.054688 " fill-opacity="1" fill-rule="nonzero"/><path fill="#3c3c3c" d="M 75.765625 27.1875 C 75.765625 27.183594 74.238281 28.304688 76.089844 30.183594 C 76.089844 30.179688 77.625 29.152344 75.765625 27.1875 " fill-opacity="1" fill-rule="nonzero"/><path fill="#3c3c3c" d="M 83.550781 30.941406 C 83.550781 30.9375 81.324219 30.179688 81.050781 32.257812 C 81.054688 32.253906 83.222656 33.011719 83.550781 30.941406 " fill-opacity="1" fill-rule="nonzero"/><path fill="#3c3c3c" d="M 81.234375 21.539062 C 81.238281 21.53125 78.582031 20.730469 78.433594 23.269531 C 78.433594 23.265625 81.023438 24.066406 81.234375 21.539062 " fill-opacity="1" fill-rule="nonzero"/><path fill="#3c3c3c" d="M 78.632812 17.574219 C 78.632812 17.566406 76.078125 17.246094 76.484375 19.835938 C 76.488281 19.824219 78.992188 20.1875 78.632812 17.574219 " fill-opacity="1" fill-rule="nonzero"/><path fill="#3c3c3c" d="M 82.574219 33.402344 C 82.574219 33.402344 80.511719 32.148438 79.5 33.914062 C 79.503906 33.914062 81.496094 35.121094 82.574219 33.402344 " fill-opacity="1" fill-rule="nonzero"/><path fill="#3c3c3c" d="M 78.839844 30.304688 C 78.839844 30.300781 76.75 30.5625 77.667969 32.792969 C 77.667969 32.785156 79.726562 32.585938 78.839844 30.304688 " fill-opacity="1" fill-rule="nonzero"/><path fill="#3c3c3c" d="M 70.820312 10.363281 C 70.820312 10.359375 69.136719 11.339844 70.84375 13.351562 C 70.84375 13.351562 72.527344 12.460938 70.820312 10.363281 " fill-opacity="1" fill-rule="nonzero"/><path fill="#3c3c3c" d="M 66.6875 7.222656 C 66.6875 7.214844 64.417969 7.117188 64.78125 9.410156 C 64.78125 9.40625 67.003906 9.550781 66.6875 7.222656 " fill-opacity="1" fill-rule="nonzero"/><path fill="#3c3c3c" d="M 76.480469 32.101562 C 76.484375 32.097656 74.386719 32.414062 75.304688 34.636719 C 75.304688 34.628906 77.371094 34.378906 76.480469 32.101562 " fill-opacity="1" fill-rule="nonzero"/><path fill="#3c3c3c" d="M 79.75 37.613281 C 79.75 37.621094 78.417969 35.773438 76.359375 36.652344 C 76.359375 36.660156 77.621094 38.429688 79.75 37.613281 " fill-opacity="1" fill-rule="nonzero"/><path fill="#3c3c3c" d="M 77.945312 39.355469 C 77.945312 39.363281 77.105469 37.390625 74.734375 37.761719 C 74.734375 37.769531 75.507812 39.667969 77.945312 39.355469 " fill-opacity="1" fill-rule="nonzero"/><path fill="#3c3c3c" d="M 74.140625 42.578125 C 74.140625 42.585938 73.296875 40.621094 70.917969 41.082031 C 70.917969 41.089844 71.695312 42.980469 74.140625 42.578125 " fill-opacity="1" fill-rule="nonzero"/><path fill="#3c3c3c" d="M 77.832031 43.179688 C 77.832031 43.183594 76.996094 41.222656 74.628906 41.625 C 74.625 41.632812 75.398438 43.523438 77.832031 43.179688 " fill-opacity="1" fill-rule="nonzero"/><path fill="#3c3c3c" d="M 81.234375 38.488281 C 81.238281 38.484375 78.996094 38.066406 79.039062 40.246094 C 79.039062 40.242188 81.230469 40.675781 81.234375 38.488281 " fill-opacity="1" fill-rule="nonzero"/><path fill="#3c3c3c" d="M 81.796875 42.164062 C 81.796875 42.167969 80.121094 40.539062 78.425781 41.832031 C 78.425781 41.835938 80.03125 43.398438 81.796875 42.164062 " fill-opacity="1" fill-rule="nonzero"/><path fill="#3c3c3c" d="M 81.351562 35.445312 C 81.351562 35.449219 79.46875 33.972656 78.070312 35.496094 C 78.070312 35.5 79.886719 36.921875 81.351562 35.445312 " fill-opacity="1" fill-rule="nonzero"/><path fill="#3c3c3c" d="M 67.816406 37.105469 C 67.816406 37.113281 66.59375 35.257812 64.414062 36.191406 C 64.414062 36.195312 65.5625 37.980469 67.816406 37.105469 " fill-opacity="1" fill-rule="nonzero"/><path fill="#3c3c3c" d="M 70.222656 36.417969 C 70.222656 36.421875 69.007812 34.554688 66.828125 35.441406 C 66.828125 35.445312 67.96875 37.242188 70.222656 36.417969 " fill-opacity="1" fill-rule="nonzero"/><path fill="#3c3c3c" d="M 72.175781 35.207031 C 72.175781 35.210938 71.078125 33.507812 69.101562 34.273438 C 69.101562 34.277344 70.136719 35.917969 72.175781 35.207031 " fill-opacity="1" fill-rule="nonzero"/><path fill="#3c3c3c" d="M 72.945312 33.347656 C 72.945312 33.347656 71.683594 32.363281 70.679688 33.429688 C 70.679688 33.429688 71.886719 34.390625 72.945312 33.347656 " fill-opacity="1" fill-rule="nonzero"/><path fill="#3c3c3c" d="M 67.660156 30.566406 C 67.660156 30.558594 65.097656 31.359375 66.546875 34.082031 C 66.546875 34.074219 69.074219 33.375 67.660156 30.566406 " fill-opacity="1" fill-rule="nonzero"/><path fill="#3c3c3c" d="M 69.792969 29.882812 C 69.792969 29.875 67.730469 30.519531 68.941406 32.734375 C 68.941406 32.730469 70.980469 32.164062 69.792969 29.882812 " fill-opacity="1" fill-rule="nonzero"/><path fill="#3c3c3c" d="M 64.964844 31.464844 C 64.964844 31.460938 62.898438 32.1875 64.117188 34.378906 C 64.117188 34.375 66.164062 33.730469 64.964844 31.464844 " fill-opacity="1" fill-rule="nonzero"/><path fill="#3c3c3c" d="M 56.136719 16.195312 C 56.136719 16.195312 54.542969 17.597656 56.492188 19.359375 C 56.492188 19.355469 58.09375 18.039062 56.136719 16.195312 " fill-opacity="1" fill-rule="nonzero"/><path fill="#3c3c3c" d="M 51.886719 20.800781 C 51.886719 20.800781 50.292969 22.265625 52.246094 23.964844 C 52.246094 23.964844 53.847656 22.585938 51.886719 20.800781 " fill-opacity="1" fill-rule="nonzero"/><path fill="#3c3c3c" d="M 57.4375 12.886719 C 57.4375 12.882812 55.390625 14.695312 57.941406 16.988281 C 57.941406 16.984375 60 15.296875 57.4375 12.886719 " fill-opacity="1" fill-rule="nonzero"/><path fill="#3c3c3c" d="M 58.21875 20.515625 C 58.21875 20.515625 60.617188 22.253906 62.585938 20.179688 C 62.585938 20.179688 60.292969 18.347656 58.21875 20.515625 " fill-opacity="1" fill-rule="nonzero"/><path fill="#3c3c3c" d="M 52.355469 34.25 C 52.355469 34.238281 56.273438 33.59375 55.214844 29.636719 C 55.214844 29.621094 51.359375 30.171875 52.355469 34.25 " fill-opacity="1" fill-rule="nonzero"/><path fill="#3c3c3c" d="M 69.503906 23.539062 C 69.507812 23.527344 73.445312 24.847656 74.269531 21.25 C 74.273438 21.238281 70.449219 19.761719 69.503906 23.539062 " fill-opacity="1" fill-rule="nonzero"/><path fill="#3c3c3c" d="M 72.597656 19.984375 C 72.597656 19.960938 76.546875 20.386719 75.996094 16.457031 C 76 16.4375 72.125 15.902344 72.597656 19.984375 " fill-opacity="1" fill-rule="nonzero"/><path fill="#3c3c3c" d="M 71.078125 32.335938 C 71.082031 32.320312 74.894531 32 73.636719 28.058594 C 73.636719 28.039062 69.878906 28.265625 71.078125 32.335938 " fill-opacity="1" fill-rule="nonzero"/><path fill="#3c3c3c" d="M 77.328125 29.945312 C 77.332031 29.933594 80.132812 29.847656 79.210938 26.933594 C 79.210938 26.921875 76.449219 26.941406 77.328125 29.945312 " fill-opacity="1" fill-rule="nonzero"/><path fill="#3c3c3c" d="M 72.273438 27.613281 C 72.277344 27.601562 75.097656 27.414062 74.167969 24.484375 C 74.167969 24.476562 71.386719 24.59375 72.273438 27.613281 " fill-opacity="1" fill-rule="nonzero"/><path fill="#3c3c3c" d="M 81.074219 30.097656 C 81.074219 30.078125 84.40625 29.492188 82.5 25.773438 C 82.503906 25.753906 79.195312 26.28125 81.074219 30.097656 " fill-opacity="1" fill-rule="nonzero"/><path fill="#3c3c3c" d="M 67.625 14.277344 C 67.625 14.265625 70.628906 12.773438 67.964844 9.292969 C 67.964844 9.28125 64.964844 10.714844 67.625 14.277344 " fill-opacity="1" fill-rule="nonzero"/><path fill="#3c3c3c" d="M 53.550781 5.339844 C 53.550781 5.328125 56.367188 4.902344 55.523438 2.046875 C 55.523438 2.035156 52.75 2.402344 53.550781 5.339844 " fill-opacity="1" fill-rule="nonzero"/><path fill="#3c3c3c" d="M 61.054688 6.800781 C 61.054688 6.800781 62.417969 4.746094 59.535156 2.984375 C 59.53125 2.984375 58.136719 4.960938 61.054688 6.800781 " fill-opacity="1" fill-rule="nonzero"/><path fill="#3c3c3c" d="M 62.949219 20.464844 C 62.953125 20.453125 66.917969 21.617188 67.75 17.917969 C 67.75 17.902344 63.894531 16.59375 62.949219 20.464844 " fill-opacity="1" fill-rule="nonzero"/><path fill="#3c3c3c" d="M 59.667969 17.945312 C 59.667969 17.945312 61.886719 19.585938 63.710938 17.691406 C 63.710938 17.695312 61.589844 15.972656 59.667969 17.945312 " fill-opacity="1" fill-rule="nonzero"/><path fill="#3c3c3c" d="M 61.214844 15.679688 C 61.214844 15.679688 63.644531 17.082031 65.082031 14.953125 C 65.082031 14.953125 62.746094 13.460938 61.214844 15.679688 " fill-opacity="1" fill-rule="nonzero"/><path fill="#3c3c3c" d="M 68.074219 14.582031 C 68.074219 14.570312 65.402344 14.554688 65.941406 17.277344 C 65.941406 17.265625 68.5625 17.34375 68.074219 14.582031 " fill-opacity="1" fill-rule="nonzero"/><path fill="#3c3c3c" d="M 74.824219 24.015625 C 74.828125 23.996094 78.71875 24.492188 78.136719 20.640625 C 78.140625 20.621094 74.320312 20.015625 74.824219 24.015625 " fill-opacity="1" fill-rule="nonzero"/><path fill="#3c3c3c" d="M 75.859375 26.386719 C 75.863281 26.378906 79.59375 27.785156 80.277344 24.410156 C 80.28125 24.402344 76.65625 22.847656 75.859375 26.386719 " fill-opacity="1" fill-rule="nonzero"/><path fill="#3c3c3c" d="M 62.378906 13.433594 C 62.382812 13.433594 64.8125 14.863281 66.246094 12.757812 C 66.246094 12.757812 63.910156 11.238281 62.378906 13.433594 " fill-opacity="1" fill-rule="nonzero"/><path fill="#3c3c3c" d="M 55.511719 34.367188 C 55.511719 34.363281 53.203125 33.882812 52.730469 36.15625 C 52.730469 36.152344 54.972656 36.660156 55.511719 34.367188 " fill-opacity="1" fill-rule="nonzero"/><path fill="#3c3c3c" d="M 51.90625 40.792969 C 51.90625 40.789062 54.617188 41.441406 55.339844 38.804688 C 55.339844 38.796875 52.707031 38.066406 51.90625 40.792969 " fill-opacity="1" fill-rule="nonzero"/><path fill="#3c3c3c" d="M 52.015625 42.933594 C 52.015625 42.929688 54.675781 43.972656 55.902344 41.410156 C 55.902344 41.410156 53.328125 40.289062 52.015625 42.933594 " fill-opacity="1" fill-rule="nonzero"/><path fill="#3c3c3c" d="M 52.25 38.28125 C 52.25 38.277344 54.570312 38.835938 55.179688 36.578125 C 55.179688 36.574219 52.925781 35.953125 52.25 38.28125 " fill-opacity="1" fill-rule="nonzero"/><path fill="#3c3c3c" d="M 65.90625 21.507812 C 65.90625 21.503906 63.789062 20.390625 62.734375 22.335938 C 62.734375 22.332031 64.777344 23.421875 65.90625 21.507812 " fill-opacity="1" fill-rule="nonzero"/><path fill="#3c3c3c" d="M 62.230469 24.625 C 62.230469 24.625 64.300781 25.835938 65.566406 24.007812 C 65.566406 24.007812 63.578125 22.730469 62.230469 24.625 " fill-opacity="1" fill-rule="nonzero"/><path fill="#3c3c3c" d="M 67.832031 25.429688 C 67.832031 25.429688 69.890625 26.707031 71.148438 24.953125 C 71.148438 24.953125 69.171875 23.609375 67.832031 25.429688 " fill-opacity="1" fill-rule="nonzero"/><path fill="#3c3c3c" d="M 66.871094 27.03125 C 66.871094 27.03125 68.765625 28.488281 70.316406 26.925781 C 70.316406 26.925781 68.503906 25.410156 66.871094 27.03125 " fill-opacity="1" fill-rule="nonzero"/><path fill="#3c3c3c" d="M 65.710938 28.96875 C 65.710938 28.972656 67.609375 30.40625 69.160156 28.816406 C 69.160156 28.820312 67.347656 27.324219 65.710938 28.96875 " fill-opacity="1" fill-rule="nonzero"/><path fill="#3c3c3c" d="M 57.378906 27.328125 C 57.378906 27.332031 57.296875 29.378906 59.933594 29.734375 C 59.933594 29.738281 60.082031 27.726562 57.378906 27.328125 " fill-opacity="1" fill-rule="nonzero"/><path fill="#3c3c3c" d="M 57.113281 29.796875 C 57.109375 29.804688 57.015625 32.230469 60.148438 32.644531 C 60.144531 32.648438 60.320312 30.257812 57.113281 29.796875 " fill-opacity="1" fill-rule="nonzero"/><path fill="#3c3c3c" d="M 61.574219 27.191406 C 61.574219 27.1875 63.824219 28.011719 64.585938 25.917969 C 64.585938 25.914062 62.402344 25.023438 61.574219 27.191406 " fill-opacity="1" fill-rule="nonzero"/><g clip-path="url(#id2)"><path fill="#3c3c3c" d="M 2.382812 34.25 C 2.386719 34.273438 2.347656 37.972656 7.375 37.359375 C 7.378906 37.382812 7.496094 33.507812 2.382812 34.25 " fill-opacity="1" fill-rule="nonzero"/></g><path fill="#3c3c3c" d="M 14.964844 16.671875 C 14.964844 16.679688 11.800781 19.882812 14.644531 22.722656 C 14.640625 22.730469 17.808594 19.683594 14.964844 16.671875 " fill-opacity="1" fill-rule="nonzero"/><path fill="#3c3c3c" d="M 70.492188 14.066406 C 70.492188 14.046875 67.257812 15.925781 70.070312 19.953125 C 70.070312 19.9375 73.289062 18.269531 70.492188 14.066406 " fill-opacity="1" fill-rule="nonzero"/><path fill="#3c3c3c" d="M 57.933594 4.585938 C 57.929688 4.574219 54.660156 6.785156 57.523438 10.652344 C 57.519531 10.636719 60.785156 8.632812 57.933594 4.585938 " fill-opacity="1" fill-rule="nonzero"/><path fill="#3c3c3c" d="M 21.464844 9.773438 C 21.464844 9.773438 19.558594 11.492188 21.089844 13.292969 C 21.085938 13.292969 22.988281 11.667969 21.464844 9.773438 " fill-opacity="1" fill-rule="nonzero"/><path fill="#3c3c3c" d="M 21.515625 8.023438 C 21.519531 8.03125 21.125 10.210938 23.847656 10.445312 C 23.847656 10.457031 24.289062 8.273438 21.515625 8.023438 " fill-opacity="1" fill-rule="nonzero"/><path fill="#3c3c3c" d="M 24.863281 5.320312 C 24.863281 5.332031 22.457031 8.847656 26.246094 11.109375 C 26.246094 11.125 28.6875 7.714844 24.863281 5.320312 " fill-opacity="1" fill-rule="nonzero"/><path fill="#3c3c3c" d="M 5.761719 25.140625 C 5.765625 25.148438 6.289062 27.898438 10.246094 26.832031 C 10.25 26.847656 9.800781 23.96875 5.761719 25.140625 " fill-opacity="1" fill-rule="nonzero"/><path fill="#3c3c3c" d="M 20.789062 29.828125 C 20.789062 29.839844 20.648438 32.773438 24.445312 32.847656 C 24.445312 32.859375 24.667969 29.890625 20.789062 29.828125 " fill-opacity="1" fill-rule="nonzero"/><path fill="#3c3c3c" d="M 17.984375 10.515625 C 17.984375 10.53125 15.144531 14.167969 18.761719 16.675781 C 18.761719 16.691406 21.628906 13.175781 17.984375 10.515625 " fill-opacity="1" fill-rule="nonzero"/><path fill="#3c3c3c" d="M 3.058594 39.296875 C 3.0625 39.304688 4.539062 42.464844 9.488281 40.484375 C 9.496094 40.496094 8.117188 37.128906 3.058594 39.296875 " fill-opacity="1" fill-rule="nonzero"/><path fill="#3c3c3c" d="M 8.800781 33.121094 C 8.800781 33.144531 7.019531 37.011719 11.425781 38.359375 C 11.425781 38.382812 13.265625 34.511719 8.800781 33.121094 " fill-opacity="1" fill-rule="nonzero"/><path fill="#3c3c3c" d="M 23.273438 35.898438 C 23.273438 35.902344 23.929688 38.269531 27.09375 37.339844 C 27.09375 37.347656 26.519531 34.9375 23.273438 35.898438 " fill-opacity="1" fill-rule="nonzero"/><path fill="#3c3c3c" d="M 23.796875 18.082031 C 23.796875 18.085938 21.472656 20.078125 23.5625 22.101562 C 23.558594 22.101562 25.886719 20.214844 23.796875 18.082031 " fill-opacity="1" fill-rule="nonzero"/><path fill="#3c3c3c" d="M 21.644531 40.886719 C 21.648438 40.890625 20.714844 38.125 17.074219 39.542969 C 17.074219 39.550781 17.886719 42.179688 21.644531 40.886719 " fill-opacity="1" fill-rule="nonzero"/><path fill="#3c3c3c" d="M 22.066406 16.152344 C 22.066406 16.152344 20.039062 17.792969 21.695312 19.546875 C 21.695312 19.546875 23.714844 17.996094 22.066406 16.152344 " fill-opacity="1" fill-rule="nonzero"/><path fill="#3c3c3c" d="M 26.203125 13.625 C 26.203125 13.632812 25.265625 11.316406 22.175781 12.707031 C 22.179688 12.714844 23.011719 14.910156 26.203125 13.625 " fill-opacity="1" fill-rule="nonzero"/><path fill="#3c3c3c" d="M 27.851562 16.375 C 27.851562 16.382812 26.914062 14.046875 23.820312 15.386719 C 23.824219 15.390625 24.65625 17.609375 27.851562 16.375 " fill-opacity="1" fill-rule="nonzero"/><path fill="#3c3c3c" d="M 29.578125 18.425781 C 29.578125 18.429688 28.921875 16.785156 26.746094 17.671875 C 26.75 17.675781 27.335938 19.253906 29.578125 18.425781 " fill-opacity="1" fill-rule="nonzero"/><path fill="#3c3c3c" d="M 31.628906 17.460938 C 31.628906 17.460938 33.15625 16.140625 31.65625 14.738281 C 31.65625 14.738281 30.128906 16.003906 31.628906 17.460938 " fill-opacity="1" fill-rule="nonzero"/><path fill="#3c3c3c" d="M 34.136719 28.4375 C 34.136719 28.4375 35.664062 27.15625 34.167969 25.710938 C 34.167969 25.710938 32.644531 26.933594 34.136719 28.4375 " fill-opacity="1" fill-rule="nonzero"/><path fill="#3c3c3c" d="M 60.074219 35.070312 C 60.074219 35.074219 60.390625 33.335938 58.140625 32.808594 C 58.140625 32.8125 57.78125 34.488281 60.074219 35.070312 " fill-opacity="1" fill-rule="nonzero"/><path fill="#3c3c3c" d="M 31.558594 20.316406 C 31.558594 20.320312 30.902344 18.660156 28.726562 19.511719 C 28.726562 19.515625 29.3125 21.109375 31.558594 20.316406 " fill-opacity="1" fill-rule="nonzero"/><path fill="#3c3c3c" d="M 28.765625 14.089844 C 28.765625 14.09375 30.03125 12.722656 28.476562 11.628906 C 28.472656 11.632812 27.203125 12.945312 28.765625 14.089844 " fill-opacity="1" fill-rule="nonzero"/><path fill="#3c3c3c" d="M 30.398438 21.617188 C 30.398438 21.617188 31.308594 22.980469 33.171875 21.960938 C 33.175781 21.964844 32.328125 20.574219 30.398438 21.617188 " fill-opacity="1" fill-rule="nonzero"/><path fill="#3c3c3c" d="M 29.917969 15.714844 C 29.917969 15.714844 31.515625 14.679688 30.414062 13.195312 C 30.410156 13.191406 28.828125 14.175781 29.917969 15.714844 " fill-opacity="1" fill-rule="nonzero"/><path fill="#3c3c3c" d="M 17.953125 25.890625 C 17.953125 25.886719 15.417969 27.28125 16.589844 29.578125 C 16.589844 29.578125 19.097656 28.292969 17.953125 25.890625 " fill-opacity="1" fill-rule="nonzero"/><path fill="#3c3c3c" d="M 19.203125 28.332031 C 19.199219 28.328125 16.664062 29.6875 17.839844 32.007812 C 17.835938 32.007812 20.34375 30.753906 19.203125 28.332031 " fill-opacity="1" fill-rule="nonzero"/><path fill="#3c3c3c" d="M 19.707031 31.183594 C 19.707031 31.183594 17.886719 32.617188 19.34375 34.210938 C 19.34375 34.214844 21.160156 32.859375 19.707031 31.183594 " fill-opacity="1" fill-rule="nonzero"/><path fill="#3c3c3c" d="M 11.835938 41.992188 C 11.835938 41.988281 10.671875 40.539062 8.527344 42.078125 C 8.527344 42.074219 9.605469 43.488281 11.835938 41.992188 " fill-opacity="1" fill-rule="nonzero"/><path fill="#3c3c3c" d="M 17.625 44.394531 C 17.625 44.390625 16.457031 42.871094 14.296875 44.332031 C 14.296875 44.332031 15.382812 45.8125 17.625 44.394531 " fill-opacity="1" fill-rule="nonzero"/><path fill="#3c3c3c" d="M 13.890625 40.433594 C 13.890625 40.4375 14.851562 38.5 12.601562 37.933594 C 12.601562 37.941406 11.609375 39.792969 13.890625 40.433594 " fill-opacity="1" fill-rule="nonzero"/><path fill="#3c3c3c" d="M 16.238281 41.414062 C 16.238281 41.421875 17.207031 39.488281 14.945312 38.878906 C 14.949219 38.882812 13.953125 40.730469 16.238281 41.414062 " fill-opacity="1" fill-rule="nonzero"/><path fill="#3c3c3c" d="M 16.902344 35.804688 C 16.902344 35.808594 15.839844 33.742188 12.984375 35.285156 C 12.984375 35.289062 13.945312 37.265625 16.902344 35.804688 " fill-opacity="1" fill-rule="nonzero"/><path fill="#3c3c3c" d="M 16.933594 23.316406 C 16.933594 23.316406 14.8125 24.59375 15.90625 26.480469 C 15.90625 26.476562 18.003906 25.292969 16.933594 23.316406 " fill-opacity="1" fill-rule="nonzero"/><path fill="#3c3c3c" d="M 24.300781 42.453125 C 24.300781 42.453125 23.125 40.988281 21.097656 42.375 C 21.097656 42.375 22.195312 43.804688 24.300781 42.453125 " fill-opacity="1" fill-rule="nonzero"/><path fill="#3c3c3c" d="M 24.089844 56.414062 C 24.089844 56.414062 22.917969 54.925781 20.898438 56.265625 C 20.898438 56.265625 21.992188 57.722656 24.089844 56.414062 " fill-opacity="1" fill-rule="nonzero"/><path fill="#3c3c3c" d="M 8.832031 30.847656 C 8.832031 30.851562 9.140625 32.75 11.734375 31.933594 C 11.738281 31.9375 11.484375 30 8.832031 30.847656 " fill-opacity="1" fill-rule="nonzero"/><path fill="#3c3c3c" d="M 21.324219 13.617188 C 21.324219 13.613281 19.042969 14.847656 20.074219 16.917969 C 20.074219 16.914062 22.328125 15.78125 21.324219 13.617188 " fill-opacity="1" fill-rule="nonzero"/><path fill="#3c3c3c" d="M 36.128906 43.066406 C 36.128906 43.066406 34.3125 41.347656 32.03125 43.28125 C 32.03125 43.28125 33.742188 44.957031 36.128906 43.066406 " fill-opacity="1" fill-rule="nonzero"/><path fill="#3c3c3c" d="M 24.851562 46.382812 C 24.851562 46.382812 22.789062 47.757812 24.261719 49.6875 C 24.261719 49.691406 26.3125 48.398438 24.851562 46.382812 " fill-opacity="1" fill-rule="nonzero"/><path fill="#3c3c3c" d="M 27.128906 47.042969 C 27.128906 47.042969 25.535156 48.089844 26.671875 49.59375 C 26.671875 49.59375 28.253906 48.617188 27.128906 47.042969 " fill-opacity="1" fill-rule="nonzero"/><path fill="#3c3c3c" d="M 42.601562 32.980469 C 42.601562 32.976562 40.296875 33.84375 41.324219 36.136719 C 41.324219 36.132812 43.59375 35.351562 42.601562 32.980469 " fill-opacity="1" fill-rule="nonzero"/><path fill="#3c3c3c" d="M 21.746094 33.753906 C 21.746094 33.757812 22.585938 35.554688 25.058594 34.46875 C 25.058594 34.472656 24.289062 32.636719 21.746094 33.753906 " fill-opacity="1" fill-rule="nonzero"/><path fill="#3c3c3c" d="M 25.984375 38.65625 C 25.984375 38.660156 27.097656 41.027344 30.296875 39.707031 C 30.300781 39.714844 29.277344 37.289062 25.984375 38.65625 " fill-opacity="1" fill-rule="nonzero"/><path fill="#3c3c3c" d="M 28.949219 41.160156 C 28.949219 41.164062 30.484375 43.359375 33.464844 41.6875 C 33.464844 41.691406 32.03125 39.4375 28.949219 41.160156 " fill-opacity="1" fill-rule="nonzero"/><path fill="#3c3c3c" d="M 36.324219 40.402344 C 36.324219 40.40625 38.402344 38.484375 36.105469 36.480469 C 36.105469 36.480469 34.023438 38.316406 36.324219 40.402344 " fill-opacity="1" fill-rule="nonzero"/><path fill="#3c3c3c" d="M 33.117188 38.894531 C 33.117188 38.898438 34.949219 36.742188 32.382812 35.046875 C 32.382812 35.046875 30.535156 37.113281 33.117188 38.894531 " fill-opacity="1" fill-rule="nonzero"/><path fill="#3c3c3c" d="M 30.203125 36.882812 C 30.203125 36.882812 31.917969 34.96875 29.679688 33.414062 C 29.679688 33.417969 27.953125 35.25 30.203125 36.882812 " fill-opacity="1" fill-rule="nonzero"/><path fill="#3c3c3c" d="M 27.441406 34.910156 C 27.441406 34.914062 29.042969 32.898438 26.703125 31.515625 C 26.703125 31.519531 25.085938 33.449219 27.441406 34.910156 " fill-opacity="1" fill-rule="nonzero"/><path fill="#3c3c3c" d="M 31.964844 27.488281 C 31.960938 27.492188 34.050781 25.167969 31.324219 23.28125 C 31.324219 23.285156 29.226562 25.511719 31.964844 27.488281 " fill-opacity="1" fill-rule="nonzero"/><path fill="#3c3c3c" d="M 28.570312 25.476562 C 28.570312 25.476562 30.816406 23.390625 28.464844 21.375 C 28.464844 21.375 26.21875 23.378906 28.570312 25.476562 " fill-opacity="1" fill-rule="nonzero"/><path fill="#3c3c3c" d="M 25.8125 23.574219 C 25.8125 23.574219 28.0625 21.828125 26.199219 19.804688 C 26.199219 19.804688 23.960938 21.476562 25.8125 23.574219 " fill-opacity="1" fill-rule="nonzero"/><path fill="#3c3c3c" d="M 78.152344 44.070312 C 78.152344 44.078125 79.128906 46.785156 75.746094 46.90625 C 75.746094 46.917969 74.71875 44.207031 78.152344 44.070312 " fill-opacity="1" fill-rule="nonzero"/><path fill="#3c3c3c" d="M 81.121094 43.6875 C 81.121094 43.695312 82.054688 45.96875 79.261719 46.121094 C 79.261719 46.128906 78.289062 43.855469 81.121094 43.6875 " fill-opacity="1" fill-rule="nonzero"/><path fill="#3c3c3c" d="M 83.519531 42.546875 C 83.519531 42.554688 84.984375 44.71875 82.59375 45.398438 C 82.59375 45.40625 81.105469 43.277344 83.519531 42.546875 " fill-opacity="1" fill-rule="nonzero"/><path fill="#3c3c3c" d="M 64.136719 45.507812 C 64.136719 45.515625 63.703125 42.53125 67.511719 42.84375 C 67.511719 42.851562 68.027344 45.691406 64.136719 45.507812 " fill-opacity="1" fill-rule="nonzero"/><path fill="#3c3c3c" d="M 68.679688 46.472656 C 68.675781 46.484375 67.914062 43.617188 71.480469 43.640625 C 71.480469 43.652344 72.3125 46.378906 68.679688 46.472656 " fill-opacity="1" fill-rule="nonzero"/><path fill="#3c3c3c" d="M 72.582031 46.773438 C 72.582031 46.78125 71.5625 44.191406 74.6875 43.945312 C 74.6875 43.953125 75.757812 46.421875 72.582031 46.773438 " fill-opacity="1" fill-rule="nonzero"/><path fill="#3c3c3c" d="M 28.652344 32.332031 C 28.652344 32.328125 31.285156 33.9375 33.671875 31.191406 C 33.671875 31.1875 31.144531 29.480469 28.652344 32.332031 " fill-opacity="1" fill-rule="nonzero"/><path fill="#3c3c3c" d="M 25.128906 30.621094 C 25.128906 30.613281 27.757812 32.15625 30.140625 29.359375 C 30.140625 29.355469 27.617188 27.71875 25.128906 30.621094 " fill-opacity="1" fill-rule="nonzero"/><path fill="#3c3c3c" d="M 14.414062 37.578125 C 14.417969 37.578125 15.78125 39.617188 18.753906 37.867188 C 18.753906 37.867188 17.472656 35.757812 14.414062 37.578125 " fill-opacity="1" fill-rule="nonzero"/><path fill="#3c3c3c" d="M 10.605469 43.53125 C 10.605469 43.523438 12.488281 45.148438 15.054688 42.917969 C 15.058594 42.914062 13.261719 41.226562 10.605469 43.53125 " fill-opacity="1" fill-rule="nonzero"/><g clip-path="url(#id3)"><path fill="#3c3c3c" d="M 2.460938 43.171875 C 2.460938 43.167969 4.324219 44.640625 6.863281 42.320312 C 6.863281 42.316406 5.085938 40.769531 2.460938 43.171875 " fill-opacity="1" fill-rule="nonzero"/></g><path fill="#3c3c3c" d="M 23.101562 28.527344 C 23.101562 28.523438 25.113281 29.660156 26.933594 27.484375 C 26.933594 27.484375 25 26.28125 23.101562 28.527344 " fill-opacity="1" fill-rule="nonzero"/><path fill="#3c3c3c" d="M 20.265625 26.230469 C 20.265625 26.230469 21.863281 27.835938 24.277344 25.964844 C 24.277344 25.964844 22.761719 24.289062 20.265625 26.230469 " fill-opacity="1" fill-rule="nonzero"/><path fill="#3c3c3c" d="M 16.042969 50.914062 C 16.046875 50.917969 15.589844 53.511719 18.875 53.625 C 18.875 53.632812 19.394531 51.042969 16.042969 50.914062 " fill-opacity="1" fill-rule="nonzero"/><path fill="#3c3c3c" d="M 28.53125 52.84375 C 28.53125 52.847656 29.003906 50.628906 26.265625 50.34375 C 26.265625 50.347656 25.738281 52.476562 28.53125 52.84375 " fill-opacity="1" fill-rule="nonzero"/><path fill="#3c3c3c" d="M 17.539062 55.03125 C 17.539062 55.027344 15.804688 53.753906 13.894531 55.6875 C 13.894531 55.683594 15.535156 56.949219 17.539062 55.03125 " fill-opacity="1" fill-rule="nonzero"/><path fill="#3c3c3c" d="M 32.871094 50.976562 C 32.867188 50.980469 33.851562 49.351562 31.878906 48.457031 C 31.878906 48.460938 30.875 50.019531 32.871094 50.976562 " fill-opacity="1" fill-rule="nonzero"/><path fill="#3c3c3c" d="M 25.722656 53.441406 C 25.722656 53.449219 26.273438 50.894531 23.125 50.605469 C 23.125 50.613281 22.515625 53.054688 25.722656 53.441406 " fill-opacity="1" fill-rule="nonzero"/><path fill="#3c3c3c" d="M 22.441406 53.769531 C 22.441406 53.777344 22.972656 51.292969 19.914062 51.066406 C 19.917969 51.070312 19.328125 53.441406 22.441406 53.769531 " fill-opacity="1" fill-rule="nonzero"/><path fill="#3c3c3c" d="M 29.054688 49.28125 C 29.054688 49.285156 28.453125 51.371094 31.050781 51.84375 C 31.050781 51.847656 31.699219 49.796875 29.054688 49.28125 " fill-opacity="1" fill-rule="nonzero"/><path fill="#3c3c3c" d="M 12.128906 32.039062 C 12.132812 32.046875 12.382812 34.644531 15.867188 33.824219 C 15.871094 33.832031 15.691406 31.171875 12.128906 32.039062 " fill-opacity="1" fill-rule="nonzero"/><path fill="#3c3c3c" d="M 11.496094 29.410156 C 11.496094 29.421875 11.828125 31.839844 15.109375 30.929688 C 15.109375 30.9375 14.847656 28.457031 11.496094 29.410156 " fill-opacity="1" fill-rule="nonzero"/><path fill="#3c3c3c" d="M 11.125 26.683594 C 11.125 26.691406 11.425781 28.863281 14.371094 28.007812 C 14.371094 28.015625 14.136719 25.792969 11.125 26.683594 " fill-opacity="1" fill-rule="nonzero"/><path fill="#3c3c3c" d="M 12.058594 23.222656 C 12.0625 23.226562 11.5 25.039062 13.699219 25.144531 C 13.699219 25.148438 14.296875 23.347656 12.058594 23.222656 " fill-opacity="1" fill-rule="nonzero"/><path fill="#3c3c3c" d="M 4.429688 29.027344 C 4.429688 29.027344 4.976562 30.53125 7.167969 29.464844 C 7.167969 29.464844 6.675781 27.925781 4.429688 29.027344 " fill-opacity="1" fill-rule="nonzero"/><path fill="#3c3c3c" d="M 18.25 24.292969 C 18.25 24.292969 19.84375 25.863281 22.253906 23.957031 C 22.253906 23.957031 20.742188 22.3125 18.25 24.292969 " fill-opacity="1" fill-rule="nonzero"/><path fill="#3c3c3c" d="M 16.984375 21.277344 C 16.984375 21.28125 17.648438 23.371094 20.546875 22.269531 C 20.550781 22.277344 19.960938 20.125 16.984375 21.277344 " fill-opacity="1" fill-rule="nonzero"/><path fill="#3c3c3c" d="M 8.179688 20.761719 C 8.183594 20.777344 6.863281 24.015625 10.683594 24.414062 C 10.683594 24.433594 12.054688 21.175781 8.179688 20.761719 " fill-opacity="1" fill-rule="nonzero"/><path fill="#3c3c3c" d="M 11.214844 17.113281 C 11.214844 17.125 9.304688 19.726562 12.058594 20.964844 C 12.058594 20.972656 13.992188 18.4375 11.214844 17.113281 " fill-opacity="1" fill-rule="nonzero"/><path fill="#3c3c3c" d="M 16.625 18.738281 C 16.625 18.742188 16.941406 20.5 19.316406 19.78125 C 19.316406 19.789062 19.054688 18.003906 16.625 18.738281 " fill-opacity="1" fill-rule="nonzero"/><path fill="#3c3c3c" d="M 62.734375 51.96875 C 62.734375 51.972656 63.414062 50.277344 66.089844 51.25 C 66.089844 51.253906 65.492188 52.886719 62.734375 51.96875 " fill-opacity="1" fill-rule="nonzero"/><path fill="#3c3c3c" d="M 64.789062 54.074219 C 64.789062 54.078125 64.769531 52.230469 67.566406 52.402344 C 67.566406 52.40625 67.652344 54.171875 64.789062 54.074219 " fill-opacity="1" fill-rule="nonzero"/><path fill="#3c3c3c" d="M 67.574219 54.542969 C 67.574219 54.546875 67.15625 52.707031 69.871094 52.429688 C 69.871094 52.433594 70.34375 54.183594 67.574219 54.542969 " fill-opacity="1" fill-rule="nonzero"/><path fill="#3c3c3c" d="M 70.460938 54.796875 C 70.460938 54.804688 69.746094 53.015625 72.335938 52.410156 C 72.335938 52.417969 73.09375 54.113281 70.460938 54.796875 " fill-opacity="1" fill-rule="nonzero"/><path fill="#3c3c3c" d="M 73.277344 54.429688 C 73.277344 54.433594 72.792969 52.613281 75.476562 52.335938 C 75.476562 52.34375 76.011719 54.070312 73.277344 54.429688 " fill-opacity="1" fill-rule="nonzero"/><path fill="#3c3c3c" d="M 75.992188 54.671875 C 75.992188 54.679688 75.753906 52.429688 79.15625 52.578125 C 79.152344 52.585938 79.472656 54.710938 75.992188 54.671875 " fill-opacity="1" fill-rule="nonzero"/><path fill="#3c3c3c" d="M 69.25 60.269531 C 69.25 60.261719 71.894531 58.863281 74.539062 62.148438 C 74.539062 62.140625 72.027344 63.570312 69.25 60.269531 " fill-opacity="1" fill-rule="nonzero"/><path fill="#3c3c3c" d="M 60.363281 51.355469 C 60.367188 51.359375 59.28125 49.285156 61.636719 47.746094 C 61.640625 47.75 62.75 49.722656 60.363281 51.355469 " fill-opacity="1" fill-rule="nonzero"/><path fill="#3c3c3c" d="M 58.234375 52.625 C 58.234375 52.628906 56.648438 51.015625 58.414062 48.664062 C 58.414062 48.664062 60.003906 50.183594 58.234375 52.625 " fill-opacity="1" fill-rule="nonzero"/><path fill="#3c3c3c" d="M 68.339844 50.992188 C 68.339844 50.988281 65.359375 51.011719 65.515625 47.949219 C 65.515625 47.941406 68.4375 47.875 68.339844 50.992188 " fill-opacity="1" fill-rule="nonzero"/><path fill="#3c3c3c" d="M 72.066406 51.300781 C 72.070312 51.292969 69.09375 51.265625 69.253906 48.226562 C 69.253906 48.222656 72.164062 48.210938 72.066406 51.300781 " fill-opacity="1" fill-rule="nonzero"/><g clip-path="url(#id4)"><path fill="#3c3c3c" d="M 87.257812 43.148438 C 87.253906 43.15625 88.152344 45.683594 84.746094 45.347656 C 84.746094 45.359375 83.796875 42.800781 87.257812 43.148438 " fill-opacity="1" fill-rule="nonzero"/></g><path fill="#3c3c3c" d="M 86.550781 38.542969 C 86.546875 38.5625 87 41.917969 82.359375 40.675781 C 82.351562 40.695312 81.828125 37.214844 86.550781 38.542969 " fill-opacity="1" fill-rule="nonzero"/><path fill="#3c3c3c" d="M 74.980469 51.105469 C 74.984375 51.101562 72.710938 51.035156 72.832031 48.738281 C 72.835938 48.730469 75.058594 48.761719 74.980469 51.105469 " fill-opacity="1" fill-rule="nonzero"/><path fill="#3c3c3c" d="M 78.679688 50.363281 C 78.679688 50.359375 76.371094 50.777344 75.820312 48.46875 C 75.820312 48.464844 78.066406 48.015625 78.679688 50.363281 " fill-opacity="1" fill-rule="nonzero"/><path fill="#3c3c3c" d="M 81.535156 49.941406 C 81.535156 49.9375 79.234375 50.308594 78.6875 48.011719 C 78.6875 48.003906 80.925781 47.605469 81.535156 49.941406 " fill-opacity="1" fill-rule="nonzero"/><path fill="#3c3c3c" d="M 84.550781 48.554688 C 84.550781 48.546875 82.609375 49.609375 81.117188 47.65625 C 81.117188 47.648438 82.984375 46.558594 84.550781 48.554688 " fill-opacity="1" fill-rule="nonzero"/><path fill="#3c3c3c" d="M 71.832031 58.476562 C 71.832031 58.46875 69.4375 58.839844 69.125 56.507812 C 69.125 56.5 71.457031 56.105469 71.832031 58.476562 " fill-opacity="1" fill-rule="nonzero"/><path fill="#3c3c3c" d="M 69.398438 62.371094 C 69.398438 62.367188 66.929688 62.46875 67.003906 60.140625 C 67.003906 60.140625 69.417969 60.003906 69.398438 62.371094 " fill-opacity="1" fill-rule="nonzero"/><path fill="#3c3c3c" d="M 65.765625 61.648438 C 65.765625 61.644531 63.339844 60.964844 64.375 58.871094 C 64.375 58.871094 66.765625 59.503906 65.765625 61.648438 " fill-opacity="1" fill-rule="nonzero"/><path fill="#3c3c3c" d="M 62.640625 60.347656 C 62.640625 60.351562 60.570312 58.988281 62.394531 57.382812 C 62.394531 57.382812 64.460938 58.679688 62.640625 60.347656 " fill-opacity="1" fill-rule="nonzero"/><path fill="#3c3c3c" d="M 59.464844 58.921875 C 59.464844 58.925781 58.335938 56.875 60.882812 56.308594 C 60.882812 56.3125 62.042969 58.28125 59.464844 58.921875 " fill-opacity="1" fill-rule="nonzero"/><path fill="#3c3c3c" d="M 69.027344 58.191406 C 69.027344 58.183594 66.628906 58.585938 66.316406 56.242188 C 66.316406 56.238281 68.652344 55.804688 69.027344 58.191406 " fill-opacity="1" fill-rule="nonzero"/><path fill="#3c3c3c" d="M 74.792969 58.105469 C 74.792969 58.097656 72.40625 58.429688 72.09375 56.109375 C 72.09375 56.105469 74.421875 55.746094 74.792969 58.105469 " fill-opacity="1" fill-rule="nonzero"/><path fill="#3c3c3c" d="M 78.027344 56.75 C 78.027344 56.746094 75.921875 57.785156 74.609375 55.796875 C 74.609375 55.792969 76.640625 54.726562 78.027344 56.75 " fill-opacity="1" fill-rule="nonzero"/><path fill="#3c3c3c" d="M 86.535156 47.148438 C 86.535156 47.144531 85.09375 48.09375 83.726562 46.617188 C 83.726562 46.613281 85.109375 45.640625 86.535156 47.148438 " fill-opacity="1" fill-rule="nonzero"/><path fill="#3c3c3c" d="M 3.453125 45.117188 C 3.453125 45.109375 5.785156 47.59375 9.777344 44.613281 C 9.78125 44.609375 7.554688 41.980469 3.453125 45.117188 " fill-opacity="1" fill-rule="nonzero"/><path fill="#3c3c3c" d="M 10.289062 53.277344 C 10.289062 53.273438 12.226562 55.628906 15.695312 53.3125 C 15.699219 53.3125 13.871094 50.875 10.289062 53.277344 " fill-opacity="1" fill-rule="nonzero"/><path fill="#3c3c3c" d="M 14.460938 57.742188 C 14.460938 57.734375 16.675781 59.8125 19.71875 57.347656 C 19.71875 57.34375 17.613281 55.199219 14.460938 57.742188 " fill-opacity="1" fill-rule="nonzero"/><path fill="#3c3c3c" d="M 12.878906 49.476562 C 12.878906 49.46875 15.699219 49.609375 16.433594 46.730469 C 16.433594 46.722656 13.6875 46.53125 12.878906 49.476562 " fill-opacity="1" fill-rule="nonzero"/><path fill="#3c3c3c" d="M 20.878906 49.664062 C 20.875 49.660156 23.667969 48.652344 22.785156 45.953125 C 22.785156 45.949219 20.035156 46.898438 20.878906 49.664062 " fill-opacity="1" fill-rule="nonzero"/><path fill="#3c3c3c" d="M 16.835938 50.273438 C 16.835938 50.265625 20.085938 49.792969 19.578125 46.707031 C 19.574219 46.699219 16.390625 47.125 16.835938 50.273438 " fill-opacity="1" fill-rule="nonzero"/><path fill="#3c3c3c" d="M 9.808594 47.992188 C 9.808594 47.984375 11.957031 48.929688 13.671875 46.574219 C 13.671875 46.566406 11.605469 45.574219 9.808594 47.992188 " fill-opacity="1" fill-rule="nonzero"/><path fill="#3c3c3c" d="M 7.851562 46.804688 C 7.851562 46.800781 9.4375 47.695312 11.003906 45.886719 C 11.003906 45.882812 9.480469 44.953125 7.851562 46.804688 " fill-opacity="1" fill-rule="nonzero"/><path fill="#3c3c3c" d="M 18.148438 59.429688 C 18.148438 59.425781 19.75 60.484375 21.328125 58.769531 C 21.328125 58.765625 19.796875 57.679688 18.148438 59.429688 " fill-opacity="1" fill-rule="nonzero"/><path fill="#3c3c3c" d="M 28.34375 60.214844 C 28.34375 60.214844 30.976562 58.949219 29.597656 56.371094 C 29.597656 56.367188 26.996094 57.5625 28.34375 60.214844 " fill-opacity="1" fill-rule="nonzero"/><path fill="#3c3c3c" d="M 32.445312 58.910156 C 32.445312 58.910156 34.96875 56.9375 32.367188 54.800781 C 32.363281 54.804688 29.84375 56.6875 32.445312 58.910156 " fill-opacity="1" fill-rule="nonzero"/><path fill="#3c3c3c" d="M 24.488281 60.542969 C 24.488281 60.539062 27.128906 60.238281 27.007812 57.601562 C 27.007812 57.597656 24.425781 57.847656 24.488281 60.542969 " fill-opacity="1" fill-rule="nonzero"/><path fill="#3c3c3c" d="M 21.824219 60.574219 C 21.824219 60.570312 23.941406 60.496094 24.085938 58.371094 C 24.085938 58.371094 22.019531 58.402344 21.824219 60.574219 " fill-opacity="1" fill-rule="nonzero"/></svg>